<?xml version="1.0" standalone="no"?>
<!DOCTYPE svg PUBLIC "-//W3C//DTD SVG 1.1//EN" "http://www.w3.org/Graphics/SVG/1.1/DTD/svg11.dtd" >
<svg xmlns="http://www.w3.org/2000/svg" xmlns:xlink="http://www.w3.org/1999/xlink" version="1.1">
<metadata>
Created by FontForge 20190801 at Mon Aug  6 16:02:54 2018
 By www-data
Copyright (c) 2018 by Alexander Slobzheninov. All rights reserved.
</metadata>
<defs>
<font id="AgrandirE2ExtraWideLight" horiz-adv-x="830" >
  <font-face 
    font-family="AgrandirE2ExtraWideLight"
    font-weight="304"
    font-stretch="extra-expanded"
    units-per-em="1000"
    panose-1="0 0 0 0 0 0 0 0 0 0"
    ascent="800"
    descent="-200"
    x-height="503"
    cap-height="703"
    bbox="-241 -255 1489 1012"
    underline-thickness="50"
    underline-position="-125"
    unicode-range="U+000D-F6C3"
  />
<missing-glyph horiz-adv-x="0" 
 />
    <glyph glyph-name=".notdef" horiz-adv-x="0" 
 />
    <glyph glyph-name=".null" horiz-adv-x="0" 
 />
    <glyph glyph-name="nonmarkingreturn" horiz-adv-x="333" 
 />
    <glyph glyph-name="NULL" horiz-adv-x="957" 
d="M115 0v703h727v-703h-727zM791 659h-625v-616h625v616z" />
    <glyph glyph-name="NULL" horiz-adv-x="957" 
d="M115 0v703h727v-703h-727zM791 659h-625v-616h625v616z" />
    <glyph glyph-name="CR" unicode="&#xd;" horiz-adv-x="60" 
 />
    <glyph glyph-name="space" unicode=" " horiz-adv-x="450" 
 />
    <glyph glyph-name="exclam" unicode="!" horiz-adv-x="246" 
d="M79 33q0 19 12.5 31t31.5 12t31.5 -12t12.5 -31t-12.5 -31.5t-31.5 -12.5t-31.5 12.5t-12.5 31.5zM103 197l-9 323v183h59v-183l-10 -323h-40z" />
    <glyph glyph-name="quotedbl" unicode="&#x22;" horiz-adv-x="315" 
d="M66 392v310h35v-310h-35zM215 392v310h34v-310h-34z" />
    <glyph glyph-name="numbersign" unicode="#" horiz-adv-x="976" 
d="M405 480l-54 -202h205l53 202h-204zM654 514h255l1 -34h-265l-54 -202h269l-1 -34h-277l-67 -254l-34 8l66 246h-205l-68 -254l-34 9l66 245h-240l1 34h249l54 202h-253l-1 34h263l60 222l33 -8l-57 -214h203l59 222l33 -9z" />
    <glyph glyph-name="dollar" unicode="$" horiz-adv-x="927" 
d="M490 332l-4 1v-304h23q119 0 197.5 44.5t78.5 110.5q0 24 -10.5 43t-33 33.5t-46.5 25t-62.5 19.5t-67.5 14.5t-75 12.5zM451 397v276q-1 0 -5 0.5t-5 0.5q-102 -1 -170.5 -43t-68.5 -103q0 -21 8.5 -38t27.5 -30t38 -22t52 -17t57.5 -12.5t65.5 -11.5zM507 -25h-21v-105
h-35v107q-137 12 -237.5 77t-130.5 160l49 30q22 -83 110 -141.5t209 -70.5v306q-59 9 -95.5 16.5t-81.5 22.5t-70.5 33t-43 47t-17.5 67q0 90 84.5 147t212.5 57q7 0 11 -1v93h35v-95q100 -9 179 -53t113 -108l-47 -33q-29 55 -95 93t-150 47v-279l6 -1q55 -9 88 -15.5
t80 -18.5t75 -26t55.5 -34t40.5 -47.5t13 -61.5q0 -94 -94.5 -153.5t-242.5 -59.5z" />
    <glyph glyph-name="percent" unicode="%" horiz-adv-x="1040" 
d="M255 9l508 734l28 -19l-508 -734zM267 738q86 0 142.5 -56.5t56.5 -143.5t-56.5 -143.5t-142.5 -56.5q-87 0 -144 56.5t-57 143.5t57 143.5t144 56.5zM268 687q-66 0 -108 -42t-42 -107q0 -64 42.5 -106t107.5 -42q64 0 105.5 42t41.5 106q0 65 -41.5 107t-105.5 42z
M775 388q86 0 142.5 -56.5t56.5 -143.5t-56 -143.5t-143 -56.5t-143.5 56.5t-56.5 143.5t56.5 143.5t143.5 56.5zM776 337q-66 0 -108 -42t-42 -107q0 -64 42.5 -106t107.5 -42q64 0 105.5 42t41.5 106q0 65 -41.5 107t-105.5 42z" />
    <glyph glyph-name="ampersand" unicode="&#x26;" horiz-adv-x="1005" 
d="M393 29q150 0 266 83l-363 229q-155 -48 -155 -151q0 -74 70.5 -117.5t181.5 -43.5zM748 115l183 -116h-93l-131 82q-137 -107 -315 -107q-136 0 -222.5 59t-86.5 155q0 123 164 186q-91 63 -91 151q0 86 73.5 139.5t188.5 53.5q97 0 170 -37t99 -97l-53 -23
q-19 47 -77 75t-136 28q-92 0 -150 -39t-58 -104q0 -40 26 -70t85 -67l378 -239q81 76 127 193l48 -27q-45 -115 -129 -196z" />
    <glyph glyph-name="quotesingle" unicode="'" horiz-adv-x="167" 
d="M66 392v311h35v-311h-35z" />
    <glyph glyph-name="parenleft" unicode="(" horiz-adv-x="277" 
d="M75 276q-1 132 43.5 263t115.5 205l26 -22q-68 -78 -109.5 -201t-41.5 -247q0 -122 41.5 -243.5t109.5 -197.5l-26 -23q-70 73 -114.5 203.5t-44.5 262.5z" />
    <glyph glyph-name="parenright" unicode=")" horiz-adv-x="277" 
d="M202 276q0 -132 -44.5 -262t-114.5 -204l-26 23q67 76 108.5 197t42.5 244q0 124 -42 247t-110 201l27 22q70 -74 114.5 -204.5t44.5 -263.5z" />
    <glyph glyph-name="asterisk" unicode="*" horiz-adv-x="527" 
d="M281 414v-149h-35v149q0 25 -17 25q-6 0 -16 -5l-130 -75l-17 30l130 74q15 9 15 19.5t-15 19.5l-130 75l17 29l130 -74q9 -6 16 -6q17 0 17 25v149h35v-149q0 -25 16 -25q8 0 17 6l129 74l18 -29l-130 -75q-32 -20 0 -39l130 -74l-18 -30l-129 75q-10 5 -17 5
q-16 0 -16 -25z" />
    <glyph glyph-name="plus" unicode="+" horiz-adv-x="802" 
d="M373 345h-307v48h307v187h56v-187h307v-48h-307v-205h-56v205z" />
    <glyph glyph-name="comma" unicode="," horiz-adv-x="248" 
d="M89 33q1 19 13 31t31 12q22 0 35.5 -21t13.5 -60q0 -52 -24 -82.5t-63 -30.5q-14 0 -29 3l8 29q12 -2 17 -2q28 0 44 22.5t14 58.5q-9 -3 -17 -3q-18 0 -30.5 12.5t-12.5 30.5z" />
    <glyph glyph-name="hyphen" unicode="-" horiz-adv-x="737" 
d="M66 288v52h605v-52h-605z" />
    <glyph glyph-name="period" unicode="." horiz-adv-x="221" 
d="M66 33q0 19 12.5 31t31.5 12q20 0 32.5 -12t12.5 -31t-12.5 -31.5t-32.5 -12.5q-19 0 -31.5 12.5t-12.5 31.5z" />
    <glyph glyph-name="slash" unicode="/" horiz-adv-x="557" 
d="M16 -224l494 937l30 -16l-494 -937z" />
    <glyph glyph-name="zero" unicode="0" horiz-adv-x="931" 
d="M465 -25q-172 0 -281 106t-109 270q0 165 109 271t281 106t281.5 -106t109.5 -271q0 -164 -109.5 -270t-281.5 -106zM466 678q-147 0 -239.5 -92t-92.5 -235t92.5 -234.5t239.5 -91.5q146 0 238.5 92t92.5 234q0 143 -92.5 235t-238.5 92z" />
    <glyph glyph-name="one" unicode="1" horiz-adv-x="724" 
d="M72 0v54h309v483h-272v50h241q28 0 31 27l3 89h55v-649h249v-54h-616z" />
    <glyph glyph-name="two" unicode="2" horiz-adv-x="802" 
d="M662 504q0 71 -67.5 120.5t-168.5 49.5q-89 0 -163.5 -40.5t-114.5 -112.5l-42 38q45 76 132 122.5t191 46.5q126 0 209 -65.5t83 -161.5q0 -56 -32 -94.5t-83 -58.5t-112.5 -34t-123.5 -27t-113 -31.5t-83 -53.5t-32 -86v-62h601v-54h-660v120q0 63 32 107t83 66.5
t112.5 37.5t123.5 26.5t113 27t83 45t32 74.5z" />
    <glyph glyph-name="three" unicode="3" 
d="M431 418q27 3 53 3q121 0 201 -61t80 -154q0 -101 -95 -166t-239 -65q-143 0 -241 64.5t-116 167.5l53 20q11 -89 94 -144t209 -55q121 0 199 50t78 128q0 74 -69 119.5t-169 45.5q-61 0 -88 -17l-30 66l313 229h-521v54h550v-97z" />
    <glyph glyph-name="four" unicode="4" horiz-adv-x="810" 
d="M571 672l-438 -444h438v444zM523 703h107v-475h105l1 -54h-106v-174h-59v174h-532v38z" />
    <glyph glyph-name="five" unicode="5" horiz-adv-x="859" 
d="M777 212q0 -104 -94.5 -170.5t-239.5 -66.5q-146 0 -244.5 71.5t-110.5 177.5l54 15q8 -89 91 -149.5t210 -60.5q119 0 197.5 51t78.5 129q0 170 -274 170h-268l27 324h491v-54h-442l-18 -216h212q168 0 249 -58.5t81 -162.5z" />
    <glyph glyph-name="six" unicode="6" horiz-adv-x="832" 
d="M422 380q-129 0 -213 -49.5t-84 -125.5q0 -77 84 -126.5t214 -49.5q124 0 204 50.5t80 127.5q0 75 -80.5 124t-204.5 49zM66 217q0 87 79 177l263 309h76l-297 -342q37 31 104.5 51t144.5 20q143 0 236.5 -63.5t93.5 -161.5q0 -101 -97.5 -166.5t-247.5 -65.5
q-155 0 -255 68t-100 174z" />
    <glyph glyph-name="seven" unicode="7" horiz-adv-x="726" 
d="M694 606l-381 -606h-69l411 649h-634v54h673v-97z" />
    <glyph glyph-name="eight" unicode="8" horiz-adv-x="876" 
d="M438 347q-130 0 -215 -45t-85 -114q0 -70 84.5 -114.5t215.5 -44.5t215.5 44.5t84.5 113.5q0 70 -85 115t-215 45zM438 674q-114 0 -187.5 -38t-73.5 -98q0 -59 74 -98t187 -39t186.5 39t73.5 98q0 60 -73 98t-187 38zM438 728q140 0 230 -52t90 -133q0 -58 -48 -104
t-124 -61q95 -17 155 -70t60 -123q0 -93 -102 -151t-261 -58t-261 58.5t-102 150.5q0 70 61.5 123.5t159.5 69.5q-79 15 -129 61.5t-50 105.5q0 80 90.5 131.5t230.5 51.5z" />
    <glyph glyph-name="nine" unicode="9" horiz-adv-x="832" 
d="M411 323q129 0 212.5 49.5t83.5 125.5q0 77 -83.5 126.5t-214.5 49.5q-124 0 -204 -50.5t-80 -127.5q0 -75 81 -124t205 -49zM766 486q0 -87 -79 -177l-262 -309h-77l297 341q-37 -30 -104.5 -50t-144.5 -20q-142 0 -236 63.5t-94 161.5q0 101 97.5 166.5t248.5 65.5
q154 0 254 -68t100 -174z" />
    <glyph glyph-name="colon" unicode=":" horiz-adv-x="221" 
d="M66 33q0 19 12.5 31t31.5 12q20 0 32.5 -12t12.5 -31t-12.5 -31.5t-32.5 -12.5q-19 0 -31.5 12.5t-12.5 31.5zM66 446q0 19 12.5 31.5t31.5 12.5t32 -12.5t13 -31.5t-12.5 -31.5t-32.5 -12.5q-19 0 -31.5 12.5t-12.5 31.5z" />
    <glyph glyph-name="semicolon" unicode=";" horiz-adv-x="215" 
d="M72 33q1 19 13 31t31 12q49 0 49 -81q0 -52 -24 -82.5t-63 -30.5q-14 0 -29 3l8 29q12 -2 17 -2q28 0 44.5 22.5t13.5 58.5q-9 -3 -17 -3q-18 0 -30.5 12.5t-12.5 30.5zM66 446q0 19 12.5 31.5t31.5 12.5t32 -12.5t13 -31.5t-12.5 -31.5t-32.5 -12.5q-19 0 -31.5 12.5
t-12.5 31.5z" />
    <glyph glyph-name="less" unicode="&#x3c;" horiz-adv-x="653" 
d="M16 297v88l555 200l17 -48l-551 -196l551 -196l-17 -48z" />
    <glyph glyph-name="equal" unicode="=" horiz-adv-x="802" 
d="M736 184h-670v52h670v-52zM736 435h-670v52h670v-52z" />
    <glyph glyph-name="greater" unicode="&#x3e;" horiz-adv-x="653" 
d="M638 385v-88l-556 -200l-16 48l551 196l-551 196l16 48z" />
    <glyph glyph-name="question" unicode="?" horiz-adv-x="793" 
d="M331 32q0 19 12.5 31.5t31.5 12.5t31.5 -12t12.5 -31q0 -20 -12.5 -32.5t-31.5 -12.5t-31.5 12t-12.5 32zM347 170q0 78 38 122t126 83q37 17 56.5 27t44.5 28t36 38.5t11 46.5q0 67 -73.5 113t-181.5 46t-182 -47t-98 -126l-49 28q28 88 117.5 143.5t215.5 55.5
q134 0 222 -61t88 -152q0 -35 -13.5 -63t-43 -51t-56.5 -38t-74 -36q-72 -33 -100 -64.5t-28 -92.5h-56z" />
    <glyph glyph-name="at" unicode="@" horiz-adv-x="1230" 
d="M579 44q124 0 206.5 45t82.5 121v60l-338 -29q-81 -7 -134.5 -35.5t-53.5 -64.5q0 -42 66.5 -69.5t170.5 -27.5zM865 350q0 53 -79.5 85t-199.5 32q-202 0 -329 -86t-128 -213q0 -129 129 -209t324 -79q229 0 374 108.5t145 276.5q0 167 -142 274.5t-368 107.5
q-112 -1 -226.5 -28t-185.5 -75l-26 44q80 51 200.5 79.5t238.5 28.5q247 0 405 -122t159 -310q0 -189 -161 -311.5t-411 -122.5q-219 0 -364 94t-145 245q0 149 140 249t363 100q151 0 248 -48t97 -136v-321h-55v96q-33 -54 -111 -85t-180 -31q-128 0 -209 40t-81 106
q0 57 66 98.5t181 51.5l291 26q40 3 40 35z" />
    <glyph glyph-name="A" unicode="A" horiz-adv-x="873" 
d="M437 682l-232 -452h463zM785 0l-90 177h-517l-90 -177h-63l358 703h107l358 -703h-63z" />
    <glyph glyph-name="B" unicode="B" horiz-adv-x="925" 
d="M596 339h-422v-286h422q89 0 147 40.5t58 102.5q0 66 -55 104.5t-150 38.5zM604 650h-430v-259h431q78 0 127 35.5t49 93.5q0 57 -50 93.5t-127 36.5zM716 365q64 -14 104 -61t40 -110q0 -84 -73.5 -139t-186.5 -55h-485v703h493q101 0 166.5 -52t65.5 -132
q0 -56 -34.5 -98.5t-89.5 -55.5z" />
    <glyph glyph-name="C" unicode="C" horiz-adv-x="1055" 
d="M931 257l55 -18q-42 -116 -167.5 -190t-281.5 -74q-196 0 -329 107t-133 269q0 164 120 270.5t304 106.5q140 0 251.5 -65.5t152.5 -169.5l-53 -22q-33 90 -130 146.5t-220 56.5q-159 0 -262.5 -91t-103.5 -232q0 -139 116.5 -231t287.5 -92q137 0 247 64.5t146 164.5z
" />
    <glyph glyph-name="D" unicode="D" horiz-adv-x="994" 
d="M920 351q0 -158 -112.5 -254.5t-297.5 -96.5h-395v703h395q184 0 297 -97t113 -255zM510 649h-336v-596h336q158 0 254.5 81.5t96.5 216.5t-96.5 216.5t-254.5 81.5z" />
    <glyph glyph-name="E" unicode="E" horiz-adv-x="870" 
d="M801 0h-686v703h676v-54h-618v-258h578v-53h-578v-285h628v-53z" />
    <glyph glyph-name="F" unicode="F" horiz-adv-x="803" 
d="M174 0h-59v703h633l1 -54h-575v-268h515v-53h-515v-328z" />
    <glyph glyph-name="G" unicode="G" horiz-adv-x="1093" 
d="M959 333h-628v52h686q11 -179 -118.5 -294.5t-344.5 -115.5q-208 0 -343.5 106t-135.5 270t126.5 270.5t322.5 106.5q135 0 245 -61t139 -154l-55 -16q-26 77 -119.5 127t-208.5 50q-171 1 -281 -90t-110 -233q0 -140 118.5 -231.5t301.5 -91.5q173 0 289 86.5t116 218.5
z" />
    <glyph glyph-name="H" unicode="H" horiz-adv-x="964" 
d="M849 703v-703h-59v341h-617v-341h-59v703h59v-309h617v309h59z" />
    <glyph glyph-name="I" unicode="I" horiz-adv-x="289" 
d="M115 0v703h59v-703h-59z" />
    <glyph glyph-name="J" unicode="J" horiz-adv-x="648" 
d="M482 239v464h59v-468q0 -111 -67.5 -183t-172.5 -72q-96 0 -172 59.5t-94 149.5l52 22q13 -77 73.5 -127.5t137.5 -50.5q81 0 132.5 58t51.5 148z" />
    <glyph glyph-name="K" unicode="K" horiz-adv-x="804" 
d="M678 0l-504 351v-351h-59v703h59v-319l493 319h103l-523 -336l531 -367h-100z" />
    <glyph glyph-name="L" unicode="L" horiz-adv-x="696" 
d="M115 703h59v-650h478v-53h-537v703z" />
    <glyph glyph-name="M" unicode="M" horiz-adv-x="1165" 
d="M1050 703v-703h-59v674l-360 -674h-98l-359 673v-673h-59v703h110l357 -670l357 670h111z" />
    <glyph glyph-name="N" unicode="N" horiz-adv-x="966" 
d="M792 703h59v-703h-112l-565 676v-676h-59v703h112l565 -676v676z" />
    <glyph glyph-name="O" unicode="O" horiz-adv-x="1100" 
d="M75 351q0 164 133.5 270.5t341.5 106.5t341.5 -106.5t133.5 -270.5t-133.5 -270t-341.5 -106t-341.5 106t-133.5 270zM134 351q0 -140 117.5 -231t298.5 -91t298.5 91t117.5 231q0 141 -117 232t-299 91t-299 -91t-117 -232z" />
    <glyph glyph-name="P" unicode="P" horiz-adv-x="918" 
d="M609 649h-435v-319h435q80 0 132.5 45t52.5 114q0 70 -52.5 115t-132.5 45zM615 276h-441v-276h-59v703h500q103 0 170.5 -60.5t67.5 -153.5q0 -92 -67.5 -152.5t-170.5 -60.5z" />
    <glyph glyph-name="Q" unicode="Q" horiz-adv-x="1100" 
d="M134 351q0 -140 117.5 -231t298.5 -91t298.5 91t117.5 231q0 141 -117 232t-299 91t-299 -91t-117 -232zM514 -56v32q-194 10 -316.5 114t-122.5 261q0 164 133.5 270.5t341.5 106.5t341.5 -106.5t133.5 -270.5q0 -159 -126.5 -264t-325.5 -112v-26q0 -61 42 -100
t109 -39q57 0 103.5 29t71.5 76l44 -30q-29 -60 -87.5 -94.5t-131.5 -34.5q-92 0 -151 53t-59 135z" />
    <glyph glyph-name="R" unicode="R" horiz-adv-x="935" 
d="M612 649h-439v-295h439q84 0 138.5 42t54.5 105q0 66 -54 107t-139 41zM659 300h-485v-300h-59v702h501q108 1 178 -55t70 -143q0 -59 -35 -105t-95 -69q47 -11 76 -47t29 -86v-197h-59v189q0 49 -34 80t-87 31z" />
    <glyph glyph-name="S" unicode="S" horiz-adv-x="927" 
d="M507 -25q-157 0 -274 67t-150 172l49 30q25 -93 130.5 -154t246.5 -61q119 0 197.5 44.5t78.5 110.5q0 24 -10.5 43t-33 33.5t-46.5 25t-62.5 19.5t-67.5 14.5t-75 12.5q-170 27 -230 50q-118 45 -117 142q0 90 84.5 147t212.5 57q113 0 206.5 -46t131.5 -118l-47 -33
q-33 63 -113 103t-177 40q-102 -1 -170.5 -43t-68.5 -103q0 -22 9 -39.5t30.5 -30.5t41.5 -22t57.5 -17.5t62 -13t70.5 -11.5q4 -1 6.5 -1t6 -1t6.5 -1q55 -9 88 -15.5t80 -18.5t75 -26t55.5 -33.5t40.5 -47t13 -61.5q0 -94 -94.5 -154t-242.5 -60z" />
    <glyph glyph-name="T" unicode="T" horiz-adv-x="793" 
d="M25 703h743v-54h-342v-649h-59v649h-342v54z" />
    <glyph glyph-name="U" unicode="U" horiz-adv-x="966" 
d="M801 703h59v-374q0 -157 -105 -255.5t-272 -98.5q-166 0 -271 98.5t-105 255.5v374h59v-374q0 -134 88 -217.5t230 -83.5t229.5 83.5t87.5 217.5v374z" />
    <glyph glyph-name="V" unicode="V" horiz-adv-x="868" 
d="M434 25l343 678h66l-357 -703h-104l-357 703h66z" />
    <glyph glyph-name="W" unicode="W" horiz-adv-x="1421" 
d="M982 0l-272 692l-271 -692h-107l-297 703h64l287 -682l267 682h114l268 -682l287 682h64l-297 -703h-107z" />
    <glyph glyph-name="X" unicode="X" horiz-adv-x="847" 
d="M804 703l-326 -332l335 -371h-80l-311 347l-308 -347h-79l331 371l-322 332h81l297 -309l302 309h80z" />
    <glyph glyph-name="Y" unicode="Y" horiz-adv-x="856" 
d="M428 330l302 373h75l-347 -428v-275h-59v275l-348 428h75z" />
    <glyph glyph-name="Z" unicode="Z" horiz-adv-x="832" 
d="M49 703h734v-97l-706 -553h716v-53h-754v96l707 553h-697v54z" />
    <glyph glyph-name="bracketleft" unicode="[" horiz-adv-x="381" 
d="M364 -146v-34h-249v913h249v-35h-215v-844h215z" />
    <glyph glyph-name="backslash" unicode="\" horiz-adv-x="557" 
d="M47 713l493 -937l-29 -16l-495 937z" />
    <glyph glyph-name="bracketright" unicode="]" horiz-adv-x="381" 
d="M17 -180l-1 34h215v844h-215v35h250v-913h-249z" />
    <glyph glyph-name="asciicircum" unicode="^" horiz-adv-x="695" 
d="M400 703l258 -269l-37 -34l-273 283l-274 -283l-36 33l258 270h104z" />
    <glyph glyph-name="underscore" unicode="_" horiz-adv-x="700" 
d="M700 -34h-700v34h700v-34z" />
    <glyph glyph-name="grave" unicode="`" horiz-adv-x="356" 
d="M289 623l-19 -29l-204 136l20 29z" />
    <glyph glyph-name="a" unicode="a" horiz-adv-x="807" 
d="M662 217v44l-347 -27q-89 -7 -147 -36.5t-58 -68.5q0 -43 65.5 -70.5t168.5 -27.5q135 0 224.5 53.5t93.5 132.5zM420 523q127 0 212 -50.5t85 -135.5v-337h-55v116q-36 -61 -121.5 -98.5t-198.5 -37.5q-126 0 -206.5 40.5t-80.5 106.5q0 60 72.5 103.5t190.5 52.5
l310 25q35 4 35 35q0 55 -68.5 91.5t-174.5 36.5q-101 0 -190 -33.5t-122 -85.5l-36 35q39 59 137.5 97.5t210.5 38.5z" />
    <glyph glyph-name="b" unicode="b" horiz-adv-x="891" 
d="M460 33q135 0 222.5 61.5t87.5 156.5t-87.5 156.5t-222.5 61.5t-222.5 -61.5t-87.5 -156.5t87.5 -156.5t222.5 -61.5zM825 251q0 -118 -102.5 -194.5t-259.5 -76.5q-112 0 -196 41t-117 110v-131h-54v733h55v-360q34 68 118 109t195 41q157 0 259 -77t102 -195z" />
    <glyph glyph-name="c" unicode="c" horiz-adv-x="851" 
d="M722 364l-51 -20q-25 56 -99 90.5t-166 34.5q-124 0 -204.5 -61.5t-80.5 -156.5q0 -93 88 -155.5t214 -62.5q111 0 202 49.5t118 125.5l52 -19q-35 -91 -141.5 -150t-235.5 -59q-148 0 -250 77t-102 194q1 119 95.5 195.5t239.5 76.5q110 0 200 -44t121 -115z" />
    <glyph glyph-name="d" unicode="d" horiz-adv-x="891" 
d="M431 34q135 0 222.5 61t87.5 156t-87.5 156.5t-222.5 61.5q-134 0 -222 -62t-88 -156t88 -155.5t222 -61.5zM66 251q0 118 102 195t259 77q111 0 195.5 -41t117.5 -109v360h55v-733h-54v131q-33 -69 -117 -110t-196 -41q-157 0 -259.5 76.5t-102.5 194.5z" />
    <glyph glyph-name="e" unicode="e" horiz-adv-x="872" 
d="M125 283h580q-9 82 -90 134t-199 52t-198.5 -52t-92.5 -134zM762 254v-25h-636q12 -86 103 -141t224 -55q101 0 193.5 32t133.5 81l34 -40q-48 -55 -150.5 -90.5t-215.5 -35.5q-166 0 -274 77.5t-108 196.5q0 117 99 193t254 76q150 0 246.5 -76t96.5 -193z" />
    <glyph glyph-name="f" unicode="f" horiz-adv-x="623" 
d="M265 537v-34h334v-48h-334v-455h-56v455h-186v48h186v41q0 86 56 141.5t145 55.5q67 0 123 -31t79 -80l-48 -24q-17 38 -60 61.5t-94 23.5q-67 0 -106.5 -42.5t-38.5 -111.5z" />
    <glyph glyph-name="g" unicode="g" horiz-adv-x="877" 
d="M424 469q-133 0 -218.5 -62t-85.5 -157q0 -94 86.5 -155.5t217.5 -61.5q133 0 218 61t85 156t-86 157t-217 62zM726 50v77q-36 -67 -117.5 -107t-187.5 -40q-153 0 -254.5 77t-101.5 194q0 118 101 195t254 77q107 0 188.5 -40.5t117.5 -108.5v129h55v-453
q0 -131 -106.5 -215.5t-271.5 -84.5q-134 0 -248 54.5t-155 138.5l46 32q34 -76 135.5 -125t221.5 -49q143 0 233 70t90 179z" />
    <glyph glyph-name="h" unicode="h" 
d="M686 189q0 128 -73.5 205t-191.5 77q-117 0 -193.5 -76t-76.5 -201v-194h-55v732h55v-377q36 78 109 123t167 45q139 0 226.5 -91.5t87.5 -238.5v-193h-55v189z" />
    <glyph glyph-name="i" unicode="i" horiz-adv-x="252" 
d="M99 0v503h55v-503h-55zM82 650q0 20 12 32t32 12t32 -12t12 -32t-12 -32t-32 -12t-32 12t-12 32z" />
    <glyph glyph-name="j" unicode="j" horiz-adv-x="243" 
d="M90 -59v562h55v-568q0 -80 -55.5 -132.5t-138.5 -52.5q-54 0 -108.5 22.5t-83.5 57.5l35 40q22 -30 66.5 -49.5t87.5 -19.5q62 0 102 39.5t40 100.5zM73 650q0 20 12.5 32t31.5 12t31.5 -12t12.5 -32q0 -19 -12.5 -31.5t-31.5 -12.5t-31.5 12.5t-12.5 31.5z" />
    <glyph glyph-name="k" unicode="k" horiz-adv-x="630" 
d="M522 0l-371 246v-246h-55v733h55v-448l360 218h102l-397 -237l406 -266h-100z" />
    <glyph glyph-name="l" unicode="l" horiz-adv-x="247" 
d="M96 0v732h55v-732h-55z" />
    <glyph glyph-name="m" unicode="m" horiz-adv-x="1291" 
d="M922 522q123 0 202 -81.5t79 -210.5l-1 -230h-55v226q0 110 -64 177.5t-165 67.5q-106 0 -174 -68.5t-68 -176.5v-226h-55v226q0 110 -64 177.5t-164 67.5q-105 0 -173 -68.5t-68 -176.5l-1 -226h-55v503h56v-127q32 68 97 107.5t149 39.5q94 0 163 -50t93 -134
q26 83 98.5 133t169.5 50z" />
    <glyph glyph-name="n" unicode="n" 
d="M686 212q0 117 -73 188t-188 71q-120 0 -197 -76t-77 -201v-194h-55v503h56v-147q33 79 104.5 123t170.5 44q142 0 228 -84.5t86 -222.5v-216h-55v212z" />
    <glyph glyph-name="o" unicode="o" horiz-adv-x="862" 
d="M796 251q0 -118 -103 -194.5t-262 -76.5q-160 0 -262.5 76t-102.5 195t102.5 195.5t262.5 76.5q159 0 262 -76.5t103 -195.5zM741 251q0 95 -87.5 156.5t-222.5 61.5t-222.5 -61.5t-87.5 -156.5t87.5 -156.5t222.5 -61.5t222.5 61.5t87.5 156.5z" />
    <glyph glyph-name="p" unicode="p" horiz-adv-x="891" 
d="M460 469q-135 0 -222.5 -61.5t-87.5 -156.5t87.5 -156.5t222.5 -61.5t222.5 61.5t87.5 156.5t-87.5 156.5t-222.5 61.5zM825 251q0 -118 -102 -194.5t-259 -76.5q-111 0 -195 41t-118 109v-360h-55v733h54v-131q33 69 117 110t196 41q158 0 260 -77t102 -195z" />
    <glyph glyph-name="q" unicode="q" horiz-adv-x="891" 
d="M431 469q-135 0 -222.5 -61.5t-87.5 -156.5q0 -94 88 -156t222 -62q135 0 222.5 61.5t87.5 156.5t-87.5 156.5t-222.5 61.5zM66 251q0 118 102.5 195t259.5 77q112 0 196 -41t117 -110v131h54v-733h-55v360q-33 -68 -117.5 -109t-195.5 -41q-157 0 -259 76.5t-102 194.5z
" />
    <glyph glyph-name="r" unicode="r" horiz-adv-x="605" 
d="M513 340q-7 57 -54 94t-111 37q-86 0 -141.5 -68.5t-55.5 -173.5v-229h-55v503h56v-113q27 62 79.5 97.5t120.5 35.5q80 0 140.5 -47t70.5 -119z" />
    <glyph glyph-name="s" unicode="s" horiz-adv-x="746" 
d="M411 -20q-133 0 -230 53.5t-119 137.5l48 23q18 -71 101 -117t198 -46q94 0 157.5 30t63.5 74q0 17 -10 31t-31 23.5t-39.5 16t-52.5 12t-52 7.5l-54 6q-46 4 -75 8t-65.5 11t-58 16t-42 23t-30 34t-9.5 46q1 69 68 111.5t172 42.5q92 0 169.5 -37.5t106.5 -95.5l-45 -29
q-25 49 -89.5 80.5t-141.5 31.5q-80 0 -133 -29t-53 -71q0 -23 17 -39.5t53 -25.5t68 -13.5t84 -9.5q54 -4 93 -9.5t80 -16t66 -25.5t41.5 -38.5t16.5 -54.5q0 -73 -77 -117t-196 -44z" />
    <glyph glyph-name="t" unicode="t" horiz-adv-x="652" 
d="M249 502l335 1v-49h-335v-270q-1 -68 37 -111t100 -43q54 0 100 32.5t62 82.5l48 -24q-20 -61 -80 -101t-131 -40q-83 0 -137.5 56t-54.5 141l1 277h-186v47h168q20 0 22 20l4 117h47v-136z" />
    <glyph glyph-name="u" unicode="u" 
d="M144 291q0 -117 73 -188.5t188 -71.5q119 0 196 76t77 201v195h55v-503h-55v147q-33 -79 -105 -123t-171 -44q-141 0 -227.5 84.5t-86.5 222.5v216h56v-212z" />
    <glyph glyph-name="v" unicode="v" horiz-adv-x="720" 
d="M703 503l-293 -503h-101l-293 503h64l279 -482l281 482h63z" />
    <glyph glyph-name="w" unicode="w" horiz-adv-x="1223" 
d="M1201 503l-244 -503h-101l-244 483l-240 -483h-100l-250 503h62l238 -482l240 482h101l243 -483l235 483h60z" />
    <glyph glyph-name="x" unicode="x" horiz-adv-x="678" 
d="M567 503h79l-257 -241l267 -262h-79l-238 235l-238 -235h-79l267 262l-257 241h79l228 -216z" />
    <glyph glyph-name="y" unicode="y" horiz-adv-x="722" 
d="M644 503h62l-308 -611q-31 -62 -82.5 -96t-116.5 -34q-69 0 -124 32t-79 82l42 34q16 -43 61 -70t98 -27q84 0 124.5 60.5t2.5 123.5l-310 506h65l310 -508z" />
    <glyph glyph-name="z" unicode="z" horiz-adv-x="803" 
d="M88 503h627v-88l-595 -364h605v-51h-647v88l595 363h-585v52z" />
    <glyph glyph-name="braceleft" unicode="{" horiz-adv-x="367" 
d="M350 -180h-88q-48 0 -79 34t-31 86v237q0 33 -17.5 54.5t-45.5 21.5h-14v56h14q28 0 45.5 21.5t17.5 55.5v227q0 52 31 86t79 34h89v-35h-89q-33 0 -54.5 -24t-21.5 -61v-231q0 -40 -21.5 -68.5t-52.5 -31.5l-10 -1l10 -1q31 -2 52.5 -30.5t21.5 -68.5v-241
q0 -37 21.5 -61.5t54.5 -24.5h89z" />
    <glyph glyph-name="bar" unicode="|" horiz-adv-x="264" 
d="M149 -230h-34v963h34v-963z" />
    <glyph glyph-name="braceright" unicode="}" horiz-adv-x="367" 
d="M105 -180h-88l-1 34h89q33 0 54.5 24.5t21.5 61.5v241q0 40 21.5 68.5t52.5 30.5l10 1l-10 1q-31 3 -52.5 31.5t-21.5 68.5v231q0 37 -21.5 61t-54.5 24h-89v35h89q48 0 79 -34t31 -86v-227q0 -34 17.5 -55.5t45.5 -21.5h14v-56h-14q-28 0 -45.5 -21.5t-17.5 -54.5v-237
q0 -52 -31.5 -86t-78.5 -34z" />
    <glyph glyph-name="asciitilde" unicode="~" horiz-adv-x="847" 
d="M239 350q-39 0 -79 -16t-68 -41l-26 37q30 30 82.5 48t103.5 18q46 0 98 -18.5t92 -40t89.5 -40t91.5 -18.5q80 0 132 47l26 -37q-59 -56 -169 -56q-57 0 -123.5 29t-131.5 58.5t-118 29.5z" />
    <glyph glyph-name="exclamdown" unicode="&#xa1;" horiz-adv-x="241" 
d="M141 275l9 -322v-183h-59v183l9 322h41zM162 442q0 -18 -11.5 -30t-30.5 -12q-18 0 -29.5 12t-11.5 30t11.5 30t29.5 12q19 0 30.5 -11.5t11.5 -30.5z" />
    <glyph glyph-name="cent" unicode="&#xa2;" horiz-adv-x="851" 
d="M389 35v434q-117 -5 -192.5 -66t-75.5 -152q0 -87 77 -147.5t191 -68.5zM423 -20v-110h-34v111q-138 8 -230.5 83.5t-92.5 186.5q1 116 91.5 192t231.5 79v118h34v-118q104 -5 186.5 -48t112.5 -110l-51 -20q-24 54 -92.5 87.5t-155.5 37.5v-436q111 1 202 50.5
t118 124.5l52 -19q-34 -90 -139 -148.5t-233 -60.5z" />
    <glyph glyph-name="sterling" unicode="&#xa3;" horiz-adv-x="816" 
d="M233 526v-157h460v-34h-460q-2 -130 -29.5 -194.5t-76.5 -87.5h622v-53h-683v73q52 8 81 66.5t29 195.5h-100v34h100v157q0 89 76 145.5t199 56.5q125 0 207 -59.5t90 -151.5l-54 -9q-5 73 -72.5 119.5t-171.5 46.5q-98 0 -157.5 -41t-59.5 -107z" />
    <glyph glyph-name="currency" unicode="&#xa4;" horiz-adv-x="779" 
d="M390 46q89 0 146.5 57.5t57.5 146.5t-57.5 146.5t-146.5 57.5t-146.5 -57.5t-57.5 -146.5t57.5 -146.5t146.5 -57.5zM595 84l109 -110l-24 -24l-108 109q-72 -69 -182 -69t-182 69l-108 -109l-25 23l110 111q-55 69 -55 166t55 166l-109 110l24 24l108 -109q72 69 182 69
t182 -69l108 109l24 -24l-109 -110q55 -69 55 -166t-55 -166z" />
    <glyph glyph-name="yen" unicode="&#xa5;" horiz-adv-x="912" 
d="M418 276l-357 427h74l322 -389l320 389h75l-356 -427h339v-35h-348v-55h348v-34h-348l-1 -152h-59l1 152h-349v34h349v55h-349v35h339z" />
    <glyph glyph-name="section" unicode="&#xa7;" horiz-adv-x="775" 
d="M564 261q69 29 69 80q0 16 -9 29.5t-28 23t-38 16t-48.5 11.5t-48.5 7.5t-50 5.5q-97 10 -151 24q-42 -13 -66 -36t-24 -51q0 -23 17 -38.5t53 -24.5t68 -13.5t85 -9.5q108 -9 171 -24zM422 31q91 0 154 30t63 76q0 17 -9.5 30t-31.5 22.5t-40.5 16t-53 12t-52 7.5
t-54.5 6q-56 5 -90 10t-75.5 15t-64 23.5t-38 36t-15.5 53.5q2 78 81 117q-46 29 -46 86q0 70 63 112t160 42q86 0 157.5 -37.5t99.5 -94.5l-44 -30q-25 49 -83 80.5t-129 31.5q-72 0 -121 -29.5t-49 -71.5q0 -23 16 -38.5t49.5 -25t62.5 -13.5t79 -9q64 -6 107 -14
t85 -23.5t63 -42t21 -65.5q0 -68 -61 -107q66 -33 66 -97q0 -74 -77 -117t-195 -43q-132 0 -224 54t-114 137l48 23q18 -70 99 -116.5t193 -46.5z" />
    <glyph glyph-name="dieresis" unicode="&#xa8;" horiz-adv-x="535" 
d="M66 651q0 19 12.5 31t31.5 12q20 0 32.5 -12t12.5 -31q0 -20 -12.5 -32t-32.5 -12t-32 12.5t-12 31.5zM381 651q0 19 12.5 31t31.5 12t31.5 -12t12.5 -31t-12.5 -31.5t-31.5 -12.5t-31.5 12.5t-12.5 31.5z" />
    <glyph glyph-name="copyright" unicode="&#xa9;" horiz-adv-x="1122" 
d="M109 355q0 -149 128 -246t325 -97q196 0 323.5 97t127.5 246q0 148 -128 246.5t-323 98.5q-197 0 -325 -98.5t-128 -246.5zM75 356q0 162 138 270t348 108q211 0 348.5 -107t137.5 -271q0 -165 -137 -271.5t-349 -106.5t-349.5 107t-136.5 271zM860 471l-51 -19
q-25 56 -99 90t-166 34q-124 0 -204 -61.5t-80 -156.5q0 -93 87.5 -155t213.5 -62q111 0 202 49t118 125l53 -19q-35 -91 -142 -150t-236 -59q-148 0 -250 77t-101 194q0 119 94.5 195.5t240.5 76.5q109 0 199 -44t121 -115z" />
    <glyph glyph-name="guillemotleft" unicode="&#xab;" horiz-adv-x="702" 
d="M398 16l-21 -26l-311 261l311 262l22 -27l-279 -235zM626 16l-21 -26l-311 261l311 262l22 -27l-279 -235z" />
    <glyph glyph-name="logicalnot" unicode="&#xac;" horiz-adv-x="866" 
d="M66 397v50h724v-277h-51v227h-673z" />
    <glyph glyph-name="registered" unicode="&#xae;" horiz-adv-x="1122" 
d="M109 355q0 -149 128 -246t325 -97q196 0 323.5 97t127.5 246q0 148 -128 246.5t-323 98.5q-197 0 -325 -98.5t-128 -246.5zM677 562h-303v-187h305q53 0 86 25.5t33 67.5t-33.5 68t-87.5 26zM75 356q0 162 138 270t348 108q211 0 348.5 -107t137.5 -271
q0 -165 -137 -271.5t-349 -106.5t-349.5 107t-136.5 271zM776 355q24 -11 39 -32.5t15 -47.5v-166h-55v158q0 25 -16.5 42t-42.5 17h-342v-217h-54v502h373q70 0 115 -40t45 -101q0 -38 -20.5 -68.5t-56.5 -46.5z" />
    <glyph glyph-name="macron" unicode="&#xaf;" horiz-adv-x="598" 
d="M66 640v34h466v-34h-466z" />
    <glyph glyph-name="degree" unicode="&#xb0;" horiz-adv-x="533" 
d="M267 336q-87 0 -144 56.5t-57 142.5q0 87 57 144t144 57t143.5 -56.5t56.5 -144.5q0 -87 -56.5 -143t-143.5 -56zM268 702q-73 0 -120 -47t-47 -120q0 -71 47 -118t120 -47q71 0 117.5 47t46.5 118q0 73 -46.5 120t-117.5 47z" />
    <glyph glyph-name="plusminus" unicode="&#xb1;" horiz-adv-x="791" 
d="M725 150h-658v34h658v-34zM367 409h-301v53h301v126h56v-126h302v-53h-301l-1 -137h-56v137z" />
    <glyph glyph-name="acute" unicode="&#xb4;" horiz-adv-x="356" 
d="M85 594l-19 29l204 136l19 -29z" />
    <glyph glyph-name="paragraph" unicode="&#xb6;" horiz-adv-x="867" 
d="M609 -226h-51v882h-219v-882h-51v558q-100 0 -161 51t-61 134q1 83 62 134.5t160 51.5h474v-47h-153v-882z" />
    <glyph glyph-name="periodcentered" unicode="&#xb7;" horiz-adv-x="221" 
d="M110 242q-19 0 -31.5 12.5t-12.5 31.5t12.5 31.5t31.5 12.5q20 0 32.5 -12.5t12.5 -31.5t-13 -31.5t-32 -12.5z" />
    <glyph glyph-name="cedilla" unicode="&#xb8;" horiz-adv-x="318" 
d="M127 2h35l-7 -63q43 0 70 -25.5t27 -64.5q0 -37 -26.5 -63t-64.5 -26q-29 0 -56 16t-39 41l29 19q7 -18 25 -30t40 -12q25 0 41 15t17 39q0 25 -18.5 41.5t-46.5 16.5h-35z" />
    <glyph glyph-name="guillemotright" unicode="&#xbb;" horiz-adv-x="701" 
d="M97 -10l-22 26l279 235l-280 235l23 27l310 -262zM325 -10l-21 26l278 235l-279 235l22 27l310 -262z" />
    <glyph glyph-name="questiondown" unicode="&#xbf;" horiz-adv-x="792" 
d="M445 302q0 -78 -38 -122t-126 -83q-37 -17 -56.5 -27t-44.5 -28t-36 -38.5t-11 -46.5q0 -67 73.5 -113t181.5 -46t182 47t98 126l49 -28q-28 -88 -117.5 -143t-215.5 -55q-134 0 -222 60.5t-88 151.5q0 35 13.5 63t43 51t56.5 38t74 36q73 33 101 64.5t28 92.5h55z
M462 440q0 -19 -13 -31.5t-32 -12.5t-31.5 12t-12.5 32t12.5 32t31.5 12q20 0 32.5 -12.5t12.5 -31.5z" />
    <glyph glyph-name="Agrave" unicode="&#xc0;" horiz-adv-x="873" 
d="M668 230l-231 452l-232 -452h463zM785 0l-90 177h-517l-90 -177h-63l358 703h107l358 -703h-63zM268 893l19 28l174 -115l-19 -29z" />
    <glyph glyph-name="Aacute" unicode="&#xc1;" horiz-adv-x="873" 
d="M668 230l-231 452l-232 -452h463zM785 0l-90 177h-517l-90 -177h-63l358 703h107l358 -703h-63zM588 921l19 -28l-174 -116l-19 29z" />
    <glyph glyph-name="Acircumflex" unicode="&#xc2;" horiz-adv-x="873" 
d="M668 230l-231 452l-232 -452h463zM785 0l-90 177h-517l-90 -177h-63l358 703h107l358 -703h-63zM436 882l-208 -106l-16 31l199 101h51l201 -101l-16 -31z" />
    <glyph glyph-name="Atilde" unicode="&#xc3;" horiz-adv-x="873" 
d="M668 230l-231 452l-232 -452h463zM785 0l-90 177h-517l-90 -177h-63l358 703h107l358 -703h-63zM654 914h32q0 -58 -38.5 -96t-97.5 -38q-36 0 -68 17t-52 38t-49 38t-61 17q-44 0 -72 -28.5t-28 -71.5h-32q0 58 38 95.5t96 37.5q30 0 56 -11.5t45 -27.5t37.5 -32
t42 -27.5t49.5 -11.5q45 0 73.5 28.5t28.5 72.5z" />
    <glyph glyph-name="Adieresis" unicode="&#xc4;" horiz-adv-x="873" 
d="M668 230l-231 452l-232 -452h463zM785 0l-90 177h-517l-90 -177h-63l358 703h107l358 -703h-63zM282 809q-20 0 -32.5 12t-12.5 31t12.5 31t32.5 12q19 0 31.5 -12t12.5 -31t-12.5 -31t-31.5 -12zM592 809q-19 0 -31.5 12t-12.5 31t12.5 31t31.5 12t31.5 -12t12.5 -31
t-12.5 -31t-31.5 -12z" />
    <glyph glyph-name="Aring" unicode="&#xc5;" horiz-adv-x="873" 
d="M668 230l-231 452l-232 -452h463zM437 932q-25 0 -41 -16t-16 -41t16 -41t41 -16q24 0 40 16t16 41t-15.5 41t-40.5 16zM848 0h-63l-90 177h-517l-90 -177h-63l358 703h107zM437 786q-39 0 -64 25t-26 64q0 39 25.5 64t64.5 25q38 0 63.5 -25t25.5 -64t-25 -64t-64 -25z
" />
    <glyph glyph-name="AE" unicode="&#xc6;" horiz-adv-x="1123" 
d="M535 202v482l-311 -482h311zM1054 0h-519v151h-344l-98 -151h-68l454 703h565v-53l-452 -1v-267h412v-51h-412v-278h462v-53z" />
    <glyph glyph-name="Ccedilla" unicode="&#xc7;" horiz-adv-x="1055" 
d="M510 -94l7 69q-189 6 -315.5 112t-126.5 264q0 164 120 270.5t304 106.5q140 0 251.5 -65.5t152.5 -169.5l-53 -22q-33 90 -130 146.5t-220 56.5q-159 0 -262.5 -91t-103.5 -232q0 -139 116.5 -231t287.5 -92q137 0 247 64.5t146 164.5l55 -18q-41 -113 -162 -186.5
t-273 -77.5l-4 -36q43 0 70 -25.5t27 -65.5q0 -37 -26.5 -62.5t-64.5 -25.5q-29 0 -56.5 16t-38.5 41l29 19q7 -18 25 -30t40 -12q25 0 41 15t17 38q0 26 -18.5 42.5t-46.5 16.5h-35z" />
    <glyph glyph-name="Egrave" unicode="&#xc8;" horiz-adv-x="870" 
d="M801 0h-686v703h676v-54h-618v-258h578v-53h-578v-285h628v-53zM486 806l-20 -29l-174 116l20 28z" />
    <glyph glyph-name="Eacute" unicode="&#xc9;" horiz-adv-x="870" 
d="M801 0h-686v703h676v-54h-618v-258h578v-53h-578v-285h628v-53zM458 777l-19 29l174 115l19 -28z" />
    <glyph glyph-name="Ecircumflex" unicode="&#xca;" horiz-adv-x="870" 
d="M801 0h-686v703h676v-54h-618v-258h578v-53h-578v-285h628v-53zM671 776l-210 106l-209 -106l-15 31l199 101h51l200 -101z" />
    <glyph glyph-name="Edieresis" unicode="&#xcb;" horiz-adv-x="870" 
d="M801 0h-686v703h676v-54h-618v-258h578v-53h-578v-285h628v-53zM306 809q-19 0 -31.5 12t-12.5 31t12.5 31t31.5 12t31.5 -12t12.5 -31t-12.5 -31t-31.5 -12zM617 809q-19 0 -31.5 12t-12.5 31t12.5 31t31.5 12t31.5 -12t12.5 -31t-12.5 -31t-31.5 -12z" />
    <glyph glyph-name="Igrave" unicode="&#xcc;" horiz-adv-x="289" 
d="M115 0v703h59v-703h-59zM169 806l-19 -29l-174 116l19 28z" />
    <glyph glyph-name="Iacute" unicode="&#xcd;" horiz-adv-x="289" 
d="M115 0v703h59v-703h-59zM141 777l-19 29l174 115l19 -28z" />
    <glyph glyph-name="Icircumflex" unicode="&#xce;" horiz-adv-x="289" 
d="M115 0v703h59v-703h-59zM355 776l-211 106l-208 -106l-16 31l199 101h51l201 -101z" />
    <glyph glyph-name="Idieresis" unicode="&#xcf;" horiz-adv-x="289" 
d="M115 0v703h59v-703h-59zM-10 809q-20 0 -32.5 12t-12.5 31t12.5 31t32.5 12q19 0 31.5 -12t12.5 -31t-12.5 -31t-31.5 -12zM300 809q-19 0 -31.5 12t-12.5 31t12.5 31t31.5 12t31.5 -12t12.5 -31t-12.5 -31t-31.5 -12z" />
    <glyph glyph-name="Ntilde" unicode="&#xd1;" horiz-adv-x="966" 
d="M174 0h-59v703h112l565 -676v676h59v-703h-112l-565 676v-676zM706 914h33q0 -58 -38.5 -96t-97.5 -38q-36 0 -68 17t-52 38t-49 38t-61 17q-44 0 -72 -28.5t-28 -71.5h-33q0 58 38 95.5t97 37.5q30 0 56 -11.5t45 -27.5t37.5 -32t42 -27.5t49.5 -11.5q45 0 73 28.5
t28 72.5z" />
    <glyph glyph-name="Ograve" unicode="&#xd2;" horiz-adv-x="1100" 
d="M75 351q0 164 133.5 270.5t341.5 106.5t341.5 -106.5t133.5 -270.5t-133.5 -270t-341.5 -106t-341.5 106t-133.5 270zM134 351q0 -140 117.5 -231t298.5 -91t298.5 91t117.5 231q0 141 -117 232t-299 91t-299 -91t-117 -232zM574 806l-19 -29l-174 116l20 28z" />
    <glyph glyph-name="Oacute" unicode="&#xd3;" horiz-adv-x="1100" 
d="M75 351q0 164 133.5 270.5t341.5 106.5t341.5 -106.5t133.5 -270.5t-133.5 -270t-341.5 -106t-341.5 106t-133.5 270zM134 351q0 -140 117.5 -231t298.5 -91t298.5 91t117.5 231q0 141 -117 232t-299 91t-299 -91t-117 -232zM547 777l-19 29l173 115l20 -28z" />
    <glyph glyph-name="Ocircumflex" unicode="&#xd4;" horiz-adv-x="1100" 
d="M134 351q0 -140 117.5 -231t298.5 -91t298.5 91t117.5 231q0 141 -117 232t-299 91t-299 -91t-117 -232zM75 351q0 164 133.5 270.5t341.5 106.5t341.5 -106.5t133.5 -270.5t-133.5 -270t-341.5 -106t-341.5 106t-133.5 270zM550 882l-209 -106l-16 31l200 101h50
l201 -101l-16 -31z" />
    <glyph glyph-name="Otilde" unicode="&#xd5;" horiz-adv-x="1100" 
d="M134 351q0 -140 117.5 -231t298.5 -91t298.5 91t117.5 231q0 141 -117 232t-299 91t-299 -91t-117 -232zM75 351q0 164 133.5 270.5t341.5 106.5t341.5 -106.5t133.5 -270.5t-133.5 -270t-341.5 -106t-341.5 106t-133.5 270zM767 914h33q0 -58 -38.5 -96t-97.5 -38
q-36 0 -68 17.5t-52 38t-49 38t-61 17.5q-44 0 -72 -29t-28 -72h-33q0 58 38 95.5t96 37.5q37 0 69 -17t51.5 -38t49 -38t61.5 -17q45 0 73 28.5t28 72.5z" />
    <glyph glyph-name="Odieresis" unicode="&#xd6;" horiz-adv-x="1100" 
d="M75 351q0 164 133.5 270.5t341.5 106.5t341.5 -106.5t133.5 -270.5t-133.5 -270t-341.5 -106t-341.5 106t-133.5 270zM134 351q0 -140 117.5 -231t298.5 -91t298.5 91t117.5 231q0 141 -117 232t-299 91t-299 -91t-117 -232zM395 809q-19 0 -31.5 12t-12.5 31t12.5 31
t31.5 12t31.5 -12t12.5 -31t-12.5 -31t-31.5 -12zM706 809q-19 0 -31.5 12t-12.5 31t12.5 31t31.5 12t31.5 -12t12.5 -31t-12.5 -31t-31.5 -12z" />
    <glyph glyph-name="multiply" unicode="&#xd7;" horiz-adv-x="605" 
d="M66 256l184 106l-184 106l32 42l204 -118l205 118l32 -41l-184 -107l184 -106l-32 -42l-205 118l-205 -118z" />
    <glyph glyph-name="Oslash" unicode="&#xd8;" horiz-adv-x="1100" 
d="M379 54l317 602q-67 18 -146 18q-182 0 -299 -91t-117 -232q0 -103 66 -182t179 -115zM729 646l-317 -601q63 -16 138 -16q181 0 298.5 91t117.5 231q0 102 -64 180t-173 115zM386 -5l-68 -129l-30 16l65 123q-128 42 -203 134t-75 212q0 164 133.5 270.5t341.5 106.5
q91 0 172 -23l60 114l30 -16l-57 -108q125 -43 197.5 -134t72.5 -210q0 -164 -133.5 -270t-341.5 -106q-87 0 -164 20z" />
    <glyph glyph-name="Ugrave" unicode="&#xd9;" horiz-adv-x="966" 
d="M801 703h59v-374q0 -157 -105 -255.5t-272 -98.5q-166 0 -271 98.5t-105 255.5v374h59v-374q0 -134 88 -217.5t230 -83.5t229.5 83.5t87.5 217.5v374zM508 806l-19 -29l-174 116l19 28z" />
    <glyph glyph-name="Uacute" unicode="&#xda;" horiz-adv-x="966" 
d="M801 703h59v-374q0 -157 -105 -255.5t-272 -98.5q-166 0 -271 98.5t-105 255.5v374h59v-374q0 -134 88 -217.5t230 -83.5t229.5 83.5t87.5 217.5v374zM480 777l-19 29l174 115l19 -28z" />
    <glyph glyph-name="Ucircumflex" unicode="&#xdb;" horiz-adv-x="966" 
d="M801 703h59v-374q0 -157 -105 -255.5t-272 -98.5q-166 0 -271 98.5t-105 255.5v374h59v-374q0 -134 88 -217.5t230 -83.5t229.5 83.5t87.5 217.5v374zM693 776l-210 106l-209 -106l-15 31l199 101h51l201 -101z" />
    <glyph glyph-name="Udieresis" unicode="&#xdc;" horiz-adv-x="966" 
d="M801 703h59v-374q0 -157 -105 -255.5t-272 -98.5q-166 0 -271 98.5t-105 255.5v374h59v-374q0 -134 88 -217.5t230 -83.5t229.5 83.5t87.5 217.5v374zM329 809q-20 0 -32.5 12t-12.5 31t12.5 31t32.5 12q19 0 31.5 -12t12.5 -31t-12.5 -31t-31.5 -12zM639 809
q-19 0 -31.5 12t-12.5 31t12.5 31t31.5 12t31.5 -12t12.5 -31t-12.5 -31t-31.5 -12z" />
    <glyph glyph-name="Yacute" unicode="&#xdd;" horiz-adv-x="856" 
d="M428 330l302 373h75l-347 -428v-275h-59v275l-348 428h75zM425 777l-19 29l174 115l19 -28z" />
    <glyph glyph-name="germandbls" unicode="&#xdf;" horiz-adv-x="876" 
d="M547 34q93 0 149 43t56 111q0 72 -63.5 119t-161.5 47h-226v51h190q86 0 137 33t51 86q0 61 -66.5 101t-167.5 40q-123 0 -202 -57t-79 -145v-463h-59v463q0 111 95.5 183.5t244.5 72.5q126 0 209.5 -54t83.5 -136q1 -50 -31 -89t-85 -53q85 -13 137 -67.5t52 -130.5
q0 -91 -74 -150t-192 -59q-98 0 -181.5 40.5t-117.5 103.5l41 37q29 -55 102.5 -91t157.5 -36z" />
    <glyph glyph-name="agrave" unicode="&#xe0;" horiz-adv-x="807" 
d="M662 217v44l-347 -27q-89 -7 -147 -36.5t-58 -68.5q0 -43 65.5 -70.5t168.5 -27.5q135 0 224.5 53.5t93.5 132.5zM420 523q127 0 212 -50.5t85 -135.5v-337h-55v116q-36 -61 -121.5 -98.5t-198.5 -37.5q-126 0 -206.5 40.5t-80.5 106.5q0 60 72.5 103.5t190.5 52.5
l310 25q35 4 35 35q0 55 -68.5 91.5t-174.5 36.5q-101 0 -190 -33.5t-122 -85.5l-36 35q39 59 137.5 97.5t210.5 38.5zM223 731l19 28l204 -136l-19 -28z" />
    <glyph glyph-name="aacute" unicode="&#xe1;" horiz-adv-x="807" 
d="M662 217v44l-347 -27q-89 -7 -147 -36.5t-58 -68.5q0 -43 65.5 -70.5t168.5 -27.5q135 0 224.5 53.5t93.5 132.5zM420 523q127 0 212 -50.5t85 -135.5v-337h-55v116q-36 -61 -121.5 -98.5t-198.5 -37.5q-126 0 -206.5 40.5t-80.5 106.5q0 60 72.5 103.5t190.5 52.5
l310 25q35 4 35 35q0 55 -68.5 91.5t-174.5 36.5q-101 0 -190 -33.5t-122 -85.5l-36 35q39 59 137.5 97.5t210.5 38.5zM606 759l19 -29l-204 -136l-19 29z" />
    <glyph glyph-name="acircumflex" unicode="&#xe2;" horiz-adv-x="807" 
d="M662 217v44l-347 -27q-89 -7 -147 -36.5t-58 -68.5q0 -43 65.5 -70.5t168.5 -27.5q135 0 224.5 53.5t93.5 132.5zM420 523q127 0 212 -50.5t85 -135.5v-337h-55v116q-36 -61 -121.5 -98.5t-198.5 -37.5q-126 0 -206.5 40.5t-80.5 106.5q0 60 72.5 103.5t190.5 52.5
l310 25q35 4 35 35q0 55 -68.5 91.5t-174.5 36.5q-101 0 -190 -33.5t-122 -85.5l-36 35q39 59 137.5 97.5t210.5 38.5zM421 719l-249 -126l-15 30l239 121h51l241 -120l-17 -31z" />
    <glyph glyph-name="atilde" unicode="&#xe3;" horiz-adv-x="807" 
d="M662 217v44l-347 -27q-89 -7 -147 -36.5t-58 -68.5q0 -43 65.5 -70.5t168.5 -27.5q135 0 224.5 53.5t93.5 132.5zM420 523q127 0 212 -50.5t85 -135.5v-337h-55v116q-36 -61 -121.5 -98.5t-198.5 -37.5q-126 0 -206.5 40.5t-80.5 106.5q0 60 72.5 103.5t190.5 52.5
l310 25q35 4 35 35q0 55 -68.5 91.5t-174.5 36.5q-101 0 -190 -33.5t-122 -85.5l-36 35q39 59 137.5 97.5t210.5 38.5zM638 724h33q0 -58 -39 -96t-97 -38q-36 0 -68 17t-52 38t-49 38t-61 17q-44 0 -72 -28.5t-28 -71.5h-33q0 58 38 95.5t97 37.5q36 0 68 -17t51.5 -38
t48.5 -38t61 -17q45 0 73.5 28.5t28.5 72.5z" />
    <glyph glyph-name="adieresis" unicode="&#xe4;" horiz-adv-x="807" 
d="M662 217v44l-347 -27q-89 -7 -147 -36.5t-58 -68.5q0 -43 65.5 -70.5t168.5 -27.5q135 0 224.5 53.5t93.5 132.5zM420 523q127 0 212 -50.5t85 -135.5v-337h-55v116q-36 -61 -121.5 -98.5t-198.5 -37.5q-126 0 -206.5 40.5t-80.5 106.5q0 60 72.5 103.5t190.5 52.5
l310 25q35 4 35 35q0 55 -68.5 91.5t-174.5 36.5q-101 0 -190 -33.5t-122 -85.5l-36 35q39 59 137.5 97.5t210.5 38.5zM219 651q0 19 12.5 31t31.5 12q20 0 32.5 -12t12.5 -31q0 -20 -12.5 -32t-32.5 -12q-19 0 -31.5 12.5t-12.5 31.5zM534 651q0 19 12.5 31t31.5 12
t31.5 -12t12.5 -31t-12 -31.5t-32 -12.5t-32 12.5t-12 31.5z" />
    <glyph glyph-name="aring" unicode="&#xe5;" horiz-adv-x="807" 
d="M662 217v44l-347 -27q-89 -7 -147 -36.5t-58 -68.5q0 -43 65.5 -70.5t168.5 -27.5q135 0 224.5 53.5t93.5 132.5zM421 742q-25 0 -41 -16t-16 -41t16 -41t41 -16t40.5 16t15.5 41t-15.5 41t-40.5 16zM420 523q127 0 212 -50.5t85 -135.5v-337h-55v116
q-36 -61 -121.5 -98.5t-198.5 -37.5q-126 0 -206.5 40.5t-80.5 106.5q0 60 72.5 103.5t190.5 52.5l310 25q35 4 35 35q0 55 -68.5 91.5t-174.5 36.5q-101 0 -190 -33.5t-122 -85.5l-36 35q39 59 137.5 97.5t210.5 38.5zM421 596q-39 0 -64 25t-26 64q0 39 25.5 64t64.5 25
t64 -25t25 -64t-25 -64t-64 -25z" />
    <glyph glyph-name="ae" unicode="&#xe6;" horiz-adv-x="1408" 
d="M344 31q136 0 224.5 50.5t88.5 128.5v47l-343 -28q-88 -7 -146 -36t-58 -66q0 -42 65.5 -69t168.5 -27zM979 471q-110 0 -184 -54.5t-79 -139.5h529q-2 84 -77.5 139t-188.5 55zM1302 260q0 -21 -1 -33h-584q14 -84 98.5 -139t202.5 -55q89 0 172.5 32t124.5 81l34 -40
q-47 -55 -140 -90.5t-192 -35.5q-112 0 -199.5 46t-123.5 121q-20 -73 -118 -120t-232 -47q-127 0 -208 40.5t-81 105.5q0 59 71 101t192 52l302 24q16 2 26 12t10 27q0 56 -66 92.5t-167 36.5q-98 0 -184.5 -33.5t-119.5 -85.5l-36 35q39 59 137.5 97.5t204.5 38.5
q102 0 176 -37.5t97 -99.5q30 59 109 98t173 39q141 0 231.5 -74.5t90.5 -188.5z" />
    <glyph glyph-name="ccedilla" unicode="&#xe7;" horiz-adv-x="851" 
d="M397 -94l7 74q-143 4 -240.5 80.5t-97.5 190.5q1 119 95.5 195.5t239.5 76.5q110 0 200 -44t121 -115l-51 -20q-25 56 -99 90.5t-166 34.5q-124 0 -204.5 -61.5t-80.5 -156.5q0 -93 88 -155.5t214 -62.5q111 0 202 49.5t118 125.5l52 -19q-34 -87 -133.5 -145.5
t-222.5 -63.5l-5 -41q43 0 70 -25.5t27 -65.5q0 -37 -26.5 -62.5t-64.5 -25.5q-29 0 -56 16t-39 41l29 19q7 -18 25 -30t40 -12q25 0 41 15t17 38q0 26 -18.5 42.5t-46.5 16.5h-35z" />
    <glyph glyph-name="egrave" unicode="&#xe8;" horiz-adv-x="872" 
d="M125 283h580q-9 82 -90 134t-199 52t-198.5 -52t-92.5 -134zM762 254v-25h-636q12 -86 103 -141t224 -55q101 0 193.5 32t133.5 81l34 -40q-48 -55 -150.5 -90.5t-215.5 -35.5q-166 0 -274 77.5t-108 196.5q0 117 99 193t254 76q150 0 246.5 -76t96.5 -193zM220 731
l20 28l203 -136l-19 -28z" />
    <glyph glyph-name="eacute" unicode="&#xe9;" horiz-adv-x="872" 
d="M125 283h580q-9 82 -90 134t-199 52t-198.5 -52t-92.5 -134zM762 254v-25h-636q12 -86 103 -141t224 -55q101 0 193.5 32t133.5 81l34 -40q-48 -55 -150.5 -90.5t-215.5 -35.5q-166 0 -274 77.5t-108 196.5q0 117 99 193t254 76q150 0 246.5 -76t96.5 -193zM603 759
l19 -29l-204 -136l-19 29z" />
    <glyph glyph-name="ecircumflex" unicode="&#xea;" horiz-adv-x="872" 
d="M125 283h580q-9 82 -90 134t-199 52t-198.5 -52t-92.5 -134zM762 254v-25h-636q12 -86 103 -141t224 -55q101 0 193.5 32t133.5 81l34 -40q-48 -55 -150.5 -90.5t-215.5 -35.5q-166 0 -274 77.5t-108 196.5q0 117 99 193t254 76q150 0 246.5 -76t96.5 -193zM418 726
l-248 -126l-16 30l239 121h51l241 -121l-16 -30z" />
    <glyph glyph-name="edieresis" unicode="&#xeb;" horiz-adv-x="872" 
d="M125 283h580q-9 82 -90 134t-199 52t-198.5 -52t-92.5 -134zM762 254v-25h-636q12 -86 103 -141t224 -55q101 0 193.5 32t133.5 81l34 -40q-48 -55 -150.5 -90.5t-215.5 -35.5q-166 0 -274 77.5t-108 196.5q0 117 99 193t254 76q150 0 246.5 -76t96.5 -193zM216 651
q0 19 12.5 31t32.5 12q19 0 31.5 -12t12.5 -31t-12.5 -31.5t-31.5 -12.5q-20 0 -32.5 12t-12.5 32zM531 651q0 19 12.5 31t31.5 12t31.5 -12t12.5 -31t-12.5 -31.5t-31.5 -12.5t-31.5 12.5t-12.5 31.5z" />
    <glyph glyph-name="igrave" unicode="&#xec;" horiz-adv-x="236" 
d="M91 0v503h55v-503h-55zM143 623l-19 -28l-204 136l20 28z" />
    <glyph glyph-name="iacute" unicode="&#xed;" horiz-adv-x="236" 
d="M91 0v503h55v-503h-55zM119 594l-19 29l203 136l20 -29z" />
    <glyph glyph-name="icircumflex" unicode="&#xee;" horiz-adv-x="236" 
d="M91 0v503h55v-503h-55zM369 600l-250 126l-249 -126l-16 30l240 121h50l241 -121z" />
    <glyph glyph-name="idieresis" unicode="&#xef;" horiz-adv-x="236" 
d="M91 0v503h55v-503h-55zM-83 651q0 19 12.5 31t31.5 12t31.5 -12t12.5 -31t-12.5 -31.5t-31.5 -12.5t-31.5 12.5t-12.5 31.5zM231 651q0 19 12.5 31t31.5 12t31.5 -12t12.5 -31t-12.5 -31.5t-31.5 -12.5t-31.5 12.5t-12.5 31.5z" />
    <glyph glyph-name="ntilde" unicode="&#xf1;" 
d="M741 216v-216h-55v212q0 117 -73 188t-188 71q-120 0 -197 -76t-77 -201v-194h-55v503h56v-147q33 79 104.5 123t170.5 44q142 0 228 -84.5t86 -222.5zM644 724h33q0 -58 -39 -96t-98 -38q-30 0 -56 11.5t-45 27.5t-37.5 32t-41.5 27.5t-49 11.5q-44 0 -72 -28.5
t-28 -71.5h-33q0 58 38 95.5t96 37.5q30 0 56 -11.5t45 -27.5t37.5 -32t42 -27.5t49.5 -11.5q45 0 73.5 28.5t28.5 72.5z" />
    <glyph glyph-name="ograve" unicode="&#xf2;" horiz-adv-x="862" 
d="M796 251q0 -118 -103 -194.5t-262 -76.5q-160 0 -262.5 76t-102.5 195t102.5 195.5t262.5 76.5q159 0 262 -76.5t103 -195.5zM741 251q0 95 -87.5 156.5t-222.5 61.5t-222.5 -61.5t-87.5 -156.5t87.5 -156.5t222.5 -61.5t222.5 61.5t87.5 156.5zM456 623l-19 -28
l-204 136l19 28z" />
    <glyph glyph-name="oacute" unicode="&#xf3;" horiz-adv-x="862" 
d="M796 251q0 -118 -103 -194.5t-262 -76.5q-160 0 -262.5 76t-102.5 195t102.5 195.5t262.5 76.5q159 0 262 -76.5t103 -195.5zM741 251q0 95 -87.5 156.5t-222.5 61.5t-222.5 -61.5t-87.5 -156.5t87.5 -156.5t222.5 -61.5t222.5 61.5t87.5 156.5zM431 594l-19 29l204 136
l19 -29z" />
    <glyph glyph-name="ocircumflex" unicode="&#xf4;" horiz-adv-x="862" 
d="M741 251q0 95 -87.5 156.5t-222.5 61.5t-222.5 -61.5t-87.5 -156.5t87.5 -156.5t222.5 -61.5t222.5 61.5t87.5 156.5zM796 251q0 -118 -103 -194.5t-262 -76.5q-160 0 -262.5 76t-102.5 195t102.5 195.5t262.5 76.5q159 0 262 -76.5t103 -195.5zM431 726l-249 -126
l-15 30l239 121h51l240 -121l-16 -30z" />
    <glyph glyph-name="otilde" unicode="&#xf5;" horiz-adv-x="862" 
d="M741 251q0 95 -87.5 156.5t-222.5 61.5t-222.5 -61.5t-87.5 -156.5t87.5 -156.5t222.5 -61.5t222.5 61.5t87.5 156.5zM796 251q0 -118 -103 -194.5t-262 -76.5q-160 0 -262.5 76t-102.5 195t102.5 195.5t262.5 76.5q159 0 262 -76.5t103 -195.5zM648 724h33
q0 -58 -39 -96t-98 -38q-30 0 -56 11.5t-45 27.5t-37.5 32t-41.5 27.5t-49 11.5q-44 0 -72 -28.5t-28 -71.5h-33q0 58 38 95.5t96 37.5q30 0 56 -11.5t45 -27.5t37.5 -32t42 -27.5t49.5 -11.5q45 0 73.5 28.5t28.5 72.5z" />
    <glyph glyph-name="odieresis" unicode="&#xf6;" horiz-adv-x="862" 
d="M796 251q0 -118 -103 -194.5t-262 -76.5q-160 0 -262.5 76t-102.5 195t102.5 195.5t262.5 76.5q159 0 262 -76.5t103 -195.5zM741 251q0 95 -87.5 156.5t-222.5 61.5t-222.5 -61.5t-87.5 -156.5t87.5 -156.5t222.5 -61.5t222.5 61.5t87.5 156.5zM229 651q0 19 12.5 31
t31.5 12t31.5 -12t12.5 -31t-12.5 -31.5t-31.5 -12.5t-31.5 12.5t-12.5 31.5zM544 651q0 19 12.5 31t31.5 12t31.5 -12t12.5 -31t-12 -31.5t-32 -12.5t-32 12.5t-12 31.5z" />
    <glyph glyph-name="divide" unicode="&#xf7;" horiz-adv-x="782" 
d="M716 379v-34h-650v34h650zM391 202q19 0 31.5 -12t12.5 -32t-12.5 -32t-31.5 -12q-20 0 -32.5 12t-12.5 32t12.5 32t32.5 12zM346 552q0 19 12.5 31t32.5 12q19 0 31.5 -12t12.5 -31q0 -20 -12.5 -32t-31.5 -12q-20 0 -32.5 12t-12.5 32z" />
    <glyph glyph-name="oslash" unicode="&#xf8;" horiz-adv-x="862" 
d="M312 48l217 411q-44 10 -98 10q-135 0 -222.5 -61.5t-87.5 -156.5q0 -71 51.5 -125.5t139.5 -77.5zM563 451l-216 -410q42 -8 84 -8q135 0 222.5 61.5t87.5 156.5q0 69 -48 122t-130 78zM321 -9l-122 -231l-30 16l117 223q-101 30 -160.5 97t-59.5 155q0 119 102.5 195.5
t262.5 76.5q65 0 124 -14l108 204l30 -16l-105 -198q96 -31 152 -96.5t56 -151.5q0 -118 -103 -194.5t-262 -76.5q-57 0 -110 11z" />
    <glyph glyph-name="ugrave" unicode="&#xf9;" 
d="M144 503v-212q0 -117 73 -188.5t188 -71.5q119 0 196 76t77 201v195h55v-503h-55v147q-33 -79 -105 -123t-171 -44q-141 0 -227.5 84.5t-86.5 222.5v216h56zM438 623l-19 -28l-204 136l20 28z" />
    <glyph glyph-name="uacute" unicode="&#xfa;" 
d="M144 503v-212q0 -117 73 -188.5t188 -71.5q119 0 196 76t77 201v195h55v-503h-55v147q-33 -79 -105 -123t-171 -44q-141 0 -227.5 84.5t-86.5 222.5v216h56zM414 594l-19 29l203 136l20 -29z" />
    <glyph glyph-name="ucircumflex" unicode="&#xfb;" 
d="M144 503v-212q0 -117 73 -188.5t188 -71.5q119 0 196 76t77 201v195h55v-503h-55v147q-33 -79 -105 -123t-171 -44q-141 0 -227.5 84.5t-86.5 222.5v216h56zM664 600l-250 126l-249 -126l-16 30l240 121h50l241 -121z" />
    <glyph glyph-name="udieresis" unicode="&#xfc;" 
d="M144 503v-212q0 -117 73 -188.5t188 -71.5q119 0 196 76t77 201v195h55v-503h-55v147q-33 -79 -105 -123t-171 -44q-141 0 -227.5 84.5t-86.5 222.5v216h56zM212 651q0 19 12.5 31t31.5 12t31.5 -12t12.5 -31t-12 -31.5t-32 -12.5t-32 12.5t-12 31.5zM526 651
q0 19 12.5 31t31.5 12t31.5 -12t12.5 -31t-12 -31.5t-32 -12.5t-32 12.5t-12 31.5z" />
    <glyph glyph-name="yacute" unicode="&#xfd;" horiz-adv-x="722" 
d="M79 503l310 -508l255 508h62l-308 -611q-31 -62 -82.5 -96t-116.5 -34q-69 0 -124 32t-79 82l42 34q16 -43 61 -70t98 -27q84 0 124.5 60.5t2.5 123.5l-310 506h65zM365 594l-20 29l204 136l20 -29z" />
    <glyph glyph-name="ydieresis" unicode="&#xff;" horiz-adv-x="722" 
d="M79 503l310 -508l255 508h62l-308 -611q-31 -62 -82.5 -96t-116.5 -34q-69 0 -124 32t-79 82l42 34q16 -43 61 -70t98 -27q84 0 124.5 60.5t2.5 123.5l-310 506h65zM162 651q0 19 12.5 31t32.5 12q19 0 31.5 -12t12.5 -31t-12.5 -31.5t-31.5 -12.5q-20 0 -32.5 12.5
t-12.5 31.5zM477 651q0 19 12.5 31t31.5 12t31.5 -12t12.5 -31t-12.5 -31.5t-31.5 -12.5t-31.5 12.5t-12.5 31.5z" />
    <glyph glyph-name="Amacron" unicode="&#x100;" horiz-adv-x="873" 
d="M668 230l-231 452l-232 -452h463zM785 0l-90 177h-517l-90 -177h-63l358 703h107l358 -703h-63zM669 874v-34h-466v34h466z" />
    <glyph glyph-name="amacron" unicode="&#x101;" horiz-adv-x="807" 
d="M662 217v44l-347 -27q-89 -7 -147 -36.5t-58 -68.5q0 -43 65.5 -70.5t168.5 -27.5q135 0 224.5 53.5t93.5 132.5zM420 523q127 0 212 -50.5t85 -135.5v-337h-55v116q-36 -61 -121.5 -98.5t-198.5 -37.5q-126 0 -206.5 40.5t-80.5 106.5q0 60 72.5 103.5t190.5 52.5
l310 25q35 4 35 35q0 55 -68.5 91.5t-174.5 36.5q-101 0 -190 -33.5t-122 -85.5l-36 35q39 59 137.5 97.5t210.5 38.5zM653 674v-34h-465v34h465z" />
    <glyph glyph-name="Abreve" unicode="&#x102;" horiz-adv-x="873" 
d="M668 230l-231 452l-232 -452h463zM785 0l-90 177h-517l-90 -177h-63l358 703h107l358 -703h-63zM436 790q-88 0 -143 33t-55 91h34q0 -43 45 -66.5t119 -23.5t119.5 23.5t45.5 66.5h34q0 -58 -55 -91t-144 -33z" />
    <glyph glyph-name="abreve" unicode="&#x103;" horiz-adv-x="807" 
d="M662 217v44l-347 -27q-89 -7 -147 -36.5t-58 -68.5q0 -43 65.5 -70.5t168.5 -27.5q135 0 224.5 53.5t93.5 132.5zM420 523q127 0 212 -50.5t85 -135.5v-337h-55v116q-36 -61 -121.5 -98.5t-198.5 -37.5q-126 0 -206.5 40.5t-80.5 106.5q0 60 72.5 103.5t190.5 52.5
l310 25q35 4 35 35q0 55 -68.5 91.5t-174.5 36.5q-101 0 -190 -33.5t-122 -85.5l-36 35q39 59 137.5 97.5t210.5 38.5zM420 596q-104 0 -171 42t-67 106h34q0 -49 57.5 -81.5t146.5 -32.5t147 32t58 82h34q0 -65 -67.5 -106.5t-171.5 -41.5z" />
    <glyph glyph-name="Aogonek" unicode="&#x104;" horiz-adv-x="873" 
d="M668 230l-231 452l-232 -452h463zM572 -159q-1 52 54 96t152 77l-83 163h-517l-90 -177h-63l358 703h107l358 -703h-20q-103 -33 -162.5 -73t-58.5 -83q1 -26 22 -42.5t53 -16.5q29 0 57.5 13t44.5 33l22 -27q-19 -23 -54.5 -38t-70.5 -15q-47 0 -77.5 25t-31.5 65z" />
    <glyph glyph-name="aogonek" unicode="&#x105;" horiz-adv-x="807" 
d="M662 217v44l-347 -27q-89 -7 -147 -36.5t-58 -68.5q0 -43 65.5 -70.5t168.5 -27.5q135 0 224.5 53.5t93.5 132.5zM448 -160q-1 53 56 97.5t158 78.5v100q-36 -61 -121.5 -98.5t-198.5 -37.5q-126 0 -206.5 40.5t-80.5 106.5q0 60 72.5 103.5t190.5 52.5l310 25
q35 4 35 35q0 55 -68.5 91.5t-174.5 36.5q-101 0 -190 -33.5t-122 -85.5l-36 35q39 59 137.5 97.5t210.5 38.5q127 0 212 -50.5t85 -135.5v-337h-12q-102 -33 -162 -73.5t-59 -83.5q0 -26 21 -42.5t53 -16.5q28 0 57 13.5t46 33.5l22 -27q-21 -24 -55.5 -39t-70.5 -15
q-46 0 -77 25.5t-32 64.5z" />
    <glyph glyph-name="Cacute" unicode="&#x106;" horiz-adv-x="1055" 
d="M931 257l55 -18q-42 -116 -167.5 -190t-281.5 -74q-196 0 -329 107t-133 269q0 164 120 270.5t304 106.5q140 0 251.5 -65.5t152.5 -169.5l-53 -22q-33 90 -130 146.5t-220 56.5q-159 0 -262.5 -91t-103.5 -232q0 -139 116.5 -231t287.5 -92q137 0 247 64.5t146 164.5z
M650 921l19 -28l-174 -116l-19 29z" />
    <glyph glyph-name="cacute" unicode="&#x107;" horiz-adv-x="851" 
d="M722 364l-51 -20q-25 56 -99 90.5t-166 34.5q-124 0 -204.5 -61.5t-80.5 -156.5q0 -93 88 -155.5t214 -62.5q111 0 202 49.5t118 125.5l52 -19q-35 -91 -141.5 -150t-235.5 -59q-148 0 -250 77t-102 194q1 119 95.5 195.5t239.5 76.5q110 0 200 -44t121 -115zM383 623
l203 136l20 -29l-204 -136z" />
    <glyph glyph-name="Ccircumflex" unicode="&#x108;" horiz-adv-x="1055" 
d="M931 257l55 -18q-42 -116 -167.5 -190t-281.5 -74q-196 0 -329 107t-133 269q0 164 120 270.5t304 106.5q140 0 251.5 -65.5t152.5 -169.5l-53 -22q-33 90 -130 146.5t-220 56.5q-159 0 -262.5 -91t-103.5 -232q0 -139 116.5 -231t287.5 -92q137 0 247 64.5t146 164.5z
M524 908l201 -101l-16 -31l-211 106l-208 -106l-16 31l199 101h51z" />
    <glyph glyph-name="ccircumflex" unicode="&#x109;" horiz-adv-x="851" 
d="M722 364l-51 -20q-25 56 -99 90.5t-166 34.5q-124 0 -204.5 -61.5t-80.5 -156.5q0 -93 88 -155.5t214 -62.5q111 0 202 49.5t118 125.5l52 -19q-35 -91 -141.5 -150t-235.5 -59q-148 0 -250 77t-102 194q1 119 95.5 195.5t239.5 76.5q110 0 200 -44t121 -115zM427 751
l241 -121l-16 -30l-250 126l-249 -126l-16 30l240 121h50z" />
    <glyph glyph-name="Cdotaccent" unicode="&#x10a;" horiz-adv-x="1055" 
d="M931 257l55 -18q-42 -116 -167.5 -190t-281.5 -74q-196 0 -329 107t-133 269q0 164 120 270.5t304 106.5q140 0 251.5 -65.5t152.5 -169.5l-53 -22q-33 90 -130 146.5t-220 56.5q-159 0 -262.5 -91t-103.5 -232q0 -139 116.5 -231t287.5 -92q137 0 247 64.5t146 164.5z
M498 809q-19 0 -31.5 12.5t-12.5 31.5t12.5 31t31.5 12q20 0 32.5 -12t12.5 -31t-12.5 -31.5t-32.5 -12.5z" />
    <glyph glyph-name="cdotaccent" unicode="&#x10b;" horiz-adv-x="851" 
d="M722 364l-51 -20q-25 56 -99 90.5t-166 34.5q-124 0 -204.5 -61.5t-80.5 -156.5q0 -93 88 -155.5t214 -62.5q111 0 202 49.5t118 125.5l52 -19q-35 -91 -141.5 -150t-235.5 -59q-148 0 -250 77t-102 194q1 119 95.5 195.5t239.5 76.5q110 0 200 -44t121 -115zM401 606
q-19 0 -31.5 12.5t-12.5 31.5q0 20 12.5 32t31.5 12t31.5 -12t12.5 -32q0 -19 -12.5 -31.5t-31.5 -12.5z" />
    <glyph glyph-name="Ccaron" unicode="&#x10c;" horiz-adv-x="1055" 
d="M931 257l55 -18q-42 -116 -167.5 -190t-281.5 -74q-196 0 -329 107t-133 269q0 164 120 270.5t304 106.5q140 0 251.5 -65.5t152.5 -169.5l-53 -22q-33 90 -130 146.5t-220 56.5q-159 0 -262.5 -91t-103.5 -232q0 -139 116.5 -231t287.5 -92q137 0 247 64.5t146 164.5z
M524 806h-51l-239 121l16 30l248 -126l251 126l16 -30z" />
    <glyph glyph-name="ccaron" unicode="&#x10d;" horiz-adv-x="851" 
d="M722 364l-51 -20q-25 56 -99 90.5t-166 34.5q-124 0 -204.5 -61.5t-80.5 -156.5q0 -93 88 -155.5t214 -62.5q111 0 202 49.5t118 125.5l52 -19q-35 -91 -141.5 -150t-235.5 -59q-148 0 -250 77t-102 194q1 119 95.5 195.5t239.5 76.5q110 0 200 -44t121 -115zM137 727
l15 30l249 -126l250 126l16 -30l-240 -121h-51z" />
    <glyph glyph-name="Dcaron" unicode="&#x10e;" horiz-adv-x="994" 
d="M510 649h-336v-596h336q158 0 254.5 81.5t96.5 216.5t-96.5 216.5t-254.5 81.5zM920 351q0 -158 -112.5 -254.5t-297.5 -96.5h-395v703h395q184 0 297 -97t113 -255zM719 957l16 -30l-241 -121h-50l-239 121l15 30l249 -126z" />
    <glyph glyph-name="dcaron" unicode="&#x10f;" horiz-adv-x="945" 
d="M121 251q0 -94 88 -155.5t222 -61.5q135 0 222.5 61t87.5 156t-87.5 156.5t-222.5 61.5q-134 0 -222 -62t-88 -156zM427 523q111 0 195.5 -41t117.5 -109v360h55v-733h-54v131q-33 -69 -117 -110t-196 -41q-157 0 -259.5 76.5t-102.5 194.5t102 195t259 77zM882 680
q0 16 11 26.5t27 10.5q22 0 35 -20t13 -54q0 -41 -19.5 -63.5t-53.5 -22.5q-12 0 -26 3l6 28q5 -1 16 -1q23 0 35 14.5t9 40.5q-8 -2 -12 -2q-17 0 -29 11.5t-12 28.5z" />
    <glyph glyph-name="Dcroat" unicode="&#x110;" horiz-adv-x="1070" 
d="M585 649h-336v-226h325v-34h-325v-336h336q158 0 254.5 81.5t96.5 216.5t-96.5 216.5t-254.5 81.5zM995 351q0 -158 -112.5 -254.5t-297.5 -96.5h-395v389h-165v34h165v280h395q184 0 297 -97t113 -255z" />
    <glyph glyph-name="dcroat" unicode="&#x111;" horiz-adv-x="894" 
d="M431 30q135 0 222.5 62.5t87.5 158.5q0 97 -87.5 159.5t-222.5 62.5q-134 0 -222 -62.5t-88 -159.5t87.5 -159t222.5 -62zM740 384v241h-328v35h328v73h55v-73h99v-35h-99v-625h-54v120q-34 -63 -118 -101.5t-189 -38.5q-159 0 -263.5 76.5t-104.5 194.5t104 195t265 77
q104 0 187.5 -38.5t117.5 -100.5z" />
    <glyph glyph-name="Emacron" unicode="&#x112;" horiz-adv-x="870" 
d="M801 0h-686v703h676v-54h-618v-258h578v-53h-578v-285h628v-53zM228 840v34h465v-34h-465z" />
    <glyph glyph-name="emacron" unicode="&#x113;" horiz-adv-x="872" 
d="M125 283h580q-9 82 -90 134t-199 52t-198.5 -52t-92.5 -134zM762 254v-25h-636q12 -86 103 -141t224 -55q101 0 193.5 32t133.5 81l34 -40q-48 -55 -150.5 -90.5t-215.5 -35.5q-166 0 -274 77.5t-108 196.5q0 117 99 193t254 76q150 0 246.5 -76t96.5 -193zM650 674v-34
h-465v34h465z" />
    <glyph glyph-name="Ebreve" unicode="&#x114;" horiz-adv-x="870" 
d="M801 0h-686v703h676v-54h-618v-258h578v-53h-578v-285h628v-53zM461 790q-88 0 -143 33t-56 91h35q0 -43 45 -66.5t118 -23.5q74 0 120 23.5t45 66.5h34q1 -58 -54.5 -91t-143.5 -33z" />
    <glyph glyph-name="ebreve" unicode="&#x115;" horiz-adv-x="872" 
d="M125 283h580q-9 82 -90 134t-199 52t-198.5 -52t-92.5 -134zM762 254v-25h-636q12 -86 103 -141t224 -55q101 0 193.5 32t133.5 81l34 -40q-48 -55 -150.5 -90.5t-215.5 -35.5q-166 0 -274 77.5t-108 196.5q0 117 99 193t254 76q150 0 246.5 -76t96.5 -193zM417 596
q-104 0 -171 42t-67 106h34q1 -50 58.5 -82t145.5 -32q89 0 147 32t58 82h34q0 -65 -67.5 -106.5t-171.5 -41.5z" />
    <glyph glyph-name="Edotaccent" unicode="&#x116;" horiz-adv-x="870" 
d="M801 0h-686v703h676v-54h-618v-258h578v-53h-578v-285h628v-53zM461 809q-19 0 -31.5 12.5t-12.5 31.5t12.5 31t31.5 12t31.5 -12t12.5 -31t-12.5 -31.5t-31.5 -12.5z" />
    <glyph glyph-name="edotaccent" unicode="&#x117;" horiz-adv-x="872" 
d="M125 283h580q-9 82 -90 134t-199 52t-198.5 -52t-92.5 -134zM762 254v-25h-636q12 -86 103 -141t224 -55q101 0 193.5 32t133.5 81l34 -40q-48 -55 -150.5 -90.5t-215.5 -35.5q-166 0 -274 77.5t-108 196.5q0 117 99 193t254 76q150 0 246.5 -76t96.5 -193zM418 606
q-19 0 -31.5 12.5t-12.5 31.5q0 20 12 32t32 12q19 0 31.5 -12.5t12.5 -31.5t-12.5 -31.5t-31.5 -12.5z" />
    <glyph glyph-name="Eogonek" unicode="&#x118;" horiz-adv-x="870" 
d="M454 -160q-1 47 44 87.5t125 72.5h-508v703h676v-54h-618v-258h578v-53h-578v-285h628v-53h-90q-222 -72 -222 -157q1 -26 22 -42.5t53 -16.5q28 0 57 13.5t46 33.5l22 -27q-20 -23 -55.5 -38.5t-70.5 -15.5q-46 0 -77 25.5t-32 64.5z" />
    <glyph glyph-name="eogonek" unicode="&#x119;" horiz-adv-x="872" 
d="M125 283h580q-9 82 -90 134t-199 52t-198.5 -52t-92.5 -134zM342 -160q-1 78 125 140h-19q-166 0 -274 77.5t-108 196.5q0 117 99 193t254 76q150 0 246.5 -76t96.5 -193v-25h-636q12 -86 103 -141t224 -55q101 0 193.5 32t133.5 81l34 -40q-69 -80 -237 -113
q-94 -33 -147 -71t-52 -79q0 -26 21 -42.5t53 -16.5q28 0 57 13.5t46 33.5l22 -27q-21 -24 -55.5 -39t-70.5 -15q-46 0 -77 25.5t-32 64.5z" />
    <glyph glyph-name="Ecaron" unicode="&#x11a;" horiz-adv-x="870" 
d="M801 0h-686v703h676v-54h-618v-258h578v-53h-578v-285h628v-53zM461 815l210 106l16 -30l-200 -101h-51l-199 101l15 30z" />
    <glyph glyph-name="ecaron" unicode="&#x11b;" horiz-adv-x="872" 
d="M125 283h580q-9 82 -90 134t-199 52t-198.5 -52t-92.5 -134zM762 254v-25h-636q12 -86 103 -141t224 -55q101 0 193.5 32t133.5 81l34 -40q-48 -55 -150.5 -90.5t-215.5 -35.5q-166 0 -274 77.5t-108 196.5q0 117 99 193t254 76q150 0 246.5 -76t96.5 -193zM668 757
l16 -30l-241 -121h-50l-239 121l15 30l249 -126z" />
    <glyph glyph-name="Gcircumflex" unicode="&#x11c;" horiz-adv-x="1093" 
d="M959 333h-628v52h686q11 -179 -118.5 -294.5t-344.5 -115.5q-208 0 -343.5 106t-135.5 270t126.5 270.5t322.5 106.5q135 0 245 -61t139 -154l-55 -16q-26 77 -119.5 127t-208.5 50q-171 1 -281 -90t-110 -233q0 -140 118.5 -231.5t301.5 -91.5q173 0 289 86.5t116 218.5
zM734 776l-210 106l-209 -106l-16 31l200 101h50l201 -101z" />
    <glyph glyph-name="gcircumflex" unicode="&#x11d;" horiz-adv-x="877" 
d="M424 469q-133 0 -218.5 -62t-85.5 -157q0 -94 86.5 -155.5t217.5 -61.5q133 0 218 61t85 156t-86 157t-217 62zM420 523q107 0 188.5 -40.5t117.5 -108.5v129h55v-453q0 -131 -106.5 -215.5t-271.5 -84.5q-134 0 -248 54.5t-155 138.5l46 32q34 -76 135.5 -125t221.5 -49
q143 0 233 70t90 179v77q-36 -67 -117.5 -107t-187.5 -40q-153 0 -254.5 77t-101.5 194q0 118 101 195t254 77zM427 726l-249 -126l-15 30l239 121h51l240 -121l-16 -30z" />
    <glyph glyph-name="Gbreve" unicode="&#x11e;" horiz-adv-x="1093" 
d="M959 333h-628v52h686q11 -179 -118.5 -294.5t-344.5 -115.5q-208 0 -343.5 106t-135.5 270t126.5 270.5t322.5 106.5q135 0 245 -61t139 -154l-55 -16q-26 77 -119.5 127t-208.5 50q-171 1 -281 -90t-110 -233q0 -140 118.5 -231.5t301.5 -91.5q173 0 289 86.5t116 218.5
zM523 790q-88 0 -143 33t-55 91h34q1 -43 46 -66.5t118 -23.5q74 0 119.5 23.5t45.5 66.5h34q1 -58 -54.5 -91t-144.5 -33z" />
    <glyph glyph-name="gbreve" unicode="&#x11f;" horiz-adv-x="877" 
d="M424 469q-133 0 -218.5 -62t-85.5 -157q0 -94 86.5 -155.5t217.5 -61.5q133 0 218 61t85 156t-86 157t-217 62zM420 523q107 0 188.5 -40.5t117.5 -108.5v129h55v-453q0 -131 -106.5 -215.5t-271.5 -84.5q-134 0 -248 54.5t-155 138.5l46 32q34 -76 135.5 -125t221.5 -49
q143 0 233 70t90 179v77q-36 -67 -117.5 -107t-187.5 -40q-153 0 -254.5 77t-101.5 194q0 118 101 195t254 77zM426 596q-104 0 -171 42t-67 106h34q0 -49 57.5 -81.5t146.5 -32.5t147 32t58 82h34q0 -65 -67.5 -106.5t-171.5 -41.5z" />
    <glyph glyph-name="Gdotaccent" unicode="&#x120;" horiz-adv-x="1093" 
d="M959 333h-628v52h686q11 -179 -118.5 -294.5t-344.5 -115.5q-208 0 -343.5 106t-135.5 270t126.5 270.5t322.5 106.5q135 0 245 -61t139 -154l-55 -16q-26 77 -119.5 127t-208.5 50q-171 1 -281 -90t-110 -233q0 -140 118.5 -231.5t301.5 -91.5q173 0 289 86.5t116 218.5
zM524 809q-20 0 -32 12.5t-12 31.5t12.5 31t31.5 12t31.5 -12t12.5 -31t-12 -31.5t-32 -12.5z" />
    <glyph glyph-name="gdotaccent" unicode="&#x121;" horiz-adv-x="877" 
d="M424 469q-133 0 -218.5 -62t-85.5 -157q0 -94 86.5 -155.5t217.5 -61.5q133 0 218 61t85 156t-86 157t-217 62zM420 523q107 0 188.5 -40.5t117.5 -108.5v129h55v-453q0 -131 -106.5 -215.5t-271.5 -84.5q-134 0 -248 54.5t-155 138.5l46 32q34 -76 135.5 -125t221.5 -49
q143 0 233 70t90 179v77q-36 -67 -117.5 -107t-187.5 -40q-153 0 -254.5 77t-101.5 194q0 118 101 195t254 77zM427 606q-20 0 -32.5 12.5t-12.5 31.5q0 20 12.5 32t32.5 12q19 0 31.5 -12.5t12.5 -31.5t-12.5 -31.5t-31.5 -12.5z" />
    <glyph glyph-name="Gcommaaccent" unicode="&#x122;" horiz-adv-x="1093" 
d="M959 333h-628v52h686q11 -179 -118.5 -294.5t-344.5 -115.5q-208 0 -343.5 106t-135.5 270t126.5 270.5t322.5 106.5q135 0 245 -61t139 -154l-55 -16q-26 77 -119.5 127t-208.5 50q-171 1 -281 -90t-110 -233q0 -140 118.5 -231.5t301.5 -91.5q173 0 289 86.5t116 218.5
zM515 -119q0 16 10.5 26t27.5 10q23 0 36 -20t13 -54q0 -41 -19.5 -63t-53.5 -22q-13 0 -27 3l6 28q12 -2 16 -2q23 0 35 14.5t9 40.5q-4 -1 -12 -1q-17 0 -29 11.5t-12 28.5z" />
    <glyph glyph-name="gcommaaccent" unicode="&#x123;" horiz-adv-x="877" 
d="M424 469q-133 0 -218.5 -62t-85.5 -157q0 -94 86.5 -155.5t217.5 -61.5q133 0 218 61t85 156t-86 157t-217 62zM420 523q107 0 188.5 -40.5t117.5 -108.5v129h55v-453q0 -131 -106.5 -215.5t-271.5 -84.5q-134 0 -248 54.5t-155 138.5l46 32q34 -76 135.5 -125t221.5 -49
q143 0 233 70t90 179v77q-36 -67 -117.5 -107t-187.5 -40q-153 0 -254.5 77t-101.5 194q0 118 101 195t254 77zM475 620q0 -16 -10.5 -26t-27.5 -10q-23 0 -36 19.5t-13 53.5q0 42 19.5 64t53.5 22q12 0 27 -3l-6 -28q-12 2 -17 2q-23 0 -35 -15t-8 -41q4 2 12 2
q16 0 28.5 -11.5t12.5 -28.5z" />
    <glyph glyph-name="Itilde" unicode="&#x128;" horiz-adv-x="289" 
d="M174 0h-59v703h59v-703zM362 914h32q0 -58 -38.5 -96t-97.5 -38q-36 0 -68 17t-52 38t-49 38t-61 17q-44 0 -72 -28.5t-28 -71.5h-32q0 58 38 95.5t96 37.5q30 0 56 -11.5t45 -27.5t37.5 -32t42 -27.5t49.5 -11.5q45 0 73.5 28.5t28.5 72.5z" />
    <glyph glyph-name="itilde" unicode="&#x129;" horiz-adv-x="236" 
d="M91 0v503h55v-503h-55zM336 724h32q0 -58 -38.5 -96t-97.5 -38q-36 0 -68 17t-52 38t-49 38t-61 17q-44 0 -72 -28.5t-28 -71.5h-32q0 58 38 95.5t96 37.5q30 0 56 -11.5t45 -27.5t37.5 -32t42 -27.5t49.5 -11.5q45 0 73.5 28.5t28.5 72.5z" />
    <glyph glyph-name="Imacron" unicode="&#x12a;" horiz-adv-x="289" 
d="M115 0v703h59v-703h-59zM-89 840v34h466v-34h-466z" />
    <glyph glyph-name="imacron" unicode="&#x12b;" horiz-adv-x="236" 
d="M91 0v503h55v-503h-55zM-115 640v34h466v-34h-466z" />
    <glyph glyph-name="Iogonek" unicode="&#x12e;" horiz-adv-x="289" 
d="M-97 -160q-1 53 56 97.5t156 78.5v687h59v-703h-14q-102 -33 -162 -73.5t-59 -83.5q0 -26 21 -42.5t53 -16.5q28 0 57 13.5t46 33.5l22 -27q-21 -24 -55.5 -39t-70.5 -15q-46 0 -77 25.5t-32 64.5z" />
    <glyph glyph-name="iogonek" unicode="&#x12f;" horiz-adv-x="252" 
d="M-115 -160q-1 53 56.5 98t157.5 79v486h55v-503h-12q-103 -33 -163 -73.5t-59 -83.5q1 -26 22 -42.5t53 -16.5q28 0 56.5 13.5t45.5 33.5l22 -27q-20 -23 -55 -38.5t-70 -15.5q-46 0 -77 25.5t-32 64.5zM82 650q0 20 12 32t32 12t32 -12t12 -32t-12 -32t-32 -12t-32 12
t-12 32z" />
    <glyph glyph-name="Idotaccent" unicode="&#x130;" horiz-adv-x="289" 
d="M115 0v703h59v-703h-59zM144 809q-19 0 -31.5 12.5t-12.5 31.5t12.5 31t31.5 12q20 0 32.5 -12t12.5 -31t-12.5 -31.5t-32.5 -12.5z" />
    <glyph glyph-name="dotlessi" unicode="&#x131;" horiz-adv-x="236" 
d="M91 0v503h55v-503h-55z" />
    <glyph glyph-name="IJ" unicode="&#x132;" horiz-adv-x="960" 
d="M115 0v703h59v-703h-59zM794 239v464h59v-468q0 -111 -67.5 -183t-173.5 -72q-96 0 -172 59.5t-94 149.5l52 22q13 -77 74 -127.5t137 -50.5q82 0 133.5 58t51.5 148z" />
    <glyph glyph-name="ij" unicode="&#x133;" horiz-adv-x="486" 
d="M89 0v503h55v-503h-55zM117 606q-19 0 -31.5 12t-12.5 32t12.5 32t31.5 12t31.5 -12t12.5 -32t-12.5 -32t-31.5 -12zM360 606q-20 0 -32 12t-12 32t12 32t32 12t32 -12t12 -32q0 -19 -12.5 -31.5t-31.5 -12.5zM333 -59v562h55v-568q0 -80 -55.5 -132.5t-139.5 -52.5
q-54 0 -108 22.5t-83 57.5l35 40q22 -30 66 -49.5t88 -19.5q62 0 102 39.5t40 100.5z" />
    <glyph glyph-name="Kcommaaccent" unicode="&#x136;" horiz-adv-x="804" 
d="M247 367l531 -367h-100l-504 351v-351h-59v703h59v-319l493 319h103zM374 -119q0 16 11 26t28 10q22 0 35 -20t13 -54q0 -41 -19.5 -63t-53.5 -22q-12 0 -26 3l5 28q12 -2 17 -2q23 0 35 14.5t9 40.5q-4 -1 -13 -1q-16 0 -28.5 11.5t-12.5 28.5z" />
    <glyph glyph-name="kcommaaccent" unicode="&#x137;" horiz-adv-x="630" 
d="M522 0l-371 246v-246h-55v733h55v-448l360 218h102l-397 -237l406 -266h-100zM279 -119q0 16 10.5 26t27.5 10q22 0 35 -20t13 -54q0 -41 -19.5 -63t-53.5 -22q-12 0 -26 3l5 28q12 -2 17 -2q23 0 35 14.5t9 40.5q-4 -1 -12 -1q-17 0 -29.5 11.5t-11.5 28.5z" />
    <glyph glyph-name="Lacute" unicode="&#x139;" horiz-adv-x="691" 
d="M115 703h59v-650h478v-53h-537v703zM142 777l-20 29l174 115l20 -28z" />
    <glyph glyph-name="lacute" unicode="&#x13a;" horiz-adv-x="247" 
d="M96 0v732h55v-732h-55zM124 794l-20 29l204 136l20 -29z" />
    <glyph glyph-name="Lcommaaccent" unicode="&#x13b;" horiz-adv-x="696" 
d="M115 703h59v-650h478v-53h-537v703zM348 -119q0 16 10.5 26t27.5 10q22 0 35.5 -20t13.5 -54q-1 -41 -20.5 -63t-53.5 -22q-13 0 -26 3l6 28q12 -2 16 -2q23 0 35 14.5t9 40.5q-4 -1 -12 -1q-17 0 -29 11.5t-12 28.5z" />
    <glyph glyph-name="lcommaaccent" unicode="&#x13c;" horiz-adv-x="247" 
d="M96 0v732h55v-732h-55zM84 -119q0 16 11 26t28 10q22 0 35 -20t13 -54q0 -41 -19.5 -63t-53.5 -22q-12 0 -26 3l5 28q12 -2 17 -2q23 0 35 14.5t9 40.5q-4 -1 -13 -1q-16 0 -28.5 11.5t-12.5 28.5z" />
    <glyph glyph-name="Lcaron" unicode="&#x13d;" horiz-adv-x="696" 
d="M115 703h59v-650h478v-53h-537v703zM306 680q0 16 11 26.5t27 10.5q22 0 35 -20t13 -54q0 -41 -19.5 -63.5t-53.5 -22.5q-12 0 -26 3l5 28q6 -1 17 -1q23 0 35 14.5t9 40.5q-8 -2 -12 -2q-17 0 -29.5 11.5t-11.5 28.5z" />
    <glyph glyph-name="lcaron" unicode="&#x13e;" horiz-adv-x="300" 
d="M96 0v732h55v-732h-55zM237 680q1 16 12 26.5t27 10.5q22 0 35 -20t13 -54q0 -41 -19.5 -63.5t-53.5 -22.5q-13 0 -26 3l5 28q6 -1 17 -1q23 0 35 14.5t9 40.5q-8 -2 -12 -2q-17 0 -29.5 11.5t-12.5 28.5z" />
    <glyph glyph-name="Lslash" unicode="&#x141;" horiz-adv-x="743" 
d="M162 350v353h59v-319l367 212l18 -30l-385 -222v-291h479v-53h-538v310l-120 -69l-17 30z" />
    <glyph glyph-name="lslash" unicode="&#x142;" horiz-adv-x="487" 
d="M279 0h-55v370l-207 -125l-17 30l224 135v323h55v-289l208 126l17 -30l-225 -136v-404z" />
    <glyph glyph-name="Nacute" unicode="&#x143;" horiz-adv-x="966" 
d="M792 703h59v-703h-112l-565 676v-676h-59v703h112l565 -676v676zM498 777l-19 29l173 115l20 -28z" />
    <glyph glyph-name="nacute" unicode="&#x144;" 
d="M686 0v212q0 117 -73 188t-188 71q-120 0 -197 -76t-77 -201v-194h-55v503h56v-147q33 79 104.5 123t170.5 44q142 0 228 -84.5t86 -222.5v-216h-55zM427 594l-19 29l204 136l19 -29z" />
    <glyph glyph-name="Ncommaaccent" unicode="&#x145;" horiz-adv-x="966" 
d="M792 703h59v-703h-112l-565 676v-676h-59v703h112l565 -676v676zM444 -119q0 16 10.5 26t27.5 10q22 0 35 -20t13 -54q0 -41 -19.5 -63t-53.5 -22q-13 0 -26 3l6 28q10 -2 16 -2q23 0 35 14.5t9 40.5q-4 -1 -12 -1q-17 0 -29.5 11.5t-11.5 28.5z" />
    <glyph glyph-name="ncommaaccent" unicode="&#x146;" 
d="M686 212q0 117 -73 188t-188 71q-120 0 -197 -76t-77 -201v-194h-55v503h56v-147q33 79 104.5 123t170.5 44q142 0 228 -84.5t86 -222.5v-216h-55v212zM385 -119q0 16 10.5 26t27.5 10q22 0 35 -20t13 -54q0 -41 -19.5 -63t-53.5 -22q-12 0 -26 3l5 28q12 -2 17 -2
q23 0 35 14.5t9 40.5q-4 -1 -12 -1q-17 0 -29.5 11.5t-11.5 28.5z" />
    <glyph glyph-name="Ncaron" unicode="&#x147;" horiz-adv-x="966" 
d="M792 703h59v-703h-112l-565 676v-676h-59v703h112l565 -676v676zM489 831l250 126l17 -30l-241 -121h-51l-239 121l15 30z" />
    <glyph glyph-name="ncaron" unicode="&#x148;" 
d="M686 0v212q0 117 -73 188t-188 71q-120 0 -197 -76t-77 -201v-194h-55v503h56v-147q33 79 104.5 123t170.5 44q142 0 228 -84.5t86 -222.5v-216h-55zM427 631l250 126l16 -30l-241 -121h-50l-240 121l16 30z" />
    <glyph glyph-name="Omacron" unicode="&#x14c;" horiz-adv-x="1100" 
d="M75 351q0 164 133.5 270.5t341.5 106.5t341.5 -106.5t133.5 -270.5t-133.5 -270t-341.5 -106t-341.5 106t-133.5 270zM134 351q0 -140 117.5 -231t298.5 -91t298.5 91t117.5 231q0 141 -117 232t-299 91t-299 -91t-117 -232zM317 840v34h465v-34h-465z" />
    <glyph glyph-name="omacron" unicode="&#x14d;" horiz-adv-x="862" 
d="M796 251q0 -118 -103 -194.5t-262 -76.5q-160 0 -262.5 76t-102.5 195t102.5 195.5t262.5 76.5q159 0 262 -76.5t103 -195.5zM741 251q0 95 -87.5 156.5t-222.5 61.5t-222.5 -61.5t-87.5 -156.5t87.5 -156.5t222.5 -61.5t222.5 61.5t87.5 156.5zM198 640v34h465v-34h-465
z" />
    <glyph glyph-name="Obreve" unicode="&#x14e;" horiz-adv-x="1100" 
d="M134 351q0 -140 117.5 -231t298.5 -91t298.5 91t117.5 231q0 141 -117 232t-299 91t-299 -91t-117 -232zM75 351q0 164 133.5 270.5t341.5 106.5t341.5 -106.5t133.5 -270.5t-133.5 -270t-341.5 -106t-341.5 106t-133.5 270zM549 790q-88 0 -143 33t-55 91h34
q1 -43 46 -66.5t118 -23.5q74 0 119.5 23.5t45.5 66.5h34q0 -58 -55 -91t-144 -33z" />
    <glyph glyph-name="obreve" unicode="&#x14f;" horiz-adv-x="862" 
d="M741 251q0 95 -87.5 156.5t-222.5 61.5t-222.5 -61.5t-87.5 -156.5t87.5 -156.5t222.5 -61.5t222.5 61.5t87.5 156.5zM796 251q0 -118 -103 -194.5t-262 -76.5q-160 0 -262.5 76t-102.5 195t102.5 195.5t262.5 76.5q159 0 262 -76.5t103 -195.5zM430 596q-104 0 -171 42
t-67 106h34q0 -49 57.5 -81.5t145.5 -32.5q90 0 148 32t58 82h34q0 -65 -67.5 -106.5t-171.5 -41.5z" />
    <glyph glyph-name="Ohungarumlaut" unicode="&#x150;" horiz-adv-x="1100" 
d="M75 351q0 164 133.5 270.5t341.5 106.5t341.5 -106.5t133.5 -270.5t-133.5 -270t-341.5 -106t-341.5 106t-133.5 270zM134 351q0 -140 117.5 -231t298.5 -91t298.5 91t117.5 231q0 141 -117 232t-299 91t-299 -91t-117 -232zM424 794l-19 29l204 136l19 -29zM654 794
l-19 29l203 136l20 -29z" />
    <glyph glyph-name="ohungarumlaut" unicode="&#x151;" horiz-adv-x="862" 
d="M796 251q0 -118 -103 -194.5t-262 -76.5q-160 0 -262.5 76t-102.5 195t102.5 195.5t262.5 76.5q159 0 262 -76.5t103 -195.5zM741 251q0 95 -87.5 156.5t-222.5 61.5t-222.5 -61.5t-87.5 -156.5t87.5 -156.5t222.5 -61.5t222.5 61.5t87.5 156.5zM305 594l-19 29l204 136
l19 -29zM535 594l-19 29l203 136l20 -29z" />
    <glyph glyph-name="OE" unicode="&#x152;" horiz-adv-x="1346" 
d="M722 50v602q-56 21 -160 21q-187 0 -307.5 -90.5t-120.5 -231.5t119.5 -231.5t303.5 -90.5q104 0 165 21zM1227 382v-47h-446v-285h496v-50h-551q-68 -21 -164 -21q-213 0 -350 104.5t-137 267.5q0 164 137 268t350 104q98 0 164 -20h541v-50h-486v-271h446z" />
    <glyph glyph-name="oe" unicode="&#x153;" horiz-adv-x="1555" 
d="M741 251q0 98 -87.5 161t-222.5 63t-222.5 -63t-87.5 -161t87.5 -161t222.5 -63t222.5 63t87.5 161zM800 283h580q-9 83 -90 134.5t-199 51.5q-117 0 -197.5 -52t-93.5 -134zM1438 254q0 -19 -1 -25h-636q12 -86 103 -140.5t224 -54.5q102 0 194 31.5t133 80.5l34 -40
q-47 -55 -150 -90.5t-216 -35.5q-123 0 -216.5 44.5t-136.5 119.5q-39 -76 -129 -120t-210 -44q-160 0 -262.5 76t-102.5 195t102.5 195.5t262.5 76.5q118 0 207 -43t130 -117q39 74 125 117t201 43q150 0 247 -76t97 -193z" />
    <glyph glyph-name="Racute" unicode="&#x154;" horiz-adv-x="935" 
d="M612 649h-439v-295h439q84 0 138.5 42t54.5 105q0 66 -54 107t-139 41zM659 300h-485v-300h-59v702h501q108 1 178 -55t70 -143q0 -59 -35 -105t-95 -69q47 -11 76 -47t29 -86v-197h-59v189q0 49 -34 80t-87 31zM622 921l19 -28l-174 -116l-19 29z" />
    <glyph glyph-name="racute" unicode="&#x155;" horiz-adv-x="605" 
d="M513 340q-7 57 -54 94t-111 37q-86 0 -141.5 -68.5t-55.5 -173.5v-229h-55v503h56v-113q27 62 79.5 97.5t120.5 35.5q80 0 140.5 -47t70.5 -119zM327 594l-19 29l203 136l20 -29z" />
    <glyph glyph-name="Rcommaaccent" unicode="&#x156;" horiz-adv-x="935" 
d="M612 649h-439v-295h439q84 0 138.5 42t54.5 105q0 66 -54 107t-139 41zM659 300h-485v-300h-59v702h501q108 1 178 -55t70 -143q0 -59 -35 -105t-95 -69q47 -11 76 -47t29 -86v-197h-59v189q0 49 -34 80t-87 31zM438 -119q0 16 10.5 26t27.5 10q23 0 36 -19.5t13 -53.5
q0 -42 -19.5 -64t-54.5 -22q-13 0 -26 3l6 28q12 -2 16 -2q23 0 35 14.5t9 40.5q-4 -1 -12 -1q-17 0 -29 11.5t-12 28.5z" />
    <glyph glyph-name="rcommaaccent" unicode="&#x157;" horiz-adv-x="605" 
d="M513 340q-7 57 -54 94t-111 37q-86 0 -141.5 -68.5t-55.5 -173.5v-229h-55v503h56v-113q27 62 79.5 97.5t120.5 35.5q80 0 140.5 -47t70.5 -119zM84 -119q1 16 12 26t27 10q22 0 35 -20t13 -54q0 -41 -19.5 -63t-53.5 -22q-12 0 -26 3l5 28q12 -2 17 -2q23 0 35 14.5
t9 40.5q-4 -1 -12 -1q-17 0 -29.5 11.5t-12.5 28.5z" />
    <glyph glyph-name="Rcaron" unicode="&#x158;" horiz-adv-x="935" 
d="M612 649h-439v-295h439q84 0 138.5 42t54.5 105q0 66 -54 107t-139 41zM659 300h-485v-300h-59v702h501q108 1 178 -55t70 -143q0 -59 -35 -105t-95 -69q47 -11 76 -47t29 -86v-197h-59v189q0 49 -34 80t-87 31zM681 921l16 -30l-201 -101h-51l-199 101l16 30l209 -106z
" />
    <glyph glyph-name="rcaron" unicode="&#x159;" horiz-adv-x="600" 
d="M513 340q-7 57 -54 94t-111 37q-86 0 -141.5 -68.5t-55.5 -173.5v-229h-55v503h56v-113q27 62 79.5 97.5t120.5 35.5q80 0 140.5 -47t70.5 -119zM326 631l250 126l16 -30l-240 -121h-51l-239 121l15 30z" />
    <glyph glyph-name="Sacute" unicode="&#x15a;" horiz-adv-x="927" 
d="M507 -25q-157 0 -274 67t-150 172l49 30q25 -93 130.5 -154t246.5 -61q119 0 197.5 44.5t78.5 110.5q0 24 -10.5 43t-33 33.5t-46.5 25t-62.5 19.5t-67.5 14.5t-75 12.5q-170 27 -230 50q-118 45 -117 142q0 90 84.5 147t212.5 57q113 0 206.5 -46t131.5 -118l-47 -33
q-33 63 -113 103t-177 40q-102 -1 -170.5 -43t-68.5 -103q0 -22 9 -39.5t30.5 -30.5t41.5 -22t57.5 -17.5t62 -13t70.5 -11.5q4 -1 6.5 -1t6 -1t6.5 -1q55 -9 88 -15.5t80 -18.5t75 -26t55.5 -33.5t40.5 -47t13 -61.5q0 -94 -94.5 -154t-242.5 -60zM438 777l-19 29l173 115
l20 -28z" />
    <glyph glyph-name="sacute" unicode="&#x15b;" horiz-adv-x="746" 
d="M411 -20q-133 0 -230 53.5t-119 137.5l48 23q18 -71 101 -117t198 -46q94 0 157.5 30t63.5 74q0 17 -10 31t-31 23.5t-39.5 16t-52.5 12t-52 7.5l-54 6q-46 4 -75 8t-65.5 11t-58 16t-42 23t-30 34t-9.5 46q1 69 68 111.5t172 42.5q92 0 169.5 -37.5t106.5 -95.5l-45 -29
q-25 49 -89.5 80.5t-141.5 31.5q-80 0 -133 -29t-53 -71q0 -23 17 -39.5t53 -25.5t68 -13.5t84 -9.5q54 -4 93 -9.5t80 -16t66 -25.5t41.5 -38.5t16.5 -54.5q0 -73 -77 -117t-196 -44zM365 594l-19 29l204 136l20 -29z" />
    <glyph glyph-name="Scircumflex" unicode="&#x15c;" horiz-adv-x="927" 
d="M507 -25q-157 0 -274 67t-150 172l49 30q25 -93 130.5 -154t246.5 -61q119 0 197.5 44.5t78.5 110.5q0 24 -10.5 43t-33 33.5t-46.5 25t-62.5 19.5t-67.5 14.5t-75 12.5q-170 27 -230 50q-118 45 -117 142q0 90 84.5 147t212.5 57q113 0 206.5 -46t131.5 -118l-47 -33
q-33 63 -113 103t-177 40q-102 -1 -170.5 -43t-68.5 -103q0 -22 9 -39.5t30.5 -30.5t41.5 -22t57.5 -17.5t62 -13t70.5 -11.5q4 -1 6.5 -1t6 -1t6.5 -1q55 -9 88 -15.5t80 -18.5t75 -26t55.5 -33.5t40.5 -47t13 -61.5q0 -94 -94.5 -154t-242.5 -60zM651 776l-210 106
l-209 -106l-15 31l199 101h50l201 -101z" />
    <glyph glyph-name="scircumflex" unicode="&#x15d;" horiz-adv-x="746" 
d="M411 -20q-133 0 -230 53.5t-119 137.5l48 23q18 -71 101 -117t198 -46q94 0 157.5 30t63.5 74q0 17 -10 31t-31 23.5t-39.5 16t-52.5 12t-52 7.5l-54 6q-46 4 -75 8t-65.5 11t-58 16t-42 23t-30 34t-9.5 46q1 69 68 111.5t172 42.5q92 0 169.5 -37.5t106.5 -95.5l-45 -29
q-25 49 -89.5 80.5t-141.5 31.5q-80 0 -133 -29t-53 -71q0 -23 17 -39.5t53 -25.5t68 -13.5t84 -9.5q54 -4 93 -9.5t80 -16t66 -25.5t41.5 -38.5t16.5 -54.5q0 -73 -77 -117t-196 -44zM616 600l-250 126l-249 -126l-16 30l239 121h51l241 -121z" />
    <glyph glyph-name="Scedilla" unicode="&#x15e;" horiz-adv-x="927" 
d="M456 -94l7 70q-142 10 -245.5 75.5t-134.5 162.5l49 30q25 -93 130.5 -154t246.5 -61q119 0 197.5 44.5t78.5 110.5q0 24 -10.5 43t-33 33.5t-46.5 25t-62.5 19.5t-67.5 14.5t-75 12.5q-170 27 -230 50q-118 45 -117 142q0 90 84.5 147t212.5 57q113 0 206.5 -46
t131.5 -118l-47 -33q-33 63 -113 103t-177 40q-102 -1 -170.5 -43t-68.5 -103q0 -22 9 -39.5t30.5 -30.5t41.5 -22t57.5 -17.5t62 -13t70.5 -11.5q4 -1 6.5 -1t6 -1t6.5 -1q55 -9 88 -15.5t80 -18.5t75 -26t55.5 -34t40.5 -47.5t13 -61.5q0 -94 -94.5 -153.5t-242.5 -59.5
h-10l-4 -36q43 0 70 -25.5t27 -65.5q0 -37 -26 -62.5t-64 -25.5q-30 0 -57 16t-39 41l29 19q7 -18 25 -30t40 -12q25 0 41 15t17 38q0 26 -18.5 42.5t-46.5 16.5h-35z" />
    <glyph glyph-name="scedilla" unicode="&#x15f;" horiz-adv-x="746" 
d="M346 -94l7 77q-112 11 -191.5 62.5t-99.5 125.5l48 23q18 -71 101 -117t198 -46q94 0 157.5 30t63.5 76q0 17 -10 30t-31 22.5t-39.5 16t-52.5 12t-52 7.5l-54 6q-46 4 -75 8t-65.5 11t-58 16t-42 23t-30 34t-9.5 46q1 69 68 111.5t172 42.5q92 0 169.5 -37.5
t106.5 -95.5l-45 -29q-25 49 -89.5 80.5t-141.5 31.5q-80 0 -133 -29t-53 -72q0 -23 17 -39t53 -25t68 -13.5t84 -9.5q54 -4 93 -9.5t80 -16t66 -25.5t41.5 -38.5t16.5 -54.5q0 -73 -77 -117t-196 -44h-24l-4 -41q43 0 70 -25.5t27 -65.5q0 -37 -26.5 -62.5t-64.5 -25.5
q-29 0 -56.5 16t-38.5 41l29 19q7 -18 25 -30t40 -12q25 0 41 15t17 38q0 26 -18.5 42.5t-46.5 16.5h-35z" />
    <glyph glyph-name="Scaron" unicode="&#x160;" horiz-adv-x="927" 
d="M507 -25q-157 0 -274 67t-150 172l49 30q25 -93 130.5 -154t246.5 -61q119 0 197.5 44.5t78.5 110.5q0 24 -10.5 43t-33 33.5t-46.5 25t-62.5 19.5t-67.5 14.5t-75 12.5q-170 27 -230 50q-118 45 -117 142q0 90 84.5 147t212.5 57q113 0 206.5 -46t131.5 -118l-47 -33
q-33 63 -113 103t-177 40q-102 -1 -170.5 -43t-68.5 -103q0 -22 9 -39.5t30.5 -30.5t41.5 -22t57.5 -17.5t62 -13t70.5 -11.5q4 -1 6.5 -1t6 -1t6.5 -1q55 -9 88 -15.5t80 -18.5t75 -26t55.5 -33.5t40.5 -47t13 -61.5q0 -94 -94.5 -154t-242.5 -60zM441 815l210 106l16 -30
l-201 -101h-50l-199 101l15 30z" />
    <glyph glyph-name="scaron" unicode="&#x161;" horiz-adv-x="746" 
d="M411 -20q-133 0 -230 53.5t-119 137.5l48 23q18 -71 101 -117t198 -46q94 0 157.5 30t63.5 74q0 17 -10 31t-31 23.5t-39.5 16t-52.5 12t-52 7.5l-54 6q-46 4 -75 8t-65.5 11t-58 16t-42 23t-30 34t-9.5 46q1 69 68 111.5t172 42.5q92 0 169.5 -37.5t106.5 -95.5l-45 -29
q-25 49 -89.5 80.5t-141.5 31.5q-80 0 -133 -29t-53 -71q0 -23 17 -39.5t53 -25.5t68 -13.5t84 -9.5q54 -4 93 -9.5t80 -16t66 -25.5t41.5 -38.5t16.5 -54.5q0 -73 -77 -117t-196 -44zM365 631l250 126l16 -30l-240 -121h-51l-239 121l15 30z" />
    <glyph glyph-name="Tcommaaccent" unicode="&#x162;" horiz-adv-x="793" 
d="M25 703h743v-54h-342v-649h-59v649h-342v54zM357 -119q1 16 12 26t27 10q22 0 35 -20t13 -54q0 -41 -19.5 -63t-53.5 -22q-13 0 -26 3l5 28q12 -2 17 -2q23 0 35 14.5t9 40.5q-4 -1 -12 -1q-17 0 -29.5 11.5t-12.5 28.5z" />
    <glyph glyph-name="tcommaaccent" unicode="&#x163;" horiz-adv-x="652" 
d="M249 638v-136l335 1v-49h-335v-270q-1 -68 37 -111t100 -43q54 0 100 32.5t62 82.5l48 -24q-20 -61 -80 -101t-131 -40q-83 0 -137.5 56t-54.5 141l1 277h-186v47h168q20 0 22 20l4 117h47zM353 -119q0 16 11 26t28 10q22 0 35 -19.5t13 -53.5q0 -42 -19.5 -64t-53.5 -22
q-13 0 -26 3l5 28q12 -2 17 -2q23 0 35 14.5t9 40.5q-4 -1 -13 -1q-16 0 -28.5 11.5t-12.5 28.5z" />
    <glyph glyph-name="Tcaron" unicode="&#x164;" horiz-adv-x="793" 
d="M25 703h743v-54h-342v-649h-59v649h-342v54zM397 815l210 106l16 -30l-201 -101h-51l-199 101l16 30z" />
    <glyph glyph-name="tcaron" unicode="&#x165;" horiz-adv-x="652" 
d="M249 502l335 1v-49h-335v-270q-1 -68 37 -111t100 -43q54 0 100 32.5t62 82.5l48 -24q-20 -61 -80 -101t-131 -40q-83 0 -137.5 56t-54.5 141l1 277h-186v47h168q20 0 22 20l4 117h47v-136zM361 700q0 16 11 26.5t27 10.5q23 0 36 -20t13 -54q-1 -42 -20.5 -64t-53.5 -22
q-12 0 -26 3l6 28q6 -1 16 -1q23 0 35 14.5t9 40.5q-8 -2 -12 -2q-17 0 -29 11.5t-12 28.5z" />
    <glyph glyph-name="Utilde" unicode="&#x168;" horiz-adv-x="966" 
d="M801 329v374h59v-374q0 -157 -105 -255.5t-271 -98.5q-167 0 -272 98.5t-105 255.5v374h59v-374q0 -134 88 -217t230 -83t229.5 83t87.5 217zM700 914h33q0 -58 -38.5 -96t-97.5 -38q-36 0 -68 17.5t-52 38t-49 38t-61 17.5q-44 0 -72 -29t-28 -72h-33q0 58 38 95.5
t96 37.5q37 0 69 -17t51.5 -38t49 -38t61.5 -17q45 0 73 28.5t28 72.5z" />
    <glyph glyph-name="utilde" unicode="&#x169;" 
d="M88 287v216h56v-212q0 -117 73 -188.5t188 -71.5q119 0 196 76t77 201v195h55v-503h-55v147q-33 -79 -105 -123t-171 -44q-141 0 -227.5 84.5t-86.5 222.5zM631 724h32q0 -58 -38.5 -96t-97.5 -38q-36 0 -68 17t-52 38t-49 38t-61 17q-44 0 -72 -28.5t-28 -71.5h-32
q0 58 38 95.5t96 37.5q30 0 56 -11.5t45 -27.5t37.5 -32t42 -27.5t49.5 -11.5q45 0 73.5 28.5t28.5 72.5z" />
    <glyph glyph-name="Umacron" unicode="&#x16a;" horiz-adv-x="966" 
d="M801 703h59v-374q0 -157 -105 -255.5t-272 -98.5q-166 0 -271 98.5t-105 255.5v374h59v-374q0 -134 88 -217.5t230 -83.5t229.5 83.5t87.5 217.5v374zM250 840v34h466v-34h-466z" />
    <glyph glyph-name="umacron" unicode="&#x16b;" 
d="M144 503v-212q0 -117 73 -188.5t188 -71.5q119 0 196 76t77 201v195h55v-503h-55v147q-33 -79 -105 -123t-171 -44q-141 0 -227.5 84.5t-86.5 222.5v216h56zM180 640v34h466v-34h-466z" />
    <glyph glyph-name="Ubreve" unicode="&#x16c;" horiz-adv-x="966" 
d="M801 703h59v-374q0 -157 -105 -255.5t-272 -98.5q-166 0 -271 98.5t-105 255.5v374h59v-374q0 -134 88 -217.5t230 -83.5t229.5 83.5t87.5 217.5v374zM483 790q-88 0 -143 33t-55 91h34q0 -43 45 -66.5t119 -23.5t119.5 23.5t45.5 66.5h34q0 -58 -55 -91t-144 -33z" />
    <glyph glyph-name="ubreve" unicode="&#x16d;" 
d="M144 503v-212q0 -117 73 -188.5t188 -71.5q119 0 196 76t77 201v195h55v-503h-55v147q-33 -79 -105 -123t-171 -44q-141 0 -227.5 84.5t-86.5 222.5v216h56zM413 596q-103 0 -170.5 41.5t-68.5 106.5h35q0 -50 57.5 -82t145.5 -32q90 0 147.5 32t57.5 82h34
q1 -64 -66.5 -106t-171.5 -42z" />
    <glyph glyph-name="Uring" unicode="&#x16e;" horiz-adv-x="966" 
d="M483 942q-24 0 -40.5 -16t-15.5 -41q0 -25 16 -41t40 -16q25 0 41 16t15 41q0 25 -15.5 41t-40.5 16zM801 329v374h59v-374q0 -157 -105 -255.5t-272 -98.5q-166 0 -271 98.5t-105 255.5v374h59v-374q0 -134 88 -217.5t230 -83.5t229.5 83.5t87.5 217.5zM484 796
q-39 0 -64.5 25t-25.5 64t25 64t65 25q38 0 63 -25t25 -64q1 -39 -24 -64t-64 -25z" />
    <glyph glyph-name="uring" unicode="&#x16f;" 
d="M413 742q-24 0 -40.5 -16t-15.5 -41q0 -25 16 -41t40 -16q25 0 40.5 16t15.5 41t-15.5 41t-40.5 16zM88 287v216h56v-212q0 -117 73 -188.5t188 -71.5q119 0 196 76t77 201v195h55v-503h-55v147q-33 -79 -105 -123t-171 -44q-141 0 -227.5 84.5t-86.5 222.5zM414 596
q-39 0 -64.5 25t-25.5 64t25 64t65 25q38 0 63 -25t25 -64q1 -39 -24 -64t-64 -25z" />
    <glyph glyph-name="Uhungarumlaut" unicode="&#x170;" horiz-adv-x="966" 
d="M801 703h59v-374q0 -157 -105 -255.5t-272 -98.5q-166 0 -271 98.5t-105 255.5v374h59v-374q0 -134 88 -217.5t230 -83.5t229.5 83.5t87.5 217.5v374zM358 794l-19 29l203 136l20 -29zM588 794l-19 29l203 136l20 -29z" />
    <glyph glyph-name="uhungarumlaut" unicode="&#x171;" 
d="M144 503v-212q0 -117 73 -188.5t188 -71.5q119 0 196 76t77 201v195h55v-503h-55v147q-33 -79 -105 -123t-171 -44q-141 0 -227.5 84.5t-86.5 222.5v216h56zM288 594l-19 29l203 136l20 -29zM518 594l-20 29l204 136l20 -29z" />
    <glyph glyph-name="Uogonek" unicode="&#x172;" horiz-adv-x="966" 
d="M371 -160q0 74 112 135q-166 0 -271 98.5t-105 255.5v374h59v-374q0 -134 88 -217.5t230 -83.5t229.5 83.5t87.5 217.5v374h59v-374q0 -129 -72.5 -220.5t-194.5 -120.5q-88 -33 -137.5 -69.5t-48.5 -75.5q0 -26 21 -42.5t53 -16.5q28 0 57 13.5t46 33.5l22 -27
q-21 -24 -55.5 -39t-70.5 -15q-46 0 -77 25.5t-32 64.5z" />
    <glyph glyph-name="uogonek" unicode="&#x173;" 
d="M464 -160q-1 53 56 97.5t158 78.5v131q-33 -79 -105 -123t-171 -44q-141 0 -227.5 84.5t-86.5 222.5v216h56v-212q0 -117 73 -188.5t188 -71.5q119 0 196 76t77 201v195h55v-503h-12q-102 -33 -162 -73.5t-59 -83.5q0 -26 21 -42.5t53 -16.5q28 0 57 13.5t46 33.5l22 -27
q-21 -24 -55.5 -39t-70.5 -15q-46 0 -77 25.5t-32 64.5z" />
    <glyph glyph-name="Wcircumflex" unicode="&#x174;" horiz-adv-x="1421" 
d="M982 0l-272 692l-271 -692h-107l-297 703h64l287 -682l267 682h114l268 -682l287 682h64l-297 -703h-107zM921 776l-210 106l-209 -106l-15 31l199 101h50l201 -101z" />
    <glyph glyph-name="wcircumflex" unicode="&#x175;" horiz-adv-x="1223" 
d="M1201 503l-244 -503h-101l-244 483l-240 -483h-100l-250 503h62l238 -482l240 482h101l243 -483l235 483h60zM874 600l-250 126l-249 -126l-15 30l239 121h50l241 -121z" />
    <glyph glyph-name="Ycircumflex" unicode="&#x176;" horiz-adv-x="856" 
d="M428 330l302 373h75l-347 -428v-275h-59v275l-348 428h75zM637 776l-210 106l-209 -106l-15 31l199 101h50l201 -101z" />
    <glyph glyph-name="ycircumflex" unicode="&#x177;" horiz-adv-x="722" 
d="M79 503l310 -508l255 508h62l-308 -611q-31 -62 -82.5 -96t-116.5 -34q-69 0 -124 32t-79 82l42 34q16 -43 61 -70t98 -27q84 0 124.5 60.5t2.5 123.5l-310 506h65zM629 600l-250 126l-249 -126l-15 30l239 121h51l241 -121z" />
    <glyph glyph-name="Ydieresis" unicode="&#x178;" horiz-adv-x="856" 
d="M428 330l302 373h75l-347 -428v-275h-59v275l-348 428h75zM272 809q-19 0 -31.5 12t-12.5 31t12.5 31t31.5 12t31.5 -12t12.5 -31t-12.5 -31t-31.5 -12zM583 809q-19 0 -31.5 12t-12.5 31t12.5 31t31.5 12t31.5 -12t12.5 -31t-12.5 -31t-31.5 -12z" />
    <glyph glyph-name="Zacute" unicode="&#x179;" horiz-adv-x="832" 
d="M49 703h734v-97l-706 -553h716v-53h-754v96l707 553h-697v54zM422 777l-19 29l174 115l19 -28z" />
    <glyph glyph-name="zacute" unicode="&#x17a;" horiz-adv-x="803" 
d="M88 503h627v-88l-595 -364h605v-51h-647v88l595 363h-585v52zM412 594l-19 29l203 136l20 -29z" />
    <glyph glyph-name="Zdotaccent" unicode="&#x17b;" horiz-adv-x="832" 
d="M49 703h734v-97l-706 -553h716v-53h-754v96l707 553h-697v54zM425 809q-19 0 -31.5 12.5t-12.5 31.5t12.5 31t31.5 12t31.5 -12t12.5 -31t-12.5 -31.5t-31.5 -12.5z" />
    <glyph glyph-name="zdotaccent" unicode="&#x17c;" horiz-adv-x="803" 
d="M88 503h627v-88l-595 -364h605v-51h-647v88l595 363h-585v52zM411 606q-19 0 -31.5 12.5t-12.5 31.5q0 20 12.5 32t31.5 12t31.5 -12t12.5 -32q0 -19 -12.5 -31.5t-31.5 -12.5z" />
    <glyph glyph-name="Zcaron" unicode="&#x17d;" horiz-adv-x="832" 
d="M49 703h734v-97l-706 -553h716v-53h-754v96l707 553h-697v54zM425 815l210 106l17 -30l-201 -101h-51l-199 101l15 30z" />
    <glyph glyph-name="zcaron" unicode="&#x17e;" horiz-adv-x="803" 
d="M88 503h627v-88l-595 -364h605v-51h-647v88l595 363h-585v52zM411 631l250 126l17 -30l-241 -121h-51l-239 121l15 30z" />
    <glyph glyph-name="Aacutering" unicode="&#x1fa;" horiz-adv-x="872" 
d="M436 682l-231 -452h463zM437 896q-25 0 -41 -16t-16 -41t16 -40.5t41 -15.5q24 0 40 15.5t16 40.5t-16 41t-40 16zM785 0l-91 177h-516l-91 -177h-63l359 703h107l358 -703h-63zM492 911l152 101l20 -28l-149 -100q11 -20 11 -45q0 -39 -25 -64t-64 -25t-64.5 25
t-25.5 64t25.5 64.5t64.5 25.5q30 0 55 -18z" />
    <glyph glyph-name="aacutering" unicode="&#x1fb;" horiz-adv-x="807" 
d="M662 217v44l-347 -27q-89 -7 -147 -36.5t-58 -68.5q0 -43 65.5 -70.5t168.5 -27.5q135 0 224.5 53.5t93.5 132.5zM410 722q-24 0 -40.5 -16t-15.5 -41q0 -25 16 -41t40 -16q25 0 40.5 16t15.5 41t-15.5 41t-40.5 16zM420 523q127 0 212 -50.5t85 -135.5v-337h-55v116
q-36 -61 -121.5 -98.5t-198.5 -37.5q-126 0 -206.5 40.5t-80.5 106.5q0 60 72.5 103.5t190.5 52.5l310 25q35 4 35 35q0 55 -68.5 91.5t-174.5 36.5q-101 0 -190 -33.5t-122 -85.5l-36 35q39 59 137.5 97.5t210.5 38.5zM461 740l153 102l20 -29l-148 -98q13 -23 13 -50
q1 -39 -24 -64t-64 -25t-64.5 25t-25.5 64t25 64t65 25q28 0 50 -14z" />
    <glyph glyph-name="AEacute" unicode="&#x1fc;" horiz-adv-x="1123" 
d="M535 202v482l-311 -482h311zM1054 0h-519v151h-344l-98 -151h-68l454 703h565v-53l-452 -1v-267h412v-51h-412v-278h462v-53zM724 904l19 -28l-174 -116l-19 28z" />
    <glyph glyph-name="aeacute" unicode="&#x1fd;" horiz-adv-x="1408" 
d="M344 31q136 0 224.5 50.5t88.5 128.5v47l-343 -28q-88 -7 -146 -36t-58 -66q0 -42 65.5 -69t168.5 -27zM979 471q-110 0 -184 -54.5t-79 -139.5h529q-2 84 -77.5 139t-188.5 55zM1302 260q0 -21 -1 -33h-584q14 -84 98.5 -139t202.5 -55q89 0 172.5 32t124.5 81l34 -40
q-47 -55 -140 -90.5t-192 -35.5q-112 0 -199.5 46t-123.5 121q-20 -73 -118 -120t-232 -47q-127 0 -208 40.5t-81 105.5q0 59 71 101t192 52l302 24q16 2 26 12t10 27q0 56 -66 92.5t-167 36.5q-98 0 -184.5 -33.5t-119.5 -85.5l-36 35q39 59 137.5 97.5t204.5 38.5
q102 0 176 -37.5t97 -99.5q30 59 109 98t173 39q141 0 231.5 -74.5t90.5 -188.5zM867 759l19 -29l-204 -136l-19 29z" />
    <glyph glyph-name="Oslashacute" unicode="&#x1fe;" horiz-adv-x="1099" 
d="M378 54l317 602q-66 18 -145 18q-182 0 -299.5 -91t-117.5 -232q0 -103 66 -182t179 -115zM729 646l-317 -601q61 -16 137 -16q181 0 298.5 91t117.5 231q0 102 -63.5 180t-172.5 115zM386 -5l-69 -129l-30 16l65 123q-128 42 -203 134t-75 212q0 164 134 270.5
t341 106.5q92 0 172 -23l60 114l31 -16l-57 -108q125 -43 197.5 -134t72.5 -210q0 -164 -134 -270t-342 -106q-86 0 -163 20zM701 921l19 -28l-174 -116l-19 29z" />
    <glyph glyph-name="oslashacute" unicode="&#x1ff;" horiz-adv-x="862" 
d="M312 48l217 411q-44 10 -98 10q-135 0 -222.5 -61.5t-87.5 -156.5q0 -71 51.5 -125.5t139.5 -77.5zM563 451l-216 -410q42 -8 84 -8q135 0 222.5 61.5t87.5 156.5q0 69 -48 122t-130 78zM321 -9l-122 -231l-30 16l117 223q-101 30 -160.5 97t-59.5 155q0 119 102.5 195.5
t262.5 76.5q65 0 124 -14l108 204l30 -16l-105 -198q96 -31 152 -96.5t56 -151.5q0 -118 -103 -194.5t-262 -76.5q-57 0 -110 11zM580 759l19 -29l-204 -136l-19 29z" />
    <glyph glyph-name="Scommaaccent" unicode="&#x218;" horiz-adv-x="927" 
d="M507 -25q-157 0 -274 67t-150 172l49 30q25 -93 130.5 -154t246.5 -61q119 0 197.5 44.5t78.5 110.5q0 24 -10.5 43t-33 33.5t-46.5 25t-62.5 19.5t-67.5 14.5t-75 12.5q-170 27 -230 50q-118 45 -117 142q0 90 84.5 147t212.5 57q113 0 206.5 -46t131.5 -118l-47 -33
q-33 63 -113 103t-177 40q-102 -1 -170.5 -43t-68.5 -103q0 -22 9 -39.5t30.5 -30.5t41.5 -22t57.5 -17.5t62 -13t70.5 -11.5q4 -1 6.5 -1t6 -1t6.5 -1q55 -9 88 -15.5t80 -18.5t75 -26t55.5 -34t40.5 -47.5t13 -61.5q0 -94 -94.5 -153.5t-242.5 -59.5zM444 -119
q0 16 10.5 26t27.5 10q22 0 35.5 -20t13.5 -53q-2 -86 -74 -86q-13 0 -26 3l6 28q12 -2 16 -2q23 0 35 14.5t9 40.5q-4 -1 -12 -1q-17 0 -29 11.5t-12 28.5z" />
    <glyph glyph-name="scommaaccent" unicode="&#x219;" horiz-adv-x="746" 
d="M411 -20q-133 0 -230 53.5t-119 137.5l48 23q18 -71 101 -117t198 -46q94 0 157.5 30t63.5 76q0 17 -10 30t-31 22.5t-39.5 16t-52.5 12t-52 7.5l-54 6q-46 4 -75 8t-65.5 11t-58 16t-42 23t-30 34t-9.5 46q1 69 68 111.5t172 42.5q92 0 169.5 -37.5t106.5 -95.5l-45 -29
q-25 49 -89.5 80.5t-141.5 31.5q-80 0 -133 -29t-53 -72q0 -23 17 -39t53 -25t68 -13.5t84 -9.5q54 -4 93 -9.5t80 -16t66 -25.5t41.5 -38.5t16.5 -54.5q0 -73 -77 -117t-196 -44zM334 -119q0 16 10.5 26t27.5 10q22 0 35 -19.5t13 -53.5q0 -42 -19.5 -64t-53.5 -22
q-13 0 -26 3l6 28q10 -2 16 -2q23 0 35 14.5t9 40.5q-4 -1 -12 -1q-17 0 -29 11.5t-12 28.5z" />
    <glyph glyph-name="dotlessj" unicode="&#x237;" horiz-adv-x="227" 
d="M90 -59v562h55v-568q0 -80 -55.5 -132.5t-138.5 -52.5q-54 0 -108.5 22.5t-83.5 57.5l35 40q22 -30 66.5 -49.5t87.5 -19.5q62 0 102 39.5t40 100.5z" />
    <glyph glyph-name="circumflex" unicode="&#x2c6;" horiz-adv-x="663" 
d="M581 593l-250 126l-249 -126l-16 30l240 121h50l241 -120z" />
    <glyph glyph-name="caron" unicode="&#x2c7;" horiz-adv-x="663" 
d="M331 631l250 126l16 -30l-241 -121h-50l-240 121l16 30z" />
    <glyph glyph-name="breve" unicode="&#x2d8;" horiz-adv-x="610" 
d="M305 596q-103 0 -170.5 41.5t-68.5 106.5h35q0 -49 57.5 -81.5t145.5 -32.5q90 0 148 32t57 82h34q1 -64 -66.5 -106t-171.5 -42z" />
    <glyph glyph-name="dotaccent" unicode="&#x2d9;" horiz-adv-x="221" 
d="M110 606q-19 0 -31.5 12.5t-12.5 31.5q0 20 12 32t32 12t32.5 -12.5t12.5 -31.5t-13 -31.5t-32 -12.5z" />
    <glyph glyph-name="ring" unicode="&#x2da;" horiz-adv-x="311" 
d="M156 596q-39 0 -64 25t-26 64q0 39 25.5 64t64.5 25q38 0 63 -25t26 -64q0 -39 -25 -64t-64 -25zM156 742q-25 0 -41 -16t-16 -41t16 -41t41 -16q24 0 40 16t16 41t-15.5 41t-40.5 16z" />
    <glyph glyph-name="ogonek" unicode="&#x2db;" horiz-adv-x="390" 
d="M101 -157q1 -26 22 -42.5t53 -16.5q28 0 57 13.5t46 33.5l22 -27q-21 -24 -55.5 -39t-70.5 -15q-46 0 -77 25.5t-32 64.5q-1 57 64 104t177 81l16 -25q-102 -33 -162 -73.5t-60 -83.5z" />
    <glyph glyph-name="tilde" unicode="&#x2dc;" horiz-adv-x="631" 
d="M532 724h33q0 -58 -38.5 -96t-97.5 -38q-36 0 -68 17t-52 38t-49 38t-61 17q-44 0 -72 -28.5t-28 -71.5h-33q0 58 38 95.5t97 37.5q36 0 68 -17t51.5 -38t48.5 -38t61 -17q45 0 73.5 28.5t28.5 72.5z" />
    <glyph glyph-name="hungarumlaut" unicode="&#x2dd;" horiz-adv-x="585" 
d="M85 594l-19 29l204 136l19 -29zM315 594l-19 29l203 136l20 -29z" />
    <glyph glyph-name="Wgrave" unicode="&#x1e80;" horiz-adv-x="1421" 
d="M982 0l-272 692l-271 -692h-107l-297 703h64l287 -682l267 682h114l268 -682l287 682h64l-297 -703h-107zM735 806l-19 -29l-174 116l20 28z" />
    <glyph glyph-name="wgrave" unicode="&#x1e81;" horiz-adv-x="1223" 
d="M1201 503l-244 -503h-101l-244 483l-240 -483h-100l-250 503h62l238 -482l240 482h101l243 -483l235 483h60zM649 623l-19 -28l-204 136l19 28z" />
    <glyph glyph-name="Wacute" unicode="&#x1e82;" horiz-adv-x="1421" 
d="M982 0l-272 692l-271 -692h-107l-297 703h64l287 -682l267 682h114l268 -682l287 682h64l-297 -703h-107zM708 777l-19 29l173 115l20 -28z" />
    <glyph glyph-name="wacute" unicode="&#x1e83;" horiz-adv-x="1223" 
d="M1201 503l-244 -503h-101l-244 483l-240 -483h-100l-250 503h62l238 -482l240 482h101l243 -483l235 483h60zM624 594l-19 29l203 136l20 -29z" />
    <glyph glyph-name="Wdieresis" unicode="&#x1e84;" horiz-adv-x="1421" 
d="M982 0l-272 692l-271 -692h-107l-297 703h64l287 -682l267 682h114l268 -682l287 682h64l-297 -703h-107zM556 809q-19 0 -31.5 12t-12.5 31t12.5 31t31.5 12t31.5 -12t12.5 -31t-12.5 -31t-31.5 -12zM867 809q-19 0 -31.5 12t-12.5 31t12.5 31t31.5 12t31.5 -12
t12.5 -31t-12.5 -31t-31.5 -12z" />
    <glyph glyph-name="wdieresis" unicode="&#x1e85;" horiz-adv-x="1223" 
d="M1201 503l-244 -503h-101l-244 483l-240 -483h-100l-250 503h62l238 -482l240 482h101l243 -483l235 483h60zM422 651q0 19 12.5 31t31.5 12t31.5 -12t12.5 -31t-12 -31.5t-32 -12.5t-32 12.5t-12 31.5zM737 651q0 19 12 31t32 12q19 0 31 -12t12 -31q0 -20 -12 -32
t-31 -12q-20 0 -32 12t-12 32z" />
    <glyph glyph-name="uni1E9E" unicode="&#x1e9e;" horiz-adv-x="876" 
d="M547 34q93 0 149 43t56 111q0 72 -63.5 119t-161.5 47h-226v51h190q86 0 137 33t51 86q0 61 -66.5 101t-167.5 40q-123 0 -202 -57t-79 -145v-463h-59v463q0 111 95.5 183.5t244.5 72.5q126 0 209.5 -54t83.5 -136q1 -50 -31 -89t-85 -53q85 -13 137 -67.5t52 -130.5
q0 -91 -74 -150t-192 -59q-98 0 -181.5 40.5t-117.5 103.5l41 37q29 -55 102.5 -91t157.5 -36z" />
    <glyph glyph-name="Ygrave" unicode="&#x1ef2;" horiz-adv-x="856" 
d="M428 330l302 373h75l-347 -428v-275h-59v275l-348 428h75zM452 788l-19 -28l-174 116l19 28z" />
    <glyph glyph-name="ygrave" unicode="&#x1ef3;" horiz-adv-x="722" 
d="M644 503h62l-308 -611q-31 -62 -82.5 -96t-116.5 -34q-69 0 -124 32t-79 82l42 34q16 -43 61 -70t98 -27q84 0 124.5 60.5t2.5 123.5l-310 506h65l310 -508zM396 617l-19 -28l-204 135l20 29z" />
    <glyph glyph-name="endash" unicode="&#x2013;" horiz-adv-x="845" 
d="M16 288v52h813v-52h-813z" />
    <glyph glyph-name="emdash" unicode="&#x2014;" horiz-adv-x="1145" 
d="M1079 297h-1013v34h1013v-34z" />
    <glyph glyph-name="quoteleft" unicode="&#x2018;" horiz-adv-x="248" 
d="M159 569q0 -19 -12 -31t-31 -12q-23 0 -36.5 20.5t-13.5 59.5q0 53 24 83.5t64 30.5q15 0 28 -4l-7 -28q-12 2 -17 2q-28 0 -44.5 -22.5t-13.5 -58.5q8 3 16 3q18 0 30.5 -12.5t12.5 -30.5z" />
    <glyph glyph-name="quoteright" unicode="&#x2019;" horiz-adv-x="248" 
d="M89 678q1 18 13 30t31 12q22 0 35.5 -20.5t13.5 -59.5q0 -53 -24 -83.5t-63 -30.5q-9 0 -29 4l8 29q9 -3 17 -3q28 0 44 22.5t14 58.5q-6 -2 -17 -2q-18 0 -30.5 12.5t-12.5 30.5z" />
    <glyph glyph-name="quotesinglbase" unicode="&#x201a;" horiz-adv-x="248" 
d="M89 33q1 19 13 31t31 12q22 0 35.5 -21t13.5 -60q0 -52 -24 -82.5t-63 -30.5q-14 0 -29 3l8 29q12 -2 17 -2q28 0 44 22.5t14 58.5q-9 -3 -17 -3q-18 0 -30.5 12.5t-12.5 30.5z" />
    <glyph glyph-name="quotedblleft" unicode="&#x201c;" horiz-adv-x="394" 
d="M159 569q0 -19 -12 -30.5t-31 -11.5q-50 0 -50 80q0 52 24 82.5t64 30.5q13 0 28 -3l-7 -29q-6 2 -17 2q-28 0 -44.5 -22.5t-13.5 -58.5q8 3 16 3q18 0 30.5 -12.5t12.5 -30.5zM305 570q0 -19 -12.5 -31t-31.5 -12q-22 0 -35.5 21t-13.5 60q0 52 24 82.5t63 30.5
q14 0 29 -3l-8 -29q-12 2 -17 2q-28 0 -44 -22.5t-14 -58.5q9 3 17 3q18 0 30.5 -12.5t12.5 -30.5z" />
    <glyph glyph-name="quotedblright" unicode="&#x201d;" horiz-adv-x="393" 
d="M89 678q1 18 13 30t31 12q22 0 35.5 -20.5t13.5 -59.5q0 -53 -24 -83.5t-63 -30.5q-9 0 -29 4l8 29q9 -3 17 -3q28 0 44 22.5t14 58.5q-6 -2 -17 -2q-18 0 -30.5 12.5t-12.5 30.5zM234 678q0 18 12.5 30t31.5 12q22 0 35.5 -20.5t13.5 -59.5q0 -53 -24 -83.5t-63 -30.5
q-9 0 -29 4l8 29q9 -3 17 -3q28 0 44 22.5t14 58.5q-6 -2 -17 -2q-18 0 -30.5 12.5t-12.5 30.5z" />
    <glyph glyph-name="quotedblbase" unicode="&#x201e;" horiz-adv-x="395" 
d="M89 33q0 19 12 31t31 12q50 0 50 -81q0 -52 -24 -82.5t-64 -30.5q-13 0 -28 3l7 29q12 -2 18 -2q27 0 43.5 22.5t13.5 58.5q-8 -3 -16 -3q-18 0 -30.5 12.5t-12.5 30.5zM236 33q0 19 12 31t31 12q50 0 50 -81q0 -52 -24 -82.5t-64 -30.5q-13 0 -28 3l7 29q12 -2 17 -2
q28 0 44.5 22.5t13.5 58.5q-7 -3 -16 -3q-18 0 -30.5 12.5t-12.5 30.5z" />
    <glyph glyph-name="bullet" unicode="&#x2022;" horiz-adv-x="227" 
d="M113 264q-20 0 -33.5 13t-13.5 33t13.5 33t33.5 13q21 0 34 -13t13 -33t-13 -33t-34 -13z" />
    <glyph glyph-name="ellipsis" unicode="&#x2026;" horiz-adv-x="603" 
d="M66 33q0 19 12.5 31t31.5 12q20 0 32.5 -12t12.5 -31t-12.5 -31.5t-32.5 -12.5q-19 0 -31.5 12.5t-12.5 31.5zM257 33q0 19 12.5 31t31.5 12q20 0 32.5 -12t12.5 -31t-12.5 -31.5t-32.5 -12.5q-19 0 -31.5 12.5t-12.5 31.5zM448 33q0 19 12.5 31t31.5 12q20 0 32.5 -12
t12.5 -31t-12.5 -31.5t-32.5 -12.5t-32 12.5t-12 31.5z" />
    <glyph glyph-name="perthousand" unicode="&#x2030;" horiz-adv-x="1529" 
d="M1265 388q86 0 142 -56.5t56 -143.5t-56 -143.5t-142 -56.5q-87 0 -144 56.5t-56 143.5q0 87 56.5 143.5t143.5 56.5zM1266 337q-66 0 -108.5 -42t-42.5 -107t42.5 -106.5t108.5 -41.5q64 0 105.5 42t41.5 106q0 65 -41.5 107t-105.5 42zM254 9l508 734l29 -19l-508 -734
zM266 738q86 0 142.5 -56.5t56.5 -143.5t-56 -143.5t-143 -56.5t-143.5 56.5t-56.5 143.5t57 143.5t143 56.5zM267 687q-65 0 -107.5 -42t-42.5 -107q0 -64 42.5 -106t107.5 -42q64 0 105.5 42t41.5 106q0 65 -41.5 107t-105.5 42zM774 388q87 0 143.5 -56.5t56.5 -143.5
t-56.5 -143.5t-143.5 -56.5q-86 0 -143 56.5t-56 143.5q0 87 56.5 143.5t142.5 56.5zM775 337q-65 0 -107.5 -42t-42.5 -107q0 -64 42.5 -106t107.5 -42t106.5 42t41.5 106q0 65 -42 107t-106 42z" />
    <glyph glyph-name="guilsinglleft" unicode="&#x2039;" horiz-adv-x="474" 
d="M407 16l-22 -26l-310 261l310 262l23 -27l-280 -235z" />
    <glyph glyph-name="guilsinglright" unicode="&#x203a;" horiz-adv-x="474" 
d="M97 -10l-21 26l278 235l-279 235l22 27l311 -262z" />
    <glyph glyph-name="lira" unicode="&#x20a4;" horiz-adv-x="817" 
d="M693 268h-461q0 -75 -29.5 -135.5t-76.5 -82.5h623v-50h-683v67q48 8 79.5 64.5t31.5 136.5h-102v34h102v61h-102v34h102l-1 128q1 88 77.5 145t198.5 57q125 0 208 -58.5t91 -150.5l-54 -9q-7 74 -74.5 121t-169.5 47q-98 0 -159 -42.5t-61 -109.5v-128h460v-34h-460
v-61h460v-34z" />
    <glyph glyph-name="Euro" unicode="&#x20ac;" horiz-adv-x="1158" 
d="M1029 258l54 -19q-41 -115 -166.5 -189.5t-281.5 -74.5q-171 0 -296.5 83t-157.5 216h-116v35h110q-2 14 -2 42q0 26 3 50h-111v35h117q30 131 143.5 211.5t271.5 80.5q140 0 251.5 -65.5t152.5 -169.5l-53 -22q-33 90 -130 146.5t-220 56.5q-133 0 -229 -65.5
t-126 -172.5h562v-35h-570q-3 -24 -3 -50q0 -23 3 -42h570v-35h-563q32 -110 140.5 -178t253.5 -68q137 1 247 65t146 165z" />
    <glyph glyph-name="trademark" unicode="&#x2122;" horiz-adv-x="1305" 
d="M19 703h460v-47h-205v-376h-50v376h-205v47zM655 703l224 -399l224 399h92l1 -423h-50v397l-224 -397h-86l-223 397v-397h-50v423h92z" />
    <glyph glyph-name="uni2190" unicode="&#x2190;" horiz-adv-x="648" 
d="M582 308v-34h-452l181 -188l-25 -24l-220 229l220 229l25 -24l-181 -188h452z" />
    <glyph glyph-name="uni2191" unicode="&#x2191;" horiz-adv-x="589" 
d="M312 0h-34v452l-188 -181l-24 25l229 220l229 -220l-24 -25l-188 181v-452z" />
    <glyph glyph-name="uni2192" unicode="&#x2192;" horiz-adv-x="648" 
d="M66 274v34h452l-181 188l25 24l220 -229l-220 -229l-25 24l181 188h-452z" />
    <glyph glyph-name="uni2193" unicode="&#x2193;" horiz-adv-x="589" 
d="M278 516h34v-452l188 181l24 -25l-229 -220l-229 220l24 25l188 -181v452z" />
    <glyph glyph-name="uni2196" unicode="&#x2196;" horiz-adv-x="515" 
d="M449 121l-24 -25l-320 320l-5 -261l-34 1l6 317l318 7l1 -35l-261 -5z" />
    <glyph glyph-name="uni2197" unicode="&#x2197;" horiz-adv-x="515" 
d="M90 96l-24 25l319 319l-261 5l1 35l318 -7l6 -317l-34 -1l-5 261z" />
    <glyph glyph-name="uni2198" unicode="&#x2198;" horiz-adv-x="515" 
d="M66 461l24 25l320 -320l5 261l34 -1l-6 -317l-318 -7v35l260 5z" />
    <glyph glyph-name="uni2199" unicode="&#x2199;" horiz-adv-x="515" 
d="M425 480l24 -24l-319 -320l261 -5l-1 -35l-318 7l-6 317l34 1l5 -261z" />
    <glyph glyph-name="minus" unicode="&#x2212;" horiz-adv-x="742" 
d="M676 348h-610v52h610v-52z" />
    <glyph glyph-name="notequal" unicode="&#x2260;" horiz-adv-x="802" 
d="M223 -60l-30 16l120 228h-247v52h274l106 199h-380v52h407l119 226l30 -16l-111 -210h225v-52h-252l-105 -199h357v-52h-384z" />
    <glyph glyph-name="lessequal" unicode="&#x2264;" horiz-adv-x="650" 
d="M38 103v34h546v-34h-546zM584 548l-524 -147l524 -148l-12 -50l-534 152v91l533 152z" />
    <glyph glyph-name="greaterequal" unicode="&#x2265;" horiz-adv-x="650" 
d="M613 137v-34h-547v34h547zM590 401l-524 147l13 50l534 -152v-91l-534 -152l-13 50z" />
    <glyph glyph-name="commaaccent" unicode="&#xf6c3;" horiz-adv-x="234" 
d="M81 -119q0 16 10.5 26t27.5 10q22 0 35.5 -20t12.5 -54q0 -41 -19.5 -63t-53.5 -22q-12 0 -26 3l6 28q12 -2 16 -2q23 0 35 14.5t9 40.5q-4 -1 -12 -1q-17 0 -29 11.5t-12 28.5z" />
    <glyph glyph-name="acute.case" horiz-adv-x="326" 
d="M85 777l-19 29l174 115l19 -28z" />
    <glyph glyph-name="breve.case" horiz-adv-x="530" 
d="M265 790q-88 0 -143 33t-56 91h35q0 -43 45 -66.5t118 -23.5q74 0 120 23.5t45 66.5h34q1 -58 -54.5 -91t-143.5 -33z" />
    <glyph glyph-name="caron.case" horiz-adv-x="583" 
d="M291 815l210 106l16 -30l-201 -101h-50l-200 101l16 30z" />
    <glyph glyph-name="circumflex.case" horiz-adv-x="583" 
d="M501 783l-210 106l-209 -106l-16 30l200 101h50l201 -100z" />
    <glyph glyph-name="dieresis.case" horiz-adv-x="531" 
d="M110 809q-19 0 -31.5 12t-12.5 31t12.5 31t31.5 12q20 0 32.5 -12t12.5 -31t-12.5 -31t-32.5 -12zM421 809q-19 0 -31.5 12t-12.5 31t12.5 31t31.5 12t31.5 -12t12.5 -31t-12.5 -31t-31.5 -12z" />
    <glyph glyph-name="dotaccent.case" horiz-adv-x="221" 
d="M110 809q-19 0 -31.5 12.5t-12.5 31.5t12.5 31t31.5 12q20 0 32.5 -12t12.5 -31t-12.5 -31.5t-32.5 -12.5z" />
    <glyph glyph-name="grave.case" horiz-adv-x="326" 
d="M259 806l-19 -29l-174 116l20 28z" />
    <glyph glyph-name="ring.case" horiz-adv-x="311" 
d="M156 786q-39 0 -64 25t-26 64q0 39 25.5 64t64.5 25q38 0 63 -25t26 -64q0 -39 -25 -64t-64 -25zM156 932q-25 0 -41 -16t-16 -41t16 -41t41 -16q24 0 40 16t16 41t-15.5 41t-40.5 16z" />
    <glyph glyph-name="tilde.case" horiz-adv-x="631" 
d="M532 914h33q0 -58 -38.5 -96t-97.5 -38q-36 0 -68 17t-52 38t-49 38t-61 17q-44 0 -72 -28.5t-28 -71.5h-33q0 58 38 95.5t97 37.5q36 0 68 -17t51.5 -38t48.5 -38t61 -17q45 0 73.5 28.5t28.5 72.5z" />
    <glyph glyph-name="caronalt" horiz-adv-x="234" 
d="M81 680q0 16 11 26.5t27 10.5q22 0 35.5 -20t12.5 -54q0 -41 -19.5 -63.5t-53.5 -22.5q-12 0 -26 3l6 28q6 -1 16 -1q23 0 35 14.5t9 40.5q-8 -2 -12 -2q-17 0 -29 11.5t-12 28.5z" />
    <glyph glyph-name="ijacute" horiz-adv-x="466" 
d="M82 0v503h55v-503h-55zM378 503v-568q0 -80 -55.5 -132.5t-139.5 -52.5q-54 0 -107.5 22.5t-83.5 57.5l35 40q22 -30 66 -49.5t87 -19.5q62 0 102.5 39.5t40.5 100.5v562h55zM107 594l-19 29l203 136l20 -29zM349 594l-20 29l204 136l19 -29z" />
    <glyph glyph-name="hungarumlaut.case" horiz-adv-x="554" 
d="M85 777l-19 29l174 115l19 -28zM314 777l-19 29l174 115l19 -28z" />
    <glyph glyph-name="IJacute" horiz-adv-x="963" 
d="M174 0h-59v703h59v-703zM794 239v464h59v-468q0 -111 -67.5 -183t-173.5 -72q-96 0 -172 59.5t-94 149.5l52 22q13 -77 74 -127.5t137 -50.5q82 0 133.5 58t51.5 148zM315 893l-174 -116l-19 29l174 115zM990 893l-175 -116l-19 29l174 115z" />
    <glyph glyph-name="k.alt1" horiz-adv-x="630" 
d="M516 503h97l-313 -198l322 -305h-76l-291 277l-104 -65v-212h-55v733h55v-461z" />
    <glyph glyph-name="K.alt1" horiz-adv-x="804" 
d="M302 388l-128 -86v-302h-59v703h59v-333l497 333h99l-422 -283l430 -420h-84z" />
    <glyph glyph-name="kcommaaccent.alt1" horiz-adv-x="630" 
d="M516 503h97l-313 -198l322 -305h-76l-291 277l-104 -65v-212h-55v733h55v-461zM279 -119q0 16 10.5 26t27.5 10q22 0 35 -20t13 -54q0 -41 -19.5 -63t-53.5 -22q-12 0 -26 3l5 28q12 -2 17 -2q23 0 35 14.5t9 40.5q-4 -1 -12 -1q-17 0 -29.5 11.5t-11.5 28.5z" />
    <glyph glyph-name="Kcommaaccent.alt1" horiz-adv-x="804" 
d="M302 388l-128 -86v-302h-59v703h59v-333l497 333h99l-422 -283l430 -420h-84zM374 -119q0 16 11 26t28 10q22 0 35 -20t13 -54q0 -41 -19.5 -63t-53.5 -22q-12 0 -26 3l5 28q12 -2 17 -2q23 0 35 14.5t9 40.5q-4 -1 -13 -1q-16 0 -28.5 11.5t-12.5 28.5z" />
    <glyph glyph-name="y.alt2" horiz-adv-x="832" 
d="M91 503h55v-212q0 -117 73.5 -188.5t188.5 -71.5q119 0 196 76t77 201v195h55v-453q0 -131 -100 -215.5t-256 -84.5q-125 0 -231.5 54.5t-147.5 138.5l45 32q35 -75 128.5 -124.5t204.5 -49.5q133 0 217.5 70t84.5 179v98q-33 -80 -105 -124t-171 -44q-141 0 -227.5 84.5
t-86.5 222.5v216z" />
    <glyph glyph-name="y.alt1" horiz-adv-x="724" 
d="M359 -20l-343 523h65l307 -470l259 470h61l-402 -733h-62z" />
    <glyph glyph-name="a.alt2" horiz-adv-x="891" 
d="M121 251q0 -94 88 -155.5t222 -61.5q135 0 222.5 61t87.5 156t-87.5 156.5t-222.5 61.5q-134 0 -222 -62t-88 -156zM66 251q0 118 102 195t259 77q111 0 195.5 -41t117.5 -109v130h55v-503h-54v131q-33 -69 -117 -110t-196 -41q-157 0 -259.5 76.5t-102.5 194.5z" />
    <glyph glyph-name="a.alt1" horiz-adv-x="893" 
d="M344 31q135 0 224.5 53.5t93.5 132.5v44l-347 -27q-89 -7 -147 -36.5t-58 -68.5q0 -43 65.5 -70.5t168.5 -27.5zM420 470q-101 0 -190 -33.5t-122 -85.5l-36 35q39 58 137.5 96.5t210.5 38.5q127 0 212 -50t85 -135v-238q0 -29 16.5 -47.5t43.5 -18.5q21 0 41.5 10.5
t30.5 26.5l32 -36q-15 -23 -46.5 -38t-64.5 -15q-48 0 -78 32t-30 82v21q-36 -61 -122 -98.5t-198 -37.5q-126 0 -206.5 40.5t-80.5 105.5q0 61 72 104.5t191 52.5l310 25q16 2 25.5 11t9.5 24q0 54 -68.5 91t-174.5 37z" />
    <glyph glyph-name="u.alt1" horiz-adv-x="822" 
d="M88 288v215h56v-215q0 -112 75 -184.5t192 -72.5t192 72.5t75 185.5v214h55v-214q0 -134 -91 -221.5t-232 -87.5q-140 0 -231 87t-91 221z" />
    <glyph glyph-name="R.alt1" horiz-adv-x="959" 
d="M612 649h-439v-295h439q84 0 138.5 42t54.5 105q0 66 -54 107t-139 41zM730 197l40 -103q11 -31 25 -46.5t39 -15.5q34 0 60 41l33 -35q-39 -58 -100 -58q-76 0 -113 98l-46 115q-40 107 -126 107h-368v-300h-59v702h501q108 1 178 -55.5t70 -142.5q0 -78 -60.5 -132.5
t-154.5 -60.5q49 -30 81 -114z" />
    <glyph glyph-name="R.alt2" horiz-adv-x="934" 
d="M612 649h-439v-295h439q84 0 138.5 41.5t54.5 105.5q0 66 -54 107t-139 41zM656 309l203 -309h-70l-194 300h-421v-300h-59v702h501q107 1 177.5 -56t70.5 -143q0 -76 -58.5 -131t-149.5 -63z" />
    <glyph glyph-name="three.alt1" 
d="M601 373q76 -22 120 -70t44 -112q0 -96 -93.5 -156t-234.5 -60q-145 0 -245 64.5t-118 167.5l54 20q11 -88 95 -143.5t213 -55.5q117 0 194 46t77 119q0 66 -65 106t-163 40h-142v52h134q85 0 134 36.5t49 91.5q-1 63 -62 104.5t-155 41.5q-105 0 -175.5 -51.5
t-78.5 -132.5l-58 16q14 99 100.5 160.5t211.5 61.5q120 0 198 -55.5t78 -140.5q0 -52 -30.5 -93.5t-81.5 -56.5z" />
    <glyph glyph-name="G.alt1" horiz-adv-x="1100" 
d="M963 0l-5 181q-53 -96 -160.5 -151t-250.5 -55q-205 0 -338.5 106t-133.5 270t126.5 270.5t322.5 106.5q135 0 245 -61t139 -154l-55 -16q-26 77 -119.5 127t-208.5 50q-171 1 -281 -90t-110 -233q0 -140 118.5 -231.5t301.5 -91.5q173 0 289 86.5t116 218.5h-628v52h684
v-385h-52z" />
    <glyph glyph-name="agrave.alt1" horiz-adv-x="893" 
d="M344 31q135 0 224.5 53.5t93.5 132.5v44l-347 -27q-89 -7 -147 -36.5t-58 -68.5q0 -43 65.5 -70.5t168.5 -27.5zM420 470q-101 0 -190 -33.5t-122 -85.5l-36 35q39 58 137.5 96.5t210.5 38.5q127 0 212 -50t85 -135v-238q0 -29 16.5 -47.5t43.5 -18.5q21 0 41.5 10.5
t30.5 26.5l32 -36q-15 -23 -46.5 -38t-64.5 -15q-48 0 -78 32t-30 82v21q-36 -61 -122 -98.5t-198 -37.5q-126 0 -206.5 40.5t-80.5 105.5q0 61 72 104.5t191 52.5l310 25q16 2 25.5 11t9.5 24q0 54 -68.5 91t-174.5 37zM224 731l20 28l203 -136l-19 -28z" />
    <glyph glyph-name="aacute.alt1" horiz-adv-x="893" 
d="M344 31q135 0 224.5 53.5t93.5 132.5v44l-347 -27q-89 -7 -147 -36.5t-58 -68.5q0 -43 65.5 -70.5t168.5 -27.5zM420 470q-101 0 -190 -33.5t-122 -85.5l-36 35q39 58 137.5 96.5t210.5 38.5q127 0 212 -50t85 -135v-238q0 -29 16.5 -47.5t43.5 -18.5q21 0 41.5 10.5
t30.5 26.5l32 -36q-15 -23 -46.5 -38t-64.5 -15q-48 0 -78 32t-30 82v21q-36 -61 -122 -98.5t-198 -37.5q-126 0 -206.5 40.5t-80.5 105.5q0 61 72 104.5t191 52.5l310 25q16 2 25.5 11t9.5 24q0 54 -68.5 91t-174.5 37zM607 759l19 -29l-204 -136l-19 29z" />
    <glyph glyph-name="aring.alt1" horiz-adv-x="893" 
d="M344 31q135 0 224.5 53.5t93.5 132.5v44l-347 -27q-89 -7 -147 -36.5t-58 -68.5q0 -43 65.5 -70.5t168.5 -27.5zM422 742q-25 0 -41 -16t-16 -41t16 -41t41 -16t40.5 16t15.5 41t-15.5 41t-40.5 16zM420 470q-101 0 -190 -33.5t-122 -85.5l-36 35q39 58 137.5 96.5
t210.5 38.5q127 0 212 -50t85 -135v-238q0 -29 16.5 -47.5t43.5 -18.5q21 0 41.5 10.5t30.5 26.5l32 -36q-15 -23 -46.5 -38t-64.5 -15q-48 0 -78 32t-30 82v21q-36 -61 -122 -98.5t-198 -37.5q-126 0 -206.5 40.5t-80.5 105.5q0 61 72 104.5t191 52.5l310 25q16 2 25.5 11
t9.5 24q0 54 -68.5 91t-174.5 37zM422 596q-38 0 -63.5 25t-25.5 64q-1 39 24.5 64t64.5 25t64 -25t25 -64t-25 -64t-64 -25z" />
    <glyph glyph-name="amacron.alt1" horiz-adv-x="893" 
d="M344 31q135 0 224.5 53.5t93.5 132.5v44l-347 -27q-89 -7 -147 -36.5t-58 -68.5q0 -43 65.5 -70.5t168.5 -27.5zM420 470q-101 0 -190 -33.5t-122 -85.5l-36 35q39 58 137.5 96.5t210.5 38.5q127 0 212 -50t85 -135v-238q0 -29 16.5 -47.5t43.5 -18.5q21 0 41.5 10.5
t30.5 26.5l32 -36q-15 -23 -46.5 -38t-64.5 -15q-48 0 -78 32t-30 82v21q-36 -61 -122 -98.5t-198 -37.5q-126 0 -206.5 40.5t-80.5 105.5q0 61 72 104.5t191 52.5l310 25q16 2 25.5 11t9.5 24q0 54 -68.5 91t-174.5 37zM654 674v-34h-465v34h465z" />
    <glyph glyph-name="atilde.alt1" horiz-adv-x="893" 
d="M344 31q135 0 224.5 53.5t93.5 132.5v44l-347 -27q-89 -7 -147 -36.5t-58 -68.5q0 -43 65.5 -70.5t168.5 -27.5zM420 470q-101 0 -190 -33.5t-122 -85.5l-36 35q39 58 137.5 96.5t210.5 38.5q127 0 212 -50t85 -135v-238q0 -29 16.5 -47.5t43.5 -18.5q21 0 41.5 10.5
t30.5 26.5l32 -36q-15 -23 -46.5 -38t-64.5 -15q-48 0 -78 32t-30 82v21q-36 -61 -122 -98.5t-198 -37.5q-126 0 -206.5 40.5t-80.5 105.5q0 61 72 104.5t191 52.5l310 25q16 2 25.5 11t9.5 24q0 54 -68.5 91t-174.5 37zM639 724h33q0 -58 -38.5 -96t-97.5 -38q-36 0 -68 17
t-52 38t-49 38t-61 17q-44 0 -72 -28.5t-28 -71.5h-33q0 58 38 95.5t97 37.5q36 0 68 -17t51.5 -38t48.5 -38t61 -17q45 0 73.5 28.5t28.5 72.5z" />
    <glyph glyph-name="adieresis.alt1" horiz-adv-x="893" 
d="M344 31q135 0 224.5 53.5t93.5 132.5v44l-347 -27q-89 -7 -147 -36.5t-58 -68.5q0 -43 65.5 -70.5t168.5 -27.5zM420 470q-101 0 -190 -33.5t-122 -85.5l-36 35q39 58 137.5 96.5t210.5 38.5q127 0 212 -50t85 -135v-238q0 -29 16.5 -47.5t43.5 -18.5q21 0 41.5 10.5
t30.5 26.5l32 -36q-15 -23 -46.5 -38t-64.5 -15q-48 0 -78 32t-30 82v21q-36 -61 -122 -98.5t-198 -37.5q-126 0 -206.5 40.5t-80.5 105.5q0 61 72 104.5t191 52.5l310 25q16 2 25.5 11t9.5 24q0 54 -68.5 91t-174.5 37zM220 651q0 19 12.5 31t32.5 12q19 0 31.5 -12
t12.5 -31t-12.5 -31.5t-31.5 -12.5q-20 0 -32.5 12t-12.5 32zM535 651q0 19 12.5 31t31.5 12t31.5 -12t12.5 -31t-12.5 -31.5t-31.5 -12.5t-31.5 12.5t-12.5 31.5z" />
    <glyph glyph-name="acircumflex.alt1" horiz-adv-x="893" 
d="M344 31q135 0 224.5 53.5t93.5 132.5v44l-347 -27q-89 -7 -147 -36.5t-58 -68.5q0 -43 65.5 -70.5t168.5 -27.5zM420 470q-101 0 -190 -33.5t-122 -85.5l-36 35q39 58 137.5 96.5t210.5 38.5q127 0 212 -50t85 -135v-238q0 -29 16.5 -47.5t43.5 -18.5q21 0 41.5 10.5
t30.5 26.5l32 -36q-15 -23 -46.5 -38t-64.5 -15q-48 0 -78 32t-30 82v21q-36 -61 -122 -98.5t-198 -37.5q-126 0 -206.5 40.5t-80.5 105.5q0 61 72 104.5t191 52.5l310 25q16 2 25.5 11t9.5 24q0 54 -68.5 91t-174.5 37zM422 719l-248 -126l-16 30l239 121h51l241 -120
l-16 -31z" />
    <glyph glyph-name="abreve.alt1" horiz-adv-x="893" 
d="M344 31q135 0 224.5 53.5t93.5 132.5v44l-347 -27q-89 -7 -147 -36.5t-58 -68.5q0 -43 65.5 -70.5t168.5 -27.5zM420 470q-101 0 -190 -33.5t-122 -85.5l-36 35q39 58 137.5 96.5t210.5 38.5q127 0 212 -50t85 -135v-238q0 -29 16.5 -47.5t43.5 -18.5q21 0 41.5 10.5
t30.5 26.5l32 -36q-15 -23 -46.5 -38t-64.5 -15q-48 0 -78 32t-30 82v21q-36 -61 -122 -98.5t-198 -37.5q-126 0 -206.5 40.5t-80.5 105.5q0 61 72 104.5t191 52.5l310 25q16 2 25.5 11t9.5 24q0 54 -68.5 91t-174.5 37zM421 596q-104 0 -171 42t-67 106h34q1 -50 58.5 -82
t145.5 -32q89 0 147 32t58 82h34q0 -65 -67.5 -106.5t-171.5 -41.5z" />
    <glyph glyph-name="aogonek.alt1" horiz-adv-x="893" 
d="M344 31q135 0 224.5 53.5t93.5 132.5v44l-347 -27q-89 -7 -147 -36.5t-58 -68.5q0 -43 65.5 -70.5t168.5 -27.5zM586 -160q-1 83 141 148q-30 12 -47.5 40.5t-17.5 65.5v21q-36 -61 -122 -98.5t-198 -37.5q-126 0 -206.5 40.5t-80.5 105.5q0 61 72 104.5t191 52.5l310 25
q16 2 25.5 11t9.5 24q0 54 -68.5 91t-174.5 37q-101 0 -190 -33.5t-122 -85.5l-36 35q39 58 137.5 96.5t210.5 38.5q127 0 212 -50t85 -135v-238q0 -29 16.5 -47.5t43.5 -18.5q21 0 41.5 10.5t30.5 26.5l32 -36q-26 -42 -90 -51q-170 -67 -170 -139q1 -26 22 -42.5t53 -16.5
q28 0 57 13.5t46 33.5l22 -27q-21 -24 -55.5 -39t-70.5 -15q-46 0 -77 25.5t-32 64.5z" />
    <glyph glyph-name="aacutering.alt1" horiz-adv-x="893" 
d="M344 31q135 0 224.5 53.5t93.5 132.5v44l-347 -27q-89 -7 -147 -36.5t-58 -68.5q0 -43 65.5 -70.5t168.5 -27.5zM410 722q-24 0 -40.5 -16t-15.5 -41q0 -25 16 -41t40 -16q25 0 40.5 16t15.5 41t-15.5 41t-40.5 16zM420 470q-101 0 -190 -33.5t-122 -85.5l-36 35
q39 58 137.5 96.5t210.5 38.5q127 0 212 -50t85 -135v-238q0 -29 16.5 -47.5t43.5 -18.5q21 0 41.5 10.5t30.5 26.5l32 -36q-15 -23 -46.5 -38t-64.5 -15q-48 0 -78 32t-30 82v21q-36 -61 -122 -98.5t-198 -37.5q-126 0 -206.5 40.5t-80.5 105.5q0 61 72 104.5t191 52.5
l310 25q16 2 25.5 11t9.5 24q0 54 -68.5 91t-174.5 37zM461 740l153 102l20 -29l-148 -98q13 -23 13 -50q1 -39 -24 -64t-64 -25t-64.5 25t-25.5 64t25 64t65 25q28 0 50 -14z" />
    <glyph glyph-name="agrave.alt2" horiz-adv-x="891" 
d="M121 251q0 -94 88 -155.5t222 -61.5q135 0 222.5 61t87.5 156t-87.5 156.5t-222.5 61.5q-134 0 -222 -62t-88 -156zM66 251q0 118 102 195t259 77q111 0 195.5 -41t117.5 -109v130h55v-503h-54v131q-33 -69 -117 -110t-196 -41q-157 0 -259.5 76.5t-102.5 194.5zM253 759
l203 -136l-19 -28l-204 136z" />
    <glyph glyph-name="aacute.alt2" horiz-adv-x="891" 
d="M121 251q0 -94 88 -155.5t222 -61.5q135 0 222.5 61t87.5 156t-87.5 156.5t-222.5 61.5q-134 0 -222 -62t-88 -156zM66 251q0 118 102 195t259 77q111 0 195.5 -41t117.5 -109v130h55v-503h-54v131q-33 -69 -117 -110t-196 -41q-157 0 -259.5 76.5t-102.5 194.5zM636 730
l-204 -136l-19 29l203 136z" />
    <glyph glyph-name="aring.alt2" horiz-adv-x="891" 
d="M121 251q0 -94 88 -155.5t222 -61.5q135 0 222.5 61t87.5 156t-87.5 156.5t-222.5 61.5q-134 0 -222 -62t-88 -156zM431 742q-24 0 -40.5 -16t-16.5 -41q1 -25 17 -41t40 -16q25 0 40.5 16t15.5 41t-15.5 41t-40.5 16zM66 251q0 118 102 195t259 77q111 0 195.5 -41
t117.5 -109v130h55v-503h-54v131q-33 -69 -117 -110t-196 -41q-157 0 -259.5 76.5t-102.5 194.5zM432 596q-39 0 -64.5 25t-25.5 64t25 64t65 25q38 0 63 -25t25 -64q1 -39 -24 -64t-64 -25z" />
    <glyph glyph-name="amacron.alt2" horiz-adv-x="891" 
d="M121 251q0 -94 88 -155.5t222 -61.5q135 0 222.5 61t87.5 156t-87.5 156.5t-222.5 61.5q-134 0 -222 -62t-88 -156zM66 251q0 118 102 195t259 77q111 0 195.5 -41t117.5 -109v130h55v-503h-54v131q-33 -69 -117 -110t-196 -41q-157 0 -259.5 76.5t-102.5 194.5zM664 640
h-466v34h466v-34z" />
    <glyph glyph-name="atilde.alt2" horiz-adv-x="891" 
d="M121 251q0 -94 88 -155.5t222 -61.5q135 0 222.5 61t87.5 156t-87.5 156.5t-222.5 61.5q-134 0 -222 -62t-88 -156zM66 251q0 118 102 195t259 77q111 0 195.5 -41t117.5 -109v130h55v-503h-54v131q-33 -69 -117 -110t-196 -41q-157 0 -259.5 76.5t-102.5 194.5zM649 724
h32q0 -58 -38.5 -96t-97.5 -38q-36 0 -68 17t-52 38t-49 38t-61 17q-44 0 -72 -28.5t-28 -71.5h-32q0 58 38 95.5t96 37.5q30 0 56 -11.5t45 -27.5t37.5 -32t42 -27.5t49.5 -11.5q45 0 73.5 28.5t28.5 72.5z" />
    <glyph glyph-name="adieresis.alt2" horiz-adv-x="891" 
d="M121 251q0 -94 88 -155.5t222 -61.5q135 0 222.5 61t87.5 156t-87.5 156.5t-222.5 61.5q-134 0 -222 -62t-88 -156zM66 251q0 118 102 195t259 77q111 0 195.5 -41t117.5 -109v130h55v-503h-54v131q-33 -69 -117 -110t-196 -41q-157 0 -259.5 76.5t-102.5 194.5zM230 651
q0 19 12.5 31t31.5 12t31.5 -12t12.5 -31t-12 -31.5t-32 -12.5t-32 12.5t-12 31.5zM544 651q0 19 12.5 31t31.5 12t31.5 -12t12.5 -31t-12 -31.5t-32 -12.5t-32 12.5t-12 31.5z" />
    <glyph glyph-name="acircumflex.alt2" horiz-adv-x="891" 
d="M121 251q0 -94 88 -155.5t222 -61.5q135 0 222.5 61t87.5 156t-87.5 156.5t-222.5 61.5q-134 0 -222 -62t-88 -156zM66 251q0 118 102 195t259 77q111 0 195.5 -41t117.5 -109v130h55v-503h-54v131q-33 -69 -117 -110t-196 -41q-157 0 -259.5 76.5t-102.5 194.5zM183 593
l-16 30l240 121h50l241 -120l-16 -31l-250 126z" />
    <glyph glyph-name="abreve.alt2" horiz-adv-x="891" 
d="M121 251q0 -94 88 -155.5t222 -61.5q135 0 222.5 61t87.5 156t-87.5 156.5t-222.5 61.5q-134 0 -222 -62t-88 -156zM66 251q0 118 102 195t259 77q111 0 195.5 -41t117.5 -109v130h55v-503h-54v131q-33 -69 -117 -110t-196 -41q-157 0 -259.5 76.5t-102.5 194.5zM431 596
q-103 0 -170.5 41.5t-68.5 106.5h35q0 -50 57.5 -82t145.5 -32q90 0 147.5 32t57.5 82h34q1 -64 -66.5 -106t-171.5 -42z" />
    <glyph glyph-name="aogonek.alt2" horiz-adv-x="891" 
d="M121 251q0 -94 88 -155.5t222 -61.5q135 0 222.5 61t87.5 156t-87.5 156.5t-222.5 61.5q-134 0 -222 -62t-88 -156zM536 -160q-1 52 54 96t151 78v117q-33 -69 -117 -110t-196 -41q-157 0 -259.5 76.5t-102.5 194.5t102 195t259 77q111 0 195.5 -41t117.5 -109v130h55
v-503h-2q-103 -33 -163 -73.5t-59 -83.5q0 -26 21 -42.5t54 -16.5q28 0 56.5 13.5t45.5 33.5l22 -27q-20 -23 -55 -38.5t-70 -15.5q-46 0 -77 25.5t-32 64.5z" />
    <glyph glyph-name="aacutering.alt2" horiz-adv-x="891" 
d="M121 251q0 -94 88 -155.5t222 -61.5q135 0 222.5 61t87.5 156t-87.5 156.5t-222.5 61.5q-134 0 -222 -62t-88 -156zM436 722q-25 0 -41 -16t-16 -41t16 -41t41 -16t40.5 16t15.5 41t-15.5 41t-40.5 16zM66 251q0 118 102 195t259 77q111 0 195.5 -41t117.5 -109v130h55
v-503h-54v131q-33 -69 -117 -110t-196 -41q-157 0 -259.5 76.5t-102.5 194.5zM487 740l153 102l20 -29l-149 -98q14 -22 14 -50q0 -39 -25 -64t-64 -25q-38 0 -63.5 25t-25.5 64q-1 39 24.5 64t64.5 25q29 0 51 -14z" />
    <glyph glyph-name="yacute.alt1" horiz-adv-x="724" 
d="M359 -20l-343 523h65l307 -470l259 470h61l-402 -733h-62zM371 594l-19 29l203 136l20 -29z" />
    <glyph glyph-name="ygrave.alt1" horiz-adv-x="724" 
d="M359 -20l-343 523h65l307 -470l259 470h61l-402 -733h-62zM396 623l-20 -28l-204 136l20 28z" />
    <glyph glyph-name="ydieresis.alt1" horiz-adv-x="724" 
d="M359 -20l-343 523h65l307 -470l259 470h61l-402 -733h-62zM169 651q0 19 12.5 31t31.5 12t31.5 -12t12.5 -31t-12.5 -31.5t-31.5 -12.5t-31.5 12.5t-12.5 31.5zM483 651q0 19 12.5 31t31.5 12t31.5 -12t12.5 -31t-12.5 -31.5t-31.5 -12.5t-31.5 12.5t-12.5 31.5z" />
    <glyph glyph-name="ycircumflex.alt1" horiz-adv-x="724" 
d="M359 -20l-343 523h65l307 -470l259 470h61l-402 -733h-62zM621 593l-250 126l-249 -126l-16 30l240 121h50l241 -120z" />
    <glyph glyph-name="yacute.alt2" horiz-adv-x="832" 
d="M91 503h55v-212q0 -117 73.5 -188.5t188.5 -71.5q119 0 196 76t77 201v195h55v-453q0 -131 -100 -215.5t-256 -84.5q-125 0 -231.5 54.5t-147.5 138.5l45 32q35 -75 128.5 -124.5t204.5 -49.5q133 0 217.5 70t84.5 179v98q-33 -80 -105 -124t-171 -44q-141 0 -227.5 84.5
t-86.5 222.5v216zM416 594l-19 29l204 136l19 -29z" />
    <glyph glyph-name="ygrave.alt2" horiz-adv-x="832" 
d="M91 503h55v-212q0 -117 73.5 -188.5t188.5 -71.5q119 0 196 76t77 201v195h55v-453q0 -131 -100 -215.5t-256 -84.5q-125 0 -231.5 54.5t-147.5 138.5l45 32q35 -75 128.5 -124.5t204.5 -49.5q133 0 217.5 70t84.5 179v98q-33 -80 -105 -124t-171 -44q-141 0 -227.5 84.5
t-86.5 222.5v216zM441 623l-19 -28l-204 136l19 28z" />
    <glyph glyph-name="ydieresis.alt2" horiz-adv-x="832" 
d="M91 503h55v-212q0 -117 73.5 -188.5t188.5 -71.5q119 0 196 76t77 201v195h55v-453q0 -131 -100 -215.5t-256 -84.5q-125 0 -231.5 54.5t-147.5 138.5l45 32q35 -75 128.5 -124.5t204.5 -49.5q133 0 217.5 70t84.5 179v98q-33 -80 -105 -124t-171 -44q-141 0 -227.5 84.5
t-86.5 222.5v216zM214 651q0 19 12.5 31t31.5 12q20 0 32.5 -12t12.5 -31q0 -20 -12.5 -32t-32.5 -12t-32 12.5t-12 31.5zM529 651q0 19 12.5 31t31.5 12t31.5 -12t12.5 -31t-12.5 -31.5t-31.5 -12.5t-31.5 12.5t-12.5 31.5z" />
    <glyph glyph-name="ycircumflex.alt2" horiz-adv-x="832" 
d="M91 503h55v-212q0 -117 73.5 -188.5t188.5 -71.5q119 0 196 76t77 201v195h55v-453q0 -131 -100 -215.5t-256 -84.5q-125 0 -231.5 54.5t-147.5 138.5l45 32q35 -75 128.5 -124.5t204.5 -49.5q133 0 217.5 70t84.5 179v98q-33 -80 -105 -124t-171 -44q-141 0 -227.5 84.5
t-86.5 222.5v216zM666 593l-250 126l-249 -126l-15 30l239 121h51l240 -120z" />
    <glyph glyph-name="uacute.alt1" horiz-adv-x="822" 
d="M88 288v215h56v-215q0 -112 75 -184.5t192 -72.5t192 72.5t75 185.5v214h55v-214q0 -134 -91 -221.5t-232 -87.5q-140 0 -231 87t-91 221zM414 594l-19 29l203 136l20 -29z" />
    <glyph glyph-name="ugrave.alt1" horiz-adv-x="822" 
d="M88 288v215h56v-215q0 -112 75 -184.5t192 -72.5t192 72.5t75 185.5v214h55v-214q0 -134 -91 -221.5t-232 -87.5q-140 0 -231 87t-91 221zM438 623l-19 -28l-204 136l20 28z" />
    <glyph glyph-name="ucircumflex.alt1" horiz-adv-x="822" 
d="M88 288v215h56v-215q0 -112 75 -184.5t192 -72.5t192 72.5t75 185.5v214h55v-214q0 -134 -91 -221.5t-232 -87.5q-140 0 -231 87t-91 221zM664 593l-250 126l-249 -126l-16 30l240 121h50l241 -120z" />
    <glyph glyph-name="udieresis.alt1" horiz-adv-x="822" 
d="M88 288v215h56v-215q0 -112 75 -184.5t192 -72.5t192 72.5t75 185.5v214h55v-214q0 -134 -91 -221.5t-232 -87.5q-140 0 -231 87t-91 221zM212 651q0 19 12.5 31t31.5 12t31.5 -12t12.5 -31t-12 -31.5t-32 -12.5t-32 12.5t-12 31.5zM526 651q0 19 12.5 31t31.5 12
t31.5 -12t12.5 -31t-12 -31.5t-32 -12.5t-32 12.5t-12 31.5z" />
    <glyph glyph-name="utilde.alt1" horiz-adv-x="822" 
d="M88 288v215h56v-215q0 -112 75 -184.5t192 -72.5t192 72.5t75 185.5v214h55v-214q0 -134 -91 -221.5t-232 -87.5q-140 0 -231 87t-91 221zM631 724h32q0 -58 -38.5 -96t-97.5 -38q-36 0 -68 17t-52 38t-49 38t-61 17q-44 0 -72 -28.5t-28 -71.5h-32q0 58 38 95.5t96 37.5
q30 0 56 -11.5t45 -27.5t37.5 -32t42 -27.5t49.5 -11.5q45 0 73.5 28.5t28.5 72.5z" />
    <glyph glyph-name="umacron.alt1" horiz-adv-x="822" 
d="M88 288v215h56v-215q0 -112 75 -184.5t192 -72.5t192 72.5t75 185.5v214h55v-214q0 -134 -91 -221.5t-232 -87.5q-140 0 -231 87t-91 221zM180 640v34h466v-34h-466z" />
    <glyph glyph-name="ubreve.alt1" horiz-adv-x="822" 
d="M88 288v215h56v-215q0 -112 75 -184.5t192 -72.5t192 72.5t75 185.5v214h55v-214q0 -134 -91 -221.5t-232 -87.5q-140 0 -231 87t-91 221zM413 596q-103 0 -170.5 41.5t-68.5 106.5h35q0 -50 57.5 -82t145.5 -32q90 0 147.5 32t57.5 82h34q1 -64 -66.5 -106t-171.5 -42z
" />
    <glyph glyph-name="uring.alt1" horiz-adv-x="822" 
d="M413 742q-24 0 -40.5 -16t-15.5 -41q0 -25 16 -41t40 -16q25 0 40.5 16t15.5 41t-15.5 41t-40.5 16zM88 288v215h56v-215q0 -112 75 -184.5t192 -72.5t192 72.5t75 185.5v214h55v-214q0 -134 -91 -221.5t-232 -87.5q-140 0 -231 87t-91 221zM414 596q-39 0 -64.5 25
t-25.5 64t25 64t65 25q38 0 63 -25t25 -64q1 -39 -24 -64t-64 -25z" />
    <glyph glyph-name="uhungarumlaut.alt1" horiz-adv-x="822" 
d="M88 288v215h56v-215q0 -112 75 -184.5t192 -72.5t192 72.5t75 185.5v214h55v-214q0 -134 -91 -221.5t-232 -87.5q-140 0 -231 87t-91 221zM472 759l20 -29l-204 -136l-19 29zM702 759l20 -29l-204 -136l-20 29z" />
    <glyph glyph-name="uogonek.alt1" horiz-adv-x="822" 
d="M271 -160q-1 78 125 140q-135 5 -221.5 91.5t-86.5 216.5v215h56v-215q0 -112 75 -184.5t192 -72.5t192 72.5t75 185.5v214h55v-214q0 -111 -63.5 -191.5t-169.5 -106.5q-91 -32 -143 -70t-51 -78q0 -26 21 -42.5t54 -16.5q28 0 56.5 13.5t45.5 33.5l22 -27
q-20 -23 -55 -38.5t-70 -15.5q-46 0 -77 25.5t-32 64.5z" />
    <glyph glyph-name="Gcircumflex.alt1" horiz-adv-x="1100" 
d="M963 0l-5 181q-53 -96 -160.5 -151t-250.5 -55q-205 0 -338.5 106t-133.5 270t126.5 270.5t322.5 106.5q135 0 245 -61t139 -154l-55 -16q-26 77 -119.5 127t-208.5 50q-171 1 -281 -90t-110 -233q0 -140 118.5 -231.5t301.5 -91.5q173 0 289 86.5t116 218.5h-628v52h684
v-385h-52zM734 783l-210 106l-209 -106l-16 30l199 101h51l201 -100z" />
    <glyph glyph-name="Gbreve.alt1" horiz-adv-x="1100" 
d="M963 0l-5 181q-53 -96 -160.5 -151t-250.5 -55q-205 0 -338.5 106t-133.5 270t126.5 270.5t322.5 106.5q135 0 245 -61t139 -154l-55 -16q-26 77 -119.5 127t-208.5 50q-171 1 -281 -90t-110 -233q0 -140 118.5 -231.5t301.5 -91.5q173 0 289 86.5t116 218.5h-628v52h684
v-385h-52zM523 790q-88 0 -143 33t-55 91h34q1 -43 46 -66.5t118 -23.5q74 0 119.5 23.5t45.5 66.5h34q0 -58 -55 -91t-144 -33z" />
    <glyph glyph-name="Gdotaccent.alt1" horiz-adv-x="1100" 
d="M963 0l-5 181q-53 -96 -160.5 -151t-250.5 -55q-205 0 -338.5 106t-133.5 270t126.5 270.5t322.5 106.5q135 0 245 -61t139 -154l-55 -16q-26 77 -119.5 127t-208.5 50q-171 1 -281 -90t-110 -233q0 -140 118.5 -231.5t301.5 -91.5q173 0 289 86.5t116 218.5h-628v52h684
v-385h-52zM524 809q-20 0 -32.5 12.5t-12.5 31.5t12.5 31t32.5 12q19 0 31.5 -12t12.5 -31t-12.5 -31.5t-31.5 -12.5z" />
    <glyph glyph-name="Gcommaaccent.alt1" horiz-adv-x="1100" 
d="M963 0l-5 181q-53 -96 -160.5 -151t-250.5 -55q-205 0 -338.5 106t-133.5 270t126.5 270.5t322.5 106.5q135 0 245 -61t139 -154l-55 -16q-26 77 -119.5 127t-208.5 50q-171 1 -281 -90t-110 -233q0 -140 118.5 -231.5t301.5 -91.5q173 0 289 86.5t116 218.5h-628v52h684
v-385h-52zM515 -119q0 16 10.5 26t27.5 10q22 0 35.5 -20t12.5 -54q0 -41 -19.5 -63t-53.5 -22q-12 0 -26 3l6 28q12 -2 16 -2q23 0 35 14.5t9 40.5q-4 -1 -12 -1q-17 0 -29 11.5t-12 28.5z" />
    <glyph glyph-name="Racute.alt1" horiz-adv-x="959" 
d="M612 649h-439v-295h439q84 0 138.5 42t54.5 105q0 66 -54 107t-139 41zM730 197l40 -103q11 -31 25 -46.5t39 -15.5q34 0 60 41l33 -35q-39 -58 -100 -58q-76 0 -113 98l-46 115q-40 107 -126 107h-368v-300h-59v702h501q108 1 178 -55.5t70 -142.5q0 -78 -60.5 -132.5
t-154.5 -60.5q49 -30 81 -114zM622 921l19 -28l-174 -116l-19 29z" />
    <glyph glyph-name="Rcommaaccent.alt1" horiz-adv-x="959" 
d="M612 649h-439v-295h439q84 0 138.5 42t54.5 105q0 66 -54 107t-139 41zM730 197l40 -103q11 -31 25 -46.5t39 -15.5q34 0 60 41l33 -35q-39 -58 -100 -58q-76 0 -113 98l-46 115q-40 107 -126 107h-368v-300h-59v702h501q108 1 178 -55.5t70 -142.5q0 -78 -60.5 -132.5
t-154.5 -60.5q49 -30 81 -114zM438 -119q0 16 10.5 26t27.5 10q23 0 36 -19.5t13 -53.5q0 -42 -19.5 -64t-54.5 -22q-13 0 -26 3l6 28q12 -2 16 -2q23 0 35 14.5t9 40.5q-4 -1 -12 -1q-17 0 -29 11.5t-12 28.5z" />
    <glyph glyph-name="Rcaron.alt1" horiz-adv-x="959" 
d="M612 649h-439v-295h439q84 0 138.5 42t54.5 105q0 66 -54 107t-139 41zM730 197l40 -103q11 -31 25 -46.5t39 -15.5q34 0 60 41l33 -35q-39 -58 -100 -58q-76 0 -113 98l-46 115q-40 107 -126 107h-368v-300h-59v702h501q108 1 178 -55.5t70 -142.5q0 -78 -60.5 -132.5
t-154.5 -60.5q49 -30 81 -114zM681 921l16 -30l-201 -101h-51l-199 101l16 30l209 -106z" />
    <glyph glyph-name="Racute.alt2" horiz-adv-x="934" 
d="M612 649h-439v-295h439q84 0 138.5 41.5t54.5 105.5q0 66 -54 107t-139 41zM656 309l203 -309h-70l-194 300h-421v-300h-59v702h501q107 1 177.5 -56t70.5 -143q0 -76 -58.5 -131t-149.5 -63zM622 921l19 -28l-174 -116l-19 29z" />
    <glyph glyph-name="Rcommaaccent.alt2" horiz-adv-x="934" 
d="M612 649h-439v-295h439q84 0 138.5 41.5t54.5 105.5q0 66 -54 107t-139 41zM656 309l203 -309h-70l-194 300h-421v-300h-59v702h501q107 1 177.5 -56t70.5 -143q0 -76 -58.5 -131t-149.5 -63zM438 -119q0 16 10.5 26t27.5 10q23 0 36 -19.5t13 -53.5q0 -42 -19.5 -64
t-54.5 -22q-13 0 -26 3l6 28q12 -2 16 -2q23 0 35 14.5t9 40.5q-4 -1 -12 -1q-17 0 -29 11.5t-12 28.5z" />
    <glyph glyph-name="Rcaron.alt2" horiz-adv-x="934" 
d="M612 649h-439v-295h439q84 0 138.5 41.5t54.5 105.5q0 66 -54 107t-139 41zM656 309l203 -309h-70l-194 300h-421v-300h-59v702h501q107 1 177.5 -56t70.5 -143q0 -76 -58.5 -131t-149.5 -63zM681 921l16 -30l-201 -101h-51l-199 101l16 30l209 -106z" />
    </font>
</defs>
</svg>
