<?xml version="1.0" standalone="no"?>
<!DOCTYPE svg PUBLIC "-//W3C//DTD SVG 1.1//EN" "http://www.w3.org/Graphics/SVG/1.1/DTD/svg11.dtd" >
<svg xmlns="http://www.w3.org/2000/svg" xmlns:xlink="http://www.w3.org/1999/xlink" version="1.1">
<metadata>
Created by FontForge 20190801 at Fri Oct  6 14:52:59 2017
 By www-data
Copyright (c) 2015 by Valery Golyzhenkov, Letterhead. All rights reserved.
</metadata>
<defs>
<font id="FirstPrizeRegularUprightItalic" horiz-adv-x="353" >
  <font-face 
    font-family="FirstPrizeRegularUprightItalic"
    font-weight="400"
    font-style="italic"
    font-stretch="normal"
    units-per-em="1000"
    panose-1="2 0 0 0 0 0 0 0 0 0"
    ascent="819"
    descent="-181"
    x-height="506"
    cap-height="691"
    bbox="-90 -299 915 959"
    underline-thickness="50"
    underline-position="-100"
    unicode-range="U+0020-FB02"
  />
<missing-glyph horiz-adv-x="500" 
 />
    <glyph glyph-name="fi" unicode="fi" horiz-adv-x="385" 
d="M39 -159v817q0 27 16.5 43.5t47.5 16.5h126v-64h-105v-148h105v-68h-105v-597h-85zM346 568h-85v119h85v-119zM368 0h-57q-50 0 -50 48v458h85v-438h22v-68z" />
    <glyph glyph-name="fl" unicode="fl" horiz-adv-x="390" 
d="M39 -159v817q0 27 16.5 43.5t47.5 16.5h126v-64h-105v-148h105v-68h-105v-597h-85zM374 0h-62q-50 0 -50 48v670h85v-650h27v-68z" />
    <glyph glyph-name=".notdef" horiz-adv-x="500" 
 />
    <glyph glyph-name=".null" horiz-adv-x="0" 
 />
    <glyph glyph-name="nonmarkingreturn" horiz-adv-x="333" 
 />
    <glyph glyph-name="space" unicode=" " horiz-adv-x="169" 
 />
    <glyph glyph-name="exclam" unicode="!" horiz-adv-x="166" 
d="M127 176h-88v515h88v-515zM127 0h-88v120h88v-120z" />
    <glyph glyph-name="quotedbl" unicode="&#x22;" horiz-adv-x="224" 
d="M89 547h-55l-12 186h78zM191 547h-55l-12 186h78z" />
    <glyph glyph-name="numbersign" unicode="#" horiz-adv-x="478" 
d="M100 195h-56l50 143h-64v52h81l34 97h-84v52h102l55 152h56l-54 -152h103l54 152h56l-53 -152h61v-52h-79l-35 -97h82v-52h-100l-50 -143h-56l50 143h-103zM202 487l-34 -97h103l34 97h-103z" />
    <glyph glyph-name="dollar" unicode="$" horiz-adv-x="363" 
d="M240 90v174l-192 70v50l228 -83q52 -20 52 -71v-150q0 -61 -62 -61h-61v-60h-48v60h-122v71h205zM124 609v-174l192 -70v-50l-228 83q-52 20 -52 71v150q0 61 62 61h61v60h47v-60h111v-71h-193z" />
    <glyph glyph-name="percent" unicode="%" horiz-adv-x="624" 
d="M589 45q0 -19 -13.5 -32t-32.5 -13h-130q-19 0 -32 13t-13 32v272q0 19 13 32t32 13h130q19 0 32.5 -13t13.5 -32v-272zM484 691l-290 -691h-54l290 691h54zM530 49v264h-103v-264h103zM256 373q0 -18 -13.5 -31.5t-31.5 -13.5h-131q-19 0 -32 13.5t-13 31.5v272
q0 19 13 32.5t32 13.5h131q18 0 31.5 -13.5t13.5 -32.5v-272zM197 378v263h-103v-263h103z" />
    <glyph glyph-name="ampersand" unicode="&#x26;" horiz-adv-x="423" 
d="M290 0h-191q-62 0 -62 62v232q0 37 34 48l20 7v7l-20 8q-34 13 -34 48v218q0 61 62 61h226v-74h-200v-235h143v62h85v-62h59v-60h-59v-260q0 -62 -63 -62zM125 75h143v247h-143v-247z" />
    <glyph glyph-name="quotesingle" unicode="'" horiz-adv-x="122" 
d="M89 547h-55l-12 186h78z" />
    <glyph glyph-name="parenleft" unicode="(" horiz-adv-x="210" 
d="M191 -157h-121q-18 0 -31.5 13t-13.5 31v837q0 19 13.5 32t31.5 13h121v-58h-77v-810h77v-58z" />
    <glyph glyph-name="parenright" unicode=")" horiz-adv-x="211" 
d="M140 -157h-121v58h77v810h-77v58h121q19 0 32 -13t13 -32v-837q0 -19 -13 -31.5t-32 -12.5z" />
    <glyph glyph-name="asterisk" unicode="*" horiz-adv-x="435" 
d="M244 556l95 -113l-45 -32l-77 125l-76 -125l-45 32l94 113l-142 33l17 53l135 -54l-12 145h57l-10 -145l135 54l17 -53z" />
    <glyph glyph-name="plus" unicode="+" horiz-adv-x="448" 
d="M252 508v-172h171v-52h-171v-172h-57v172h-170v52h170v172h57z" />
    <glyph glyph-name="comma" unicode="," horiz-adv-x="148" 
d="M118 36l-59 -136h-29v221h88v-85z" />
    <glyph glyph-name="hyphen" unicode="-" horiz-adv-x="213" 
d="M188 220h-163v76h163v-76z" />
    <glyph glyph-name="period" unicode="." horiz-adv-x="148" 
d="M118 0h-88v120h88v-120z" />
    <glyph glyph-name="slash" unicode="/" horiz-adv-x="296" 
d="M54 -131h-44l231 853h45z" />
    <glyph glyph-name="zero" unicode="0" horiz-adv-x="383" 
d="M276 0h-169q-67 0 -67 63v564q0 64 67 64h169q67 0 67 -64v-564q0 -63 -67 -63zM255 74v543h-126v-543h126z" />
    <glyph glyph-name="one" unicode="1" horiz-adv-x="170" 
d="M128 0h-88v625h-23v54l111 20v-699z" />
    <glyph glyph-name="two" unicode="2" 
d="M29 0v296q0 47 45 62l155 48v211h-191v74h218q31 0 46.5 -17t15.5 -44v-231q0 -29 -12 -42t-34 -20l-154 -48v-215h200v-74h-289z" />
    <glyph glyph-name="three" unicode="3" horiz-adv-x="340" 
d="M19 691h280v-74l-86 -224l53 -17q45 -14 45 -61v-254q0 -61 -61 -61h-231v74h203v242l-101 31v45l92 225h-194v74z" />
    <glyph glyph-name="four" unicode="4" horiz-adv-x="379" 
d="M339 0h-89v201h-234v76l71 414h84l-70 -415h150v415h88v-691z" />
    <glyph glyph-name="five" unicode="5" horiz-adv-x="349" 
d="M225 309l-196 59v323h275v-74h-187v-192l150 -46q47 -13 47 -64v-251q0 -64 -68 -64h-217v74h196v235z" />
    <glyph glyph-name="six" unicode="6" horiz-adv-x="370" 
d="M128 617v-201h150q67 0 67 -64v-289q0 -63 -67 -63h-171q-68 0 -68 63v564q0 64 68 64h219v-74h-198zM261 341h-133v-267h133v267z" />
    <glyph glyph-name="seven" unicode="7" horiz-adv-x="314" 
d="M19 691h276v-64l-153 -628h-91l152 618h-184v74z" />
    <glyph glyph-name="eight" unicode="8" horiz-adv-x="387" 
d="M282 0h-177q-67 0 -67 63v230q0 39 34 51l20 6v8l-20 8q-31 10 -31 48v213q0 33 14 48.5t50 15.5h177q35 0 49.5 -15.5t14.5 -48.5v-213q0 -38 -31 -48l-20 -8v-8l20 -6q34 -12 34 -51v-230q0 -63 -67 -63zM260 617h-133v-232h133v232zM260 74v242h-133v-242h133z" />
    <glyph glyph-name="nine" unicode="9" horiz-adv-x="369" 
d="M36 74h206v196h-151q-66 0 -66 64v293q0 64 66 64h172q67 0 67 -64v-564q0 -63 -67 -63h-227v74zM109 617v-272h133v272h-133z" />
    <glyph glyph-name="colon" unicode=":" horiz-adv-x="149" 
d="M119 380h-89v120h89v-120zM119 0h-89v121h89v-121z" />
    <glyph glyph-name="semicolon" unicode=";" horiz-adv-x="149" 
d="M119 380h-89v120h89v-120zM119 36l-59 -136h-30v221h89v-85z" />
    <glyph glyph-name="less" unicode="&#x3c;" horiz-adv-x="342" 
d="M323 100l-46 -48l-258 257l258 257l47 -46l-210 -209z" />
    <glyph glyph-name="equal" unicode="=" horiz-adv-x="453" 
d="M428 350h-403v52h403v-52zM428 219h-403v52h403v-52z" />
    <glyph glyph-name="greater" unicode="&#x3e;" horiz-adv-x="349" 
d="M66 52l-47 49l210 209l-210 210l47 46l258 -257z" />
    <glyph glyph-name="question" unicode="?" horiz-adv-x="302" 
d="M56 176v191q0 49 52 71l79 34v145h-177v74h204q62 0 62 -61v-156q0 -30 -14 -45.5t-39 -26.5l-78 -35v-191h-89zM144 0h-88v120h88v-120z" />
    <glyph glyph-name="at" unicode="@" horiz-adv-x="495" 
d="M260 282v-226h104v226h-104zM453 -158h-358q-29 0 -46 17.5t-17 43.5v577q0 26 17 43.5t46 17.5h296q28 0 45 -17.5t17 -43.5v-480h-219q-29 0 -46 18t-17 44v213q0 27 17 45t46 18h130v149h-265v-592h354v-53z" />
    <glyph glyph-name="A" unicode="A" horiz-adv-x="393" 
d="M266 359v258h-139v-258h139zM354 627v-627h-88v285h-139v-285h-88v627q0 64 67 64h181q67 0 67 -64z" />
    <glyph glyph-name="B" unicode="B" horiz-adv-x="390" 
d="M266 384v233h-139v-233h139zM266 74v241h-139v-241h139zM355 292v-229q0 -63 -67 -63h-249v691h249q67 0 67 -64v-214q0 -36 -34 -48l-21 -8v-8l21 -6q34 -12 34 -51z" />
    <glyph glyph-name="C" unicode="C" horiz-adv-x="317" 
d="M105 691h193v-74h-172v-543h172v-74h-193q-67 0 -67 63v564q0 64 67 64z" />
    <glyph glyph-name="D" unicode="D" horiz-adv-x="393" 
d="M39 691h249q67 0 67 -64v-564q0 -63 -67 -63h-249v691zM127 74h139v543h-139v-543z" />
    <glyph glyph-name="E" unicode="E" horiz-adv-x="326" 
d="M300 0h-261v691h261v-74h-173v-230h173v-74h-173v-239h173v-74z" />
    <glyph glyph-name="F" unicode="F" horiz-adv-x="318" 
d="M127 0h-88v691h260v-74h-172v-232h172v-74h-172v-311z" />
    <glyph glyph-name="G" unicode="G" horiz-adv-x="365" 
d="M334 0h-229q-67 0 -67 63v564q0 64 67 64h225v-74h-204v-543h129v295h79v-369z" />
    <glyph glyph-name="H" unicode="H" horiz-adv-x="393" 
d="M354 0h-89v319h-138v-319h-88v691h88v-298h138v298h89v-691z" />
    <glyph glyph-name="I" unicode="I" horiz-adv-x="166" 
d="M127 0h-88v691h88v-691z" />
    <glyph glyph-name="J" unicode="J" horiz-adv-x="224" 
d="M186 691v-627q0 -64 -67 -64h-102v74h80v617h89z" />
    <glyph glyph-name="K" unicode="K" horiz-adv-x="380" 
d="M210 319h-83v-319h-88v691h88v-298h85q38 62 38 198v100h88v-100q0 -157 -77 -225v-6q89 -77 89 -246v-114h-93v114q0 79 -11.5 124.5t-35.5 80.5z" />
    <glyph glyph-name="L" unicode="L" horiz-adv-x="313" 
d="M300 0h-261v691h88v-617h173v-74z" />
    <glyph glyph-name="M" unicode="M" horiz-adv-x="475" 
d="M197 193v130q0 88 -18.5 167t-42.5 127h-9v-617h-88v691h125q53 -108 70 -232h6q17 122 71 232h125v-691h-88v617h-8q-24 -47 -42.5 -126t-18.5 -168v-130h-82z" />
    <glyph glyph-name="N" unicode="N" horiz-adv-x="393" 
d="M354 627v-627h-88v617h-139v-617h-88v627q0 64 67 64h181q67 0 67 -64z" />
    <glyph glyph-name="O" unicode="O" horiz-adv-x="392" 
d="M265 74v543h-139v-543h139zM38 63v564q0 64 67 64h182q67 0 67 -64v-564q0 -63 -67 -63h-182q-67 0 -67 63z" />
    <glyph glyph-name="P" unicode="P" horiz-adv-x="382" 
d="M39 691h243q67 0 67 -64v-342q0 -63 -67 -63h-155v-222h-88v691zM260 296v321h-133v-321h133z" />
    <glyph glyph-name="Q" unicode="Q" horiz-adv-x="392" 
d="M38 63v564q0 64 67 64h182q66 0 66 -64v-564q0 -44 -32 -57l38 -115h-87l-34 109h-133q-67 0 -67 63zM265 74v543h-139v-543h139z" />
    <glyph glyph-name="R" unicode="R" horiz-adv-x="390" 
d="M263 370v247h-136v-247h136zM268 0v132q0 108 -28 164h-113v-296h-88v691h246q66 0 66 -64v-235q0 -33 -31 -43l-34 -9v-7q70 -66 70 -201v-132h-88z" />
    <glyph glyph-name="S" unicode="S" horiz-adv-x="345" 
d="M314 343v-280q0 -63 -67 -63h-214v74h192v240h-147q-21 0 -33 13t-12 32v268q0 64 67 64h204v-74h-182v-229h146q22 0 34 -12.5t12 -32.5z" />
    <glyph glyph-name="T" unicode="T" horiz-adv-x="346" 
d="M326 617h-108v-617h-89v617h-109v74h306v-74z" />
    <glyph glyph-name="U" unicode="U" horiz-adv-x="394" 
d="M39 63v628h88v-617h139v617h89v-628q0 -63 -67 -63h-182q-67 0 -67 63z" />
    <glyph glyph-name="V" unicode="V" horiz-adv-x="369" 
d="M339 691v-149q0 -189 -25 -316t-80 -226h-99q-55 99 -80 226t-25 317v148h89v-148q0 -281 56 -469h19q56 188 56 469v148h89z" />
    <glyph glyph-name="W" unicode="W" horiz-adv-x="517" 
d="M398 0h-88q-38 126 -47 230h-9q-9 -104 -47 -230h-88q-89 175 -89 503v188h89v-188q0 -289 40 -430h13q42 164 42 365v253h89v-253q0 -205 43 -365h12q40 141 40 430v188h89v-188q0 -328 -89 -503z" />
    <glyph glyph-name="X" unicode="X" horiz-adv-x="374" 
d="M123 114v-114h-95v114q0 164 87 246v6q-78 68 -78 225v100h90v-100q0 -136 39 -198h43q38 60 38 198v100h91v-100q0 -157 -78 -225v-6q86 -81 86 -246v-114h-94v114q0 128 -44 205h-41q-44 -77 -44 -205z" />
    <glyph glyph-name="Y" unicode="Y" horiz-adv-x="347" 
d="M321 691v-93q0 -109 -30 -194t-71 -131v-273h-93v273q-41 47 -71 132t-30 193v93h88v-92q0 -142 50 -251h19q50 103 50 251v92h88z" />
    <glyph glyph-name="Z" unicode="Z" horiz-adv-x="328" 
d="M301 0h-276v74l191 543h-190v74h277v-73l-192 -544h190v-74z" />
    <glyph glyph-name="bracketleft" unicode="[" horiz-adv-x="255" 
d="M236 -157h-198v926h198v-58h-110v-810h110v-58z" />
    <glyph glyph-name="backslash" unicode="\" horiz-adv-x="296" 
d="M286 -131h-45l-231 853h44z" />
    <glyph glyph-name="bracketright" unicode="]" horiz-adv-x="255" 
d="M217 -157h-198v58h110v810h-110v58h198v-926z" />
    <glyph glyph-name="asciicircum" unicode="^" horiz-adv-x="374" 
d="M355 581l-39 -38l-130 130l-129 -130l-39 38l170 168z" />
    <glyph glyph-name="underscore" unicode="_" horiz-adv-x="450" 
d="M440 -100h-430v45h430v-45z" />
    <glyph glyph-name="grave" unicode="`" horiz-adv-x="223" 
d="M192 609l-29 -46l-133 87l28 46z" />
    <glyph glyph-name="a" unicode="a" horiz-adv-x="350" 
d="M123 438v-370l104 162v208h-104zM227 162l-104 -162h-24q-28 0 -44.5 17.5t-16.5 42.5v386q0 26 16.5 43t44.5 17h213v-506h-85v162z" />
    <glyph glyph-name="b" unicode="b" horiz-adv-x="354" 
d="M124 718v-379l107 167h21q31 0 47.5 -16.5t16.5 -43.5v-386q0 -27 -16.5 -43.5t-47.5 -16.5h-213v718h85zM231 438l-107 -167v-203h107v370z" />
    <glyph glyph-name="c" unicode="c" horiz-adv-x="290" 
d="M268 0h-166q-31 0 -47.5 16.5t-16.5 43.5v386q0 27 16.5 43.5t47.5 16.5h166v-68h-145v-370h145v-68z" />
    <glyph glyph-name="d" unicode="d" horiz-adv-x="354" 
d="M230 0v167l-107 -167h-21q-31 0 -47.5 16.5t-16.5 43.5v386q0 27 16.5 43.5t47.5 16.5h128v212h85v-718h-85zM123 68l107 167v203h-107v-370z" />
    <glyph glyph-name="e" unicode="e" horiz-adv-x="335" 
d="M224 336v102h-101v-211zM310 446v-81l-187 -198v-99h183v-68h-204q-31 0 -47.5 17t-16.5 44v385q0 27 16.5 43.5t47.5 16.5h143q32 0 48.5 -16.5t16.5 -43.5z" />
    <glyph glyph-name="f" unicode="f" horiz-adv-x="242" 
d="M39 -159v817q0 27 16.5 43.5t47.5 16.5h126v-64h-105v-148h105v-68h-105v-597h-85z" />
    <glyph glyph-name="g" unicode="g" horiz-adv-x="354" 
d="M230 -90v257l-107 -167h-21q-31 0 -47.5 17t-16.5 44v385q0 27 16.5 43.5t47.5 16.5h213v-604q0 -27 -17 -44t-47 -17h-207v69h186zM230 235v203h-107v-370z" />
    <glyph glyph-name="h" unicode="h" 
d="M230 438l-106 -167v-271h-85v718h85v-379l106 167h21q31 0 47.5 -16.5t16.5 -43.5v-446h-85v438z" />
    <glyph glyph-name="i" unicode="i" horiz-adv-x="163" 
d="M124 568h-85v119h85v-119zM146 0h-57q-50 0 -50 48v458h85v-438h22v-68z" />
    <glyph glyph-name="j" unicode="j" horiz-adv-x="164" 
d="M125 568h-84v119h84v-119zM125 506v-620q0 -20 -11.5 -32.5t-31.5 -12.5h-68v66h27v599h84z" />
    <glyph glyph-name="k" unicode="k" horiz-adv-x="343" 
d="M124 718v-212h191v-45q0 -126 -68 -197v-4q68 -68 68 -197v-63h-89v63q0 95 -36 167h-66v-230h-85v718h85zM192 294q34 70 34 167v3h-102v-170h68z" />
    <glyph glyph-name="l" unicode="l" horiz-adv-x="172" 
d="M150 0h-62q-50 0 -50 48v670h85v-650h27v-68z" />
    <glyph glyph-name="m" unicode="m" horiz-adv-x="512" 
d="M299 446v-80l89 140h21q31 0 47.5 -16.5t16.5 -43.5v-446h-85v438l-89 -140v-298h-85v438l-90 -142v-296h-85v506h85v-142l90 142h21q31 0 47.5 -16.5t16.5 -43.5z" />
    <glyph glyph-name="n" unicode="n" 
d="M230 438l-106 -167v-271h-85v506h85v-167l106 167h21q31 0 47.5 -16.5t16.5 -43.5v-446h-85v438z" />
    <glyph glyph-name="o" unicode="o" horiz-adv-x="352" 
d="M230 68v370h-107v-370h107zM38 60v386q0 27 16.5 43.5t47.5 16.5h148q31 0 47.5 -16.5t16.5 -43.5v-386q0 -27 -16.5 -43.5t-47.5 -16.5h-148q-31 0 -47.5 16.5t-16.5 43.5z" />
    <glyph glyph-name="p" unicode="p" horiz-adv-x="354" 
d="M124 506v-167l107 167h21q31 0 47.5 -16.5t16.5 -43.5v-386q0 -27 -16.5 -43.5t-47.5 -16.5h-128v-159h-85v665h85zM231 438l-107 -167v-203h107v370z" />
    <glyph glyph-name="q" unicode="q" horiz-adv-x="354" 
d="M230 -159v326l-107 -167h-21q-31 0 -47.5 16.5t-16.5 43.5v386q0 27 16.5 43.5t47.5 16.5h213v-665h-85zM123 68l107 167v203h-107v-370z" />
    <glyph glyph-name="r" unicode="r" horiz-adv-x="251" 
d="M90 506h146v-68h-112v-438h-85v458q0 48 51 48z" />
    <glyph glyph-name="s" unicode="s" horiz-adv-x="317" 
d="M199 199l-121 50q-25 11 -34 27t-9 45v125q0 27 16.5 43.5t46.5 16.5h177v-68h-155v-118l121 -50q25 -11 34 -27t9 -45v-138q0 -27 -16.5 -43.5t-47.5 -16.5h-185v68h164v131z" />
    <glyph glyph-name="t" unicode="t" horiz-adv-x="247" 
d="M39 60v538h84v-92h103v-68h-103v-370h103v-68h-123q-31 0 -47.5 16.5t-16.5 43.5z" />
    <glyph glyph-name="u" unicode="u" 
d="M123 68l106 167v271h85v-506h-85v167l-106 -167h-21q-31 0 -47.5 16.5t-16.5 43.5v446h85v-438z" />
    <glyph glyph-name="v" unicode="v" horiz-adv-x="340" 
d="M308 506v-93q0 -263 -95 -413h-86q-95 150 -95 413v93h85v-93q0 -215 47 -345h12q46 127 46 345v93h86z" />
    <glyph glyph-name="w" unicode="w" horiz-adv-x="484" 
d="M285 506v-115q0 -192 34 -323h7q41 115 41 323v115h85v-115q0 -110 -23 -213t-62 -178h-79q-20 66 -43 208h-7q-21 -137 -42 -208h-78q-39 76 -62.5 179t-23.5 212v115h85v-115q0 -208 41 -323h7q35 134 35 323v115h85z" />
    <glyph glyph-name="x" unicode="x" horiz-adv-x="348" 
d="M227 0v59q0 95 -36 171h-35q-35 -78 -35 -171v-59h-90v59q0 133 68 201v4q-68 71 -68 201v41h90v-42q0 -99 34 -171h38q34 76 34 171v42h89v-41q0 -133 -68 -201v-4q68 -66 68 -201v-59h-89z" />
    <glyph glyph-name="y" unicode="y" 
d="M123 68l106 167v271h85v-604q0 -27 -16.5 -44t-47.5 -17h-202v69h181v257l-106 -167h-21q-28 0 -46 17.5t-18 43.5v445h85v-438z" />
    <glyph glyph-name="z" unicode="z" horiz-adv-x="301" 
d="M272 0h-243v62l159 376h-159v68h243v-66l-154 -372h154v-68z" />
    <glyph glyph-name="braceleft" unicode="{" horiz-adv-x="294" 
d="M198 258v-358h78v-58h-122q-46 0 -46 44v390h-89v74h89v374q0 45 46 45h122v-58h-78v-335q0 -34 -33 -48l-21 -8v-8l21 -6q33 -12 33 -48z" />
    <glyph glyph-name="bar" unicode="|" horiz-adv-x="216" 
d="M132 -159h-48v909h48v-909z" />
    <glyph glyph-name="braceright" unicode="}" horiz-adv-x="294" 
d="M96 -100v358q0 36 34 48l20 6v8l-20 8q-34 13 -34 48v335h-77v58h121q46 0 46 -45v-374h90v-74h-90v-390q0 -44 -46 -44h-121v58h77z" />
    <glyph glyph-name="asciitilde" unicode="~" horiz-adv-x="443" 
d="M383 359l41 -40l-65 -65q-18 -18 -39 -18q-8 0 -26 6l-175 62l-60 -62l-40 40l64 65q17 17 38 17q12 0 27 -5l175 -62z" />
    <glyph glyph-name="uni00A0" unicode="&#xa0;" horiz-adv-x="0" 
 />
    <glyph glyph-name="exclamdown" unicode="&#xa1;" horiz-adv-x="166" 
d="M39 330h88v-515h-88v515zM39 506h88v-120h-88v120z" />
    <glyph glyph-name="cent" unicode="&#xa2;" horiz-adv-x="296" 
d="M193 -42h-47v42h-48q-30 0 -46.5 17.5t-16.5 44.5v377q0 27 16.5 44.5t46.5 17.5h48v43h47v-43h74v-71h-142v-359h142v-71h-74v-42z" />
    <glyph glyph-name="sterling" unicode="&#xa3;" horiz-adv-x="362" 
d="M305 410h-286v47h60v173q0 27 15.5 44t47.5 17h171v-74h-145v-160h137v-47zM79 389h89v-314h169v-75h-258v389z" />
    <glyph glyph-name="currency" unicode="&#xa4;" horiz-adv-x="441" 
d="M411 466l-65 -65q31 -39 31 -91q0 -51 -30 -90l65 -64l-38 -38l-65 64q-40 -28 -88 -28q-53 0 -92 30l-64 -65l-36 36l65 64q-29 40 -29 91q0 50 29 88l-65 66l37 38l66 -67q40 29 89 29q50 0 89 -29l66 66zM119 310q0 -44 29.5 -74t72.5 -30q41 0 71 30.5t30 73.5
q0 41 -30 71.5t-71 30.5q-42 0 -72 -30.5t-30 -71.5z" />
    <glyph glyph-name="yen" unicode="&#xa5;" horiz-adv-x="359" 
d="M327 599q0 -150 -60 -264h48v-46h-273v46h50q-60 110 -60 264v92h88v-91q0 -142 47 -246h25q47 104 47 246v91h88v-92zM315 222h-89v-222h-93v222h-91v46h273v-46z" />
    <glyph glyph-name="brokenbar" unicode="&#xa6;" horiz-adv-x="203" 
d="M126 -159h-49v380h49v-380zM126 370h-49v380h49v-380z" />
    <glyph glyph-name="section" unicode="&#xa7;" horiz-adv-x="369" 
d="M246 -75v243l-197 73v70l233 -86q52 -20 52 -72v-241q0 -61 -62 -61h-224v74h198zM123 617v-239l197 -73v-71l-233 87q-52 20 -52 71v238q0 61 62 61h224v-74h-198z" />
    <glyph glyph-name="dieresis" unicode="&#xa8;" horiz-adv-x="247" 
d="M46 572v109h62v-109h-62zM139 572v109h62v-109h-62z" />
    <glyph glyph-name="copyright" unicode="&#xa9;" horiz-adv-x="508" 
d="M346 115h-158q-9 0 -15.5 7t-6.5 16v418q0 9 6.5 16t15.5 7h158v-39h-133v-386h133v-39zM459 46q0 -19 -13 -32.5t-32 -13.5h-319q-19 0 -32.5 13.5t-13.5 32.5v599q0 19 13.5 32.5t32.5 13.5h319q19 0 32 -13.5t13 -32.5v-599zM411 42v607h-314v-607h314z" />
    <glyph glyph-name="ordfeminine" unicode="&#xaa;" horiz-adv-x="266" 
d="M89 408h78v113h-78v-113zM34 643v48h151q19 0 32.5 -14t13.5 -32v-285h-160q-19 0 -32.5 14t-13.5 33v115q0 19 13.5 33t32.5 14h96v74h-133z" />
    <glyph glyph-name="guillemotleft" unicode="&#xab;" horiz-adv-x="385" 
d="M233 109l-35 -34l-176 174l176 174l35 -34l-141 -140zM356 109l-34 -34l-177 174l177 174l34 -34l-141 -140z" />
    <glyph glyph-name="logicalnot" unicode="&#xac;" horiz-adv-x="448" 
d="M423 336v-179h-58v127h-340v52h398z" />
    <glyph glyph-name="uni00AD" unicode="&#xad;" horiz-adv-x="213" 
d="M188 220h-163v76h163v-76z" />
    <glyph glyph-name="registered" unicode="&#xae;" horiz-adv-x="508" 
d="M459 46q0 -19 -13 -32.5t-32 -13.5h-319q-19 0 -32.5 13.5t-13.5 32.5v599q0 19 13.5 32.5t32.5 13.5h319q19 0 32 -13.5t13 -32.5v-599zM411 42v607h-314v-607h314zM353 109h-48v60q0 93 -22 157h-76v-217h-47v476h170q9 0 15.5 -7t6.5 -16v-185q0 -16 -9 -23t-32 -10
v-3q42 -65 42 -172v-60zM304 366v181h-97v-181h97z" />
    <glyph glyph-name="macron" unicode="&#xaf;" horiz-adv-x="266" 
d="M233 594h-201v52h201v-52z" />
    <glyph glyph-name="degree" unicode="&#xb0;" horiz-adv-x="231" 
d="M69 635q0 -21 14 -34t32 -13t31.5 12.5t13.5 34.5q0 21 -13.5 33t-31.5 12t-32 -12t-14 -33zM19 635q0 40 26.5 67t69.5 27q46 0 71 -26.5t25 -67.5q0 -40 -26.5 -67.5t-69.5 -27.5t-69.5 27.5t-26.5 67.5z" />
    <glyph glyph-name="plusminus" unicode="&#xb1;" horiz-adv-x="448" 
d="M423 110h-398v52h398v-52zM252 515v-120h171v-53h-171v-121h-57v121h-170v53h170v120h57z" />
    <glyph glyph-name="twosuperior" unicode="&#xb2;" horiz-adv-x="292" 
d="M41 347l1 145q0 31 29 41l114 37v69h-138v52h164q40 0 40 -40v-90q0 -30 -29 -40l-115 -37v-85h144v-52h-210z" />
    <glyph glyph-name="threesuperior" unicode="&#xb3;" horiz-adv-x="291" 
d="M41 691h201v-53l-54 -87l32 -10q30 -9 30 -39v-115q0 -40 -40 -40h-169v52h144v103l-63 20v30l56 86h-137v53z" />
    <glyph glyph-name="acute" unicode="&#xb4;" horiz-adv-x="222" 
d="M58 563l-28 45l133 87l29 -45z" />
    <glyph glyph-name="mu" unicode="&#xb5;" horiz-adv-x="344" 
d="M125 -159h-86v665h86v-438h94v438h85v-506h-78v43q-18 -43 -78 -43h-23v-159z" />
    <glyph glyph-name="paragraph" unicode="&#xb6;" horiz-adv-x="338" 
d="M293 -159h-67v850h67v-850zM200 -159h-68v450h-61q-19 0 -32.5 13t-13.5 32v309q0 19 13.5 32.5t32.5 13.5h129v-850z" />
    <glyph glyph-name="periodcentered" unicode="&#xb7;" horiz-adv-x="219" 
d="M114 306h-10q-18 0 -31 13t-13 31v8q0 19 13 32.5t31 13.5h10q18 0 31 -13.5t13 -32.5v-8q0 -18 -13 -31t-31 -13z" />
    <glyph glyph-name="cedilla" unicode="&#xb8;" horiz-adv-x="159" 
d="M105 -141h-74v46h56l-37 82l40 20l44 -96q5 -10 5 -23q0 -29 -34 -29z" />
    <glyph glyph-name="onesuperior" unicode="&#xb9;" horiz-adv-x="172" 
d="M124 346h-66v302h-20v41l86 13v-356z" />
    <glyph glyph-name="ordmasculine" unicode="&#xba;" horiz-adv-x="269" 
d="M174 410v231h-79v-231h79zM188 360h-107q-22 0 -36 13.5t-14 33.5v237q0 20 14 33.5t36 13.5h107q22 0 36 -13.5t14 -33.5v-237q0 -20 -14 -33.5t-36 -13.5z" />
    <glyph glyph-name="guillemotright" unicode="&#xbb;" horiz-adv-x="385" 
d="M152 389l35 34l176 -174l-176 -174l-35 34l141 140zM29 389l34 34l177 -174l-177 -174l-34 34l141 140z" />
    <glyph glyph-name="onequarter" unicode="&#xbc;" horiz-adv-x="631" 
d="M145 346h-66v302h-21v41l87 13v-356zM97 0h-52l395 691h51zM576 0h-66v81h-166v33l54 230h62l-53 -211h103v211h66v-344z" />
    <glyph glyph-name="onehalf" unicode="&#xbd;" horiz-adv-x="620" 
d="M145 346h-66v302h-21v41l87 13v-356zM97 0h-52l395 691h51zM375 0l1 145q0 31 29 41l114 37v69h-138v52h164q40 0 40 -40v-90q0 -32 -29 -40l-115 -38v-84h144v-52h-210z" />
    <glyph glyph-name="threequarters" unicode="&#xbe;" horiz-adv-x="726" 
d="M186 0h-51l394 691h52zM665 0h-66v81h-166v33l54 230h62l-53 -211h103v211h66v-344zM41 691h201v-53l-54 -87l32 -10q30 -9 30 -39v-115q0 -40 -40 -40h-169v52h144v103l-63 20v30l56 86h-137v53z" />
    <glyph glyph-name="questiondown" unicode="&#xbf;" horiz-adv-x="312" 
d="M259 330v-191q0 -49 -52 -71l-79 -34v-145h177v-74h-204q-62 0 -62 61v156q0 30 14 45.5t39 26.5l78 35v191h89zM171 506h88v-120h-88v120z" />
    <glyph glyph-name="Agrave" unicode="&#xc0;" horiz-adv-x="393" 
d="M266 359v258h-139v-258h139zM354 627v-627h-88v285h-139v-285h-88v627q0 64 67 64h181q67 0 67 -64zM268 775l-21 -51l-148 59l21 51z" />
    <glyph glyph-name="Aacute" unicode="&#xc1;" horiz-adv-x="393" 
d="M266 359v258h-139v-258h139zM354 627v-627h-88v285h-139v-285h-88v627q0 64 67 64h181q67 0 67 -64zM145 724l-20 49l147 61l21 -49z" />
    <glyph glyph-name="Acircumflex" unicode="&#xc2;" horiz-adv-x="393" 
d="M266 359v258h-139v-258h139zM354 627v-627h-88v285h-139v-285h-88v627q0 64 67 64h181q67 0 67 -64zM108 717l-27 43l116 75l115 -75l-27 -43l-89 59z" />
    <glyph glyph-name="Atilde" unicode="&#xc3;" horiz-adv-x="393" 
d="M266 359v258h-139v-258h139zM354 627v-627h-88v285h-139v-285h-88v627q0 64 67 64h181q67 0 67 -64zM331 790l-48 -48q-26 -26 -63 -8l-79 40l-45 -46l-34 34l48 48q26 26 63 8l79 -40l45 46z" />
    <glyph glyph-name="Adieresis" unicode="&#xc4;" horiz-adv-x="393" 
d="M266 359v258h-139v-258h139zM354 627v-627h-88v285h-139v-285h-88v627q0 64 67 64h181q67 0 67 -64zM119 723v109h62v-109h-62zM212 723v109h62v-109h-62z" />
    <glyph glyph-name="Aring" unicode="&#xc5;" horiz-adv-x="393" 
d="M266 359v258h-139v-258h139zM354 627v-627h-88v285h-139v-285h-88v627q0 64 67 64h181q67 0 67 -64zM121 784q0 31 22 53t53 22t53.5 -22t22.5 -53t-22 -52.5t-54 -21.5q-31 0 -53 21.5t-22 52.5zM162 784q0 -14 10 -24.5t24 -10.5t24.5 10.5t10.5 24.5t-10.5 24.5
t-24.5 10.5t-24 -10.5t-10 -24.5z" />
    <glyph glyph-name="AE" unicode="&#xc6;" horiz-adv-x="532" 
d="M508 0h-251v292h-129v-292h-89v630q0 27 15.5 44t47.5 17h406v-74h-162v-251h162v-73h-162v-219h162v-74zM257 366v251h-129v-251h129z" />
    <glyph glyph-name="Ccedilla" unicode="&#xc7;" horiz-adv-x="317" 
d="M192 -141h-74v46h56l-37 82l26 13h-58q-67 0 -67 63v564q0 64 67 64h193v-74h-172v-543h172v-74h-118l41 -89q5 -10 5 -23q0 -29 -34 -29z" />
    <glyph glyph-name="Egrave" unicode="&#xc8;" horiz-adv-x="326" 
d="M300 0h-261v691h261v-74h-173v-230h173v-74h-173v-239h173v-74zM244 775l-21 -51l-148 59l21 51z" />
    <glyph glyph-name="Eacute" unicode="&#xc9;" horiz-adv-x="326" 
d="M300 0h-261v691h261v-74h-173v-230h173v-74h-173v-239h173v-74zM112 724l-20 49l147 61l21 -49z" />
    <glyph glyph-name="Ecircumflex" unicode="&#xca;" horiz-adv-x="326" 
d="M300 0h-261v691h261v-74h-173v-230h173v-74h-173v-239h173v-74zM76 717l-27 43l116 75l115 -75l-27 -43l-89 59z" />
    <glyph glyph-name="Edieresis" unicode="&#xcb;" horiz-adv-x="326" 
d="M300 0h-261v691h261v-74h-173v-230h173v-74h-173v-239h173v-74zM94 723v109h62v-109h-62zM187 723v109h62v-109h-62z" />
    <glyph glyph-name="Igrave" unicode="&#xcc;" horiz-adv-x="166" 
d="M127 0h-88v691h88v-691zM143 775l-21 -51l-148 59l21 51z" />
    <glyph glyph-name="Iacute" unicode="&#xcd;" horiz-adv-x="166" 
d="M127 0h-88v691h88v-691zM48 724l-20 49l147 61l21 -49z" />
    <glyph glyph-name="Icircumflex" unicode="&#xce;" horiz-adv-x="166" 
d="M127 0h-88v691h88v-691zM-6 717l-27 43l116 75l115 -75l-27 -43l-89 59z" />
    <glyph glyph-name="Idieresis" unicode="&#xcf;" horiz-adv-x="166" 
d="M127 0h-88v691h88v-691zM5 723v109h62v-109h-62zM98 723v109h62v-109h-62z" />
    <glyph glyph-name="Eth" unicode="&#xd0;" horiz-adv-x="412" 
d="M58 691h255q62 0 62 -61v-568q0 -62 -62 -62h-255v326h-43v52h43v313zM147 75h139v542h-139v-239h65v-52h-65v-251z" />
    <glyph glyph-name="Ntilde" unicode="&#xd1;" horiz-adv-x="393" 
d="M354 627v-627h-88v617h-139v-617h-88v627q0 64 67 64h181q67 0 67 -64zM331 793l-48 -48q-26 -26 -63 -8l-79 40l-45 -46l-34 34l48 48q26 26 63 8l79 -40l45 46z" />
    <glyph glyph-name="Ograve" unicode="&#xd2;" horiz-adv-x="392" 
d="M265 74v543h-139v-543h139zM38 63v564q0 64 67 64h182q67 0 67 -64v-564q0 -63 -67 -63h-182q-67 0 -67 63zM264 775l-21 -51l-148 59l21 51z" />
    <glyph glyph-name="Oacute" unicode="&#xd3;" horiz-adv-x="392" 
d="M265 74v543h-139v-543h139zM38 63v564q0 64 67 64h182q67 0 67 -64v-564q0 -63 -67 -63h-182q-67 0 -67 63zM145 724l-20 49l147 61l21 -49z" />
    <glyph glyph-name="Ocircumflex" unicode="&#xd4;" horiz-adv-x="392" 
d="M265 74v543h-139v-543h139zM38 63v564q0 64 67 64h182q67 0 67 -64v-564q0 -63 -67 -63h-182q-67 0 -67 63zM107 720l-27 43l116 75l115 -75l-27 -43l-89 59z" />
    <glyph glyph-name="Otilde" unicode="&#xd5;" horiz-adv-x="392" 
d="M265 74v543h-139v-543h139zM38 63v564q0 64 67 64h182q67 0 67 -64v-564q0 -63 -67 -63h-182q-67 0 -67 63zM330 793l-48 -48q-26 -26 -63 -8l-79 40l-45 -46l-34 34l48 48q26 26 63 8l79 -40l45 46z" />
    <glyph glyph-name="Odieresis" unicode="&#xd6;" horiz-adv-x="392" 
d="M265 74v543h-139v-543h139zM38 63v564q0 64 67 64h182q67 0 67 -64v-564q0 -63 -67 -63h-182q-67 0 -67 63zM118 726v109h62v-109h-62zM211 726v109h62v-109h-62z" />
    <glyph glyph-name="multiply" unicode="&#xd7;" horiz-adv-x="437" 
d="M64 502l156 -155l154 154l35 -35l-154 -154l155 -156l-37 -38l-156 155l-154 -154l-35 36l154 154l-155 155z" />
    <glyph glyph-name="Oslash" unicode="&#xd8;" horiz-adv-x="392" 
d="M38 63v564q0 64 67 64h182q18 0 34 -7l16 37h33l-24 -58q8 -16 8 -36v-564q0 -63 -67 -63h-182q-21 0 -35 6l-15 -36h-33l24 57q-8 13 -8 36zM126 617v-399l139 331v68h-139zM265 74v397l-139 -331v-66h139z" />
    <glyph glyph-name="Ugrave" unicode="&#xd9;" horiz-adv-x="394" 
d="M39 63v628h88v-617h139v617h89v-628q0 -63 -67 -63h-182q-67 0 -67 63zM265 775l-21 -51l-148 59l21 51z" />
    <glyph glyph-name="Uacute" unicode="&#xda;" horiz-adv-x="394" 
d="M39 63v628h88v-617h139v617h89v-628q0 -63 -67 -63h-182q-67 0 -67 63zM149 724l-20 49l147 61l21 -49z" />
    <glyph glyph-name="Ucircumflex" unicode="&#xdb;" horiz-adv-x="394" 
d="M39 63v628h88v-617h139v617h89v-628q0 -63 -67 -63h-182q-67 0 -67 63zM108 720l-27 43l116 75l115 -75l-27 -43l-89 59z" />
    <glyph glyph-name="Udieresis" unicode="&#xdc;" horiz-adv-x="394" 
d="M39 63v628h88v-617h139v617h89v-628q0 -63 -67 -63h-182q-67 0 -67 63zM119 726v109h62v-109h-62zM212 726v109h62v-109h-62z" />
    <glyph glyph-name="Yacute" unicode="&#xdd;" horiz-adv-x="347" 
d="M321 691v-93q0 -109 -30 -194t-71 -131v-273h-93v273q-41 47 -71 132t-30 193v93h88v-92q0 -142 50 -251h19q50 103 50 251v92h88zM133 724l-20 49l147 61l21 -49z" />
    <glyph glyph-name="Thorn" unicode="&#xde;" horiz-adv-x="373" 
d="M39 0v707h89v-121h152q63 0 63 -61v-313q0 -60 -63 -60h-152v-152h-89zM254 221v296h-126v-296h126z" />
    <glyph glyph-name="germandbls" unicode="&#xdf;" horiz-adv-x="375" 
d="M179 407l65 247h-119v-654h-86v659q0 26 15.5 42.5t43.5 16.5h220v-47l-66 -253h36q49 0 49 -60v-300q0 -25 -16 -41.5t-44 -16.5h-97v66h71v284h-72v57z" />
    <glyph glyph-name="agrave" unicode="&#xe0;" horiz-adv-x="350" 
d="M123 438v-370l104 162v208h-104zM227 162l-104 -162h-24q-28 0 -44.5 17.5t-16.5 42.5v386q0 26 16.5 43t44.5 17h213v-506h-85v162zM247 609l-29 -46l-133 87l28 46z" />
    <glyph glyph-name="aacute" unicode="&#xe1;" horiz-adv-x="350" 
d="M123 438v-370l104 162v208h-104zM227 162l-104 -162h-24q-28 0 -44.5 17.5t-16.5 42.5v386q0 26 16.5 43t44.5 17h213v-506h-85v162zM134 563l-28 45l133 87l29 -45z" />
    <glyph glyph-name="acircumflex" unicode="&#xe2;" horiz-adv-x="350" 
d="M123 438v-370l104 162v208h-104zM227 162l-104 -162h-24q-28 0 -44.5 17.5t-16.5 42.5v386q0 26 16.5 43t44.5 17h213v-506h-85v162zM78 566l-27 43l116 75l115 -75l-27 -43l-89 59z" />
    <glyph glyph-name="atilde" unicode="&#xe3;" horiz-adv-x="350" 
d="M123 438v-370l104 162v208h-104zM227 162l-104 -162h-24q-28 0 -44.5 17.5t-16.5 42.5v386q0 26 16.5 43t44.5 17h213v-506h-85v162zM314 635l-48 -48q-26 -26 -63 -8l-79 40l-45 -46l-34 34l48 48q26 26 63 8l79 -40l45 46z" />
    <glyph glyph-name="adieresis" unicode="&#xe4;" horiz-adv-x="350" 
d="M123 438v-370l104 162v208h-104zM227 162l-104 -162h-24q-28 0 -44.5 17.5t-16.5 42.5v386q0 26 16.5 43t44.5 17h213v-506h-85v162zM102 572v109h62v-109h-62zM195 572v109h62v-109h-62z" />
    <glyph glyph-name="aring" unicode="&#xe5;" horiz-adv-x="350" 
d="M123 438v-370l104 162v208h-104zM227 162l-104 -162h-24q-28 0 -44.5 17.5t-16.5 42.5v386q0 26 16.5 43t44.5 17h213v-506h-85v162zM104 627q0 31 22 53t53 22t53.5 -22t22.5 -53t-22 -52.5t-54 -21.5q-31 0 -53 21.5t-22 52.5zM145 627q0 -14 10 -24.5t24 -10.5
t24.5 10.5t10.5 24.5t-10.5 24.5t-24.5 10.5t-24 -10.5t-10 -24.5z" />
    <glyph glyph-name="ae" unicode="&#xe6;" horiz-adv-x="523" 
d="M407 329v109h-95v-211zM123 438v-370l104 162v208h-104zM99 506h334q28 0 44 -16.5t16 -42.5v-88l-181 -192v-99h172v-68h-257v162l-104 -162h-24q-28 0 -44.5 17.5t-16.5 42.5v386q0 26 16.5 43t44.5 17z" />
    <glyph glyph-name="ccedilla" unicode="&#xe7;" horiz-adv-x="290" 
d="M268 0h-166q-31 0 -47.5 16.5t-16.5 43.5v386q0 27 16.5 43.5t47.5 16.5h166v-68h-145v-370h145v-68zM191 -141h-74v46h56l-37 82l40 20l44 -96q5 -10 5 -23q0 -29 -34 -29z" />
    <glyph glyph-name="egrave" unicode="&#xe8;" horiz-adv-x="335" 
d="M224 336v102h-101v-211zM310 446v-81l-187 -198v-99h183v-68h-204q-31 0 -47.5 17t-16.5 44v385q0 27 16.5 43.5t47.5 16.5h143q32 0 48.5 -16.5t16.5 -43.5zM244 609l-29 -46l-133 87l28 46z" />
    <glyph glyph-name="eacute" unicode="&#xe9;" horiz-adv-x="335" 
d="M224 336v102h-101v-211zM310 446v-81l-187 -198v-99h183v-68h-204q-31 0 -47.5 17t-16.5 44v385q0 27 16.5 43.5t47.5 16.5h143q32 0 48.5 -16.5t16.5 -43.5zM124 563l-28 45l133 87l29 -45z" />
    <glyph glyph-name="ecircumflex" unicode="&#xea;" horiz-adv-x="335" 
d="M224 336v102h-101v-211zM310 446v-81l-187 -198v-99h183v-68h-204q-31 0 -47.5 17t-16.5 44v385q0 27 16.5 43.5t47.5 16.5h143q32 0 48.5 -16.5t16.5 -43.5zM82 566l-27 43l116 75l115 -75l-27 -43l-89 59z" />
    <glyph glyph-name="edieresis" unicode="&#xeb;" horiz-adv-x="335" 
d="M224 336v102h-101v-211zM310 446v-81l-187 -198v-99h183v-68h-204q-31 0 -47.5 17t-16.5 44v385q0 27 16.5 43.5t47.5 16.5h143q32 0 48.5 -16.5t16.5 -43.5zM92 572v109h62v-109h-62zM185 572v109h62v-109h-62z" />
    <glyph glyph-name="igrave" unicode="&#xec;" horiz-adv-x="164" 
d="M147 0h-57q-50 0 -50 48v458h85v-438h22v-68zM146 609l-29 -46l-133 87l28 46z" />
    <glyph glyph-name="iacute" unicode="&#xed;" horiz-adv-x="164" 
d="M146 0h-57q-50 0 -50 48v458h85v-438h22v-68zM51 563l-28 45l133 87l29 -45z" />
    <glyph glyph-name="icircumflex" unicode="&#xee;" horiz-adv-x="164" 
d="M147 0h-57q-50 0 -50 48v458h85v-438h22v-68zM-7 566l-27 43l116 75l115 -75l-27 -43l-89 59z" />
    <glyph glyph-name="idieresis" unicode="&#xef;" horiz-adv-x="164" 
d="M147 0h-57q-50 0 -50 48v458h85v-438h22v-68zM5 572v109h62v-109h-62zM98 572v109h62v-109h-62z" />
    <glyph glyph-name="eth" unicode="&#xf0;" horiz-adv-x="339" 
d="M276 630l-38 -15l47 -101q23 -49 23 -87v-366q0 -26 -17 -43.5t-45 -17.5h-153q-28 0 -44.5 17.5t-16.5 43.5v357q0 26 16.5 43.5t44.5 17.5h117l-50 104l-61 -24v50l41 16l-44 93h94l28 -61l58 23v-50zM223 410h-106v-342h106v342z" />
    <glyph glyph-name="ntilde" unicode="&#xf1;" 
d="M230 438l-106 -167v-271h-85v506h85v-167l106 167h21q31 0 47.5 -16.5t16.5 -43.5v-446h-85v438zM311 635l-48 -48q-26 -26 -63 -8l-79 40l-45 -46l-34 34l48 48q26 26 63 8l79 -40l45 46z" />
    <glyph glyph-name="ograve" unicode="&#xf2;" horiz-adv-x="352" 
d="M230 68v370h-107v-370h107zM38 60v386q0 27 16.5 43.5t47.5 16.5h148q31 0 47.5 -16.5t16.5 -43.5v-386q0 -27 -16.5 -43.5t-47.5 -16.5h-148q-31 0 -47.5 16.5t-16.5 43.5zM250 609l-29 -46l-133 87l28 46z" />
    <glyph glyph-name="oacute" unicode="&#xf3;" horiz-adv-x="352" 
d="M230 68v370h-107v-370h107zM38 60v386q0 27 16.5 43.5t47.5 16.5h148q31 0 47.5 -16.5t16.5 -43.5v-386q0 -27 -16.5 -43.5t-47.5 -16.5h-148q-31 0 -47.5 16.5t-16.5 43.5zM130 563l-28 45l133 87l29 -45z" />
    <glyph glyph-name="ocircumflex" unicode="&#xf4;" horiz-adv-x="352" 
d="M230 68v370h-107v-370h107zM38 60v386q0 27 16.5 43.5t47.5 16.5h148q31 0 47.5 -16.5t16.5 -43.5v-386q0 -27 -16.5 -43.5t-47.5 -16.5h-148q-31 0 -47.5 16.5t-16.5 43.5zM88 566l-27 43l116 75l115 -75l-27 -43l-89 59z" />
    <glyph glyph-name="otilde" unicode="&#xf5;" horiz-adv-x="352" 
d="M230 68v370h-107v-370h107zM38 60v386q0 27 16.5 43.5t47.5 16.5h148q31 0 47.5 -16.5t16.5 -43.5v-386q0 -27 -16.5 -43.5t-47.5 -16.5h-148q-31 0 -47.5 16.5t-16.5 43.5zM311 635l-48 -48q-26 -26 -63 -8l-79 40l-45 -46l-34 34l48 48q26 26 63 8l79 -40l45 46z" />
    <glyph glyph-name="odieresis" unicode="&#xf6;" horiz-adv-x="352" 
d="M230 68v370h-107v-370h107zM38 60v386q0 27 16.5 43.5t47.5 16.5h148q31 0 47.5 -16.5t16.5 -43.5v-386q0 -27 -16.5 -43.5t-47.5 -16.5h-148q-31 0 -47.5 16.5t-16.5 43.5zM98 572v109h62v-109h-62zM191 572v109h62v-109h-62z" />
    <glyph glyph-name="divide" unicode="&#xf7;" horiz-adv-x="448" 
d="M254 520v-120h-60v120h60zM254 221v-121h-60v121h60zM423 284h-398v52h398v-52z" />
    <glyph glyph-name="oslash" unicode="&#xf8;" horiz-adv-x="352" 
d="M38 60v386q0 27 16.5 43.5t47.5 16.5h148q19 0 31 -6l18 36h35l-28 -57q8 -16 8 -33v-386q0 -27 -16.5 -43.5t-47.5 -16.5h-148q-16 0 -31 5l-17 -35h-35l28 56q-9 13 -9 34zM230 64v262l-107 -217v-45h107zM123 442v-262l107 216v46h-107z" />
    <glyph glyph-name="ugrave" unicode="&#xf9;" 
d="M123 68l106 167v271h85v-506h-85v167l-106 -167h-21q-31 0 -47.5 16.5t-16.5 43.5v446h85v-438zM235 609l-29 -46l-133 87l28 46z" />
    <glyph glyph-name="uacute" unicode="&#xfa;" 
d="M123 68l106 167v271h85v-506h-85v167l-106 -167h-21q-31 0 -47.5 16.5t-16.5 43.5v446h85v-438zM137 563l-28 45l133 87l29 -45z" />
    <glyph glyph-name="ucircumflex" unicode="&#xfb;" 
d="M123 68l106 167v271h85v-506h-85v167l-106 -167h-21q-31 0 -47.5 16.5t-16.5 43.5v446h85v-438zM88 566l-27 43l116 75l115 -75l-27 -43l-89 59z" />
    <glyph glyph-name="udieresis" unicode="&#xfc;" 
d="M123 68l106 167v271h85v-506h-85v167l-106 -167h-21q-31 0 -47.5 16.5t-16.5 43.5v446h85v-438zM99 572v109h62v-109h-62zM192 572v109h62v-109h-62z" />
    <glyph glyph-name="yacute" unicode="&#xfd;" 
d="M123 68l106 167v271h85v-604q0 -27 -16.5 -44t-47.5 -17h-202v69h181v257l-106 -167h-21q-28 0 -46 17.5t-18 43.5v445h85v-438zM141 563l-28 45l133 87l29 -45z" />
    <glyph glyph-name="thorn" unicode="&#xfe;" horiz-adv-x="354" 
d="M124 718v-379l107 167h21q31 0 47.5 -16.5t16.5 -43.5v-386q0 -27 -16.5 -43.5t-47.5 -16.5h-128v-159h-85v877h85zM231 438l-107 -167v-203h107v370z" />
    <glyph glyph-name="ydieresis" unicode="&#xff;" 
d="M123 68l106 167v271h85v-604q0 -27 -16.5 -44t-47.5 -17h-202v69h181v257l-106 -167h-21q-28 0 -46 17.5t-18 43.5v445h85v-438zM99 572v109h62v-109h-62zM192 572v109h62v-109h-62z" />
    <glyph glyph-name="Amacron" unicode="&#x100;" horiz-adv-x="393" 
d="M266 359v258h-139v-258h139zM354 627v-627h-88v285h-139v-285h-88v627q0 64 67 64h181q67 0 67 -64zM296 744h-201v52h201v-52z" />
    <glyph glyph-name="amacron" unicode="&#x101;" horiz-adv-x="350" 
d="M123 438v-370l104 162v208h-104zM227 162l-104 -162h-24q-28 0 -44.5 17.5t-16.5 42.5v386q0 26 16.5 43t44.5 17h213v-506h-85v162zM280 594h-201v52h201v-52z" />
    <glyph glyph-name="Abreve" unicode="&#x102;" horiz-adv-x="393" 
d="M266 359v258h-139v-258h139zM354 627v-627h-88v285h-139v-285h-88v627q0 64 67 64h181q67 0 67 -64zM304 827v-48q0 -47 -50 -47h-115q-50 0 -50 47v48h53v-46h110v46h52z" />
    <glyph glyph-name="abreve" unicode="&#x103;" horiz-adv-x="350" 
d="M123 438v-370l104 162v208h-104zM227 162l-104 -162h-24q-28 0 -44.5 17.5t-16.5 42.5v386q0 26 16.5 43t44.5 17h213v-506h-85v162zM282 673v-48q0 -47 -50 -47h-115q-50 0 -50 47v48h53v-46h110v46h52z" />
    <glyph glyph-name="Aogonek" unicode="&#x104;" horiz-adv-x="393" 
d="M266 359v258h-139v-258h139zM354 627v-627h-88v285h-139v-285h-88v627q0 64 67 64h181q67 0 67 -64zM354 -141h-69q-51 0 -36 55l26 94h50l-26 -94h55v-55z" />
    <glyph glyph-name="aogonek" unicode="&#x105;" horiz-adv-x="350" 
d="M312 -141h-69q-51 0 -36 55l24 86h-4v162l-104 -162h-24q-28 0 -44.5 17.5t-16.5 42.5v386q0 26 16.5 43t44.5 17h213v-506h-31l-24 -86h55v-55zM123 438v-370l104 162v208h-104z" />
    <glyph glyph-name="Cacute" unicode="&#x106;" horiz-adv-x="317" 
d="M105 691h193v-74h-172v-543h172v-74h-193q-67 0 -67 63v564q0 64 67 64zM125 724l-20 49l147 61l21 -49z" />
    <glyph glyph-name="cacute" unicode="&#x107;" horiz-adv-x="290" 
d="M268 0h-166q-31 0 -47.5 16.5t-16.5 43.5v386q0 27 16.5 43.5t47.5 16.5h166v-68h-145v-370h145v-68zM111 563l-28 45l133 87l29 -45z" />
    <glyph glyph-name="Ccircumflex" unicode="&#x108;" horiz-adv-x="317" 
d="M105 691h193v-74h-172v-543h172v-74h-193q-67 0 -67 63v564q0 64 67 64zM84 721l-27 43l116 75l115 -75l-27 -43l-89 59z" />
    <glyph glyph-name="ccircumflex" unicode="&#x109;" horiz-adv-x="290" 
d="M268 0h-166q-31 0 -47.5 16.5t-16.5 43.5v386q0 27 16.5 43.5t47.5 16.5h166v-68h-145v-370h145v-68zM63 566l-27 43l116 75l115 -75l-27 -43l-89 59z" />
    <glyph glyph-name="Cdotaccent" unicode="&#x10a;" horiz-adv-x="317" 
d="M105 691h193v-74h-172v-543h172v-74h-193q-67 0 -67 63v564q0 64 67 64zM221 723h-85v112h85v-112z" />
    <glyph glyph-name="cdotaccent" unicode="&#x10b;" horiz-adv-x="290" 
d="M268 0h-166q-31 0 -47.5 16.5t-16.5 43.5v386q0 27 16.5 43.5t47.5 16.5h166v-68h-145v-370h145v-68zM198 572h-85v112h85v-112z" />
    <glyph glyph-name="Ccaron" unicode="&#x10c;" horiz-adv-x="317" 
d="M105 691h193v-74h-172v-543h172v-74h-193q-67 0 -67 63v564q0 64 67 64zM265 838l26 -42l-116 -76l-115 75l27 43l89 -59z" />
    <glyph glyph-name="ccaron" unicode="&#x10d;" horiz-adv-x="290" 
d="M268 0h-166q-31 0 -47.5 16.5t-16.5 43.5v386q0 27 16.5 43.5t47.5 16.5h166v-68h-145v-370h145v-68zM247 684l26 -42l-116 -76l-115 75l27 43l89 -59z" />
    <glyph glyph-name="Dcaron" unicode="&#x10e;" horiz-adv-x="393" 
d="M39 691h249q67 0 67 -64v-564q0 -63 -67 -63h-249v691zM127 74h139v543h-139v-543zM285 838l26 -42l-116 -76l-115 75l27 43l89 -59z" />
    <glyph glyph-name="dcaron" unicode="&#x10f;" horiz-adv-x="370" 
d="M410 652l-41 -61h-25v127h66v-66zM230 0v167l-107 -167h-21q-31 0 -47.5 16.5t-16.5 43.5v386q0 27 16.5 43.5t47.5 16.5h128v212h85v-718h-85zM123 68l107 167v203h-107v-370z" />
    <glyph glyph-name="Dcroat" unicode="&#x110;" horiz-adv-x="412" 
d="M58 691h255q62 0 62 -61v-568q0 -62 -62 -62h-255v326h-43v52h43v313zM147 74h139v543h-139v-239h65v-52h-65v-252z" />
    <glyph glyph-name="dcroat" unicode="&#x111;" horiz-adv-x="366" 
d="M230 0v167l-107 -167h-21q-31 0 -47.5 16.5t-16.5 43.5v368q0 27 16.5 43.5t47.5 16.5h128v96h-83v53h83v81h85v-81h46v-53h-46v-584h-85zM123 68l107 167v185h-107v-352z" />
    <glyph glyph-name="Emacron" unicode="&#x112;" horiz-adv-x="326" 
d="M300 0h-261v691h261v-74h-173v-230h173v-74h-173v-239h173v-74zM261 744h-201v52h201v-52z" />
    <glyph glyph-name="emacron" unicode="&#x113;" horiz-adv-x="335" 
d="M224 336v102h-101v-211zM310 446v-81l-187 -198v-99h183v-68h-204q-31 0 -47.5 17t-16.5 44v385q0 27 16.5 43.5t47.5 16.5h143q32 0 48.5 -16.5t16.5 -43.5zM270 594h-201v52h201v-52z" />
    <glyph glyph-name="Ebreve" unicode="&#x114;" horiz-adv-x="326" 
d="M300 0h-261v691h261v-74h-173v-230h173v-74h-173v-239h173v-74zM270 827v-48q0 -47 -50 -47h-115q-50 0 -50 47v48h53v-46h110v46h52z" />
    <glyph glyph-name="ebreve" unicode="&#x115;" horiz-adv-x="335" 
d="M224 336v102h-101v-211zM310 446v-81l-187 -198v-99h183v-68h-204q-31 0 -47.5 17t-16.5 44v385q0 27 16.5 43.5t47.5 16.5h143q32 0 48.5 -16.5t16.5 -43.5zM278 673v-48q0 -47 -50 -47h-115q-50 0 -50 47v48h53v-46h110v46h52z" />
    <glyph glyph-name="Edotaccent" unicode="&#x116;" horiz-adv-x="326" 
d="M300 0h-261v691h261v-74h-173v-230h173v-74h-173v-239h173v-74zM204 723h-85v112h85v-112z" />
    <glyph glyph-name="edotaccent" unicode="&#x117;" horiz-adv-x="335" 
d="M224 336v102h-101v-211zM310 446v-81l-187 -198v-99h183v-68h-204q-31 0 -47.5 17t-16.5 44v385q0 27 16.5 43.5t47.5 16.5h143q32 0 48.5 -16.5t16.5 -43.5zM213 572h-85v112h85v-112z" />
    <glyph glyph-name="Eogonek" unicode="&#x118;" horiz-adv-x="326" 
d="M300 0h-261v691h261v-74h-173v-230h173v-74h-173v-239h173v-74zM300 -141h-69q-51 0 -36 55l26 94h50l-26 -94h55v-55z" />
    <glyph glyph-name="eogonek" unicode="&#x119;" horiz-adv-x="335" 
d="M306 -141h-69q-51 0 -36 55l24 86h-123q-31 0 -47.5 17t-16.5 44v385q0 27 16.5 43.5t47.5 16.5h143q32 0 48.5 -16.5t16.5 -43.5v-81l-187 -198v-99h183v-68h-31l-24 -86h55v-55zM224 336v102h-101v-211z" />
    <glyph glyph-name="Ecaron" unicode="&#x11a;" horiz-adv-x="326" 
d="M300 0h-261v691h261v-74h-173v-230h173v-74h-173v-239h173v-74zM256 838l26 -42l-116 -76l-115 75l27 43l89 -59z" />
    <glyph glyph-name="ecaron" unicode="&#x11b;" horiz-adv-x="335" 
d="M224 336v102h-101v-211zM310 446v-81l-187 -198v-99h183v-68h-204q-31 0 -47.5 17t-16.5 44v385q0 27 16.5 43.5t47.5 16.5h143q32 0 48.5 -16.5t16.5 -43.5zM260 684l26 -42l-116 -76l-115 75l27 43l89 -59z" />
    <glyph glyph-name="Gcircumflex" unicode="&#x11c;" horiz-adv-x="365" 
d="M334 0h-229q-67 0 -67 63v564q0 64 67 64h225v-74h-204v-543h129v295h79v-369zM98 720l-27 43l116 75l115 -75l-27 -43l-89 59z" />
    <glyph glyph-name="gcircumflex" unicode="&#x11d;" horiz-adv-x="354" 
d="M230 -90v257l-107 -167h-21q-31 0 -47.5 17t-16.5 44v385q0 27 16.5 43.5t47.5 16.5h213v-604q0 -27 -17 -44t-47 -17h-207v69h186zM230 235v203h-107v-370zM88 566l-27 43l116 75l115 -75l-27 -43l-89 59z" />
    <glyph glyph-name="Gbreve" unicode="&#x11e;" horiz-adv-x="365" 
d="M334 0h-229q-67 0 -67 63v564q0 64 67 64h225v-74h-204v-543h129v295h79v-369zM294 827v-48q0 -47 -50 -47h-115q-50 0 -50 47v48h53v-46h110v46h52z" />
    <glyph glyph-name="gbreve" unicode="&#x11f;" horiz-adv-x="354" 
d="M230 -90v257l-107 -167h-21q-31 0 -47.5 17t-16.5 44v385q0 27 16.5 43.5t47.5 16.5h213v-604q0 -27 -17 -44t-47 -17h-207v69h186zM230 235v203h-107v-370zM285 673v-48q0 -47 -50 -47h-115q-50 0 -50 47v48h53v-46h110v46h52z" />
    <glyph glyph-name="Gdotaccent" unicode="&#x120;" horiz-adv-x="365" 
d="M334 0h-229q-67 0 -67 63v564q0 64 67 64h225v-74h-204v-543h129v295h79v-369zM225 723h-85v112h85v-112z" />
    <glyph glyph-name="gdotaccent" unicode="&#x121;" horiz-adv-x="354" 
d="M230 -90v257l-107 -167h-21q-31 0 -47.5 17t-16.5 44v385q0 27 16.5 43.5t47.5 16.5h213v-604q0 -27 -17 -44t-47 -17h-207v69h186zM230 235v203h-107v-370zM219 572h-85v112h85v-112z" />
    <glyph glyph-name="Gcommaaccent" unicode="&#x122;" horiz-adv-x="365" 
d="M334 0h-229q-67 0 -67 63v564q0 64 67 64h225v-74h-204v-543h129v295h79v-369zM220 -95l-42 -61h-29v126h71v-65z" />
    <glyph glyph-name="gcommaaccent" unicode="&#x123;" horiz-adv-x="354" 
d="M140 630l44 61h29v-126h-73v65zM230 -90v257l-107 -167h-21q-31 0 -47.5 17t-16.5 44v385q0 27 16.5 43.5t47.5 16.5h213v-604q0 -27 -17 -44t-47 -17h-207v69h186zM230 235v203h-107v-370z" />
    <glyph glyph-name="Hcircumflex" unicode="&#x124;" horiz-adv-x="393" 
d="M354 0h-89v319h-138v-319h-88v691h88v-298h138v298h89v-691zM108 720l-27 43l116 75l115 -75l-27 -43l-89 59z" />
    <glyph glyph-name="hcircumflex" unicode="&#x125;" horiz-adv-x="354" 
d="M230 438l-106 -167v-271h-85v718h85v-379l106 167h21q31 0 47.5 -16.5t16.5 -43.5v-446h-85v438zM-6 738l-27 43l116 75l115 -75l-27 -43l-89 59z" />
    <glyph glyph-name="Hbar" unicode="&#x126;" horiz-adv-x="393" 
d="M354 0h-88v319h-139v-319h-88v515h-30v50h30v126h88v-126h139v126h88v-126h29v-50h-29v-515zM127 393h139v122h-139v-122z" />
    <glyph glyph-name="hbar" unicode="&#x127;" horiz-adv-x="368" 
d="M247 402l-106 -167v-235h-85v585h-46v52h46v81h85v-81h85v-52h-85v-282l106 167h21q31 0 47.5 -16.5t16.5 -43.5v-410h-85v402z" />
    <glyph glyph-name="Itilde" unicode="&#x128;" horiz-adv-x="166" 
d="M127 0h-88v691h88v-691zM217 794l-48 -48q-26 -26 -63 -8l-79 40l-45 -46l-34 34l48 48q26 26 63 8l79 -40l45 46z" />
    <glyph glyph-name="itilde" unicode="&#x129;" horiz-adv-x="164" 
d="M147 0h-57q-50 0 -50 48v458h85v-438h22v-68zM217 635l-48 -48q-26 -26 -63 -8l-79 40l-45 -46l-34 34l48 48q26 26 63 8l79 -40l45 46z" />
    <glyph glyph-name="Imacron" unicode="&#x12a;" horiz-adv-x="166" 
d="M127 0h-88v691h88v-691zM183 744h-201v52h201v-52z" />
    <glyph glyph-name="imacron" unicode="&#x12b;" horiz-adv-x="164" 
d="M147 0h-57q-50 0 -50 48v458h85v-438h22v-68zM183 594h-201v52h201v-52z" />
    <glyph glyph-name="Iogonek" unicode="&#x12e;" horiz-adv-x="166" 
d="M127 0h-88v691h88v-691zM129 -141h-69q-51 0 -36 55l26 94h50l-26 -94h55v-55z" />
    <glyph glyph-name="iogonek" unicode="&#x12f;" horiz-adv-x="163" 
d="M125 -141h-69q-51 0 -36 55l26 94h10q-17 11 -17 40v458h85v-438h22v-68h-52l-24 -86h55v-55zM124 568h-85v119h85v-119z" />
    <glyph glyph-name="Idotaccent" unicode="&#x130;" horiz-adv-x="166" 
d="M127 0h-88v691h88v-691zM125 726h-85v112h85v-112z" />
    <glyph glyph-name="dotlessi" unicode="&#x131;" horiz-adv-x="164" 
d="M147 0h-57q-50 0 -50 48v458h85v-438h22v-68z" />
    <glyph glyph-name="IJ" unicode="&#x132;" horiz-adv-x="363" 
d="M127 0h-88v691h88v-691zM325 691v-627q0 -64 -67 -64h-102v74h81v617h88z" />
    <glyph glyph-name="ij" unicode="&#x133;" horiz-adv-x="319" 
d="M124 568h-85v119h85v-119zM280 568h-84v119h84v-119zM280 506v-621q0 -20 -11 -32t-32 -12h-67v65h25v600h85zM146 0h-57q-50 0 -50 48v458h85v-438h22v-68z" />
    <glyph glyph-name="Jcircumflex" unicode="&#x134;" horiz-adv-x="224" 
d="M186 691v-627q0 -64 -67 -64h-102v74h80v617h89zM53 720l-27 43l116 75l115 -75l-27 -43l-89 59z" />
    <glyph glyph-name="jcircumflex" unicode="&#x135;" horiz-adv-x="136" 
d="M110 506v-621q0 -19 -11.5 -31.5t-31.5 -12.5h-61v65h19v600h85zM-20 566l-27 43l116 75l115 -75l-27 -43l-89 59z" />
    <glyph glyph-name="Kcommaaccent" unicode="&#x136;" horiz-adv-x="380" 
d="M210 319h-83v-319h-88v691h88v-298h85q38 62 38 198v100h88v-100q0 -157 -77 -225v-6q89 -77 89 -246v-114h-93v114q0 79 -11.5 124.5t-35.5 80.5zM226 -95l-42 -61h-29v126h71v-65z" />
    <glyph glyph-name="kcommaaccent" unicode="&#x137;" horiz-adv-x="346" 
d="M124 718v-212h191v-45q0 -126 -68 -197v-4q68 -68 68 -197v-63h-89v63q0 95 -36 167h-66v-230h-85v718h85zM192 294q34 70 34 167v3h-102v-170h68zM209 -95l-42 -61h-29v126h71v-65z" />
    <glyph glyph-name="Lacute" unicode="&#x139;" horiz-adv-x="301" 
d="M287 0h-261v691h88v-617h173v-74zM58 724l-20 49l147 61l21 -49z" />
    <glyph glyph-name="lacute" unicode="&#x13a;" horiz-adv-x="172" 
d="M150 0h-62q-50 0 -50 48v670h85v-650h27v-68zM59 744l-20 49l147 61l21 -49z" />
    <glyph glyph-name="Lcommaaccent" unicode="&#x13b;" horiz-adv-x="301" 
d="M287 0h-261v691h88v-617h173v-74zM191 -95l-42 -61h-29v126h71v-65z" />
    <glyph glyph-name="lcommaaccent" unicode="&#x13c;" horiz-adv-x="172" 
d="M150 0h-62q-50 0 -50 48v670h85v-650h27v-68zM132 -95l-42 -61h-29v126h71v-65z" />
    <glyph glyph-name="Lcaron" unicode="&#x13d;" horiz-adv-x="301" 
d="M245 626l-40 -61h-26v126h66v-65zM287 0h-261v691h88v-617h173v-74z" />
    <glyph glyph-name="lcaron" unicode="&#x13e;" horiz-adv-x="174" 
d="M216 652l-41 -61h-25v127h66v-66zM150 0h-62q-50 0 -50 48v670h85v-650h27v-68z" />
    <glyph glyph-name="Ldot" unicode="&#x13f;" horiz-adv-x="327" 
d="M275 293h-74v123h74v-123zM300 0h-261v691h88v-617h173v-74z" />
    <glyph glyph-name="ldot" unicode="&#x140;" horiz-adv-x="224" 
d="M229 293h-73v123h73v-123zM150 0h-62q-50 0 -50 48v670h85v-650h27v-68z" />
    <glyph glyph-name="Lslash" unicode="&#x141;" horiz-adv-x="319" 
d="M303 0h-254v401l-39 -12v60l39 12v230h87v-203l75 25v-60l-75 -25v-354h167v-74z" />
    <glyph glyph-name="lslash" unicode="&#x142;" horiz-adv-x="182" 
d="M158 0h-72q-20 0 -31.5 12t-11.5 31v343l-33 -19v60l33 19v272h86v-233l41 21v-59l-41 -21v-358h29v-68z" />
    <glyph glyph-name="Nacute" unicode="&#x143;" horiz-adv-x="393" 
d="M354 627v-627h-88v617h-139v-617h-88v627q0 64 67 64h181q67 0 67 -64zM142 724l-20 49l147 61l21 -49z" />
    <glyph glyph-name="nacute" unicode="&#x144;" 
d="M230 438l-106 -167v-271h-85v506h85v-167l106 167h21q31 0 47.5 -16.5t16.5 -43.5v-446h-85v438zM131 563l-28 45l133 87l29 -45z" />
    <glyph glyph-name="Ncommaaccent" unicode="&#x145;" horiz-adv-x="393" 
d="M354 627v-627h-88v617h-139v-617h-88v627q0 64 67 64h181q67 0 67 -64zM232 -95l-42 -61h-29v126h71v-65z" />
    <glyph glyph-name="ncommaaccent" unicode="&#x146;" 
d="M230 438l-106 -167v-271h-85v506h85v-167l106 167h21q31 0 47.5 -16.5t16.5 -43.5v-446h-85v438zM212 -95l-42 -61h-29v126h71v-65z" />
    <glyph glyph-name="Ncaron" unicode="&#x147;" horiz-adv-x="393" 
d="M354 627v-627h-88v617h-139v-617h-88v627q0 64 67 64h181q67 0 67 -64zM286 838l26 -42l-116 -76l-115 75l27 43l89 -59z" />
    <glyph glyph-name="ncaron" unicode="&#x148;" 
d="M230 438l-106 -167v-271h-85v506h85v-167l106 167h21q31 0 47.5 -16.5t16.5 -43.5v-446h-85v438zM266 684l26 -42l-116 -76l-115 75l27 43l89 -59z" />
    <glyph glyph-name="napostrophe" unicode="&#x149;" 
d="M230 438l-106 -167v-271h-85v506h85v-167l106 167h21q31 0 47.5 -16.5t16.5 -43.5v-446h-85v438zM94 615l-42 -61h-29v126h71v-65z" />
    <glyph glyph-name="Omacron" unicode="&#x14c;" horiz-adv-x="392" 
d="M265 74v543h-139v-543h139zM38 63v564q0 64 67 64h182q67 0 67 -64v-564q0 -63 -67 -63h-182q-67 0 -67 63zM296 744h-201v52h201v-52z" />
    <glyph glyph-name="omacron" unicode="&#x14d;" horiz-adv-x="352" 
d="M230 68v370h-107v-370h107zM38 60v386q0 27 16.5 43.5t47.5 16.5h148q31 0 47.5 -16.5t16.5 -43.5v-386q0 -27 -16.5 -43.5t-47.5 -16.5h-148q-31 0 -47.5 16.5t-16.5 43.5zM276 594h-201v52h201v-52z" />
    <glyph glyph-name="Ohungarumlaut" unicode="&#x150;" horiz-adv-x="392" 
d="M265 74v543h-139v-543h139zM38 63v564q0 64 67 64h182q67 0 67 -64v-564q0 -63 -67 -63h-182q-67 0 -67 63zM132 713l-34 34l108 104l34 -35zM227 713l-34 34l108 104l34 -35z" />
    <glyph glyph-name="ohungarumlaut" unicode="&#x151;" horiz-adv-x="352" 
d="M230 68v370h-107v-370h107zM38 60v386q0 27 16.5 43.5t47.5 16.5h148q31 0 47.5 -16.5t16.5 -43.5v-386q0 -27 -16.5 -43.5t-47.5 -16.5h-148q-31 0 -47.5 16.5t-16.5 43.5zM131 557l-40 28l91 126l40 -29zM219 557l-40 28l91 125l40 -28z" />
    <glyph glyph-name="OE" unicode="&#x152;" horiz-adv-x="551" 
d="M524 0h-424q-62 0 -62 61v569q0 61 62 61h424v-74h-170v-231h170v-73h-170v-239h170v-74zM265 74v543h-139v-543h139z" />
    <glyph glyph-name="oe" unicode="&#x153;" horiz-adv-x="510" 
d="M485 447v-94l-176 -186v-99h172v-68h-384q-27 0 -43 17t-16 42v388q0 26 15.5 42.5t43.5 16.5h328q28 0 44 -16.5t16 -42.5zM223 68v370h-100v-370h100zM404 332v106h-95v-210z" />
    <glyph glyph-name="Racute" unicode="&#x154;" horiz-adv-x="390" 
d="M263 370v247h-136v-247h136zM268 0v132q0 108 -28 164h-113v-296h-88v691h246q66 0 66 -64v-235q0 -33 -31 -43l-34 -9v-7q70 -66 70 -201v-132h-88zM144 724l-20 49l147 61l21 -49z" />
    <glyph glyph-name="racute" unicode="&#x155;" horiz-adv-x="248" 
d="M90 506h146v-68h-112v-438h-85v458q0 48 51 48zM95 563l-28 45l133 87l29 -45z" />
    <glyph glyph-name="Rcommaaccent" unicode="&#x156;" horiz-adv-x="390" 
d="M263 370v247h-136v-247h136zM268 0v132q0 108 -28 164h-113v-296h-88v691h246q66 0 66 -64v-235q0 -33 -31 -43l-34 -9v-7q70 -66 70 -201v-132h-88zM231 -95l-42 -61h-29v126h71v-65z" />
    <glyph glyph-name="rcommaaccent" unicode="&#x157;" horiz-adv-x="248" 
d="M90 506h146v-68h-112v-438h-85v458q0 48 51 48zM118 -95l-42 -61h-29v126h71v-65z" />
    <glyph glyph-name="Rcaron" unicode="&#x158;" horiz-adv-x="390" 
d="M263 370v247h-136v-247h136zM268 0v132q0 108 -28 164h-113v-296h-88v691h246q66 0 66 -64v-235q0 -33 -31 -43l-34 -9v-7q70 -66 70 -201v-132h-88zM284 838l26 -42l-116 -76l-115 75l27 43l89 -59z" />
    <glyph glyph-name="rcaron" unicode="&#x159;" horiz-adv-x="248" 
d="M90 506h146v-68h-112v-438h-85v458q0 48 51 48zM224 684l26 -42l-116 -76l-115 75l27 43l89 -59z" />
    <glyph glyph-name="Sacute" unicode="&#x15a;" horiz-adv-x="345" 
d="M314 343v-280q0 -63 -67 -63h-214v74h192v240h-147q-21 0 -33 13t-12 32v268q0 64 67 64h204v-74h-182v-229h146q22 0 34 -12.5t12 -32.5zM125 724l-20 49l147 61l21 -49z" />
    <glyph glyph-name="sacute" unicode="&#x15b;" horiz-adv-x="317" 
d="M199 199l-121 50q-25 11 -34 27t-9 45v125q0 27 16.5 43.5t46.5 16.5h177v-68h-155v-118l121 -50q25 -11 34 -27t9 -45v-138q0 -27 -16.5 -43.5t-47.5 -16.5h-185v68h164v131zM119 563l-28 45l133 87l29 -45z" />
    <glyph glyph-name="Scircumflex" unicode="&#x15c;" horiz-adv-x="345" 
d="M314 343v-280q0 -63 -67 -63h-214v74h192v240h-147q-21 0 -33 13t-12 32v268q0 64 67 64h204v-74h-182v-229h146q22 0 34 -12.5t12 -32.5zM84 720l-27 43l116 75l115 -75l-27 -43l-89 59z" />
    <glyph glyph-name="scircumflex" unicode="&#x15d;" horiz-adv-x="317" 
d="M199 199l-121 50q-25 11 -34 27t-9 45v125q0 27 16.5 43.5t46.5 16.5h177v-68h-155v-118l121 -50q25 -11 34 -27t9 -45v-138q0 -27 -16.5 -43.5t-47.5 -16.5h-185v68h164v131zM70 566l-27 43l116 75l115 -75l-27 -43l-89 59z" />
    <glyph glyph-name="Scedilla" unicode="&#x15e;" horiz-adv-x="345" 
d="M192 -141h-74v46h56l-37 82l26 13h-130v74h192v240h-147q-21 0 -33 13t-12 32v268q0 64 67 64h204v-74h-182v-229h146q22 0 34 -12.5t12 -32.5v-280q0 -63 -67 -63h-67l41 -89q5 -10 5 -23q0 -29 -34 -29z" />
    <glyph glyph-name="scedilla" unicode="&#x15f;" horiz-adv-x="317" 
d="M177 -141h-74v46h56l-37 82l26 13h-113v68h164v131l-121 50q-25 11 -34 27t-9 45v125q0 27 16.5 43.5t46.5 16.5h177v-68h-155v-118l121 -50q25 -11 34 -27t9 -45v-138q0 -27 -16.5 -43.5t-47.5 -16.5h-55l41 -89q5 -10 5 -23q0 -29 -34 -29z" />
    <glyph glyph-name="Scaron" unicode="&#x160;" horiz-adv-x="345" 
d="M314 343v-280q0 -63 -67 -63h-214v74h192v240h-147q-21 0 -33 13t-12 32v268q0 64 67 64h204v-74h-182v-229h146q22 0 34 -12.5t12 -32.5zM269 838l26 -42l-116 -76l-115 75l27 43l89 -59z" />
    <glyph glyph-name="scaron" unicode="&#x161;" horiz-adv-x="317" 
d="M199 199l-121 50q-25 11 -34 27t-9 45v125q0 27 16.5 43.5t46.5 16.5h177v-68h-155v-118l121 -50q25 -11 34 -27t9 -45v-138q0 -27 -16.5 -43.5t-47.5 -16.5h-185v68h164v131zM251 684l26 -42l-116 -76l-115 75l27 43l89 -59z" />
    <glyph glyph-name="Tcommaaccent" unicode="&#x162;" horiz-adv-x="346" 
d="M195 -141h-74v46h56l-37 82l26 13h-37v617h-109v74h306v-74h-108v-617h-35l41 -89q5 -10 5 -23q0 -29 -34 -29z" />
    <glyph glyph-name="tcommaaccent" unicode="&#x163;" horiz-adv-x="247" 
d="M157 -141h-74v46h56l-37 82l26 13h-25q-31 0 -47.5 16.5t-16.5 43.5v538h84v-92h103v-68h-103v-370h103v-68h-81l41 -89q5 -10 5 -23q0 -29 -34 -29z" />
    <glyph glyph-name="Tcaron" unicode="&#x164;" horiz-adv-x="346" 
d="M326 617h-108v-617h-89v617h-109v74h306v-74zM263 838l26 -42l-116 -76l-115 75l27 43l89 -59z" />
    <glyph glyph-name="tcaron" unicode="&#x165;" horiz-adv-x="247" 
d="M226 602l-41 -61h-25v126h66v-65zM39 60v538h84v-92h103v-68h-103v-370h103v-68h-123q-31 0 -47.5 16.5t-16.5 43.5z" />
    <glyph glyph-name="Tbar" unicode="&#x166;" horiz-adv-x="349" 
d="M306 388h-87v-388h-89v388h-88v52h88v177h-109v74h306v-74h-108v-177h87v-52z" />
    <glyph glyph-name="tbar" unicode="&#x167;" horiz-adv-x="247" 
d="M226 0h-123q-31 0 -47.5 16.5t-16.5 43.5v538h84v-92h103v-68h-103v-85h79v-52h-79v-233h103v-68z" />
    <glyph glyph-name="Utilde" unicode="&#x168;" horiz-adv-x="394" 
d="M39 63v628h88v-617h139v617h89v-628q0 -63 -67 -63h-182q-67 0 -67 63zM331 793l-48 -48q-26 -26 -63 -8l-79 40l-45 -46l-34 34l48 48q26 26 63 8l79 -40l45 46z" />
    <glyph glyph-name="utilde" unicode="&#x169;" 
d="M123 68l106 167v271h85v-506h-85v167l-106 -167h-21q-31 0 -47.5 16.5t-16.5 43.5v446h85v-438zM311 635l-48 -48q-26 -26 -63 -8l-79 40l-45 -46l-34 34l48 48q26 26 63 8l79 -40l45 46z" />
    <glyph glyph-name="Umacron" unicode="&#x16a;" horiz-adv-x="394" 
d="M39 63v628h88v-617h139v617h89v-628q0 -63 -67 -63h-182q-67 0 -67 63zM297 744h-201v52h201v-52z" />
    <glyph glyph-name="umacron" unicode="&#x16b;" 
d="M123 68l106 167v271h85v-506h-85v167l-106 -167h-21q-31 0 -47.5 16.5t-16.5 43.5v446h85v-438zM277 594h-201v52h201v-52z" />
    <glyph glyph-name="Ubreve" unicode="&#x16c;" horiz-adv-x="394" 
d="M39 63v628h88v-617h139v617h89v-628q0 -63 -67 -63h-182q-67 0 -67 63zM305 827v-48q0 -47 -50 -47h-115q-50 0 -50 47v48h53v-46h110v46h52z" />
    <glyph glyph-name="ubreve" unicode="&#x16d;" 
d="M123 68l106 167v271h85v-506h-85v167l-106 -167h-21q-31 0 -47.5 16.5t-16.5 43.5v446h85v-438zM285 673v-48q0 -47 -50 -47h-115q-50 0 -50 47v48h53v-46h110v46h52z" />
    <glyph glyph-name="Uring" unicode="&#x16e;" horiz-adv-x="394" 
d="M39 63v628h88v-617h139v617h89v-628q0 -63 -67 -63h-182q-67 0 -67 63zM121 791q0 31 22 53t53 22t53.5 -22t22.5 -53t-22 -52.5t-54 -21.5q-31 0 -53 21.5t-22 52.5zM162 791q0 -14 10 -24.5t24 -10.5t24.5 10.5t10.5 24.5t-10.5 24.5t-24.5 10.5t-24 -10.5t-10 -24.5z
" />
    <glyph glyph-name="uring" unicode="&#x16f;" 
d="M123 68l106 167v271h85v-506h-85v167l-106 -167h-21q-31 0 -47.5 16.5t-16.5 43.5v446h85v-438zM101 627q0 31 22 53t53 22t53.5 -22t22.5 -53t-22 -52.5t-54 -21.5q-31 0 -53 21.5t-22 52.5zM142 627q0 -14 10 -24.5t24 -10.5t24.5 10.5t10.5 24.5t-10.5 24.5
t-24.5 10.5t-24 -10.5t-10 -24.5z" />
    <glyph glyph-name="Uhungarumlaut" unicode="&#x170;" horiz-adv-x="394" 
d="M39 63v628h88v-617h139v617h89v-628q0 -63 -67 -63h-182q-67 0 -67 63zM130 713l-34 34l108 104l34 -35zM225 713l-34 34l108 104l34 -35z" />
    <glyph glyph-name="uhungarumlaut" unicode="&#x171;" 
d="M123 68l106 167v271h85v-506h-85v167l-106 -167h-21q-31 0 -47.5 16.5t-16.5 43.5v446h85v-438zM135 557l-40 28l91 126l40 -29zM223 557l-40 28l91 125l40 -28z" />
    <glyph glyph-name="Uogonek" unicode="&#x172;" horiz-adv-x="394" 
d="M274 -141h-69q-51 0 -36 55l24 86h-87q-67 0 -67 63v628h88v-617h139v617h89v-628q0 -63 -67 -63h-45l-24 -86h55v-55z" />
    <glyph glyph-name="uogonek" unicode="&#x173;" 
d="M314 -141h-69q-51 0 -36 55l24 86h-4v167l-106 -167h-21q-31 0 -47.5 16.5t-16.5 43.5v446h85v-438l106 167v271h85v-506h-31l-24 -86h55v-55z" />
    <glyph glyph-name="Ydieresis" unicode="&#x178;" horiz-adv-x="347" 
d="M321 691v-93q0 -109 -30 -194t-71 -131v-273h-93v273q-41 47 -71 132t-30 193v93h88v-92q0 -142 50 -251h19q50 103 50 251v92h88zM96 726v109h62v-109h-62zM189 726v109h62v-109h-62z" />
    <glyph glyph-name="Zacute" unicode="&#x179;" horiz-adv-x="346" 
d="M310 0h-276v74l191 543h-190v74h277v-73l-192 -544h190v-74zM125 724l-20 49l147 61l21 -49z" />
    <glyph glyph-name="zacute" unicode="&#x17a;" horiz-adv-x="301" 
d="M272 0h-243v62l159 376h-159v68h243v-66l-154 -372h154v-68zM108 563l-28 45l133 87l29 -45z" />
    <glyph glyph-name="Zdotaccent" unicode="&#x17b;" horiz-adv-x="346" 
d="M310 0h-276v74l191 543h-190v74h277v-73l-192 -544h190v-74zM216 723h-85v112h85v-112z" />
    <glyph glyph-name="zdotaccent" unicode="&#x17c;" horiz-adv-x="301" 
d="M272 0h-243v62l159 376h-159v68h243v-66l-154 -372h154v-68zM193 572h-85v112h85v-112z" />
    <glyph glyph-name="Zcaron" unicode="&#x17d;" horiz-adv-x="346" 
d="M310 0h-276v74l191 543h-190v74h277v-73l-192 -544h190v-74zM262 838l26 -42l-116 -76l-115 75l27 43l89 -59z" />
    <glyph glyph-name="zcaron" unicode="&#x17e;" horiz-adv-x="301" 
d="M272 0h-243v62l159 376h-159v68h243v-66l-154 -372h154v-68zM240 684l26 -42l-116 -76l-115 75l27 43l89 -59z" />
    <glyph glyph-name="florin" unicode="&#x192;" horiz-adv-x="304" 
d="M91 -92v754q0 27 16.5 44.5t46.5 17.5h127v-67h-100v-163h100v-72h-100v-520q0 -26 -17 -43.5t-46 -17.5h-103v67h76z" />
    <glyph glyph-name="uni01CD" unicode="&#x1cd;" horiz-adv-x="393" 
d="M266 359v258h-139v-258h139zM354 627v-627h-88v285h-139v-285h-88v627q0 64 67 64h181q67 0 67 -64zM286 838l26 -42l-116 -76l-115 75l27 43l89 -59z" />
    <glyph glyph-name="uni01CE" unicode="&#x1ce;" horiz-adv-x="350" 
d="M123 438v-370l104 162v208h-104zM227 162l-104 -162h-24q-28 0 -44.5 17.5t-16.5 42.5v386q0 26 16.5 43t44.5 17h213v-506h-85v162zM269 684l26 -42l-116 -76l-115 75l27 43l89 -59z" />
    <glyph glyph-name="Aringacute" unicode="&#x1fa;" horiz-adv-x="393" 
d="M266 359v258h-139v-258h139zM354 627v-627h-88v285h-139v-285h-88v627q0 64 67 64h181q67 0 67 -64zM121 774q0 31 22 53t53 22t53.5 -22t22.5 -53t-22 -52.5t-54 -21.5q-31 0 -53 21.5t-22 52.5zM162 774q0 -14 10 -24.5t24 -10.5t24.5 10.5t10.5 24.5t-10.5 24.5
t-24.5 10.5t-24 -10.5t-10 -24.5zM140 849l-20 49l147 61l21 -49z" />
    <glyph glyph-name="aringacute" unicode="&#x1fb;" horiz-adv-x="350" 
d="M123 438v-370l104 162v208h-104zM227 162l-104 -162h-24q-28 0 -44.5 17.5t-16.5 42.5v386q0 26 16.5 43t44.5 17h213v-506h-85v162zM103 594q0 31 22 53t53 22t53.5 -22t22.5 -53t-22 -52.5t-54 -21.5q-31 0 -53 21.5t-22 52.5zM144 594q0 -14 10 -24.5t24 -10.5
t24.5 10.5t10.5 24.5t-10.5 24.5t-24.5 10.5t-24 -10.5t-10 -24.5zM129 669l-28 45l133 87l29 -45z" />
    <glyph glyph-name="Scommaaccent" unicode="&#x218;" horiz-adv-x="345" 
d="M314 343v-280q0 -63 -67 -63h-214v74h192v240h-147q-21 0 -33 13t-12 32v268q0 64 67 64h204v-74h-182v-229h146q22 0 34 -12.5t12 -32.5zM208 -95l-42 -61h-29v126h71v-65z" />
    <glyph glyph-name="scommaaccent" unicode="&#x219;" horiz-adv-x="317" 
d="M199 199l-121 50q-25 11 -34 27t-9 45v125q0 27 16.5 43.5t46.5 16.5h177v-68h-155v-118l121 -50q25 -11 34 -27t9 -45v-138q0 -27 -16.5 -43.5t-47.5 -16.5h-185v68h164v131zM194 -95l-42 -61h-29v126h71v-65z" />
    <glyph glyph-name="uni021A" unicode="&#x21a;" horiz-adv-x="346" 
d="M326 617h-108v-617h-89v617h-109v74h306v-74zM209 -95l-42 -61h-29v126h71v-65z" />
    <glyph glyph-name="uni021B" unicode="&#x21b;" horiz-adv-x="247" 
d="M39 60v538h84v-92h103v-68h-103v-370h103v-68h-123q-31 0 -47.5 16.5t-16.5 43.5zM162 -95l-42 -61h-29v126h71v-65z" />
    <glyph glyph-name="circumflex" unicode="&#x2c6;" horiz-adv-x="293" 
d="M58 566l-27 43l116 75l115 -75l-27 -43l-89 59z" />
    <glyph glyph-name="caron" unicode="&#x2c7;" horiz-adv-x="293" 
d="M236 684l26 -42l-116 -76l-115 75l27 43l89 -59z" />
    <glyph glyph-name="breve" unicode="&#x2d8;" horiz-adv-x="300" 
d="M258 673v-48q0 -47 -50 -47h-115q-50 0 -50 47v48h53v-46h110v46h52z" />
    <glyph glyph-name="dotaccent" unicode="&#x2d9;" horiz-adv-x="185" 
d="M135 572h-85v112h85v-112z" />
    <glyph glyph-name="ring" unicode="&#x2da;" horiz-adv-x="201" 
d="M25 657q0 31 22 53t53 22t53.5 -22t22.5 -53t-22 -52.5t-54 -21.5q-31 0 -53 21.5t-22 52.5zM66 657q0 -14 10 -24.5t24 -10.5t24.5 10.5t10.5 24.5t-10.5 24.5t-24.5 10.5t-24 -10.5t-10 -24.5z" />
    <glyph glyph-name="ogonek" unicode="&#x2db;" horiz-adv-x="150" 
d="M131 -141h-69q-51 0 -36 55l26 94h50l-26 -94h55v-55z" />
    <glyph glyph-name="tilde" unicode="&#x2dc;" horiz-adv-x="319" 
d="M294 635l-48 -48q-26 -26 -63 -8l-79 40l-45 -46l-34 34l48 48q26 26 63 8l79 -40l45 46z" />
    <glyph glyph-name="hungarumlaut" unicode="&#x2dd;" horiz-adv-x="261" 
d="M64 553l-40 28l91 126l40 -29zM152 553l-40 28l91 125l40 -28z" />
    <glyph glyph-name="Omega" unicode="&#x3a9;" horiz-adv-x="505" 
d="M25 0v74h91l-91 543v74h455v-74l-84 -543h84v-74h-164v74l85 543h-297l91 -543v-74h-170z" />
    <glyph glyph-name="Omega" unicode="&#x2126;" horiz-adv-x="505" 
d="M25 0v74h91l-91 543v74h455v-74l-84 -543h84v-74h-164v74l85 543h-297l91 -543v-74h-170z" />
    <glyph glyph-name="pi" unicode="&#x3c0;" horiz-adv-x="352" 
d="M13 438v68h326v-68h-27v-438h-85v438h-101v-438h-85v438h-28z" />
    <glyph glyph-name="afii10023" unicode="&#x401;" horiz-adv-x="326" 
d="M300 0h-261v691h261v-74h-173v-230h173v-74h-173v-239h173v-74zM87 726v109h62v-109h-62zM180 726v109h62v-109h-62z" />
    <glyph glyph-name="afii10051" unicode="&#x402;" horiz-adv-x="461" 
d="M431 369v-307q0 -62 -62 -62h-85v75h57v281h-130v-356h-88v617h-108v74h305v-74h-109v-187h158q31 0 46.5 -17t15.5 -44z" />
    <glyph glyph-name="afii10052" unicode="&#x403;" horiz-adv-x="302" 
d="M39 691h249v-74h-161v-617h-88v691zM106 724l-20 49l147 61l21 -49z" />
    <glyph glyph-name="afii10053" unicode="&#x404;" horiz-adv-x="315" 
d="M100 691h195v-74h-169v-224h150v-74h-150v-245h169v-74h-195q-31 0 -46.5 17t-15.5 44v569q0 27 15.5 44t46.5 17z" />
    <glyph glyph-name="afii10054" unicode="&#x405;" horiz-adv-x="345" 
d="M314 343v-280q0 -63 -67 -63h-214v74h192v240h-147q-21 0 -33 13t-12 32v268q0 64 67 64h204v-74h-182v-229h146q22 0 34 -12.5t12 -32.5z" />
    <glyph glyph-name="afii10055" unicode="&#x406;" horiz-adv-x="141" 
d="M114 0h-88v691h88v-691z" />
    <glyph glyph-name="afii10056" unicode="&#x407;" horiz-adv-x="141" 
d="M114 0h-88v691h88v-691zM-8 726v109h62v-109h-62zM85 726v109h62v-109h-62z" />
    <glyph glyph-name="afii10057" unicode="&#x408;" horiz-adv-x="224" 
d="M186 691v-627q0 -64 -67 -64h-102v74h80v617h89z" />
    <glyph glyph-name="afii10058" unicode="&#x409;" horiz-adv-x="580" 
d="M347 691v-298h141q62 0 62 -60v-271q0 -62 -62 -62h-229v617h-105l-11 -554q-1 -38 -13 -50.5t-54 -12.5h-67v74h52l13 617h273zM462 75v244h-115v-244h115z" />
    <glyph glyph-name="afii10059" unicode="&#x40a;" horiz-adv-x="583" 
d="M490 0h-228v319h-135v-319h-88v691h88v-298h135v298h88v-298h140q32 0 47.5 -16.5t15.5 -43.5v-271q0 -62 -63 -62zM464 74v245h-114v-245h114z" />
    <glyph glyph-name="afii10060" unicode="&#x40b;" horiz-adv-x="461" 
d="M431 0h-90v356h-130v-356h-88v617h-108v74h305v-74h-109v-187h158q31 0 46.5 -17t15.5 -44v-369z" />
    <glyph glyph-name="afii10061" unicode="&#x40c;" horiz-adv-x="380" 
d="M210 319h-83v-319h-88v691h88v-298h85q38 62 38 198v100h88v-100q0 -157 -77 -225v-6q89 -77 89 -246v-114h-93v114q0 79 -11.5 124.5t-35.5 80.5zM151 724l-20 49l147 61l21 -49z" />
    <glyph glyph-name="afii10062" unicode="&#x40e;" horiz-adv-x="376" 
d="M270 0h-232v74h211v179h-152q-30 0 -48.5 18.5t-18.5 45.5v374h88v-364h131v364h88v-628q0 -63 -67 -63zM294 822v-48q0 -47 -50 -47h-115q-50 0 -50 47v48h53v-46h110v46h52z" />
    <glyph glyph-name="afii10145" unicode="&#x40f;" horiz-adv-x="394" 
d="M355 691v-691h-116v-121h-84v121h-116v691h89v-617h138v617h89z" />
    <glyph glyph-name="afii10017" unicode="&#x410;" horiz-adv-x="393" 
d="M266 359v258h-139v-258h139zM354 627v-627h-88v285h-139v-285h-88v627q0 64 67 64h181q67 0 67 -64z" />
    <glyph glyph-name="afii10018" unicode="&#x411;" horiz-adv-x="383" 
d="M262 74v257h-135v-257h135zM351 344v-283q0 -27 -15.5 -44t-46.5 -17h-250v691h303v-74h-215v-212h162q62 0 62 -61z" />
    <glyph glyph-name="afii10019" unicode="&#x412;" horiz-adv-x="390" 
d="M266 384v233h-139v-233h139zM266 74v241h-139v-241h139zM355 292v-229q0 -63 -67 -63h-249v691h249q67 0 67 -64v-214q0 -36 -34 -48l-21 -8v-8l21 -6q34 -12 34 -51z" />
    <glyph glyph-name="afii10020" unicode="&#x413;" horiz-adv-x="302" 
d="M39 691h249v-74h-161v-617h-88v691z" />
    <glyph glyph-name="afii10021" unicode="&#x414;" horiz-adv-x="432" 
d="M280 74v543h-111q0 -305 -28 -543h139zM85 615v76h283v-617h46v-195h-84v121h-231v-121h-84v195h41q29 234 29 541z" />
    <glyph glyph-name="afii10022" unicode="&#x415;" horiz-adv-x="326" 
d="M300 0h-261v691h261v-74h-173v-230h173v-74h-173v-239h173v-74z" />
    <glyph glyph-name="afii10024" unicode="&#x416;" horiz-adv-x="556" 
d="M234 0v319h-67q-44 -74 -44 -205v-114h-93v114q0 164 87 246v6q-78 67 -78 225v100h88v-100q0 -136 38 -198h69v298h88v-298h68q39 62 39 198v100h88v-100q0 -156 -77 -225v-6q86 -83 86 -246v-114h-93v114q0 128 -44 205h-67v-319h-88z" />
    <glyph glyph-name="afii10025" unicode="&#x417;" horiz-adv-x="312" 
d="M20 617v74h193q32 0 47.5 -17t15.5 -44v-217q0 -36 -34 -48l-20 -8v-8l20 -6q34 -12 34 -48v-234q0 -27 -15.5 -44t-47.5 -17h-193v74h167v239h-114v73h114v231h-167z" />
    <glyph glyph-name="afii10026" unicode="&#x418;" horiz-adv-x="394" 
d="M355 0h-86v489l-155 -489h-75v691h86v-490l156 490h74v-691z" />
    <glyph glyph-name="afii10027" unicode="&#x419;" horiz-adv-x="394" 
d="M305 822v-48q0 -47 -50 -47h-115q-50 0 -50 47v48h53v-46h110v46h52zM355 0h-86v499l-155 -499h-75v691h86v-500l156 500h74v-691z" />
    <glyph glyph-name="afii10028" unicode="&#x41a;" horiz-adv-x="380" 
d="M210 319h-83v-319h-88v691h88v-298h85q38 62 38 198v100h88v-100q0 -157 -77 -225v-6q89 -77 89 -246v-114h-93v114q0 79 -11.5 124.5t-35.5 80.5z" />
    <glyph glyph-name="afii10029" unicode="&#x41b;" horiz-adv-x="397" 
d="M269 617h-115l-11 -554q-1 -38 -13 -50.5t-54 -12.5h-67v74h53l12 617h283v-691h-88v617z" />
    <glyph glyph-name="afii10030" unicode="&#x41c;" horiz-adv-x="463" 
d="M191 193v130q0 88 -18.5 167t-42.5 127h-9v-617h-88v691h125q53 -108 70 -232h6q17 122 71 232h125v-691h-88v617h-8q-24 -47 -42.5 -126t-18.5 -168v-130h-82z" />
    <glyph glyph-name="afii10031" unicode="&#x41d;" horiz-adv-x="393" 
d="M354 0h-89v319h-138v-319h-88v691h88v-298h138v298h89v-691z" />
    <glyph glyph-name="afii10032" unicode="&#x41e;" horiz-adv-x="392" 
d="M265 74v543h-139v-543h139zM38 63v564q0 64 67 64h182q67 0 67 -64v-564q0 -63 -67 -63h-182q-67 0 -67 63z" />
    <glyph glyph-name="afii10033" unicode="&#x41f;" horiz-adv-x="393" 
d="M354 0h-89v617h-138v-617h-88v691h315v-691z" />
    <glyph glyph-name="afii10034" unicode="&#x420;" horiz-adv-x="382" 
d="M39 691h243q67 0 67 -64v-342q0 -63 -67 -63h-155v-222h-88v691zM260 296v321h-133v-321h133z" />
    <glyph glyph-name="afii10035" unicode="&#x421;" horiz-adv-x="318" 
d="M105 691h193v-74h-172v-543h172v-74h-193q-67 0 -67 63v564q0 64 67 64z" />
    <glyph glyph-name="afii10036" unicode="&#x422;" horiz-adv-x="346" 
d="M326 617h-108v-617h-89v617h-109v74h306v-74z" />
    <glyph glyph-name="afii10037" unicode="&#x423;" horiz-adv-x="376" 
d="M270 0h-232v74h211v179h-152q-30 0 -48.5 18.5t-18.5 45.5v374h88v-364h131v364h88v-628q0 -63 -67 -63z" />
    <glyph glyph-name="afii10038" unicode="&#x424;" horiz-adv-x="540" 
d="M226 0v123h-134q-62 0 -62 60v370q0 60 62 60h134v99h88v-99h134q62 0 62 -60v-370q0 -60 -62 -60h-134v-123h-88zM422 196v343h-108v-343h108zM118 539v-343h108v343h-108z" />
    <glyph glyph-name="afii10039" unicode="&#x425;" horiz-adv-x="374" 
d="M123 114v-114h-95v114q0 164 87 246v6q-78 68 -78 225v100h90v-100q0 -136 39 -198h43q38 60 38 198v100h91v-100q0 -157 -78 -225v-6q86 -81 86 -246v-114h-94v114q0 128 -44 205h-41q-44 -77 -44 -205z" />
    <glyph glyph-name="afii10040" unicode="&#x426;" horiz-adv-x="418" 
d="M354 691v-617h46v-195h-84v121h-277v691h88v-617h139v617h88z" />
    <glyph glyph-name="afii10041" unicode="&#x427;" horiz-adv-x="371" 
d="M244 352v339h88v-691h-88v278h-155q-31 0 -46.5 16.5t-15.5 43.5v353h88v-339h129z" />
    <glyph glyph-name="afii10042" unicode="&#x428;" horiz-adv-x="580" 
d="M541 0h-502v691h88v-617h119v617h88v-617h118v617h89v-691z" />
    <glyph glyph-name="afii10043" unicode="&#x429;" horiz-adv-x="609" 
d="M590 -121h-83v121h-468v691h88v-617h120v617h89v-617h120v617h88v-617h46v-195z" />
    <glyph glyph-name="afii10044" unicode="&#x42a;" horiz-adv-x="454" 
d="M10 617v74h190v-222h159q31 0 46.5 -17t15.5 -44v-346q0 -62 -62 -62h-247v617h-102zM332 75v320h-132v-320h132z" />
    <glyph glyph-name="afii10045" unicode="&#x42b;" horiz-adv-x="540" 
d="M285 0h-246v691h88v-222h158q32 0 47.5 -17t15.5 -44v-346q0 -62 -63 -62zM260 74v321h-133v-321h133zM501 0h-87v691h87v-691z" />
    <glyph glyph-name="afii10046" unicode="&#x42c;" horiz-adv-x="380" 
d="M258 74v321h-131v-321h131zM280 0h-241v691h88v-222h153q67 0 67 -63v-343q0 -63 -67 -63z" />
    <glyph glyph-name="afii10047" unicode="&#x42d;" horiz-adv-x="319" 
d="M20 691h198q32 0 47.5 -17t15.5 -44v-569q0 -27 -15.5 -44t-47.5 -17h-198v74h172v245h-153v74h153v224h-172v74z" />
    <glyph glyph-name="afii10048" unicode="&#x42e;" horiz-adv-x="551" 
d="M209 61v258h-82v-319h-88v691h88v-298h82v237q0 61 61 61h180q63 0 63 -61v-569q0 -61 -63 -61h-180q-61 0 -61 61zM424 74v543h-127v-543h127z" />
    <glyph glyph-name="afii10049" unicode="&#x42f;" horiz-adv-x="387" 
d="M121 133v-133h-88v131q0 141 73 209v6l-38 12q-31 10 -31 43v229q0 61 61 61h250v-691h-88v303h-106q-33 -43 -33 -170zM124 617v-240h136v240h-136z" />
    <glyph glyph-name="afii10065" unicode="&#x430;" horiz-adv-x="350" 
d="M123 438v-370l104 162v208h-104zM227 162l-104 -162h-24q-28 0 -44.5 17.5t-16.5 42.5v386q0 26 16.5 43t44.5 17h213v-506h-85v162z" />
    <glyph glyph-name="afii10066" unicode="&#x431;" 
d="M115 632v-305l115 179h26q28 0 43.5 -16.5t15.5 -41.5v-390q0 -25 -15.5 -41.5t-43.5 -16.5h-159q-28 0 -43.5 16.5t-15.5 41.5v549q0 50 19.5 71t61.5 29l176 19l9 -74zM123 271v-203h107v370z" />
    <glyph glyph-name="afii10067" unicode="&#x432;" horiz-adv-x="345" 
d="M124 438v-189l107 49v140h-107zM255 0h-216v506h216q29 0 45 -15t16 -39v-116q0 -36 -32 -50l-18 -8v-6l18 -6q32 -12 32 -49v-163q0 -24 -16 -39t-45 -15zM124 203v-135h107v184z" />
    <glyph glyph-name="afii10068" unicode="&#x433;" horiz-adv-x="315" 
d="M239 249l-121 -50v-131h164v-68h-185q-31 0 -47.5 16.5t-16.5 43.5v138q0 29 9 45t34 27l121 50v118h-155v68h177q30 0 46.5 -16.5t16.5 -43.5v-125q0 -29 -9 -45.5t-34 -26.5z" />
    <glyph glyph-name="afii10069" unicode="&#x434;" horiz-adv-x="376" 
d="M315 545v-487q0 -25 -15.5 -41.5t-43.5 -16.5h-159q-28 0 -43.5 16.5t-15.5 41.5v390q0 25 15.5 41.5t43.5 16.5h26l115 -179v242l-182 111l39 63l174 -105q31 -19 38.5 -35t7.5 -58zM230 68v203l-107 167v-370h107z" />
    <glyph glyph-name="afii10070" unicode="&#x435;" horiz-adv-x="335" 
d="M224 336v102h-101v-211zM310 446v-81l-187 -198v-99h183v-68h-204q-31 0 -47.5 17t-16.5 44v385q0 27 16.5 43.5t47.5 16.5h143q32 0 48.5 -16.5t16.5 -43.5z" />
    <glyph glyph-name="afii10072" unicode="&#x436;" horiz-adv-x="495" 
d="M205 506h85v-214h53q35 68 35 171v43h88v-43q0 -131 -67 -201v-4q67 -67 67 -201v-57h-88v57q0 95 -36 171h-52v-228h-85v228h-52q-36 -72 -36 -171v-57h-89v57q0 133 68 201v4q-68 71 -68 201v43h89v-43q0 -103 35 -171h53v214z" />
    <glyph glyph-name="afii10073" unicode="&#x437;" horiz-adv-x="293" 
d="M180 -91v174h-95v59l87 296h-150v68h229v-68l-86 -295h37q29 0 45 -14.5t16 -38.5v-195q0 -24 -16 -39t-45 -15h-180v68h158z" />
    <glyph glyph-name="afii10074" unicode="&#x438;" 
d="M123 68l106 167v271h85v-506h-85v167l-106 -167h-21q-31 0 -47.5 16.5t-16.5 43.5v446h85v-438z" />
    <glyph glyph-name="afii10075" unicode="&#x439;" 
d="M277 643v-40q0 -47 -50 -47h-100q-50 0 -50 47v40h53v-38h95v38h52zM123 68l106 167v271h85v-506h-85v167l-106 -167h-21q-31 0 -47.5 16.5t-16.5 43.5v446h85v-438z" />
    <glyph glyph-name="afii10076" unicode="&#x43a;" horiz-adv-x="343" 
d="M226 506h89v-43q0 -130 -68 -201v-4q68 -68 68 -201v-57h-89v57q0 99 -36 171h-66v-228h-85v506h85v-214h68q34 70 34 171v43z" />
    <glyph glyph-name="afii10077" unicode="&#x43b;" horiz-adv-x="347" 
d="M222 438h-82l-10 -380q-1 -34 -12 -46t-48 -12h-58v68h43l12 438h241v-506h-86v438z" />
    <glyph glyph-name="afii10078" unicode="&#x43c;" horiz-adv-x="430" 
d="M177 143v82q0 104 -44 213h-8v-438h-85v506h115q38 -73 58 -181h4q20 107 60 181h113v-506h-85v438h-7q-45 -104 -45 -213v-82h-76z" />
    <glyph glyph-name="afii10079" unicode="&#x43d;" horiz-adv-x="357" 
d="M317 0h-84v219h-108v-219h-85v506h85v-219h108v219h84v-506z" />
    <glyph glyph-name="afii10080" unicode="&#x43e;" horiz-adv-x="352" 
d="M230 68v370h-107v-370h107zM38 60v386q0 27 16.5 43.5t47.5 16.5h148q31 0 47.5 -16.5t16.5 -43.5v-386q0 -27 -16.5 -43.5t-47.5 -16.5h-148q-31 0 -47.5 16.5t-16.5 43.5z" />
    <glyph glyph-name="afii10081" unicode="&#x43f;" 
d="M230 438l-106 -167v-271h-85v506h85v-167l106 167h21q31 0 47.5 -16.5t16.5 -43.5v-446h-85v438z" />
    <glyph glyph-name="afii10082" unicode="&#x440;" horiz-adv-x="354" 
d="M124 506v-167l107 167h21q31 0 47.5 -16.5t16.5 -43.5v-386q0 -27 -16.5 -43.5t-47.5 -16.5h-128v-159h-85v665h85zM231 438l-107 -167v-203h107v370z" />
    <glyph glyph-name="afii10083" unicode="&#x441;" horiz-adv-x="290" 
d="M268 0h-166q-31 0 -47.5 16.5t-16.5 43.5v386q0 27 16.5 43.5t47.5 16.5h166v-68h-145v-370h145v-68z" />
    <glyph glyph-name="afii10084" unicode="&#x442;" horiz-adv-x="512" 
d="M299 446v-80l89 140h21q31 0 47.5 -16.5t16.5 -43.5v-446h-85v438l-89 -140v-298h-85v438l-90 -142v-296h-85v506h85v-142l90 142h21q31 0 47.5 -16.5t16.5 -43.5z" />
    <glyph glyph-name="afii10085" unicode="&#x443;" 
d="M123 68l106 167v271h85v-604q0 -27 -16.5 -44t-47.5 -17h-202v69h181v257l-106 -167h-21q-28 0 -46 17.5t-18 43.5v445h85v-438z" />
    <glyph glyph-name="afii10086" unicode="&#x444;" horiz-adv-x="510" 
d="M298 -159h-86v298l-89 -139h-21q-31 0 -47.5 17t-16.5 43v386q0 26 16.5 43t47.5 17h110v159h86v-298l89 139h21q31 0 47.5 -17t16.5 -43v-386q0 -26 -16.5 -43t-47.5 -17h-110v-159zM387 438l-89 -139v-231h89v370zM123 438v-370l89 139v231h-89z" />
    <glyph glyph-name="afii10087" unicode="&#x445;" horiz-adv-x="348" 
d="M227 0v59q0 95 -36 171h-35q-35 -78 -35 -171v-59h-90v59q0 133 68 201v4q-68 71 -68 201v41h90v-42q0 -99 34 -171h38q34 76 34 171v42h89v-41q0 -133 -68 -201v-4q68 -66 68 -201v-59h-89z" />
    <glyph glyph-name="afii10088" unicode="&#x446;" horiz-adv-x="369" 
d="M123 68l106 167v271h85v-438h38v-177h-76v109h-47v167l-106 -167h-21q-31 0 -47.5 16.5t-16.5 43.5v446h85v-438z" />
    <glyph glyph-name="afii10089" unicode="&#x447;" horiz-adv-x="340" 
d="M111 152h-24q-61 0 -61 59v295h85v-286l104 162v124h86v-506h-86v314z" />
    <glyph glyph-name="afii10090" unicode="&#x448;" horiz-adv-x="512" 
d="M277 0q-31 0 -47.5 16.5t-16.5 43.5v80l-89 -140h-21q-31 0 -47.5 16.5t-16.5 43.5v446h85v-438l89 140v298h85v-438l90 142v296h85v-506h-85v142l-90 -142h-21z" />
    <glyph glyph-name="afii10091" unicode="&#x449;" horiz-adv-x="528" 
d="M473 68h38v-177h-76v109h-47v142l-90 -142h-21q-31 0 -47.5 16.5t-16.5 43.5v80l-89 -140h-21q-31 0 -47.5 16.5t-16.5 43.5v446h85v-438l89 140v298h85v-438l90 142v296h85v-438z" />
    <glyph glyph-name="afii10092" unicode="&#x44a;" horiz-adv-x="383" 
d="M85 438h-73v68h158v-302l106 167h18q31 0 47.5 -16.5t16.5 -43.5v-253q0 -25 -15.5 -41.5t-43.5 -16.5h-214v438zM170 136v-68h103v230z" />
    <glyph glyph-name="afii10093" unicode="&#x44b;" horiz-adv-x="480" 
d="M124 204l106 167h18q31 0 47.5 -16.5t16.5 -43.5v-253q0 -25 -15.5 -41.5t-43.5 -16.5h-214v506h85v-302zM440 0h-85v506h85v-506zM124 136v-68h103v230z" />
    <glyph glyph-name="afii10094" unicode="&#x44c;" horiz-adv-x="337" 
d="M124 204l106 167h18q31 0 47.5 -16.5t16.5 -43.5v-253q0 -25 -15.5 -41.5t-43.5 -16.5h-214v506h85v-302zM124 136v-68h103v230z" />
    <glyph glyph-name="afii10095" unicode="&#x44d;" horiz-adv-x="299" 
d="M201 0h-176v68h151v157h-130v65h130v148h-151v68h176q28 0 44 -17t16 -43v-386q0 -26 -16 -43t-44 -17z" />
    <glyph glyph-name="afii10096" unicode="&#x44e;" horiz-adv-x="485" 
d="M189 58v161h-65v-219h-85v506h85v-219h65v160q0 26 15.5 42.5t43.5 16.5h139q28 0 44 -16.5t16 -42.5v-389q0 -25 -16 -41.5t-44 -16.5h-139q-28 0 -43.5 16.5t-15.5 41.5zM362 68v370h-89v-370h89z" />
    <glyph glyph-name="afii10097" unicode="&#x44f;" horiz-adv-x="347" 
d="M223 215h-76q-30 -56 -30 -161v-54h-89v56q0 121 68 186v6l-29 6q-36 8 -36 49v144q0 27 17.5 43t47.5 16h212v-506h-85v215zM223 281v157h-106v-157h106z" />
    <glyph glyph-name="afii10071" unicode="&#x451;" horiz-adv-x="335" 
d="M224 336v102h-101v-211zM310 446v-81l-187 -198v-99h183v-68h-204q-31 0 -47.5 17t-16.5 44v385q0 27 16.5 43.5t47.5 16.5h143q32 0 48.5 -16.5t16.5 -43.5zM92 572v109h62v-109h-62zM185 572v109h62v-109h-62z" />
    <glyph glyph-name="afii10099" unicode="&#x452;" horiz-adv-x="368" 
d="M248 402l-107 -167v-235h-85v585h-46v52h46v81h85v-81h85v-52h-85v-282l107 167h20q31 0 47.5 -16.5t16.5 -43.5v-510q0 -25 -16 -42t-43 -17h-72v68h47v493z" />
    <glyph glyph-name="afii10100" unicode="&#x453;" horiz-adv-x="315" 
d="M239 249l-121 -50v-131h164v-68h-185q-31 0 -47.5 16.5t-16.5 43.5v138q0 29 9 45t34 27l121 50v118h-155v68h177q30 0 46.5 -16.5t16.5 -43.5v-125q0 -29 -9 -45.5t-34 -26.5zM103 563l-28 45l133 87l29 -45z" />
    <glyph glyph-name="afii10101" unicode="&#x454;" horiz-adv-x="294" 
d="M269 0h-173q-28 0 -44 17t-16 43v386q0 26 16 43t44 17h173v-68h-147v-148h125v-65h-125v-157h147v-68z" />
    <glyph glyph-name="afii10102" unicode="&#x455;" horiz-adv-x="317" 
d="M199 199l-121 50q-25 11 -34 27t-9 45v125q0 27 16.5 43.5t46.5 16.5h177v-68h-155v-118l121 -50q25 -11 34 -27t9 -45v-138q0 -27 -16.5 -43.5t-47.5 -16.5h-185v68h164v131z" />
    <glyph glyph-name="afii10103" unicode="&#x456;" horiz-adv-x="163" 
d="M124 568h-85v119h85v-119zM146 0h-57q-50 0 -50 48v458h85v-438h22v-68z" />
    <glyph glyph-name="afii10104" unicode="&#x457;" horiz-adv-x="164" 
d="M147 0h-57q-50 0 -50 48v458h85v-438h22v-68zM5 572v109h62v-109h-62zM98 572v109h62v-109h-62z" />
    <glyph glyph-name="afii10105" unicode="&#x458;" horiz-adv-x="164" 
d="M125 568h-84v119h84v-119zM125 506v-620q0 -20 -11.5 -32.5t-31.5 -12.5h-68v66h27v599h84z" />
    <glyph glyph-name="afii10106" unicode="&#x459;" horiz-adv-x="514" 
d="M430 0h-213v438h-74l-10 -380q-1 -35 -12 -46.5t-48 -11.5h-61v68h43l12 438h235v-302l106 167h17q31 0 47.5 -16.5t16.5 -43.5v-253q0 -25 -15.5 -41.5t-43.5 -16.5zM302 136v-68h103v230z" />
    <glyph glyph-name="afii10107" unicode="&#x45a;" horiz-adv-x="523" 
d="M439 0h-212v222h-102v-222h-86v506h86v-216h102v216h84v-302l106 167h17q31 0 47.5 -16.5t16.5 -43.5v-253q0 -25 -15.5 -41.5t-43.5 -16.5zM311 136v-68h103v230z" />
    <glyph glyph-name="afii10108" unicode="&#x45b;" horiz-adv-x="368" 
d="M247 402l-106 -167v-235h-85v585h-46v52h46v81h85v-81h85v-52h-85v-282l106 167h21q31 0 47.5 -16.5t16.5 -43.5v-410h-85v402z" />
    <glyph glyph-name="afii10109" unicode="&#x45c;" horiz-adv-x="343" 
d="M226 506h89v-43q0 -130 -68 -201v-4q68 -68 68 -201v-57h-89v57q0 99 -36 171h-66v-228h-85v506h85v-214h68q34 70 34 171v43zM139 563l-28 45l133 87l29 -45z" />
    <glyph glyph-name="afii10110" unicode="&#x45e;" 
d="M123 68l106 167v271h85v-604q0 -27 -16.5 -44t-47.5 -17h-202v69h181v257l-106 -167h-21q-28 0 -46 17.5t-18 43.5v445h85v-438zM285 673v-48q0 -47 -50 -47h-115q-50 0 -50 47v48h53v-46h110v46h52z" />
    <glyph glyph-name="afii10193" unicode="&#x45f;" horiz-adv-x="356" 
d="M317 506v-506h-101v-109h-76v109h-101v506h86v-438h106v438h86z" />
    <glyph glyph-name="afii10050" unicode="&#x490;" horiz-adv-x="302" 
d="M39 691h171v102h78v-176h-161v-617h-88v691z" />
    <glyph glyph-name="afii10098" unicode="&#x491;" horiz-adv-x="248" 
d="M39 506h126v105h71v-173h-112v-438h-85v506z" />
    <glyph glyph-name="Wgrave" unicode="&#x1e80;" horiz-adv-x="519" 
d="M399 0h-88q-38 126 -47 230h-9q-9 -104 -47 -230h-88q-89 175 -89 503v188h89v-188q0 -289 40 -430h13q42 164 42 365v253h89v-253q0 -205 43 -365h12q40 141 40 430v188h89v-188q0 -328 -89 -503zM328 775l-21 -51l-148 59l21 51z" />
    <glyph glyph-name="wgrave" unicode="&#x1e81;" horiz-adv-x="484" 
d="M285 506v-115q0 -192 34 -323h7q41 115 41 323v115h85v-115q0 -110 -23 -213t-62 -178h-79q-20 66 -43 208h-7q-21 -137 -42 -208h-78q-39 76 -62.5 179t-23.5 212v115h85v-115q0 -208 41 -323h7q35 134 35 323v115h85zM314 609l-29 -46l-133 87l28 46z" />
    <glyph glyph-name="Wacute" unicode="&#x1e82;" horiz-adv-x="519" 
d="M399 0h-88q-38 126 -47 230h-9q-9 -104 -47 -230h-88q-89 175 -89 503v188h89v-188q0 -289 40 -430h13q42 164 42 365v253h89v-253q0 -205 43 -365h12q40 141 40 430v188h89v-188q0 -328 -89 -503zM210 724l-20 49l147 61l21 -49z" />
    <glyph glyph-name="wacute" unicode="&#x1e83;" horiz-adv-x="484" 
d="M285 506v-115q0 -192 34 -323h7q41 115 41 323v115h85v-115q0 -110 -23 -213t-62 -178h-79q-20 66 -43 208h-7q-21 -137 -42 -208h-78q-39 76 -62.5 179t-23.5 212v115h85v-115q0 -208 41 -323h7q35 134 35 323v115h85zM202 563l-28 45l133 87l29 -45z" />
    <glyph glyph-name="Wdieresis" unicode="&#x1e84;" horiz-adv-x="519" 
d="M399 0h-88q-38 126 -47 230h-9q-9 -104 -47 -230h-88q-89 175 -89 503v188h89v-188q0 -289 40 -430h13q42 164 42 365v253h89v-253q0 -205 43 -365h12q40 141 40 430v188h89v-188q0 -328 -89 -503zM182 726v109h62v-109h-62zM275 726v109h62v-109h-62z" />
    <glyph glyph-name="wdieresis" unicode="&#x1e85;" horiz-adv-x="484" 
d="M285 506v-115q0 -192 34 -323h7q41 115 41 323v115h85v-115q0 -110 -23 -213t-62 -178h-79q-20 66 -43 208h-7q-21 -137 -42 -208h-78q-39 76 -62.5 179t-23.5 212v115h85v-115q0 -208 41 -323h7q35 134 35 323v115h85zM165 572v109h62v-109h-62zM258 572v109h62v-109
h-62z" />
    <glyph glyph-name="Ygrave" unicode="&#x1ef2;" horiz-adv-x="347" 
d="M321 691v-93q0 -109 -30 -194t-71 -131v-273h-93v273q-41 47 -71 132t-30 193v93h88v-92q0 -142 50 -251h19q50 103 50 251v92h88zM229 775l-21 -51l-148 59l21 51z" />
    <glyph glyph-name="ygrave" unicode="&#x1ef3;" 
d="M123 68l106 167v271h85v-604q0 -27 -16.5 -44t-47.5 -17h-202v69h181v257l-106 -167h-21q-28 0 -46 17.5t-18 43.5v445h85v-438zM241 609l-29 -46l-133 87l28 46z" />
    <glyph glyph-name="uni2009" unicode="&#x2009;" horiz-adv-x="0" 
 />
    <glyph glyph-name="endash" unicode="&#x2013;" horiz-adv-x="440" 
d="M415 249h-390v57h390v-57z" />
    <glyph glyph-name="emdash" unicode="&#x2014;" horiz-adv-x="664" 
d="M639 249h-614v57h614v-57z" />
    <glyph glyph-name="quoteleft" unicode="&#x2018;" horiz-adv-x="119" 
d="M25 602l39 116h30v-194h-69v78z" />
    <glyph glyph-name="quoteright" unicode="&#x2019;" horiz-adv-x="119" 
d="M94 640l-39 -116h-30v194h69v-78z" />
    <glyph glyph-name="quotesinglbase" unicode="&#x201a;" horiz-adv-x="119" 
d="M94 19l-39 -116h-30v194h69v-78z" />
    <glyph glyph-name="quotedblleft" unicode="&#x201c;" horiz-adv-x="227" 
d="M133 602l39 116h30v-194h-69v78zM25 602l39 116h30v-194h-69v78z" />
    <glyph glyph-name="quotedblright" unicode="&#x201d;" horiz-adv-x="227" 
d="M94 640l-39 -116h-30v194h69v-78zM202 640l-39 -116h-30v194h69v-78z" />
    <glyph glyph-name="quotedblbase" unicode="&#x201e;" horiz-adv-x="227" 
d="M94 19l-39 -116h-30v194h69v-78zM202 19l-39 -116h-30v194h69v-78z" />
    <glyph glyph-name="dagger" unicode="&#x2020;" horiz-adv-x="327" 
d="M192 691v-162h110v-53h-110v-550h-57v550h-110v53h110v162h57z" />
    <glyph glyph-name="daggerdbl" unicode="&#x2021;" horiz-adv-x="327" 
d="M192 691v-162h110v-53h-110v-335h110v-53h-110v-162h-57v162h-110v53h110v335h-110v53h110v162h57z" />
    <glyph glyph-name="bullet" unicode="&#x2022;" horiz-adv-x="285" 
d="M149 286h-13q-26 0 -44.5 18t-18.5 44v11q0 27 18.5 46t44.5 19h13q26 0 44.5 -19t18.5 -46v-11q0 -26 -18.5 -44t-44.5 -18z" />
    <glyph glyph-name="ellipsis" unicode="&#x2026;" horiz-adv-x="401" 
d="M118 0h-88v120h88v-120zM245 0h-89v120h89v-120zM371 0h-88v120h88v-120z" />
    <glyph glyph-name="perthousand" unicode="&#x2030;" horiz-adv-x="894" 
d="M589 45q0 -19 -13.5 -32t-32.5 -13h-130q-19 0 -32 13t-13 32v272q0 19 13 32t32 13h130q19 0 32.5 -13t13.5 -32v-272zM483 691l-290 -691h-53l289 691h54zM530 49v264h-103v-264h103zM256 373q0 -18 -13.5 -31.5t-32.5 -13.5h-130q-19 0 -32 13.5t-13 31.5v272
q0 20 13 33t32 13h130q19 0 32.5 -13.5t13.5 -32.5v-272zM197 378v263h-103v-263h103zM860 45q0 -19 -13.5 -32t-32.5 -13h-130q-19 0 -32 13t-13 32v272q0 19 13 32t32 13h130q19 0 32.5 -13t13.5 -32v-272zM801 49v264h-103v-264h103z" />
    <glyph glyph-name="guilsinglleft" unicode="&#x2039;" horiz-adv-x="268" 
d="M239 109l-34 -34l-176 174l176 174l35 -34l-142 -140z" />
    <glyph glyph-name="guilsinglright" unicode="&#x203a;" horiz-adv-x="268" 
d="M29 389l35 34l176 -174l-176 -174l-35 34l141 140z" />
    <glyph glyph-name="fraction" unicode="&#x2044;" horiz-adv-x="296" 
d="M-38 0h-52l424 700h52z" />
    <glyph glyph-name="Euro" unicode="&#x20ac;" horiz-adv-x="370" 
d="M308 292h-140v-218h170v-74h-197q-61 0 -61 62v230h-58v47h286v-47zM308 360h-286v46h58v224q0 61 61 61h197v-74h-170v-211h140v-46z" />
    <glyph glyph-name="uni20BD" unicode="&#x20bd;" horiz-adv-x="410" 
d="M77 691h241q32 0 47.5 -17t15.5 -44v-286q0 -61 -63 -61h-296v47h55v361zM322 215h-151v-215h-94v215h-55v47h300v-47zM166 617v-287h126v287h-126z" />
    <glyph glyph-name="afii61352" unicode="&#x2116;" horiz-adv-x="647" 
d="M123 0h-83v691h92l140 -518v518h82v-691h-92l-139 516v-516zM612 544v-234q0 -17 -13 -30.5t-32 -13.5h-109q-20 0 -33.5 13t-13.5 31v234q0 18 13.5 31.5t33.5 13.5h109q20 0 32.5 -13t12.5 -32zM553 316v223h-83v-223h83zM596 165h-169v60h169v-60z" />
    <glyph glyph-name="trademark" unicode="&#x2122;" horiz-adv-x="502" 
d="M81 434v234h-62v38h175v-38h-62v-234h-51zM457 434h-50v223l-39 -78v-64h-54v64l-39 80v-225h-51v272h72l45 -94l47 94h69v-272z" />
    <glyph glyph-name="partialdiff" unicode="&#x2202;" horiz-adv-x="350" 
d="M185 718l106 -228q22 -40 22 -85v-344q0 -26 -17 -43.5t-45 -17.5h-153q-28 0 -44.5 17.5t-16.5 43.5v337q0 26 16.5 43.5t44.5 17.5h117l-123 259h93zM228 390h-106v-322h106v322z" />
    <glyph glyph-name="Delta" unicode="&#x2206;" horiz-adv-x="510" 
d="M485 0h-460v36l212 687h33l215 -687v-36zM252 613l-166 -564h336z" />
    <glyph glyph-name="product" unicode="&#x220f;" horiz-adv-x="402" 
d="M359 -112h-89v729h-133v-729h-88v803h310v-803z" />
    <glyph glyph-name="summation" unicode="&#x2211;" horiz-adv-x="336" 
d="M311 -130h-282v74l103 340l-103 333v74h282v-74h-204l109 -333l-109 -340h204v-74z" />
    <glyph glyph-name="minus" unicode="&#x2212;" horiz-adv-x="441" 
d="M422 284h-403v52h403v-52z" />
    <glyph glyph-name="radical" unicode="&#x221a;" horiz-adv-x="559" 
d="M15 423h134l144 -327l216 621h57l-251 -723h-36l-175 390h-89v39z" />
    <glyph glyph-name="infinity" unicode="&#x221e;" horiz-adv-x="587" 
d="M296 246h-5l-6 -19q-12 -28 -45 -28h-144q-61 0 -61 60v96q0 60 61 60h144q33 0 45 -28l6 -19h5l7 19q10 28 43 28h144q31 0 46.5 -13.5t15.5 -46.5v-96q0 -33 -15.5 -46.5t-46.5 -13.5h-144q-33 0 -43 28zM487 266v82h-157l-20 -40l20 -42h157zM99 348v-82h158l20 42
l-20 40h-158z" />
    <glyph glyph-name="integral" unicode="&#x222b;" horiz-adv-x="301" 
d="M94 -92v754q0 26 17 44t46 18h121v-67h-94v-755q0 -26 -17 -43.5t-46 -17.5h-106v67h79z" />
    <glyph glyph-name="approxequal" unicode="&#x2248;" horiz-adv-x="449" 
d="M387 432l41 -40l-65 -65q-18 -18 -39 -18q-8 0 -26 6l-175 62l-60 -62l-40 40l64 65q17 17 38 17q12 0 27 -5l175 -62zM386 306l41 -40l-65 -65q-18 -18 -39 -18q-8 0 -26 6l-175 62l-60 -62l-40 40l64 65q17 17 38 17q12 0 27 -5l175 -62z" />
    <glyph glyph-name="notequal" unicode="&#x2260;" horiz-adv-x="441" 
d="M122 119h-36l61 100h-128v52h160l47 79h-207v52h239l61 100h36l-61 -100h128v-52h-160l-48 -79h208v-52h-240z" />
    <glyph glyph-name="lessequal" unicode="&#x2264;" horiz-adv-x="455" 
d="M426 441l-309 -76l309 -75v-53l-397 102v52l397 101v-51zM426 110h-397v52h397v-52z" />
    <glyph glyph-name="greaterequal" unicode="&#x2265;" horiz-adv-x="455" 
d="M426 339l-397 -102v51l309 76l-309 75v53l397 -101v-52zM426 110h-397v52h397v-52z" />
    <glyph glyph-name="lozenge" unicode="&#x25ca;" horiz-adv-x="441" 
d="M359 349l-139 294l-137 -292l138 -294zM200 710h41l177 -361l-177 -359h-41l-177 361z" />
    <glyph glyph-name="uniF409" unicode="&#xf409;" horiz-adv-x="139" 
d="M105 -95l-42 -61h-29v126h71v-65z" />
    <glyph glyph-name="uniF6C3" unicode="&#xf6c3;" horiz-adv-x="139" 
d="M105 -95l-42 -61h-29v126h71v-65z" />
    <glyph glyph-name="Nacute.alt" horiz-adv-x="394" 
d="M123 0h-83v691h92l140 -508v508h82v-691h-92l-139 506v-506zM149 724l-20 49l147 61l21 -49z" />
    <glyph glyph-name="Ncommaaccent.alt" horiz-adv-x="394" 
d="M123 0h-83v691h92l140 -508v508h82v-691h-92l-139 506v-506zM233 -95l-42 -61h-29v126h71v-65z" />
    <glyph glyph-name="Ncaron.alt" horiz-adv-x="394" 
d="M123 0h-83v691h92l140 -508v508h82v-691h-92l-139 506v-506zM286 838l26 -42l-116 -76l-115 75l27 43l89 -59z" />
    <glyph glyph-name="Ntilde.alt" horiz-adv-x="394" 
d="M123 0h-83v691h92l140 -508v508h82v-691h-92l-139 506v-506zM331 793l-48 -48q-26 -26 -63 -8l-79 40l-45 -46l-34 34l48 48q26 26 63 8l79 -40l45 46z" />
    <glyph glyph-name="uni01CD.alt" horiz-adv-x="375" 
d="M245 691q55 -97 76 -224t21 -330v-137h-89v196h-131v-196h-89v160q0 187 22.5 311t74.5 220h115zM178 617q-42 -141 -53 -346h124q-11 203 -52 346h-19zM277 835l26 -42l-116 -76l-115 75l27 43l89 -59z" />
    <glyph glyph-name="grave.caps" horiz-adv-x="216" 
d="M193 617l-21 -51l-148 59l21 51z" />
    <glyph glyph-name="acute.caps" horiz-adv-x="216" 
d="M44 566l-20 49l147 61l21 -49z" />
    <glyph glyph-name="Adieresis.alt" horiz-adv-x="375" 
d="M245 691q55 -97 76 -224t21 -330v-137h-89v196h-131v-196h-89v160q0 187 22.5 311t74.5 220h115zM178 617q-42 -141 -53 -346h124q-11 203 -52 346h-19zM110 726v109h62v-109h-62zM203 726v109h62v-109h-62z" />
    <glyph glyph-name="Aring.alt" horiz-adv-x="375" 
d="M245 691q55 -97 76 -224t21 -330v-137h-89v196h-131v-196h-89v160q0 187 22.5 311t74.5 220h115zM178 617q-42 -141 -53 -346h124q-11 203 -52 346h-19zM112 784q0 31 22 53t53 22t53.5 -22t22.5 -53t-22 -52.5t-54 -21.5q-31 0 -53 21.5t-22 52.5zM153 784
q0 -14 10 -24.5t24 -10.5t24.5 10.5t10.5 24.5t-10.5 24.5t-24.5 10.5t-24 -10.5t-10 -24.5z" />
    <glyph glyph-name="Agrave.alt" horiz-adv-x="375" 
d="M245 691q55 -97 76 -224t21 -330v-137h-89v196h-131v-196h-89v160q0 187 22.5 311t74.5 220h115zM178 617q-42 -141 -53 -346h124q-11 203 -52 346h-19zM253 775l-21 -51l-148 59l21 51z" />
    <glyph glyph-name="Atilde.alt" horiz-adv-x="375" 
d="M245 691q55 -97 76 -224t21 -330v-137h-89v196h-131v-196h-89v160q0 187 22.5 311t74.5 220h115zM178 617q-42 -141 -53 -346h124q-11 203 -52 346h-19zM322 793l-48 -48q-26 -26 -63 -8l-79 40l-45 -46l-34 34l48 48q26 26 63 8l79 -40l45 46z" />
    <glyph glyph-name="Acircumflex.alt" horiz-adv-x="375" 
d="M245 691q55 -97 76 -224t21 -330v-137h-89v196h-131v-196h-89v160q0 187 22.5 311t74.5 220h115zM178 617q-42 -141 -53 -346h124q-11 203 -52 346h-19zM99 720l-27 43l116 75l115 -75l-27 -43l-89 59z" />
    <glyph glyph-name="Aacute.alt" horiz-adv-x="375" 
d="M245 691q55 -97 76 -224t21 -330v-137h-89v196h-131v-196h-89v160q0 187 22.5 311t74.5 220h115zM178 617q-42 -141 -53 -346h124q-11 203 -52 346h-19zM143 724l-20 49l147 61l21 -49z" />
    <glyph glyph-name="Amacron.alt" horiz-adv-x="375" 
d="M245 691q55 -97 76 -224t21 -330v-137h-89v196h-131v-196h-89v160q0 187 22.5 311t74.5 220h115zM178 617q-42 -141 -53 -346h124q-11 203 -52 346h-19zM287 744h-201v52h201v-52z" />
    <glyph glyph-name="Abreve.alt" horiz-adv-x="375" 
d="M245 691q55 -97 76 -224t21 -330v-137h-89v196h-131v-196h-89v160q0 187 22.5 311t74.5 220h115zM178 617q-42 -141 -53 -346h124q-11 203 -52 346h-19zM295 827v-48q0 -47 -50 -47h-115q-50 0 -50 47v48h53v-46h110v46h52z" />
    <glyph glyph-name="Aogonek.alt" horiz-adv-x="375" 
d="M343 -141h-69q-51 0 -36 55l24 86h-9v196h-131v-196h-89v160q0 187 22.5 311t74.5 220h115q55 -97 76 -224t21 -330v-137h-30l-24 -86h55v-55zM178 617q-42 -141 -53 -346h124q-11 203 -52 346h-19z" />
    <glyph glyph-name="hungarumlaut.caps" horiz-adv-x="268" 
d="M52 542l-34 34l108 104l34 -35zM147 542l-34 34l108 104l34 -35z" />
    <glyph glyph-name="afii10017.alt" horiz-adv-x="375" 
d="M245 691q55 -97 76 -224t21 -330v-137h-89v196h-131v-196h-89v160q0 187 22.5 311t74.5 220h115zM178 617q-42 -141 -53 -346h124q-11 203 -52 346h-19z" />
    <glyph glyph-name="Aringacute.alt" horiz-adv-x="375" 
d="M245 691q55 -97 76 -224t21 -330v-137h-89v196h-131v-196h-89v160q0 187 22.5 311t74.5 220h115zM178 617q-42 -141 -53 -346h124q-11 203 -52 346h-19zM112 774q0 31 22 53t53 22t53.5 -22t22.5 -53t-22 -52.5t-54 -21.5q-31 0 -53 21.5t-22 52.5zM153 774
q0 -14 10 -24.5t24 -10.5t24.5 10.5t10.5 24.5t-10.5 24.5t-24.5 10.5t-24 -10.5t-10 -24.5zM131 849l-20 49l147 61l21 -49z" />
    <glyph glyph-name="A.alt" horiz-adv-x="375" 
d="M245 691q55 -97 76 -224t21 -330v-137h-89v196h-131v-196h-89v160q0 187 22.5 311t74.5 220h115zM178 617q-42 -141 -53 -346h124q-11 203 -52 346h-19z" />
    <glyph glyph-name="N.alt" horiz-adv-x="394" 
d="M123 0h-83v691h92l140 -508v508h82v-691h-92l-139 506v-506z" />
    <glyph glyph-name="zero.onum" horiz-adv-x="391" 
d="M283 0h-176q-67 0 -67 63v419q0 64 67 64h176q68 0 68 -64v-419q0 -63 -68 -63zM262 74v397h-133v-397h133z" />
    <glyph glyph-name="one.onum" horiz-adv-x="177" 
d="M135 0h-88v478h-30v56l118 20v-554z" />
    <glyph glyph-name="two.onum" 
d="M29 0v224q0 48 45 62l154 48v138h-190v74h218q62 0 62 -62v-155q0 -28 -12 -41t-34 -20l-153 -49v-145h199v-74h-289z" />
    <glyph glyph-name="three.onum" horiz-adv-x="346" 
d="M19 546h281v-76l-86 -223l52 -17q22 -7 33.5 -19.5t11.5 -41.5v-254q0 -61 -62 -61h-230v75h202v236l-100 32v49l91 224h-193v76z" />
    <glyph glyph-name="four.onum" horiz-adv-x="378" 
d="M339 -146h-90v178h-234v47l71 467h85l-70 -438h148v438h90v-692z" />
    <glyph glyph-name="five.onum" horiz-adv-x="349" 
d="M224 130l-195 59v357h275v-76h-186v-223l149 -45q47 -13 47 -65v-219q0 -64 -68 -64h-217v75h195v201z" />
    <glyph glyph-name="six.onum" horiz-adv-x="366" 
d="M58 473l101 218h91l-112 -241h137q62 0 62 -61v-327q0 -62 -62 -62h-183q-62 0 -62 62v320q0 37 28 91zM253 376h-135v-302h135v302z" />
    <glyph glyph-name="seven.onum" horiz-adv-x="314" 
d="M19 546h276v-65l-153 -628h-91l152 618h-184v75z" />
    <glyph glyph-name="eight.onum" horiz-adv-x="387" 
d="M281 0h-176q-67 0 -67 64v229q0 40 34 51l20 7v6l-20 7q-31 12 -31 49v214q0 33 14 48.5t50 15.5h176q36 0 50.5 -16t14.5 -48v-214q0 -37 -31 -49l-20 -7v-6l20 -7q34 -11 34 -51v-229q0 -64 -68 -64zM259 617h-132v-232h132v232zM259 74v241h-132v-241h132z" />
    <glyph glyph-name="nine.onum" horiz-adv-x="366" 
d="M306 73l-100 -218h-92l112 241h-138q-63 0 -63 61v327q0 62 63 62h183q62 0 62 -62v-320q0 -39 -27 -91zM110 170h135v303h-135v-303z" />
    <glyph glyph-name="dollar.onum" horiz-adv-x="340" 
d="M192 -41h-44v61h-109v61h177v114l-177 67v46l262 -102v-147q0 -39 -42 -39h-67v-61zM301 272v-41l-262 101v156q0 40 47 40h64v62h44v-62h102v-61h-172v-127z" />
    <glyph glyph-name="sterling.onum" horiz-adv-x="363" 
d="M169 295v-230h163v-65h-252v295h89zM286 320h-269v41h63v126q0 26 15.5 42.5t43.5 16.5h147v-65h-117v-120h117v-41z" />
    <glyph glyph-name="Euro.onum" horiz-adv-x="337" 
d="M270 284h-253v39h55v164q0 26 15.5 42.5t43.5 16.5h171v-68h-140v-155h108v-39zM270 221h-108v-153h140v-68h-171q-28 0 -43.5 16.5t-15.5 41.5v163h-55v39h253v-39z" />
    <glyph glyph-name="yen.onum" horiz-adv-x="362" 
d="M320 251h-278v39h48q-47 94 -47 202v54h88v-54q0 -107 42 -197h16q42 87 42 197v54h89v-54q0 -108 -48 -202h48v-39zM320 188h-92v-188h-92v188h-94v39h278v-39z" />
    <glyph glyph-name="uni20BD.onum" horiz-adv-x="381" 
d="M289 257h-269v40h46v249h223q28 0 44 -16.5t16 -42.5v-171q0 -25 -16 -42t-44 -17zM314 194h-158v-194h-90v194h-46v39h294v-39zM156 488v-191h103v191h-103z" />
    <glyph glyph-name="afii61352.alt" horiz-adv-x="644" 
d="M128 0h-86v546h87l156 -387v387h85v-546h-87l-155 384v-384zM611 428v-171q0 -17 -12.5 -30.5t-32.5 -13.5h-109q-20 0 -33.5 13t-13.5 31v171q0 18 13 31.5t34 13.5h109q20 0 32.5 -13t12.5 -32zM552 263v160h-83v-160h83zM595 112h-169v60h169v-60z" />
    <glyph glyph-name="a.terminal" horiz-adv-x="763" 
d="M227 162l-104 -162h-24q-28 0 -44.5 17.5t-16.5 42.5v386q0 26 16.5 43t44.5 17h213v-438h367v41h74v-41q0 -68 -74 -68h-452v162zM123 438v-370l104 162v208h-104z" />
    <glyph glyph-name="b.terminal" horiz-adv-x="765" 
d="M681 397h-365v-337q0 -27 -16.5 -43.5t-47.5 -16.5h-213v718h85v-650h107v323l-65 47v21l65 47h21q52 0 62 -43v2h367v41h74v-41q0 -68 -74 -68z" />
    <glyph glyph-name="c.terminal" horiz-adv-x="719" 
d="M635 0h-533q-31 0 -47.5 16.5t-16.5 43.5v386q0 27 16.5 43.5t47.5 16.5h166v-68h-145v-370h512v41h74v-41q0 -68 -74 -68z" />
    <glyph glyph-name="d.terminal" horiz-adv-x="766" 
d="M230 0v167l-107 -167h-21q-31 0 -47.5 16.5t-16.5 43.5v386q0 27 16.5 43.5t47.5 16.5h128v212h85v-650h367v41h74v-41q0 -68 -74 -68h-452zM123 68l107 167v203h-107v-370z" />
    <glyph glyph-name="e.terminal" horiz-adv-x="757" 
d="M310 446v-87l-187 -198v-93h550v41h74v-41q0 -68 -74 -68h-571q-31 0 -47.5 17t-16.5 44v385q0 27 16.5 43.5t47.5 16.5h143q32 0 48.5 -16.5t16.5 -43.5zM224 346v92h-101v-201z" />
    <glyph glyph-name="f.terminal" horiz-adv-x="680" 
d="M39 -159v817q0 27 16.5 43.5t47.5 16.5h126v-64h-105v-148h472v41h74v-41q0 -68 -74 -68h-417l-55 41v-638h-85z" />
    <glyph glyph-name="g.terminal" horiz-adv-x="766" 
d="M230 68v99l-107 -167h-21q-31 0 -47.5 17t-16.5 44v385q0 27 16.5 43.5t47.5 16.5h213v-438h367v41h74v-41q0 -68 -74 -68h-367v-98q0 -27 -17 -44t-47 -17h-77l-48 43v21zM230 235v203h-107v-370zM230 -91v91l-47 -74l18 -17h29z" />
    <glyph glyph-name="h.terminal" horiz-adv-x="766" 
d="M230 438l-106 -167v-271h-85v718h85v-379l106 167h21q31 0 47.5 -16.5t16.5 -43.5v-378h367v41h74v-41q0 -68 -74 -68h-452v438z" />
    <glyph glyph-name="i.terminal" horiz-adv-x="597" 
d="M146 68h367v41h74v-41q0 -68 -74 -68h-424q-50 0 -50 48v458h85v-438h22zM124 568h-85v119h85v-119z" />
    <glyph glyph-name="j.terminal" horiz-adv-x="576" 
d="M492 0h-367v-114q0 -20 -11.5 -32.5t-31.5 -12.5h-87l-48 43v21l94 147v454h84v-438h367v41h74v-41q0 -68 -74 -68zM125 568h-84v119h84v-119zM4 -74l18 -17h19v76z" />
    <glyph glyph-name="k.terminal" horiz-adv-x="343" 
d="M268 -100l-82 330h-62v-230h-85v718h85v-212h191v-45q0 -117 -57 -185l93 -367h40v-68h-58q-49 0 -65 59zM192 294q34 70 34 167v3h-102v-170h68z" />
    <glyph glyph-name="l.terminal" horiz-adv-x="601" 
d="M517 0h-429q-50 0 -50 48v670h85v-650h394v41h74v-41q0 -68 -74 -68z" />
    <glyph glyph-name="m.terminal" horiz-adv-x="925" 
d="M841 0h-453v438l-89 -140v-298h-85v438l-90 -142v-296h-85v506h85v-142l90 142h21q31 0 47.5 -16.5t16.5 -43.5v-80l89 140h21q31 0 47.5 -16.5t16.5 -43.5v-378h368v41h74v-41q0 -68 -74 -68z" />
    <glyph glyph-name="n.terminal" horiz-adv-x="766" 
d="M230 438l-106 -167v-271h-85v506h85v-167l106 167h21q31 0 47.5 -16.5t16.5 -43.5v-378h367v41h74v-41q0 -68 -74 -68h-452v438z" />
    <glyph glyph-name="o.terminal" horiz-adv-x="764" 
d="M38 60v386q0 27 16.5 43.5t47.5 16.5h21v-438h107v323l-65 47v21l65 47h20q51 0 61 -41h369v41h74v-41q0 -68 -74 -68h-366v-337q0 -27 -16.5 -43.5t-47.5 -16.5h-148q-31 0 -47.5 16.5t-16.5 43.5z" />
    <glyph glyph-name="p.terminal" horiz-adv-x="766" 
d="M231 115v323l-107 -167v-430h-85v665h85v-167l107 167h21q31 0 47.5 -16.5t16.5 -43.5v-378h366v41h74v-41q0 -68 -74 -68h-451l-65 47v21z" />
    <glyph glyph-name="q.terminal" horiz-adv-x="677" 
d="M598 -159h-334q-58 0 -90 37l-122 141q-14 16 -14 41v386q0 27 16.5 43.5t47.5 16.5h148q31 0 47.5 -16.5t16.5 -43.5v-386q0 -27 -16.5 -43.5t-47.5 -16.5h-20v438h-107v-389l121 -140h354v41h74v-41q0 -68 -74 -68z" />
    <glyph glyph-name="r.terminal" horiz-adv-x="687" 
d="M90 506h513v41h74v-41q0 -68 -74 -68h-424l-55 41v-479h-85v458q0 48 51 48z" />
    <glyph glyph-name="s.terminal" horiz-adv-x="735" 
d="M199 199l-121 50q-25 10 -34 26.5t-9 45.5v125q0 27 16.5 43.5t46.5 16.5h177v-68h-155v-118l121 -50q25 -11 34 -27t9 -45v-130h367v41h74v-41q0 -68 -74 -68h-616v68h164v131z" />
    <glyph glyph-name="t.terminal" horiz-adv-x="680" 
d="M123 506h473v41h74v-41q0 -68 -74 -68h-417l-56 41v-411h103v-68h-123q-31 0 -47.5 16.5t-16.5 43.5v538h84v-92z" />
    <glyph glyph-name="u.terminal" horiz-adv-x="765" 
d="M123 68l106 167v271h85v-438h367v41h74v-41q0 -68 -74 -68h-452v167l-106 -167h-21q-31 0 -47.5 16.5t-16.5 43.5v446h85v-438z" />
    <glyph glyph-name="v.terminal" horiz-adv-x="756" 
d="M222 506h86v-41h364v41h74v-41q0 -68 -74 -68h-364q-3 -252 -95 -397h-86q-95 150 -95 413v93h85v-93q0 -215 47 -345h12q43 122 46 323l-65 47v21z" />
    <glyph glyph-name="w.terminal" horiz-adv-x="901" 
d="M817 397h-365v-6q0 -110 -23 -213t-62 -178h-79q-20 66 -43 208h-7q-21 -137 -42 -208h-78q-39 76 -62.5 179t-23.5 212v115h85v-115q0 -208 41 -323h7q35 134 35 323v115h85v-115q0 -192 34 -323h7q41 115 41 323l-57 47v21l57 47h85v-41h365v41h74v-41q0 -68 -74 -68z
" />
    <glyph glyph-name="x.terminal" horiz-adv-x="348" 
d="M92 253l-63 253h83l50 -213h31q33 68 33 168v45h89v-45q0 -122 -60 -189l98 -363h41v-68h-58q-49 0 -65 59l-84 330h-31q-35 -78 -35 -171v-59h-90v59q0 126 61 194z" />
    <glyph glyph-name="y.terminal" horiz-adv-x="765" 
d="M229 68v99l-106 -167h-21q-28 0 -46 17.5t-18 43.5v445h85v-438l106 167v271h85v-438h367v41h74v-41q0 -68 -74 -68h-367v-98q0 -27 -16.5 -44t-47.5 -17h-77l-48 43v21zM229 -91v91l-47 -74l18 -17h29z" />
    <glyph glyph-name="z.terminal" horiz-adv-x="723" 
d="M118 68h521v41h74v-41q0 -68 -74 -68h-610v62l159 376h-159v68h243v-66z" />
    <glyph glyph-name="afii10097.terminal" horiz-adv-x="759" 
d="M223 215h-76q-30 -56 -30 -161v-54h-89v56q0 121 68 186v6l-29 6q-36 8 -36 49v144q0 27 17.5 43t47.5 16h212v-438h367v41h74v-41q0 -68 -74 -68h-452v215zM223 281v157h-106v-157h106z" />
    <glyph glyph-name="afii10065.terminal" horiz-adv-x="763" 
d="M227 162l-104 -162h-24q-28 0 -44.5 17.5t-16.5 42.5v386q0 26 16.5 43t44.5 17h213v-438h367v41h74v-41q0 -68 -74 -68h-452v162zM123 438v-370l104 162v208h-104z" />
    <glyph glyph-name="afii10066.terminal" horiz-adv-x="718" 
d="M118 701l516 56l-5 41l74 8l4 -41q7 -68 -66 -76l-526 -57v-305l115 179h26q28 0 43.5 -16.5t15.5 -41.5v-390q0 -25 -15.5 -41.5t-43.5 -16.5h-159q-28 0 -43.5 16.5t-15.5 41.5v549q0 50 19 69.5t61 24.5zM123 271v-203h107v370z" />
    <glyph glyph-name="afii10067.terminal" horiz-adv-x="767" 
d="M231 0l-65 47v21l65 47v137l-107 -49v-203h-85v506h216q29 0 45 -15t16 -39v-116q0 -36 -32 -50l-18 -8v-6l18 -6q32 -12 32 -49v-149h367v41h74v-41q0 -68 -74 -68h-452zM124 438v-189l107 49v140h-107z" />
    <glyph glyph-name="afii10068.terminal" horiz-adv-x="733" 
d="M239 249l-121 -50v-131h531v41h74v-41q0 -68 -74 -68h-552q-31 0 -47.5 16.5t-16.5 43.5v138q0 29 9 45t34 27l121 50v118h-155v68h177q30 0 46.5 -16.5t16.5 -43.5v-125q0 -29 -9 -45.5t-34 -26.5z" />
    <glyph glyph-name="afii10069.terminal" horiz-adv-x="772" 
d="M238 569l-111 49l-72 15l-37 31l1 30l39 31l95 -40l525 -113l11 42l73 -17l-9 -38q-14 -56 -64 -56q-11 0 -23 3l-354 73q3 -15 3 -34v-487q0 -25 -15.5 -41.5t-43.5 -16.5h-159q-28 0 -43.5 16.5t-15.5 41.5v390q0 25 15.5 41.5t43.5 16.5h26l115 -179v242zM230 68v203
l-107 167v-370h107z" />
    <glyph glyph-name="afii10070.terminal" horiz-adv-x="757" 
d="M310 446v-81l-187 -198v-99h550v41h74v-41q0 -68 -74 -68h-571q-31 0 -47.5 17t-16.5 44v385q0 27 16.5 43.5t47.5 16.5h143q32 0 48.5 -16.5t16.5 -43.5zM224 336v102h-101v-211z" />
    <glyph glyph-name="afii10072.terminal" horiz-adv-x="494" 
d="M205 228h-52q-36 -80 -36 -169v-59h-90v59q0 126 61 194l-63 253h83l50 -214h47v214h85v-214h53q34 70 34 169v45h89v-45q0 -117 -57 -185l93 -367h40v-68h-58q-49 0 -65 59l-81 328h-48v-228h-85v228z" />
    <glyph glyph-name="afii10073.terminal" horiz-adv-x="714" 
d="M180 68v15h-95v59l87 296h-150v68h229v-68l-86 -295h37q29 0 45 -14.5t16 -38.5v-22h367v41h74v-41q0 -68 -74 -68h-367v-105q0 -24 -16 -39t-45 -15h-78l-48 43v21zM151 -91h29v91l-47 -74z" />
    <glyph glyph-name="afii10074.terminal" horiz-adv-x="764" 
d="M123 68l106 167v271h85v-438h366v41h74v-41q0 -68 -74 -68h-451v167l-106 -167h-21q-31 0 -47.5 16.5t-16.5 43.5v446h85v-438z" />
    <glyph glyph-name="afii10075.terminal" horiz-adv-x="764" 
d="M123 68l106 167v271h85v-438h366v41h74v-41q0 -68 -74 -68h-451v167l-106 -167h-21q-31 0 -47.5 16.5t-16.5 43.5v446h85v-438zM277 643v-40q0 -47 -50 -47h-100q-50 0 -50 47v40h53v-38h95v38h52z" />
    <glyph glyph-name="afii10076.terminal" horiz-adv-x="343" 
d="M268 -100l-82 330h-62v-230h-85v506h85v-212h68q34 70 34 167v45h89v-45q0 -117 -57 -185l93 -367h40v-68h-58q-49 0 -65 59z" />
    <glyph glyph-name="afii10077.terminal" horiz-adv-x="760" 
d="M223 438h-82l-10 -380q-1 -34 -12 -46t-48 -12h-58v68h43l12 438h241v-438h367v41h74v-41q0 -68 -74 -68h-453v438z" />
    <glyph glyph-name="afii10078.terminal" horiz-adv-x="841" 
d="M390 68h367v41h74v-41q0 -68 -74 -68h-452v438h-7q-45 -104 -45 -213v-82h-76v82q0 104 -44 213h-8v-438h-85v506h115q38 -73 58 -181h4q20 107 60 181h113v-438z" />
    <glyph glyph-name="afii10079.terminal" horiz-adv-x="767" 
d="M683 0h-451v219h-108v-219h-85v506h85v-219h108v219h84v-438h367v41h74v-41q0 -68 -74 -68z" />
    <glyph glyph-name="afii10080.terminal" horiz-adv-x="764" 
d="M38 60v386q0 27 16.5 43.5t47.5 16.5h21v-438h107v323l-65 47v21l65 47h20q51 0 61 -41h369v41h74v-41q0 -68 -74 -68h-366v-337q0 -27 -16.5 -43.5t-47.5 -16.5h-148q-31 0 -47.5 16.5t-16.5 43.5z" />
    <glyph glyph-name="afii10081.terminal" horiz-adv-x="766" 
d="M230 438l-106 -167v-271h-85v506h85v-167l106 167h21q31 0 47.5 -16.5t16.5 -43.5v-378h367v41h74v-41q0 -68 -74 -68h-452v438z" />
    <glyph glyph-name="afii10082.terminal" horiz-adv-x="766" 
d="M231 115v323l-107 -167v-430h-85v665h85v-167l107 167h21q31 0 47.5 -16.5t16.5 -43.5v-378h366v41h74v-41q0 -68 -74 -68h-451l-65 47v21z" />
    <glyph glyph-name="afii10083.terminal" horiz-adv-x="719" 
d="M635 0h-533q-31 0 -47.5 16.5t-16.5 43.5v386q0 27 16.5 43.5t47.5 16.5h166v-68h-145v-370h512v41h74v-41q0 -68 -74 -68z" />
    <glyph glyph-name="afii10084.terminal" horiz-adv-x="925" 
d="M841 0h-453v438l-89 -140v-298h-85v438l-90 -142v-296h-85v506h85v-142l90 142h21q31 0 47.5 -16.5t16.5 -43.5v-80l89 140h21q31 0 47.5 -16.5t16.5 -43.5v-378h368v41h74v-41q0 -68 -74 -68z" />
    <glyph glyph-name="afii10085.terminal" horiz-adv-x="765" 
d="M229 68v99l-106 -167h-21q-28 0 -46 17.5t-18 43.5v445h85v-438l106 167v271h85v-438h367v41h74v-41q0 -68 -74 -68h-367v-98q0 -27 -16.5 -44t-47.5 -17h-77l-48 43v21zM229 -91v91l-47 -74l18 -17h29z" />
    <glyph glyph-name="afii10086.terminal" horiz-adv-x="923" 
d="M387 438l-89 -139v-458h-86v298l-89 -139h-21q-31 0 -47.5 17t-16.5 43v386q0 26 16.5 43t47.5 17h110v159h86v-298l89 139h21q31 0 47.5 -17t16.5 -43v-378h367v41h74v-41q0 -68 -74 -68h-452l-65 47v21l65 47v323zM123 438v-370l89 139v231h-89z" />
    <glyph glyph-name="afii10087.terminal" horiz-adv-x="307" 
d="M92 253l-63 253h83l50 -213h31q33 68 33 168v45h89v-45q0 -122 -60 -189l98 -363h41v-68h-58q-49 0 -65 59l-84 330h-31q-35 -78 -35 -171v-59h-90v59q0 126 61 194z" />
    <glyph glyph-name="afii10088.terminal" horiz-adv-x="368" 
d="M123 68l106 167v271h85v-438h37v-118q0 -68 -74 -68h-165v-41h-74v41q0 68 74 68h165v50h-48v167l-106 -167h-21q-31 0 -47.5 16.5t-16.5 43.5v446h85v-438z" />
    <glyph glyph-name="afii10089.terminal" horiz-adv-x="752" 
d="M111 152h-24q-61 0 -61 59v295h85v-286l104 162v124h86v-438h367v41h74v-41q0 -68 -74 -68h-453v314z" />
    <glyph glyph-name="afii10090.terminal" horiz-adv-x="924" 
d="M840 0h-452v142l-90 -142h-21q-31 0 -47.5 16.5t-16.5 43.5v80l-89 -140h-21q-31 0 -47.5 16.5t-16.5 43.5v446h85v-438l89 140v298h85v-438l90 142v296h85v-438h367v41h74v-41q0 -68 -74 -68z" />
    <glyph glyph-name="afii10091.terminal" horiz-adv-x="528" 
d="M113 -50h324v50h-49v142l-90 -142h-21q-31 0 -47.5 16.5t-16.5 43.5v80l-89 -140h-21q-31 0 -47.5 16.5t-16.5 43.5v446h85v-438l89 140v298h85v-438l90 142v296h85v-438h38v-118q0 -68 -74 -68h-324v-41h-74v41q0 68 74 68z" />
    <glyph glyph-name="afii10092.terminal" horiz-adv-x="763" 
d="M124 506v-438h103v188l-65 47v21l65 47h21q51 0 61 -41h370v41h74v-41q0 -68 -74 -68h-367v-204q0 -25 -15.5 -41.5t-43.5 -16.5h-214v438h-73v68h158z" />
    <glyph glyph-name="afii10093.terminal" horiz-adv-x="891" 
d="M124 204l106 167h18q31 0 47.5 -16.5t16.5 -43.5v-253q0 -25 -15.5 -41.5t-43.5 -16.5h-214v506h85v-302zM807 0h-452v506h85v-438h367v41h74v-41q0 -68 -74 -68zM124 136v-68h103v230z" />
    <glyph glyph-name="afii10094.terminal" horiz-adv-x="763" 
d="M679 262h-367v-204q0 -25 -15.5 -41.5t-43.5 -16.5h-214v506h85v-438h103v188l-65 47v21l65 47h21q51 0 61 -41h370v41h74v-41q0 -68 -74 -68z" />
    <glyph glyph-name="afii10095.terminal" horiz-adv-x="712" 
d="M201 0h-176v68h151v157h-130v65h130v148h-151v68h176q28 0 44 -17t16 -43v-154h367v41h74v-41q0 -68 -74 -68h-367v-164q0 -26 -16 -43t-44 -17z" />
    <glyph glyph-name="afii10096.terminal" horiz-adv-x="898" 
d="M814 397h-367v-339q0 -25 -16 -41.5t-44 -16.5h-139q-28 0 -43.5 16.5t-15.5 41.5v161h-65v-219h-85v506h85v-219h65v160q0 26 15.5 42.5t43.5 16.5h25v-438h89v323l-65 47v21l65 47h25q47 0 57 -41h370v41h74v-41q0 -68 -74 -68z" />
    <glyph glyph-name="F_i.swsh" horiz-adv-x="664" 
d="M625 568h-85v49h-230v-232h172v-74h-172v-311h-88v560l57 57h-195v-40h-74v46q0 68 74 68h456v27h85v-150zM647 0h-57q-50 0 -50 48v458h85v-438h22v-68z" />
    <glyph glyph-name="T_h.swsh" horiz-adv-x="763" 
d="M222 -95v655l57 57h-195v-40h-74v46q0 68 74 68h365v27h85v-379l106 167h21q31 0 47.5 -16.5t16.5 -43.5v-446h-85v438l-106 -167v-271h-85v617h-138v-702h55v-74h-77q-67 0 -67 64z" />
    <glyph glyph-name="A.swsh" horiz-adv-x="576" 
d="M449 359v258h-139v-258h139zM279 617h-195v-40h-74v46q0 68 74 68h386q67 0 67 -64v-627h-88v285h-139v-285h-88v560z" />
    <glyph glyph-name="B.swsh" horiz-adv-x="573" 
d="M449 384v233h-139v-233h139zM449 74v241h-139v-241h139zM84 691h387q67 0 67 -64v-214q0 -36 -34 -48l-21 -8v-8l21 -6q34 -12 34 -51v-229q0 -63 -67 -63h-249v560l57 57h-195v-40h-74v46q0 68 74 68z" />
    <glyph glyph-name="C.swsh" horiz-adv-x="375" 
d="M349 406h-83v211h-140v-702h224v-74h-245q-67 0 -67 63v723q0 64 67 64h177q67 0 67 -64v-221z" />
    <glyph glyph-name="D.swsh" horiz-adv-x="576" 
d="M310 74h139v543h-139v-543zM84 691h387q67 0 67 -64v-564q0 -63 -67 -63h-249v560l57 57h-195v-40h-74v46q0 68 74 68z" />
    <glyph glyph-name="E.swsh" horiz-adv-x="509" 
d="M84 691h399v-74h-173v-230h173v-74h-173v-239h173v-74h-261v560l57 57h-195v-40h-74v46q0 68 74 68z" />
    <glyph glyph-name="F.swsh" horiz-adv-x="501" 
d="M84 691h398v-74h-172v-232h172v-74h-172v-311h-88v560l57 57h-195v-40h-74v46q0 68 74 68z" />
    <glyph glyph-name="G.swsh" horiz-adv-x="365" 
d="M255 -85v134l-49 -49h-101q-67 0 -67 63v564q0 64 67 64h225v-74h-204v-543h129v295h79v-464q0 -64 -67 -64h-92v74h80z" />
    <glyph glyph-name="H.swsh" horiz-adv-x="576" 
d="M84 691h226v-298h138v298h89v-691h-89v319h-138v-319h-88v560l57 57h-195v-40h-74v46q0 68 74 68z" />
    <glyph glyph-name="I.swsh" horiz-adv-x="349" 
d="M84 691h226v-691h-88v560l57 57h-195v-40h-74v46q0 68 74 68z" />
    <glyph glyph-name="J.swsh" horiz-adv-x="349" 
d="M222 560l57 57h-195v-40h-74v46q0 68 74 68h227v-786q0 -64 -67 -64h-102v74h80v645z" />
    <glyph glyph-name="K.swsh" horiz-adv-x="563" 
d="M84 691h226v-298h85q38 62 38 198v100h88v-100q0 -157 -77 -225v-6q89 -77 89 -246v-114h-93v114q0 79 -11.5 124.5t-35.5 80.5h-83v-319h-88v560l57 57h-195v-40h-74v46q0 68 74 68z" />
    <glyph glyph-name="L.swsh" horiz-adv-x="497" 
d="M84 691h227v-617h173v-74h-261v560l56 57h-195v-40h-74v46q0 68 74 68z" />
    <glyph glyph-name="M.swsh" horiz-adv-x="658" 
d="M84 577h-74v46q0 68 74 68h263q53 -108 70 -232h6q17 122 71 232h125v-691h-88v617h-8q-24 -47 -42.5 -126t-18.5 -168v-130h-82v130q0 88 -18.5 167t-42.5 127h-9v-617h-88v560l57 57h-195v-40z" />
    <glyph glyph-name="N.swsh" horiz-adv-x="576" 
d="M454 691h82v-746l8 -30h44v-74h-51q-18 0 -30 5t-19 16t-10 19.5t-8 25.5l-165 599v-506h-83v560l57 57h-195v-40h-74v46q0 68 74 68h230l140 -508v508z" />
    <glyph glyph-name="O.swsh" horiz-adv-x="392" 
d="M265 -85v702h-139v-702h139zM38 -96v723q0 64 67 64h182q67 0 67 -64v-723q0 -63 -67 -63h-182q-67 0 -67 63z" />
    <glyph glyph-name="P.swsh" horiz-adv-x="565" 
d="M443 296v321h-133v-321h133zM84 691h381q67 0 67 -64v-342q0 -63 -67 -63h-155v-222h-88v560l57 57h-195v-40h-74v46q0 68 74 68z" />
    <glyph glyph-name="Q.swsh" horiz-adv-x="392" 
d="M246 220l19 -78v475h-139v-543h42v-74h-63q-67 0 -67 63v564q0 64 67 64h182q67 0 67 -64v-564q0 -56 -55 -63l21 -85h49v-74h-66q-24 0 -38 10t-18.5 21t-10.5 33l-78 315h88z" />
    <glyph glyph-name="R.swsh" horiz-adv-x="573" 
d="M496 315q25 -16 31 -48l68 -352h47v-74h-66q-34 0 -47.5 16t-19.5 48l-76 391h-123v-296h-88v560l57 57h-195v-40h-74v46q0 68 74 68h384q66 0 66 -64v-235q0 -33 -31 -43l-34 -9v-7zM446 370v247h-136v-247h136z" />
    <glyph glyph-name="S.swsh" horiz-adv-x="375" 
d="M345 130v-226q0 -63 -67 -63h-245v74h223v236l-188 143q-35 26 -35 87v246q0 64 67 64h178q67 0 67 -64v-189h-83v179h-140v-257l188 -143q35 -26 35 -87z" />
    <glyph glyph-name="T.swsh" horiz-adv-x="439" 
d="M222 -95v655l57 57h-195v-40h-74v46q0 68 74 68h335v-74h-108v-702h55v-74h-77q-67 0 -67 64z" />
    <glyph glyph-name="U.swsh" horiz-adv-x="577" 
d="M84 691h226v-617h139v617h89v-628q0 -63 -67 -63h-182q-67 0 -67 63v497l57 57h-195v-40h-74v46q0 68 74 68z" />
    <glyph glyph-name="V.swsh" horiz-adv-x="561" 
d="M84 691h227v-148q0 -281 56 -469h19q56 188 56 469v148h89v-149q0 -189 -25 -316t-80 -226h-99q-55 99 -80 226t-25 317v17l57 57h-195v-40h-74v46q0 68 74 68z" />
    <glyph glyph-name="W.swsh" horiz-adv-x="709" 
d="M84 691h227v-188q0 -289 40 -430h13q42 164 42 365v253h89v-253q0 -205 43 -365h12q40 141 40 430v188h89v-188q0 -328 -89 -503h-88q-38 126 -47 230h-9q-9 -104 -47 -230h-88q-89 175 -89 503v57l57 57h-195v-40h-74v46q0 68 74 68z" />
    <glyph glyph-name="X.swsh" horiz-adv-x="374" 
d="M166 393h43q38 60 38 198v100h91v-100q0 -157 -78 -225v-6q20 -18 31.5 -44t22.5 -82l61 -319h48v-74h-64q-34 0 -47.5 16t-19.5 48l-80 414h-45q-44 -77 -44 -205v-114h-95v114q0 164 87 246v6q-20 18 -31.5 44t-22.5 82l-30 152h-31v74h48q34 0 47.5 -16t19.5 -48z" />
    <glyph glyph-name="Y.swsh" horiz-adv-x="568" 
d="M84 691h226v-523h131v523h88v-787q0 -63 -67 -63h-232v74h211v179h-152q-30 0 -48.5 18.5t-18.5 45.5v402l57 57h-195v-40h-74v46q0 68 74 68z" />
    <glyph glyph-name="Z.swsh" horiz-adv-x="328" 
d="M301 -159h-276v74l196 702h-195v74h277v-73l-197 -703h195v-74z" />
    <glyph glyph-name="afii10017.swsh" horiz-adv-x="579" 
d="M449 359v258h-139v-258h139zM279 617h-195v-40h-74v46q0 68 74 68h386q67 0 67 -64v-627h-88v285h-139v-285h-88v560z" />
    <glyph glyph-name="afii10018.swsh" horiz-adv-x="566" 
d="M445 74v257h-135v-257h135zM84 691h441v-74h-215v-212h162q62 0 62 -61v-283q0 -27 -15.5 -44t-46.5 -17h-250v560l57 57h-195v-40h-74v46q0 68 74 68z" />
    <glyph glyph-name="afii10019.swsh" horiz-adv-x="573" 
d="M449 384v233h-139v-233h139zM449 74v241h-139v-241h139zM84 691h387q67 0 67 -64v-214q0 -36 -34 -48l-21 -8v-8l21 -6q34 -12 34 -51v-229q0 -63 -67 -63h-249v560l57 57h-195v-40h-74v46q0 68 74 68z" />
    <glyph glyph-name="afii10020.swsh" horiz-adv-x="501" 
d="M232 560l57 57h-205v-40h-74v46q0 68 74 68h397v-74h-160v-712q0 -64 -67 -64h-102v74h80v645z" />
    <glyph glyph-name="afii10021.swsh" horiz-adv-x="569" 
d="M417 74v543h-111q0 -305 -28 -543h139zM222 560l57 57h-195v-40h-74v46q0 68 74 68h421v-617h46v-195h-84v121h-231v-121h-84v195h41q26 213 29 486z" />
    <glyph glyph-name="afii10022.swsh" horiz-adv-x="509" 
d="M84 691h399v-74h-173v-230h173v-74h-173v-239h173v-74h-261v560l57 57h-195v-40h-74v46q0 68 74 68z" />
    <glyph glyph-name="afii10024.swsh" horiz-adv-x="556" 
d="M55 691q34 0 47.5 -16t19.5 -48l46 -234h66v298h88v-298h68q38 60 38 198v100h91v-100q0 -157 -78 -225v-6q20 -18 31.5 -44t22.5 -82l61 -319h48v-74h-64q-34 0 -47.5 16t-19.5 48l-80 414h-71v-319h-88v319h-67q-44 -74 -44 -205v-114h-93v114q0 164 87 246v6
q-39 49 -54 126l-25 125h-24v74h41z" />
    <glyph glyph-name="afii10025.swsh" horiz-adv-x="375" 
d="M249 -85v231h-115v73h115v398h-140v-211h-83v221q0 64 67 64h177q67 0 67 -64v-390q0 -36 -34 -48l-20 -6v-8l20 -8q34 -12 34 -48v-215q0 -63 -67 -63h-245v74h224z" />
    <glyph glyph-name="afii10026.swsh" horiz-adv-x="577" 
d="M84 691h224v-490l156 490h74v-691h-86v489l-155 -489h-75v560l57 57h-195v-40h-74v46q0 68 74 68z" />
    <glyph glyph-name="afii10027.swsh" horiz-adv-x="577" 
d="M84 691h224v-490l156 490h74v-691h-86v489l-155 -489h-75v560l57 57h-195v-40h-74v46q0 68 74 68zM488 822v-48q0 -47 -50 -47h-115q-50 0 -50 47v48h53v-46h110v46h52z" />
    <glyph glyph-name="afii10028.swsh" horiz-adv-x="563" 
d="M84 691h226v-298h85q38 62 38 198v100h88v-100q0 -157 -77 -225v-6q89 -77 89 -246v-114h-93v114q0 79 -11.5 124.5t-35.5 80.5h-83v-319h-88v560l57 57h-195v-40h-74v46q0 68 74 68z" />
    <glyph glyph-name="afii10029.swsh" horiz-adv-x="548" 
d="M84 691h424v-691h-88v617h-88l-42 -713q-2 -39 -13.5 -51t-53.5 -12h-67v74h53l40 645l57 57h-222v-40h-74v46q0 68 74 68z" />
    <glyph glyph-name="afii10030.swsh" horiz-adv-x="658" 
d="M84 577h-74v46q0 68 74 68h263q53 -108 70 -232h6q17 122 71 232h125v-691h-88v617h-8q-24 -47 -42.5 -126t-18.5 -168v-130h-82v130q0 88 -18.5 167t-42.5 127h-9v-617h-88v560l57 57h-195v-40z" />
    <glyph glyph-name="afii10031.swsh" horiz-adv-x="576" 
d="M84 691h226v-298h138v298h89v-691h-89v319h-138v-319h-88v560l57 57h-195v-40h-74v46q0 68 74 68z" />
    <glyph glyph-name="afii10032.swsh" horiz-adv-x="392" 
d="M265 -85v702h-139v-702h139zM38 -96v723q0 64 67 64h182q67 0 67 -64v-723q0 -63 -67 -63h-182q-67 0 -67 63z" />
    <glyph glyph-name="afii10033.swsh" horiz-adv-x="587" 
d="M84 691h493v-74h-40v-617h-89v617h-138v-617h-88v560l57 57h-195v-40h-74v46q0 68 74 68z" />
    <glyph glyph-name="afii10034.swsh" horiz-adv-x="565" 
d="M443 296v321h-133v-321h133zM84 691h381q67 0 67 -64v-342q0 -63 -67 -63h-155v-222h-88v560l57 57h-195v-40h-74v46q0 68 74 68z" />
    <glyph glyph-name="afii10035.swsh" horiz-adv-x="375" 
d="M349 406h-83v211h-140v-702h224v-74h-245q-67 0 -67 63v723q0 64 67 64h177q67 0 67 -64v-221z" />
    <glyph glyph-name="afii10036.swsh" horiz-adv-x="774" 
d="M724 617v-617h-89v617h-118v-617h-88v617h-119v-712q0 -64 -67 -64h-77v74h56v645l57 57h-195v-40h-74v46q0 68 74 68h680v-74h-40z" />
    <glyph glyph-name="afii10037.swsh" horiz-adv-x="568" 
d="M84 691h226v-523h131v523h88v-787q0 -63 -67 -63h-232v74h211v179h-152q-30 0 -48.5 18.5t-18.5 45.5v402l57 57h-195v-40h-74v46q0 68 74 68z" />
    <glyph glyph-name="afii10038.swsh" horiz-adv-x="776" 
d="M452 -95v220l-57 -57h-87q-62 0 -62 60v340q0 60 62 60h144v116h-138v-40h-74v46q0 68 74 68h226v-247l57 57h87q62 0 62 -60v-340q0 -60 -62 -60h-144v-153h55v-74h-77q-66 0 -66 64zM334 454v-313h118v313h-118zM658 141v313h-118v-313h118z" />
    <glyph glyph-name="afii10039.swsh" horiz-adv-x="374" 
d="M166 393h43q38 60 38 198v100h91v-100q0 -157 -78 -225v-6q20 -18 31.5 -44t22.5 -82l61 -319h48v-74h-64q-34 0 -47.5 16t-19.5 48l-80 414h-45q-44 -77 -44 -205v-114h-95v114q0 164 87 246v6q-20 18 -31.5 44t-22.5 82l-30 152h-31v74h48q34 0 47.5 -16t19.5 -48z" />
    <glyph glyph-name="afii10040.swsh" horiz-adv-x="602" 
d="M84 691h226v-617h139v617h88v-617h46v-195h-84v121h-277v560l57 57h-195v-40h-74v46q0 68 74 68z" />
    <glyph glyph-name="afii10041.swsh" horiz-adv-x="593" 
d="M84 691h226v-339h129v339h88v-617h56v-74h-77q-67 0 -67 64v214h-155q-31 0 -46.5 16.5t-15.5 43.5v222l57 57h-195v-40h-74v46q0 68 74 68z" />
    <glyph glyph-name="afii10042.swsh" horiz-adv-x="763" 
d="M84 691h226v-617h119v617h88v-617h118v617h89v-691h-502v560l57 57h-195v-40h-74v46q0 68 74 68z" />
    <glyph glyph-name="afii10043.swsh" horiz-adv-x="792" 
d="M84 691h226v-617h120v617h89v-617h120v617h88v-617h46v-195h-83v121h-468v560l57 57h-195v-40h-74v46q0 68 74 68z" />
    <glyph glyph-name="afii10047.swsh" horiz-adv-x="635" 
d="M509 393v224h-224v74h245q67 0 67 -63v-723q0 -64 -67 -64h-177q-67 0 -67 64v221h83v-211h140v461l-57 -57h-368q-74 0 -74 68v46h74v-40h425z" />
    <glyph glyph-name="afii10048.swsh" horiz-adv-x="734" 
d="M607 74v543h-127v-543h127zM84 691h226v-298h82v237q0 61 61 61h180q63 0 63 -61v-569q0 -61 -63 -61h-180q-61 0 -61 61v258h-82v-319h-88v560l57 57h-195v-40h-74v46q0 68 74 68z" />
    <glyph glyph-name="afii10049.swsh" horiz-adv-x="450" 
d="M10 -85h45l50 352q4 31 31 48l27 18v7l-34 9q-31 10 -31 43v235q0 64 66 64h276v-74h-30v-617h-88v296h-124l-55 -391q-6 -32 -19.5 -48t-47.5 -16h-66v74zM322 370v247h-136v-247h136z" />
    <glyph glyph-name="afii10023.swsh" horiz-adv-x="509" 
d="M84 691h399v-74h-173v-230h173v-74h-173v-239h173v-74h-261v560l57 57h-195v-40h-74v46q0 68 74 68zM287 732v109h62v-109h-62zM380 732v109h62v-109h-62z" />
    <glyph glyph-name="dotlessi.terminal" horiz-adv-x="597" 
d="M513 0h-424q-50 0 -50 48v458h85v-438h389v41h74v-41q0 -68 -74 -68z" />
    <glyph glyph-name="A.alt.swsh" horiz-adv-x="514" 
d="M84 691h300q55 -97 76 -224t21 -330v-137h-89v196h-131v-196h-89v135q0 267 50 425l57 57h-195v-40h-74v46q0 68 74 68zM317 617q-42 -141 -53 -346h124q-11 203 -52 346h-19z" />
    <glyph glyph-name="Adieresis.alt.swsh" horiz-adv-x="514" 
d="M84 691h300q55 -97 76 -224t21 -330v-137h-89v196h-131v-196h-89v135q0 267 50 425l57 57h-195v-40h-74v46q0 68 74 68zM317 617q-42 -141 -53 -346h124q-11 203 -52 346h-19zM249 724v109h62v-109h-62zM342 724v109h62v-109h-62z" />
    <glyph glyph-name="Aring.alt.swsh" horiz-adv-x="514" 
d="M252 778q0 31 22 53t53 22t53.5 -22t22.5 -53t-22 -52.5t-54 -21.5q-31 0 -53 21.5t-22 52.5zM293 778q0 -14 10 -24.5t24 -10.5t24.5 10.5t10.5 24.5t-10.5 24.5t-24.5 10.5t-24 -10.5t-10 -24.5zM84 691h300q55 -97 76 -224t21 -330v-137h-89v196h-131v-196h-89v135
q0 267 50 425l57 57h-195v-40h-74v46q0 68 74 68zM317 617q-42 -141 -53 -346h124q-11 203 -52 346h-19z" />
    <glyph glyph-name="Agrave.alt.swsh" horiz-adv-x="514" 
d="M386 765l-21 -51l-148 59l21 51zM84 691h300q55 -97 76 -224t21 -330v-137h-89v196h-131v-196h-89v135q0 267 50 425l57 57h-195v-40h-74v46q0 68 74 68zM317 617q-42 -141 -53 -346h124q-11 203 -52 346h-19z" />
    <glyph glyph-name="Atilde.alt.swsh" horiz-adv-x="514" 
d="M462 786l-48 -48q-26 -26 -63 -8l-79 40l-45 -46l-34 34l48 48q26 26 63 8l79 -40l45 46zM84 691h300q55 -97 76 -224t21 -330v-137h-89v196h-131v-196h-89v135q0 267 50 425l57 57h-195v-40h-74v46q0 68 74 68zM317 617q-42 -141 -53 -346h124q-11 203 -52 346h-19z" />
    <glyph glyph-name="Acircumflex.alt.swsh" horiz-adv-x="514" 
d="M238 717l-27 43l116 75l115 -75l-27 -43l-89 59zM84 691h300q55 -97 76 -224t21 -330v-137h-89v196h-131v-196h-89v135q0 267 50 425l57 57h-195v-40h-74v46q0 68 74 68zM317 617q-42 -141 -53 -346h124q-11 203 -52 346h-19z" />
    <glyph glyph-name="Aacute.alt.swsh" horiz-adv-x="514" 
d="M295 714l-20 49l147 61l21 -49zM84 691h300q55 -97 76 -224t21 -330v-137h-89v196h-131v-196h-89v135q0 267 50 425l57 57h-195v-40h-74v46q0 68 74 68zM317 617q-42 -141 -53 -346h124q-11 203 -52 346h-19z" />
    <glyph glyph-name="Amacron.alt.swsh" horiz-adv-x="514" 
d="M427 744h-201v52h201v-52zM84 691h300q55 -97 76 -224t21 -330v-137h-89v196h-131v-196h-89v135q0 267 50 425l57 57h-195v-40h-74v46q0 68 74 68zM317 617q-42 -141 -53 -346h124q-11 203 -52 346h-19z" />
    <glyph glyph-name="Abreve.alt.swsh" horiz-adv-x="514" 
d="M434 824v-48q0 -47 -50 -47h-115q-50 0 -50 47v48h53v-46h110v46h52zM84 691h300q55 -97 76 -224t21 -330v-137h-89v196h-131v-196h-89v135q0 267 50 425l57 57h-195v-40h-74v46q0 68 74 68zM317 617q-42 -141 -53 -346h124q-11 203 -52 346h-19z" />
    <glyph glyph-name="Aogonek.alt.swsh" horiz-adv-x="514" 
d="M84 691h300q55 -97 76 -224t21 -330v-137h-31l-24 -86h55v-55h-69q-51 0 -36 55l24 86h-8v196h-131v-196h-89v135q0 267 50 425l57 57h-195v-40h-74v46q0 68 74 68zM317 617q-42 -141 -53 -346h124q-11 203 -52 346h-19z" />
    <glyph glyph-name="Adieresis.swsh" horiz-adv-x="579" 
d="M449 359v258h-139v-258h139zM279 617h-195v-40h-74v46q0 68 74 68h386q67 0 67 -64v-627h-88v285h-139v-285h-88v560zM306 724v109h62v-109h-62zM399 724v109h62v-109h-62z" />
    <glyph glyph-name="Aring.swsh" horiz-adv-x="579" 
d="M449 359v258h-139v-258h139zM279 617h-195v-40h-74v46q0 68 74 68h386q67 0 67 -64v-627h-88v285h-139v-285h-88v560zM308 784q0 31 22 53t53 22t53.5 -22t22.5 -53t-22 -52.5t-54 -21.5q-31 0 -53 21.5t-22 52.5zM349 784q0 -14 10 -24.5t24 -10.5t24.5 10.5t10.5 24.5
t-10.5 24.5t-24.5 10.5t-24 -10.5t-10 -24.5z" />
    <glyph glyph-name="Agrave.swsh" horiz-adv-x="579" 
d="M438 765l-21 -51l-148 59l21 51zM449 359v258h-139v-258h139zM279 617h-195v-40h-74v46q0 68 74 68h386q67 0 67 -64v-627h-88v285h-139v-285h-88v560z" />
    <glyph glyph-name="Atilde.swsh" horiz-adv-x="579" 
d="M517 786l-48 -48q-26 -26 -63 -8l-79 40l-45 -46l-34 34l48 48q26 26 63 8l79 -40l45 46zM449 359v258h-139v-258h139zM279 617h-195v-40h-74v46q0 68 74 68h386q67 0 67 -64v-627h-88v285h-139v-285h-88v560z" />
    <glyph glyph-name="Acircumflex.swsh" horiz-adv-x="579" 
d="M295 717l-27 43l116 75l115 -75l-27 -43l-89 59zM449 359v258h-139v-258h139zM279 617h-195v-40h-74v46q0 68 74 68h386q67 0 67 -64v-627h-88v285h-139v-285h-88v560z" />
    <glyph glyph-name="Aacute.swsh" horiz-adv-x="579" 
d="M348 714l-20 49l147 61l21 -49zM449 359v258h-139v-258h139zM279 617h-195v-40h-74v46q0 68 74 68h386q67 0 67 -64v-627h-88v285h-139v-285h-88v560z" />
    <glyph glyph-name="Amacron.swsh" horiz-adv-x="579" 
d="M483 744h-201v52h201v-52zM449 359v258h-139v-258h139zM279 617h-195v-40h-74v46q0 68 74 68h386q67 0 67 -64v-627h-88v285h-139v-285h-88v560z" />
    <glyph glyph-name="Abreve.swsh" horiz-adv-x="579" 
d="M492 824v-48q0 -47 -50 -47h-115q-50 0 -50 47v48h53v-46h110v46h52zM449 359v258h-139v-258h139zM279 617h-195v-40h-74v46q0 68 74 68h386q67 0 67 -64v-627h-88v285h-139v-285h-88v560z" />
    <glyph glyph-name="Aogonek.swsh" horiz-adv-x="579" 
d="M279 617h-195v-40h-74v46q0 68 74 68h386q67 0 67 -64v-627h-28l-24 -86h55v-55h-69q-51 0 -36 55l24 86h-10v285h-139v-285h-88v560zM449 359v258h-139v-258h139z" />
    <glyph glyph-name="Ccedilla.swsh" horiz-adv-x="375" 
d="M225 -292h-74v46h56l-37 82l10 5h-75q-67 0 -67 63v723q0 64 67 64h177q67 0 67 -64v-221h-83v211h-140v-702h224v-74h-133l37 -81q5 -10 5 -23q0 -29 -34 -29z" />
    <glyph glyph-name="Cacute.swsh" horiz-adv-x="375" 
d="M158 714l-20 49l147 61l21 -49zM349 406h-83v211h-140v-702h224v-74h-245q-67 0 -67 63v723q0 64 67 64h177q67 0 67 -64v-221z" />
    <glyph glyph-name="Ccircumflex.swsh" horiz-adv-x="375" 
d="M109 717l-27 43l116 75l115 -75l-27 -43l-89 59zM349 406h-83v211h-140v-702h224v-74h-245q-67 0 -67 63v723q0 64 67 64h177q67 0 67 -64v-221z" />
    <glyph glyph-name="Cdotaccent.swsh" horiz-adv-x="375" 
d="M238 720h-85v112h85v-112zM349 406h-83v211h-140v-702h224v-74h-245q-67 0 -67 63v723q0 64 67 64h177q67 0 67 -64v-221z" />
    <glyph glyph-name="Ccaron.swsh" horiz-adv-x="375" 
d="M287 835l26 -42l-116 -76l-115 75l27 43l89 -59zM349 406h-83v211h-140v-702h224v-74h-245q-67 0 -67 63v723q0 64 67 64h177q67 0 67 -64v-221z" />
    <glyph glyph-name="Eth.swsh" horiz-adv-x="576" 
d="M84 691h387q67 0 67 -64v-564q0 -63 -67 -63h-249v326h-44v52h44v182l57 57h-195v-40h-74v46q0 68 74 68zM310 74h139v543h-139v-239h65v-52h-65v-252z" />
    <glyph glyph-name="Dcaron.swsh" horiz-adv-x="576" 
d="M472 835l26 -42l-116 -76l-115 75l27 43l89 -59zM310 74h139v543h-139v-543zM84 691h387q67 0 67 -64v-564q0 -63 -67 -63h-249v560l57 57h-195v-40h-74v46q0 68 74 68z" />
    <glyph glyph-name="Dcroat.swsh" horiz-adv-x="576" 
d="M84 691h387q67 0 67 -64v-564q0 -63 -67 -63h-249v326h-44v52h44v182l57 57h-195v-40h-74v46q0 68 74 68zM310 74h139v543h-139v-239h65v-52h-65v-252z" />
    <glyph glyph-name="Eacute.swsh" horiz-adv-x="509" 
d="M84 691h399v-74h-173v-230h173v-74h-173v-239h173v-74h-261v560l57 57h-195v-40h-74v46q0 68 74 68zM318 714l-20 49l147 61l21 -49z" />
    <glyph glyph-name="Edieresis.swsh" horiz-adv-x="509" 
d="M293 723v109h62v-109h-62zM386 723v109h62v-109h-62zM84 691h399v-74h-173v-230h173v-74h-173v-239h173v-74h-261v560l57 57h-195v-40h-74v46q0 68 74 68z" />
    <glyph glyph-name="Egrave.swsh" horiz-adv-x="509" 
d="M425 765l-21 -51l-148 59l21 51zM84 691h399v-74h-173v-230h173v-74h-173v-239h173v-74h-261v560l57 57h-195v-40h-74v46q0 68 74 68z" />
    <glyph glyph-name="Emacron.swsh" horiz-adv-x="509" 
d="M461 744h-201v52h201v-52zM84 691h399v-74h-173v-230h173v-74h-173v-239h173v-74h-261v560l57 57h-195v-40h-74v46q0 68 74 68z" />
    <glyph glyph-name="Edotaccent.swsh" horiz-adv-x="509" 
d="M404 723h-85v112h85v-112zM84 691h399v-74h-173v-230h173v-74h-173v-239h173v-74h-261v560l57 57h-195v-40h-74v46q0 68 74 68z" />
    <glyph glyph-name="Eogonek.swsh" horiz-adv-x="509" 
d="M84 691h399v-74h-173v-230h173v-74h-173v-239h173v-74h-31l-24 -86h55v-55h-69q-51 0 -36 55l24 86h-180v560l57 57h-195v-40h-74v46q0 68 74 68z" />
    <glyph glyph-name="Ecaron.swsh" horiz-adv-x="509" 
d="M441 835l26 -42l-116 -76l-115 75l27 43l89 -59zM84 691h399v-74h-173v-230h173v-74h-173v-239h173v-74h-261v560l57 57h-195v-40h-74v46q0 68 74 68z" />
    <glyph glyph-name="Gcircumflex.swsh" horiz-adv-x="365" 
d="M255 -85v134l-49 -49h-101q-67 0 -67 63v564q0 64 67 64h225v-74h-204v-543h129v295h79v-464q0 -64 -67 -64h-92v74h80zM110 717l-27 43l116 75l115 -75l-27 -43l-89 59z" />
    <glyph glyph-name="Gbreve.swsh" horiz-adv-x="365" 
d="M301 824v-48q0 -47 -50 -47h-115q-50 0 -50 47v48h53v-46h110v46h52zM255 -85v134l-49 -49h-101q-67 0 -67 63v564q0 64 67 64h225v-74h-204v-543h129v295h79v-464q0 -64 -67 -64h-92v74h80z" />
    <glyph glyph-name="Gdotaccent.swsh" horiz-adv-x="365" 
d="M235 723h-85v112h85v-112zM255 -85v134l-49 -49h-101q-67 0 -67 63v564q0 64 67 64h225v-74h-204v-543h129v295h79v-464q0 -64 -67 -64h-92v74h80z" />
    <glyph glyph-name="Gcommaaccent.swsh" horiz-adv-x="549" 
d="M84 691h367q67 0 67 -64v-165h-79v155h-129v-543h129v295h79v-369h-79v49l-49 -49h-101q-67 0 -67 63v497l57 57h-195v-40h-74v46q0 68 74 68zM410 -95l-42 -61h-29v126h71v-65z" />
    <glyph glyph-name="Hcircumflex.swsh" horiz-adv-x="576" 
d="M292 717l-27 43l116 75l115 -75l-27 -43l-89 59zM84 691h226v-298h138v298h89v-691h-89v319h-138v-319h-88v560l57 57h-195v-40h-74v46q0 68 74 68z" />
    <glyph glyph-name="Hbar.swsh" horiz-adv-x="393" 
d="M127 393h139v122h-139v-122zM39 -85v600h-30v50h30v126h88v-126h139v144q0 64 67 64h66v-74h-45v-134h29v-50h-29v-515h-88v319h-139v-414q0 -64 -67 -64h-67v74h46z" />
    <glyph glyph-name="Iacute.swsh" horiz-adv-x="349" 
d="M84 691h226v-691h-88v560l57 57h-195v-40h-74v46q0 68 74 68zM239 724l-20 49l147 61l21 -49z" />
    <glyph glyph-name="Icircumflex.swsh" horiz-adv-x="349" 
d="M178 717l-27 43l116 75l115 -75l-27 -43l-89 59zM84 691h226v-691h-88v560l57 57h-195v-40h-74v46q0 68 74 68z" />
    <glyph glyph-name="Idieresis.swsh" horiz-adv-x="349" 
d="M190 726v109h62v-109h-62zM283 726v109h62v-109h-62zM84 691h226v-691h-88v560l57 57h-195v-40h-74v46q0 68 74 68z" />
    <glyph glyph-name="Igrave.swsh" horiz-adv-x="349" 
d="M307 775l-21 -51l-148 59l21 51zM84 691h226v-691h-88v560l57 57h-195v-40h-74v46q0 68 74 68z" />
    <glyph glyph-name="Itilde.swsh" horiz-adv-x="349" 
d="M402 787l-48 -48q-26 -26 -63 -8l-79 40l-45 -46l-34 34l48 48q26 26 63 8l79 -40l45 46zM84 691h226v-691h-88v560l57 57h-195v-40h-74v46q0 68 74 68z" />
    <glyph glyph-name="Imacron.swsh" horiz-adv-x="349" 
d="M368 744h-201v52h201v-52zM84 691h226v-691h-88v560l57 57h-195v-40h-74v46q0 68 74 68z" />
    <glyph glyph-name="Iogonek.swsh" horiz-adv-x="349" 
d="M84 691h226v-691h-31l-24 -86h55v-55h-69q-51 0 -36 55l24 86h-7v560l57 57h-195v-40h-74v46q0 68 74 68z" />
    <glyph glyph-name="Idotaccent.swsh" horiz-adv-x="349" 
d="M310 723h-85v112h85v-112zM84 691h226v-691h-88v560l57 57h-195v-40h-74v46q0 68 74 68z" />
    <glyph glyph-name="Jcircumflex.swsh" horiz-adv-x="350" 
d="M222 560l57 57h-195v-40h-74v46q0 68 74 68h227v-786q0 -64 -67 -64h-102v74h80v645zM178 717l-27 43l116 75l115 -75l-27 -43l-89 59z" />
    <glyph glyph-name="Kcommaaccent.swsh" horiz-adv-x="563" 
d="M84 691h226v-298h85q38 62 38 198v100h88v-100q0 -157 -77 -225v-6q89 -77 89 -246v-114h-93v114q0 79 -11.5 124.5t-35.5 80.5h-83v-319h-88v560l57 57h-195v-40h-74v46q0 68 74 68zM415 -95l-42 -61h-29v126h71v-65z" />
    <glyph glyph-name="Lacute.swsh" horiz-adv-x="498" 
d="M84 691h227v-617h173v-74h-261v560l56 57h-195v-40h-74v46q0 68 74 68zM239 724l-20 49l147 61l21 -49z" />
    <glyph glyph-name="Lcommaaccent.swsh" horiz-adv-x="498" 
d="M406 -95l-42 -61h-29v126h71v-65zM84 691h227v-617h173v-74h-261v560l56 57h-195v-40h-74v46q0 68 74 68z" />
    <glyph glyph-name="Lcaron.swsh" horiz-adv-x="498" 
d="M423 626l-42 -61h-29v126h71v-65zM84 691h227v-617h173v-74h-261v560l56 57h-195v-40h-74v46q0 68 74 68z" />
    <glyph glyph-name="Ldot.swsh" horiz-adv-x="498" 
d="M451 296h-62v114h62v-114zM84 691h227v-617h173v-74h-261v560l56 57h-195v-40h-74v46q0 68 74 68z" />
    <glyph glyph-name="Lslash.swsh" horiz-adv-x="497" 
d="M378 453l-67 -22v-357h173v-74h-261v403l-46 -14v60l46 14v97l56 57h-195v-40h-74v46q0 68 74 68h227v-200l67 22v-60z" />
    <glyph glyph-name="Ntilde.swsh" horiz-adv-x="575" 
d="M454 691h82v-746l8 -30h44v-74h-51q-18 0 -30 5t-19 16t-10 19.5t-8 25.5l-165 599v-506h-83v560l57 57h-195v-40h-74v46q0 68 74 68h230l140 -508v508zM514 786l-48 -48q-26 -26 -63 -8l-79 40l-45 -46l-34 34l48 48q26 26 63 8l79 -40l45 46z" />
    <glyph glyph-name="Nacute.swsh" horiz-adv-x="575" 
d="M345 714l-20 49l147 61l21 -49zM454 691h82v-746l8 -30h44v-74h-51q-18 0 -30 5t-19 16t-10 19.5t-8 25.5l-165 599v-506h-83v560l57 57h-195v-40h-74v46q0 68 74 68h230l140 -508v508z" />
    <glyph glyph-name="Ncommaaccent.swsh" horiz-adv-x="575" 
d="M413 -95l-42 -61h-29v126h71v-65zM454 691h82v-746l8 -30h44v-74h-51q-18 0 -30 5t-19 16t-10 19.5t-8 25.5l-165 599v-506h-83v560l57 57h-195v-40h-74v46q0 68 74 68h230l140 -508v508z" />
    <glyph glyph-name="Ncaron.swsh" horiz-adv-x="575" 
d="M475 835l26 -42l-116 -76l-115 75l27 43l89 -59zM454 691h82v-746l8 -30h44v-74h-51q-18 0 -30 5t-19 16t-10 19.5t-8 25.5l-165 599v-506h-83v560l57 57h-195v-40h-74v46q0 68 74 68h230l140 -508v508z" />
    <glyph glyph-name="N.alt.swsh" horiz-adv-x="575" 
d="M454 691h82v-746l8 -30h44v-74h-51q-18 0 -30 5t-19 16t-10 19.5t-8 25.5l-165 599v-506h-83v560l57 57h-195v-40h-74v46q0 68 74 68h230l140 -508v508z" />
    <glyph glyph-name="Nacute.alt.swsh" horiz-adv-x="575" 
d="M454 691h82v-746l8 -30h44v-74h-51q-18 0 -30 5t-19 16t-10 19.5t-8 25.5l-165 599v-506h-83v560l57 57h-195v-40h-74v46q0 68 74 68h230l140 -508v508zM345 714l-20 49l147 61l21 -49z" />
    <glyph glyph-name="Ncommaaccent.alt.swsh" horiz-adv-x="575" 
d="M454 691h82v-746l8 -30h44v-74h-51q-18 0 -30 5t-19 16t-10 19.5t-8 25.5l-165 599v-506h-83v560l57 57h-195v-40h-74v46q0 68 74 68h230l140 -508v508zM413 -95l-42 -61h-29v126h71v-65z" />
    <glyph glyph-name="Ncaron.alt.swsh" horiz-adv-x="575" 
d="M454 691h82v-746l8 -30h44v-74h-51q-18 0 -30 5t-19 16t-10 19.5t-8 25.5l-165 599v-506h-83v560l57 57h-195v-40h-74v46q0 68 74 68h230l140 -508v508zM475 835l26 -42l-116 -76l-115 75l27 43l89 -59z" />
    <glyph glyph-name="Ntilde.alt.swsh" horiz-adv-x="575" 
d="M454 691h82v-746l8 -30h44v-74h-51q-18 0 -30 5t-19 16t-10 19.5t-8 25.5l-165 599v-506h-83v560l57 57h-195v-40h-74v46q0 68 74 68h230l140 -508v508zM514 786l-48 -48q-26 -26 -63 -8l-79 40l-45 -46l-34 34l48 48q26 26 63 8l79 -40l45 46z" />
    <glyph glyph-name="Odieresis.swsh" horiz-adv-x="392" 
d="M265 -85v702h-139v-702h139zM38 -96v723q0 64 67 64h182q67 0 67 -64v-723q0 -63 -67 -63h-182q-67 0 -67 63zM119 726v109h62v-109h-62zM212 726v109h62v-109h-62z" />
    <glyph glyph-name="Oslash.swsh" horiz-adv-x="392" 
d="M38 -96v723q0 64 67 64h182q34 0 51 -17l15 40h21l-23 -63q3 -11 3 -24v-723q0 -63 -67 -63h-182q-31 0 -49 15l-17 -47h-21l24 67q-4 11 -4 28zM126 617v-516l139 375v141h-139zM265 -85v504l-139 -376v-128h139z" />
    <glyph glyph-name="Otilde.swsh" horiz-adv-x="392" 
d="M331 786l-48 -48q-26 -26 -63 -8l-79 40l-45 -46l-34 34l48 48q26 26 63 8l79 -40l45 46zM265 -85v702h-139v-702h139zM38 -96v723q0 64 67 64h182q67 0 67 -64v-723q0 -63 -67 -63h-182q-67 0 -67 63z" />
    <glyph glyph-name="Oacute.swsh" horiz-adv-x="392" 
d="M156 724l-20 49l147 61l21 -49zM265 -85v702h-139v-702h139zM38 -96v723q0 64 67 64h182q67 0 67 -64v-723q0 -63 -67 -63h-182q-67 0 -67 63z" />
    <glyph glyph-name="Ocircumflex.swsh" horiz-adv-x="392" 
d="M108 721l-27 43l116 75l115 -75l-27 -43l-89 59zM265 -85v702h-139v-702h139zM38 -96v723q0 64 67 64h182q67 0 67 -64v-723q0 -63 -67 -63h-182q-67 0 -67 63z" />
    <glyph glyph-name="Ograve.swsh" horiz-adv-x="392" 
d="M251 775l-21 -51l-148 59l21 51zM265 -85v702h-139v-702h139zM38 -96v723q0 64 67 64h182q67 0 67 -64v-723q0 -63 -67 -63h-182q-67 0 -67 63z" />
    <glyph glyph-name="Omacron.swsh" horiz-adv-x="392" 
d="M297 744h-201v52h201v-52zM265 -85v702h-139v-702h139zM38 -96v723q0 64 67 64h182q67 0 67 -64v-723q0 -63 -67 -63h-182q-67 0 -67 63z" />
    <glyph glyph-name="Ohungarumlaut.swsh" horiz-adv-x="392" 
d="M265 -85v702h-139v-702h139zM38 -96v723q0 64 67 64h182q67 0 67 -64v-723q0 -63 -67 -63h-182q-67 0 -67 63zM132 713l-34 34l108 104l34 -35zM227 713l-34 34l108 104l34 -35z" />
    <glyph glyph-name="Racute.swsh" horiz-adv-x="573" 
d="M496 315q25 -16 31 -48l68 -352h47v-74h-66q-34 0 -47.5 16t-19.5 48l-76 391h-123v-296h-88v560l57 57h-195v-40h-74v46q0 68 74 68h384q66 0 66 -64v-235q0 -33 -31 -43l-34 -9v-7zM446 370v247h-136v-247h136zM343 714l-20 49l147 61l21 -49z" />
    <glyph glyph-name="Rcommaaccent.swsh" horiz-adv-x="573" 
d="M419 -95l-42 -61h-29v126h71v-65zM496 315q25 -16 31 -48l68 -352h47v-74h-66q-34 0 -47.5 16t-19.5 48l-76 391h-123v-296h-88v560l57 57h-195v-40h-74v46q0 68 74 68h384q66 0 66 -64v-235q0 -33 -31 -43l-34 -9v-7zM446 370v247h-136v-247h136z" />
    <glyph glyph-name="Rcaron.swsh" horiz-adv-x="573" 
d="M465 835l26 -42l-116 -76l-115 75l27 43l89 -59zM496 315q25 -16 31 -48l68 -352h47v-74h-66q-34 0 -47.5 16t-19.5 48l-76 391h-123v-296h-88v560l57 57h-195v-40h-74v46q0 68 74 68h384q66 0 66 -64v-235q0 -33 -31 -43l-34 -9v-7zM446 370v247h-136v-247h136z" />
    <glyph glyph-name="Sacute.swsh" horiz-adv-x="375" 
d="M345 130v-226q0 -63 -67 -63h-245v74h223v236l-188 143q-35 26 -35 87v246q0 64 67 64h178q67 0 67 -64v-189h-83v179h-140v-257l188 -143q35 -26 35 -87zM148 724l-20 49l147 61l21 -49z" />
    <glyph glyph-name="Scircumflex.swsh" horiz-adv-x="375" 
d="M345 130v-226q0 -63 -67 -63h-245v74h223v236l-188 143q-35 26 -35 87v246q0 64 67 64h178q67 0 67 -64v-189h-83v179h-140v-257l188 -143q35 -26 35 -87zM103 720l-27 43l116 75l115 -75l-27 -43l-89 59z" />
    <glyph glyph-name="Scedilla.swsh" horiz-adv-x="375" 
d="M219 -292h-74v46h56l-37 82l10 5h-141v74h223v236l-188 143q-35 26 -35 87v246q0 64 67 64h178q67 0 67 -64v-189h-83v179h-140v-257l188 -143q35 -26 35 -87v-226q0 -63 -67 -63h-67l37 -81q5 -10 5 -23q0 -29 -34 -29z" />
    <glyph glyph-name="Scaron.swsh" horiz-adv-x="375" 
d="M345 130v-226q0 -63 -67 -63h-245v74h223v236l-188 143q-35 26 -35 87v246q0 64 67 64h178q67 0 67 -64v-189h-83v179h-140v-257l188 -143q35 -26 35 -87zM281 835l26 -42l-116 -76l-115 75l27 43l89 -59z" />
    <glyph glyph-name="Tcommaaccent.swsh" horiz-adv-x="439" 
d="M312 -290h-74v46h56l-37 82l10 5q-45 10 -45 62v655l57 57h-195v-40h-74v46q0 68 74 68h335v-74h-108v-702h55v-74h-61l36 -79q5 -10 5 -23q0 -29 -34 -29z" />
    <glyph glyph-name="Tcaron.swsh" horiz-adv-x="439" 
d="M361 835l26 -42l-116 -76l-115 75l27 43l89 -59zM222 -95v655l57 57h-195v-40h-74v46q0 68 74 68h335v-74h-108v-702h55v-74h-77q-67 0 -67 64z" />
    <glyph glyph-name="Tbar.swsh" horiz-adv-x="439" 
d="M222 -95v481h-62v52h62v122l57 57h-195v-40h-74v46q0 68 74 68h335v-74h-108v-179h64v-52h-64v-471h55v-74h-77q-67 0 -67 64z" />
    <glyph glyph-name="Udieresis.swsh" horiz-adv-x="577" 
d="M84 691h226v-617h139v617h89v-628q0 -63 -67 -63h-182q-67 0 -67 63v497l57 57h-195v-40h-74v46q0 68 74 68zM301 724v109h62v-109h-62zM394 724v109h62v-109h-62z" />
    <glyph glyph-name="Uacute.swsh" horiz-adv-x="577" 
d="M364 714l-20 49l147 61l21 -49zM84 691h226v-617h139v617h89v-628q0 -63 -67 -63h-182q-67 0 -67 63v497l57 57h-195v-40h-74v46q0 68 74 68z" />
    <glyph glyph-name="Ucircumflex.swsh" horiz-adv-x="577" 
d="M291 717l-27 43l116 75l115 -75l-27 -43l-89 59zM84 691h226v-617h139v617h89v-628q0 -63 -67 -63h-182q-67 0 -67 63v497l57 57h-195v-40h-74v46q0 68 74 68z" />
    <glyph glyph-name="Ugrave.swsh" horiz-adv-x="577" 
d="M84 691h226v-617h139v617h89v-628q0 -63 -67 -63h-182q-67 0 -67 63v497l57 57h-195v-40h-74v46q0 68 74 68zM435 775l-21 -51l-148 59l21 51z" />
    <glyph glyph-name="Umacron.swsh" horiz-adv-x="577" 
d="M482 744h-201v52h201v-52zM84 691h226v-617h139v617h89v-628q0 -63 -67 -63h-182q-67 0 -67 63v497l57 57h-195v-40h-74v46q0 68 74 68z" />
    <glyph glyph-name="Ubreve.swsh" horiz-adv-x="577" 
d="M487 824v-48q0 -47 -50 -47h-115q-50 0 -50 47v48h53v-46h110v46h52zM84 691h226v-617h139v617h89v-628q0 -63 -67 -63h-182q-67 0 -67 63v497l57 57h-195v-40h-74v46q0 68 74 68z" />
    <glyph glyph-name="Uring.swsh" horiz-adv-x="577" 
d="M306 784q0 31 22 53t53 22t53.5 -22t22.5 -53t-22 -52.5t-54 -21.5q-31 0 -53 21.5t-22 52.5zM347 784q0 -14 10 -24.5t24 -10.5t24.5 10.5t10.5 24.5t-10.5 24.5t-24.5 10.5t-24 -10.5t-10 -24.5zM84 691h226v-617h139v617h89v-628q0 -63 -67 -63h-182q-67 0 -67 63v497
l57 57h-195v-40h-74v46q0 68 74 68z" />
    <glyph glyph-name="Uhungarumlaut.swsh" horiz-adv-x="577" 
d="M84 691h226v-617h139v617h89v-628q0 -63 -67 -63h-182q-67 0 -67 63v497l57 57h-195v-40h-74v46q0 68 74 68zM327 713l-34 34l108 104l34 -35zM422 713l-34 34l108 104l34 -35z" />
    <glyph glyph-name="Uogonek.swsh" horiz-adv-x="577" 
d="M84 691h226v-617h139v617h89v-628q0 -63 -67 -63h-51l-24 -86h55v-55h-69q-51 0 -36 55l24 86h-81q-67 0 -67 63v497l57 57h-195v-40h-74v46q0 68 74 68z" />
    <glyph glyph-name="Wgrave.swsh" horiz-adv-x="709" 
d="M84 691h227v-188q0 -289 40 -430h13q42 164 42 365v253h89v-253q0 -205 43 -365h12q40 141 40 430v188h89v-188q0 -328 -89 -503h-88q-38 126 -47 230h-9q-9 -104 -47 -230h-88q-89 175 -89 503v57l57 57h-195v-40h-74v46q0 68 74 68zM518 775l-21 -51l-148 59l21 51z
" />
    <glyph glyph-name="Wacute.swsh" horiz-adv-x="709" 
d="M406 724l-20 49l147 61l21 -49zM84 691h227v-188q0 -289 40 -430h13q42 164 42 365v253h89v-253q0 -205 43 -365h12q40 141 40 430v188h89v-188q0 -328 -89 -503h-88q-38 126 -47 230h-9q-9 -104 -47 -230h-88q-89 175 -89 503v57l57 57h-195v-40h-74v46q0 68 74 68z" />
    <glyph glyph-name="Wdieresis.swsh" horiz-adv-x="709" 
d="M373 723v109h62v-109h-62zM466 723v109h62v-109h-62zM84 691h227v-188q0 -289 40 -430h13q42 164 42 365v253h89v-253q0 -205 43 -365h12q40 141 40 430v188h89v-188q0 -328 -89 -503h-88q-38 126 -47 230h-9q-9 -104 -47 -230h-88q-89 175 -89 503v57l57 57h-195v-40
h-74v46q0 68 74 68z" />
    <glyph glyph-name="Zacute.swsh" horiz-adv-x="328" 
d="M301 -159h-276v74l196 702h-195v74h277v-73l-197 -703h195v-74zM127 724l-20 49l147 61l21 -49z" />
    <glyph glyph-name="Zdotaccent.swsh" horiz-adv-x="328" 
d="M301 -159h-276v74l196 702h-195v74h277v-73l-197 -703h195v-74zM207 723h-85v112h85v-112z" />
    <glyph glyph-name="Zcaron.swsh" horiz-adv-x="328" 
d="M301 -159h-276v74l196 702h-195v74h277v-73l-197 -703h195v-74zM254 835l26 -42l-116 -76l-115 75l27 43l89 -59z" />
    <glyph glyph-name="uni01CD.swsh" horiz-adv-x="579" 
d="M449 359v258h-139v-258h139zM279 617h-195v-40h-74v46q0 68 74 68h386q67 0 67 -64v-627h-88v285h-139v-285h-88v560zM471 838l26 -42l-116 -76l-115 75l27 43l89 -59z" />
    <glyph glyph-name="Scommaaccent.swsh" horiz-adv-x="375" 
d="M345 130v-226q0 -63 -67 -63h-245v74h223v236l-188 143q-35 26 -35 87v246q0 64 67 64h178q67 0 67 -64v-189h-83v179h-140v-257l188 -143q35 -26 35 -87zM223 -238l-42 -61h-29v126h71v-65z" />
    <glyph glyph-name="uni021A.swsh" horiz-adv-x="433" 
d="M222 -95v655l57 57h-195v-40h-74v46q0 68 74 68h335v-74h-108v-702h55v-74h-77q-67 0 -67 64zM321 -238l-42 -61h-29v126h71v-65z" />
    <glyph glyph-name="uni01CD.alt.swsh" horiz-adv-x="514" 
d="M84 691h300q55 -97 76 -224t21 -330v-137h-89v196h-131v-196h-89v135q0 267 50 425l57 57h-195v-40h-74v46q0 68 74 68zM317 617q-42 -141 -53 -346h124q-11 203 -52 346h-19zM416 835l26 -42l-116 -76l-115 75l27 43l89 -59z" />
    <glyph glyph-name="afii10050.swsh" horiz-adv-x="495" 
d="M232 560l57 57h-205v-40h-74v46q0 68 74 68h397v-74h-160v-712q0 -64 -67 -64h-102v74h80v645z" />
    <glyph glyph-name="afii10055.swsh" horiz-adv-x="349" 
d="M84 691h226v-691h-88v560l57 57h-195v-40h-74v46q0 68 74 68z" />
    <glyph glyph-name="afii10052.swsh" horiz-adv-x="495" 
d="M249 724l-20 49l147 61l21 -49zM232 560l57 57h-205v-40h-74v46q0 68 74 68h397v-74h-160v-712q0 -64 -67 -64h-102v74h80v645z" />
    <glyph glyph-name="afii10056.swsh" horiz-adv-x="349" 
d="M190 718v109h62v-109h-62zM283 718v109h62v-109h-62zM84 691h226v-691h-88v560l57 57h-195v-40h-74v46q0 68 74 68z" />
    <glyph glyph-name="afii10061.swsh" horiz-adv-x="563" 
d="M84 691h226v-298h85q38 62 38 198v100h88v-100q0 -157 -77 -225v-6q89 -77 89 -246v-114h-93v114q0 79 -11.5 124.5t-35.5 80.5h-83v-319h-88v560l57 57h-195v-40h-74v46q0 68 74 68zM348 724l-20 49l147 61l21 -49z" />
    <glyph glyph-name="afii10062.swsh" horiz-adv-x="568" 
d="M484 827v-48q0 -47 -50 -47h-115q-50 0 -50 47v48h53v-46h110v46h52zM84 691h226v-523h131v523h88v-787q0 -63 -67 -63h-232v74h211v179h-152q-30 0 -48.5 18.5t-18.5 45.5v402l57 57h-195v-40h-74v46q0 68 74 68z" />
    <glyph glyph-name="Ebreve.swsh" horiz-adv-x="509" 
d="M84 691h399v-74h-173v-230h173v-74h-173v-239h173v-74h-261v560l57 57h-195v-40h-74v46q0 68 74 68zM462 827v-48q0 -47 -50 -47h-115q-50 0 -50 47v48h53v-46h110v46h52z" />
    <glyph glyph-name="Thorn.swsh" horiz-adv-x="544" 
d="M437 211v296h-126v-296h126zM84 718h227v-142h152q63 0 63 -61v-313q0 -60 -63 -60h-152v-142h-89v587l57 57h-195v-40h-74v46q0 68 74 68z" />
    <glyph glyph-name="aacute.terminal" horiz-adv-x="763" 
d="M227 162l-104 -162h-24q-28 0 -44.5 17.5t-16.5 42.5v386q0 26 16.5 43t44.5 17h213v-438h367v41h74v-41q0 -68 -74 -68h-452v162zM123 438v-370l104 162v208h-104zM148 563l-28 45l133 87l29 -45z" />
    <glyph glyph-name="abreve.terminal" horiz-adv-x="763" 
d="M227 162l-104 -162h-24q-28 0 -44.5 17.5t-16.5 42.5v386q0 26 16.5 43t44.5 17h213v-438h367v41h74v-41q0 -68 -74 -68h-452v162zM123 438v-370l104 162v208h-104zM282 673v-48q0 -47 -50 -47h-115q-50 0 -50 47v48h53v-46h110v46h52z" />
    <glyph glyph-name="acircumflex.terminal" horiz-adv-x="763" 
d="M227 162l-104 -162h-24q-28 0 -44.5 17.5t-16.5 42.5v386q0 26 16.5 43t44.5 17h213v-438h367v41h74v-41q0 -68 -74 -68h-452v162zM123 438v-370l104 162v208h-104zM89 566l-27 43l116 75l115 -75l-27 -43l-89 59z" />
    <glyph glyph-name="adieresis.terminal" horiz-adv-x="763" 
d="M227 162l-104 -162h-24q-28 0 -44.5 17.5t-16.5 42.5v386q0 26 16.5 43t44.5 17h213v-438h367v41h74v-41q0 -68 -74 -68h-452v162zM123 438v-370l104 162v208h-104zM97 572v109h62v-109h-62zM190 572v109h62v-109h-62z" />
    <glyph glyph-name="agrave.terminal" horiz-adv-x="763" 
d="M227 162l-104 -162h-24q-28 0 -44.5 17.5t-16.5 42.5v386q0 26 16.5 43t44.5 17h213v-438h367v41h74v-41q0 -68 -74 -68h-452v162zM123 438v-370l104 162v208h-104zM239 609l-29 -46l-133 87l28 46z" />
    <glyph glyph-name="amacron.terminal" horiz-adv-x="763" 
d="M227 162l-104 -162h-24q-28 0 -44.5 17.5t-16.5 42.5v386q0 26 16.5 43t44.5 17h213v-438h367v41h74v-41q0 -68 -74 -68h-452v162zM123 438v-370l104 162v208h-104zM275 594h-201v52h201v-52z" />
    <glyph glyph-name="aogonek.terminal" horiz-adv-x="763" 
d="M312 -141h-69q-51 0 -36 55l24 86h-4v162l-104 -162h-24q-28 0 -44.5 17.5t-16.5 42.5v386q0 26 16.5 43t44.5 17h213v-438h367v41h74v-41q0 -68 -74 -68h-398l-24 -86h55v-55zM123 438v-370l104 162v208h-104z" />
    <glyph glyph-name="aring.terminal" horiz-adv-x="763" 
d="M227 162l-104 -162h-24q-28 0 -44.5 17.5t-16.5 42.5v386q0 26 16.5 43t44.5 17h213v-438h367v41h74v-41q0 -68 -74 -68h-452v162zM123 438v-370l104 162v208h-104zM103 627q0 31 22 53t53 22t53.5 -22t22.5 -53t-22 -52.5t-54 -21.5q-31 0 -53 21.5t-22 52.5zM144 627
q0 -14 10 -24.5t24 -10.5t24.5 10.5t10.5 24.5t-10.5 24.5t-24.5 10.5t-24 -10.5t-10 -24.5z" />
    <glyph glyph-name="atilde.terminal" horiz-adv-x="763" 
d="M227 162l-104 -162h-24q-28 0 -44.5 17.5t-16.5 42.5v386q0 26 16.5 43t44.5 17h213v-438h367v41h74v-41q0 -68 -74 -68h-452v162zM123 438v-370l104 162v208h-104zM328 635l-48 -48q-26 -26 -63 -8l-79 40l-45 -46l-34 34l48 48q26 26 63 8l79 -40l45 46z" />
    <glyph glyph-name="ccedilla.terminal" horiz-adv-x="719" 
d="M635 0h-533q-31 0 -47.5 16.5t-16.5 43.5v386q0 27 16.5 43.5t47.5 16.5h166v-68h-145v-370h512v41h74v-41q0 -68 -74 -68zM192 -141h-74v46h56l-37 82l40 20l44 -96q5 -10 5 -23q0 -29 -34 -29z" />
    <glyph glyph-name="cacute.terminal" horiz-adv-x="719" 
d="M635 0h-533q-31 0 -47.5 16.5t-16.5 43.5v386q0 27 16.5 43.5t47.5 16.5h166v-68h-145v-370h512v41h74v-41q0 -68 -74 -68zM106 563l-28 45l133 87l29 -45z" />
    <glyph glyph-name="cdotaccent.terminal" horiz-adv-x="719" 
d="M635 0h-533q-31 0 -47.5 16.5t-16.5 43.5v386q0 27 16.5 43.5t47.5 16.5h166v-68h-145v-370h512v41h74v-41q0 -68 -74 -68zM203 572h-85v112h85v-112z" />
    <glyph glyph-name="dcaron.terminal" horiz-adv-x="765" 
d="M229 0v167l-107 -167h-21q-31 0 -47.5 16.5t-16.5 43.5v386q0 27 16.5 43.5t47.5 16.5h128v212h85v-650h367v41h74v-41q0 -68 -74 -68h-452zM122 68l107 167v203h-107v-370zM406 653l-42 -61h-29v126h71v-65z" />
    <glyph glyph-name="dcroat.terminal" horiz-adv-x="765" 
d="M229 0v167l-107 -167h-21q-31 0 -47.5 16.5t-16.5 43.5v386q0 27 16.5 43.5t47.5 16.5h128v78h-82v53h82v81h85v-81h47v-53h-47v-516h367v41h74v-41q0 -68 -74 -68h-452zM122 68l107 167v203h-107v-370z" />
    <glyph glyph-name="eacute.terminal" horiz-adv-x="757" 
d="M310 446v-87l-187 -198v-93h550v41h74v-41q0 -68 -74 -68h-571q-31 0 -47.5 17t-16.5 44v385q0 27 16.5 43.5t47.5 16.5h143q32 0 48.5 -16.5t16.5 -43.5zM224 346v92h-101v-201zM114 563l-28 45l133 87l29 -45z" />
    <glyph glyph-name="ebreve.terminal" horiz-adv-x="757" 
d="M310 446v-87l-187 -198v-93h550v41h74v-41q0 -68 -74 -68h-571q-31 0 -47.5 17t-16.5 44v385q0 27 16.5 43.5t47.5 16.5h143q32 0 48.5 -16.5t16.5 -43.5zM224 346v92h-101v-201zM289 663v-48q0 -47 -50 -47h-115q-50 0 -50 47v48h53v-46h110v46h52z" />
    <glyph glyph-name="ecaron.terminal" horiz-adv-x="757" 
d="M310 446v-87l-187 -198v-93h550v41h74v-41q0 -68 -74 -68h-571q-31 0 -47.5 17t-16.5 44v385q0 27 16.5 43.5t47.5 16.5h143q32 0 48.5 -16.5t16.5 -43.5zM224 346v92h-101v-201zM255 684l26 -42l-116 -76l-115 75l27 43l89 -59z" />
    <glyph glyph-name="ecircumflex.terminal" horiz-adv-x="757" 
d="M310 446v-87l-187 -198v-93h550v41h74v-41q0 -68 -74 -68h-571q-31 0 -47.5 17t-16.5 44v385q0 27 16.5 43.5t47.5 16.5h143q32 0 48.5 -16.5t16.5 -43.5zM224 346v92h-101v-201zM79 566l-27 43l116 75l115 -75l-27 -43l-89 59z" />
    <glyph glyph-name="edieresis.terminal" horiz-adv-x="757" 
d="M310 446v-87l-187 -198v-93h550v41h74v-41q0 -68 -74 -68h-571q-31 0 -47.5 17t-16.5 44v385q0 27 16.5 43.5t47.5 16.5h143q32 0 48.5 -16.5t16.5 -43.5zM224 346v92h-101v-201zM106 572v109h62v-109h-62zM199 572v109h62v-109h-62z" />
    <glyph glyph-name="edotaccent.terminal" horiz-adv-x="757" 
d="M310 446v-87l-187 -198v-93h550v41h74v-41q0 -68 -74 -68h-571q-31 0 -47.5 17t-16.5 44v385q0 27 16.5 43.5t47.5 16.5h143q32 0 48.5 -16.5t16.5 -43.5zM224 346v92h-101v-201zM207 572h-85v112h85v-112z" />
    <glyph glyph-name="egrave.terminal" horiz-adv-x="757" 
d="M310 446v-87l-187 -198v-93h550v41h74v-41q0 -68 -74 -68h-571q-31 0 -47.5 17t-16.5 44v385q0 27 16.5 43.5t47.5 16.5h143q32 0 48.5 -16.5t16.5 -43.5zM224 346v92h-101v-201zM219 609l-29 -46l-133 87l28 46z" />
    <glyph glyph-name="emacron.terminal" horiz-adv-x="757" 
d="M310 446v-87l-187 -198v-93h550v41h74v-41q0 -68 -74 -68h-571q-31 0 -47.5 17t-16.5 44v385q0 27 16.5 43.5t47.5 16.5h143q32 0 48.5 -16.5t16.5 -43.5zM224 346v92h-101v-201zM277 594h-201v52h201v-52z" />
    <glyph glyph-name="eogonek.terminal" horiz-adv-x="757" 
d="M299 -141h-69q-51 0 -36 55l24 86h-116q-31 0 -47.5 17t-16.5 44v385q0 27 16.5 43.5t47.5 16.5h143q32 0 48.5 -16.5t16.5 -43.5v-87l-187 -198v-93h550v41h74v-41q0 -68 -74 -68h-405l-24 -86h55v-55zM224 346v92h-101v-201z" />
    <glyph glyph-name="gdotaccent.terminal" horiz-adv-x="766" 
d="M230 68v99l-107 -167h-21q-31 0 -47.5 17t-16.5 44v385q0 27 16.5 43.5t47.5 16.5h213v-438h367v41h74v-41q0 -68 -74 -68h-367v-98q0 -27 -17 -44t-47 -17h-77l-48 43v21zM230 235v203h-107v-370zM230 -91v91l-47 -74l18 -17h29zM208 572h-85v112h85v-112z" />
    <glyph glyph-name="hbar.terminal" horiz-adv-x="783" 
d="M247 402l-106 -167v-235h-85v585h-46v52h46v81h85v-81h85v-52h-85v-282l106 167h21q31 0 47.5 -16.5t16.5 -43.5v-342h367v41h74v-41q0 -68 -74 -68h-452v402z" />
    <glyph glyph-name="hcircumflex.terminal" horiz-adv-x="766" 
d="M-6 736l-27 43l116 75l115 -75l-27 -43l-89 59zM230 438l-106 -167v-271h-85v718h85v-379l106 167h21q31 0 47.5 -16.5t16.5 -43.5v-378h367v41h74v-41q0 -68 -74 -68h-452v438z" />
    <glyph glyph-name="iacute.terminal" horiz-adv-x="597" 
d="M64 563l-28 45l133 87l29 -45zM513 0h-424q-50 0 -50 48v458h85v-438h389v41h74v-41q0 -68 -74 -68z" />
    <glyph glyph-name="igrave.terminal" horiz-adv-x="597" 
d="M138 609l-29 -46l-133 87l28 46zM513 0h-424q-50 0 -50 48v458h85v-438h389v41h74v-41q0 -68 -74 -68z" />
    <glyph glyph-name="icircumflex.terminal" horiz-adv-x="597" 
d="M-6 566l-27 43l116 75l115 -75l-27 -43l-89 59zM513 0h-424q-50 0 -50 48v458h85v-438h389v41h74v-41q0 -68 -74 -68z" />
    <glyph glyph-name="idieresis.terminal" horiz-adv-x="597" 
d="M4 572v109h62v-109h-62zM97 572v109h62v-109h-62zM513 0h-424q-50 0 -50 48v458h85v-438h389v41h74v-41q0 -68 -74 -68z" />
    <glyph glyph-name="imacron.terminal" horiz-adv-x="597" 
d="M194 594h-201v52h201v-52zM513 0h-424q-50 0 -50 48v458h85v-438h389v41h74v-41q0 -68 -74 -68z" />
    <glyph glyph-name="iogonek.terminal" horiz-adv-x="595" 
d="M156 -141h-69q-51 0 -36 55l24 87q-38 6 -38 47v458h85v-438h389v41h74v-41q0 -68 -74 -68h-386l-24 -86h55v-55zM122 568h-85v119h85v-119z" />
    <glyph glyph-name="itilde.terminal" horiz-adv-x="597" 
d="M228 635l-48 -48q-26 -26 -63 -8l-79 40l-45 -46l-34 34l48 48q26 26 63 8l79 -40l45 46zM513 0h-424q-50 0 -50 48v458h85v-438h389v41h74v-41q0 -68 -74 -68z" />
    <glyph glyph-name="lcaron.terminal" horiz-adv-x="601" 
d="M517 0h-429q-50 0 -50 48v670h85v-650h394v41h74v-41q0 -68 -74 -68zM218 646l-42 -61h-29v126h71v-65z" />
    <glyph glyph-name="lslash.terminal" horiz-adv-x="607" 
d="M523 0h-429q-50 0 -50 48v336l-34 -17v60l34 17v274h85v-232l41 20v-59l-41 -21v-358h394v41h74v-41q0 -68 -74 -68z" />
    <glyph glyph-name="nacute.terminal" horiz-adv-x="766" 
d="M116 563l-28 45l133 87l29 -45zM230 438l-106 -167v-271h-85v506h85v-167l106 167h21q31 0 47.5 -16.5t16.5 -43.5v-378h367v41h74v-41q0 -68 -74 -68h-452v438z" />
    <glyph glyph-name="ncaron.terminal" horiz-adv-x="766" 
d="M249 684l26 -42l-116 -76l-115 75l27 43l89 -59zM230 438l-106 -167v-271h-85v506h85v-167l106 167h21q31 0 47.5 -16.5t16.5 -43.5v-378h367v41h74v-41q0 -68 -74 -68h-452v438z" />
    <glyph glyph-name="ncommaaccent.terminal" horiz-adv-x="766" 
d="M205 -95l-42 -61h-29v126h71v-65zM230 438l-106 -167v-271h-85v506h85v-167l106 167h21q31 0 47.5 -16.5t16.5 -43.5v-378h367v41h74v-41q0 -68 -74 -68h-452v438z" />
    <glyph glyph-name="ntilde.terminal" horiz-adv-x="766" 
d="M306 635l-48 -48q-26 -26 -63 -8l-79 40l-45 -46l-34 34l48 48q26 26 63 8l79 -40l45 46zM230 438l-106 -167v-271h-85v506h85v-167l106 167h21q31 0 47.5 -16.5t16.5 -43.5v-378h367v41h74v-41q0 -68 -74 -68h-452v438z" />
    <glyph glyph-name="oacute.terminal" horiz-adv-x="764" 
d="M38 60v386q0 27 16.5 43.5t47.5 16.5h21v-438h107v323l-65 47v21l65 47h20q51 0 61 -41h369v41h74v-41q0 -68 -74 -68h-366v-337q0 -27 -16.5 -43.5t-47.5 -16.5h-148q-31 0 -47.5 16.5t-16.5 43.5zM166 563l-28 45l133 87l29 -45z" />
    <glyph glyph-name="ograve.terminal" horiz-adv-x="764" 
d="M38 60v386q0 27 16.5 43.5t47.5 16.5h21v-438h107v323l-65 47v21l65 47h20q51 0 61 -41h369v41h74v-41q0 -68 -74 -68h-366v-337q0 -27 -16.5 -43.5t-47.5 -16.5h-148q-31 0 -47.5 16.5t-16.5 43.5zM209 609l-29 -46l-133 87l28 46z" />
    <glyph glyph-name="ocircumflex.terminal" horiz-adv-x="764" 
d="M38 60v386q0 27 16.5 43.5t47.5 16.5h21v-438h107v323l-65 47v21l65 47h20q51 0 61 -41h369v41h74v-41q0 -68 -74 -68h-366v-337q0 -27 -16.5 -43.5t-47.5 -16.5h-148q-31 0 -47.5 16.5t-16.5 43.5zM88 566l-27 43l116 75l115 -75l-27 -43l-89 59z" />
    <glyph glyph-name="oslash.terminal" horiz-adv-x="763" 
d="M37 60v386q0 27 16.5 43.5t47.5 16.5h21v-328l106 214l-64 46v21l65 47h20q16 0 32 -7l18 37h35l-29 -59q4 -8 5 -12h369v41h74v-41q0 -68 -74 -68h-366v-337q0 -27 -16.5 -43.5t-47.5 -16.5h-148q-19 0 -30 5l-17 -35h-35l27 55q-9 13 -9 35zM122 68h107v255l-107 -216
v-39z" />
    <glyph glyph-name="ohungarumlaut.terminal" horiz-adv-x="764" 
d="M38 60v386q0 27 16.5 43.5t47.5 16.5h21v-438h107v323l-65 47v21l65 47h20q51 0 61 -41h369v41h74v-41q0 -68 -74 -68h-366v-337q0 -27 -16.5 -43.5t-47.5 -16.5h-148q-31 0 -47.5 16.5t-16.5 43.5zM136 553l-40 28l91 126l40 -29zM224 553l-40 28l91 125l40 -28z" />
    <glyph glyph-name="scedilla.terminal" horiz-adv-x="735" 
d="M199 199l-121 50q-25 10 -34 26.5t-9 45.5v125q0 27 16.5 43.5t46.5 16.5h177v-68h-155v-118l121 -50q25 -11 34 -27t9 -45v-130h367v41h74v-41q0 -68 -74 -68h-475l41 -89q5 -10 5 -23q0 -29 -34 -29h-74v46h56l-37 82l26 13h-124v68h164v131z" />
    <glyph glyph-name="scommaaccent.terminal" horiz-adv-x="735" 
d="M190 -95l-42 -61h-29v126h71v-65zM199 199l-121 50q-25 10 -34 26.5t-9 45.5v125q0 27 16.5 43.5t46.5 16.5h177v-68h-155v-118l121 -50q25 -11 34 -27t9 -45v-130h367v41h74v-41q0 -68 -74 -68h-616v68h164v131z" />
    <glyph glyph-name="tbar.terminal" horiz-adv-x="674" 
d="M36 60v538h84v-92h103v-68h-103v-85h77v-52h-77v-233h470v41h74v-41q0 -68 -74 -68h-490q-31 0 -47.5 16.5t-16.5 43.5z" />
    <glyph glyph-name="tcaron.terminal" horiz-adv-x="674" 
d="M120 506h473v41h74v-41q0 -68 -74 -68h-417l-56 41v-411h103v-68h-123q-31 0 -47.5 16.5t-16.5 43.5v538h84v-92zM215 626l-42 -61h-29v126h71v-65z" />
    <glyph glyph-name="tcommaaccent.terminal" horiz-adv-x="674" 
d="M174 -141h-74v46h56l-37 82l26 13h-45q-31 0 -47.5 16.5t-16.5 43.5v538h84v-92h473v41h74v-41q0 -68 -74 -68h-417l-56 41v-411h103v-68h-61l41 -89q5 -10 5 -23q0 -29 -34 -29z" />
    <glyph glyph-name="uacute.terminal" horiz-adv-x="765" 
d="M123 68l106 167v271h85v-438h367v41h74v-41q0 -68 -74 -68h-452v167l-106 -167h-21q-31 0 -47.5 16.5t-16.5 43.5v446h85v-438zM116 563l-28 45l133 87l29 -45z" />
    <glyph glyph-name="ubreve.terminal" horiz-adv-x="765" 
d="M123 68l106 167v271h85v-438h367v41h74v-41q0 -68 -74 -68h-452v167l-106 -167h-21q-31 0 -47.5 16.5t-16.5 43.5v446h85v-438zM283 673v-48q0 -47 -50 -47h-115q-50 0 -50 47v48h53v-46h110v46h52z" />
    <glyph glyph-name="ucircumflex.terminal" horiz-adv-x="765" 
d="M123 68l106 167v271h85v-438h367v41h74v-41q0 -68 -74 -68h-452v167l-106 -167h-21q-31 0 -47.5 16.5t-16.5 43.5v446h85v-438zM87 566l-27 43l116 75l115 -75l-27 -43l-89 59z" />
    <glyph glyph-name="udieresis.terminal" horiz-adv-x="765" 
d="M123 68l106 167v271h85v-438h367v41h74v-41q0 -68 -74 -68h-452v167l-106 -167h-21q-31 0 -47.5 16.5t-16.5 43.5v446h85v-438zM98 572v109h62v-109h-62zM191 572v109h62v-109h-62z" />
    <glyph glyph-name="ugrave.terminal" horiz-adv-x="765" 
d="M123 68l106 167v271h85v-438h367v41h74v-41q0 -68 -74 -68h-452v167l-106 -167h-21q-31 0 -47.5 16.5t-16.5 43.5v446h85v-438zM219 609l-29 -46l-133 87l28 46z" />
    <glyph glyph-name="uhungarumlaut.terminal" horiz-adv-x="765" 
d="M123 68l106 167v271h85v-438h367v41h74v-41q0 -68 -74 -68h-452v167l-106 -167h-21q-31 0 -47.5 16.5t-16.5 43.5v446h85v-438zM127 553l-40 28l91 126l40 -29zM215 553l-40 28l91 125l40 -28z" />
    <glyph glyph-name="umacron.terminal" horiz-adv-x="765" 
d="M123 68l106 167v271h85v-438h367v41h74v-41q0 -68 -74 -68h-452v167l-106 -167h-21q-31 0 -47.5 16.5t-16.5 43.5v446h85v-438zM273 594h-201v52h201v-52z" />
    <glyph glyph-name="uogonek.terminal" horiz-adv-x="765" 
d="M305 -141h-69q-51 0 -36 55l26 94h3v159l-106 -167h-21q-31 0 -47.5 16.5t-16.5 43.5v446h85v-438l106 167v271h85v-438h367v41h74v-41q0 -68 -74 -68h-407l-24 -86h55v-55z" />
    <glyph glyph-name="uring.terminal" horiz-adv-x="765" 
d="M123 68l106 167v271h85v-438h367v41h74v-41q0 -68 -74 -68h-452v167l-106 -167h-21q-31 0 -47.5 16.5t-16.5 43.5v446h85v-438zM100 608q0 31 22 53t53 22t53.5 -22t22.5 -53t-22 -52.5t-54 -21.5q-31 0 -53 21.5t-22 52.5zM141 608q0 -14 10 -24.5t24 -10.5t24.5 10.5
t10.5 24.5t-10.5 24.5t-24.5 10.5t-24 -10.5t-10 -24.5z" />
    <glyph glyph-name="utilde.terminal" horiz-adv-x="765" 
d="M123 68l106 167v271h85v-438h367v41h74v-41q0 -68 -74 -68h-452v167l-106 -167h-21q-31 0 -47.5 16.5t-16.5 43.5v446h85v-438zM309 635l-48 -48q-26 -26 -63 -8l-79 40l-45 -46l-34 34l48 48q26 26 63 8l79 -40l45 46z" />
    <glyph glyph-name="yacute.terminal" horiz-adv-x="765" 
d="M229 68v99l-106 -167h-21q-28 0 -46 17.5t-18 43.5v445h85v-438l106 167v271h85v-438h367v41h74v-41q0 -68 -74 -68h-367v-98q0 -27 -16.5 -44t-47.5 -17h-77l-48 43v21zM229 -91v91l-47 -74l18 -17h29zM126 563l-28 45l133 87l29 -45z" />
    <glyph glyph-name="zacute.terminal" horiz-adv-x="723" 
d="M98 563l-28 45l133 87l29 -45zM118 68h521v41h74v-41q0 -68 -74 -68h-610v62l159 376h-159v68h243v-66z" />
    <glyph glyph-name="zcaron.terminal" horiz-adv-x="723" 
d="M236 684l26 -42l-116 -76l-115 75l27 43l89 -59zM118 68h521v41h74v-41q0 -68 -74 -68h-610v62l159 376h-159v68h243v-66z" />
    <glyph glyph-name="zdotaccent.terminal" horiz-adv-x="723" 
d="M178 572h-85v112h85v-112zM118 68h521v41h74v-41q0 -68 -74 -68h-610v62l159 376h-159v68h243v-66z" />
    <glyph glyph-name="afii10103.terminal" horiz-adv-x="595" 
d="M144 68h367v41h74v-41q0 -68 -74 -68h-424q-50 0 -50 48v458h85v-438h22zM122 568h-85v119h85v-119z" />
    <glyph glyph-name="afii10101.terminal" horiz-adv-x="719" 
d="M635 0h-539q-28 0 -44 17t-16 43v386q0 26 16 43t44 17h173v-68h-147v-148h125v-65h-125v-157h513v41h74v-41q0 -68 -74 -68z" />
    <glyph glyph-name="afii10104.terminal" horiz-adv-x="597" 
d="M513 0h-424q-50 0 -50 48v458h85v-438h389v41h74v-41q0 -68 -74 -68zM4 572v109h62v-109h-62zM97 572v109h62v-109h-62z" />
    <glyph glyph-name="afii10105.terminal" horiz-adv-x="575" 
d="M491 0h-367v-114q0 -20 -11.5 -32.5t-31.5 -12.5h-87l-48 43v21l94 147v454h84v-438h367v41h74v-41q0 -68 -74 -68zM124 568h-84v119h84v-119zM3 -74l18 -17h19v76z" />
    <glyph glyph-name="afii10109.terminal" horiz-adv-x="343" 
d="M268 -100l-82 330h-62v-230h-85v506h85v-212h68q34 70 34 167v45h89v-45q0 -117 -57 -185l93 -367h40v-68h-58q-49 0 -65 59zM144 563l-28 45l133 87l29 -45z" />
    <glyph glyph-name="afii10102.terminal" horiz-adv-x="735" 
d="M199 199l-121 50q-25 10 -34 26.5t-9 45.5v125q0 27 16.5 43.5t46.5 16.5h177v-68h-155v-118l121 -50q25 -11 34 -27t9 -45v-130h367v41h74v-41q0 -68 -74 -68h-616v68h164v131z" />
    <glyph glyph-name="afii10110.terminal" horiz-adv-x="765" 
d="M229 68v99l-106 -167h-21q-28 0 -46 17.5t-18 43.5v445h85v-438l106 167v271h85v-438h367v41h74v-41q0 -68 -74 -68h-367v-98q0 -27 -16.5 -44t-47.5 -17h-77l-48 43v21zM229 -91v91l-47 -74l18 -17h29zM286 673v-48q0 -47 -50 -47h-115q-50 0 -50 47v48h53v-46h110v46
h52z" />
    </font>
</defs>
</svg>
